<svg width="20" height="20" viewBox="0 0 20 20" fill="none" xmlns="http://www.w3.org/2000/svg">
<path d="M15 15.7166H14.3667C13.7 15.7166 13.0667 15.975 12.6 16.4416L11.175 17.85C10.525 18.4916 9.46668 18.4916 8.81668 17.85L7.39166 16.4416C6.925 15.975 6.28333 15.7166 5.625 15.7166H5C3.61667 15.7166 2.5 14.6083 2.5 13.2416V4.14163C2.5 2.77496 3.61667 1.66663 5 1.66663H15C16.3833 1.66663 17.5 2.77496 17.5 4.14163V13.2333C17.5 14.6 16.3833 15.7166 15 15.7166Z" stroke="white" stroke-width="1.5" stroke-miterlimit="10" stroke-linecap="round" stroke-linejoin="round"/>
<path d="M10.0584 7.45837C10.0251 7.45837 9.97504 7.45837 9.93337 7.45837C9.05837 7.42504 8.3667 6.71671 8.3667 5.83337C8.3667 4.93337 9.09171 4.20837 9.99171 4.20837C10.8917 4.20837 11.6167 4.94171 11.6167 5.83337C11.6251 6.71671 10.9334 7.43337 10.0584 7.45837Z" stroke="white" stroke-width="1.5" stroke-linecap="round" stroke-linejoin="round"/>
<path d="M7.70833 9.96667C6.59999 10.7083 6.59999 11.9167 7.70833 12.6583C8.96666 13.5 11.0333 13.5 12.2917 12.6583C13.4 11.9167 13.4 10.7083 12.2917 9.96667C11.0333 9.13334 8.97499 9.13334 7.70833 9.96667Z" stroke="white" stroke-width="1.5" stroke-linecap="round" stroke-linejoin="round"/>
</svg>
