<svg width="47" height="55" viewBox="0 0 47 55" fill="none" xmlns="http://www.w3.org/2000/svg">
<path d="M42.8457 37.03C43.6143 34.909 44.0046 32.6441 44.0046 30.2846V8.41564C44.0046 8.07662 43.8446 7.75747 43.5728 7.55466C43.3011 7.35185 42.9496 7.28933 42.6246 7.38579C35.9834 9.35763 25.4247 7.79271 23.314 0.765273C23.1775 0.310986 22.7596 0.000107422 22.2854 0C22.2853 0 22.2853 0 22.2852 0C21.8111 0 21.3931 0.310879 21.2565 0.764844C19.1431 7.79238 8.58321 9.35763 1.94293 7.38579C1.61798 7.28933 1.26649 7.35195 0.994717 7.55466C0.723047 7.75747 0.562988 8.07651 0.562988 8.41564V15.6049C0.562988 16.198 1.04392 16.6791 1.63721 16.6791C2.2305 16.6791 2.71143 16.198 2.71143 15.6049V9.80139C6.43284 10.6237 10.6481 10.4906 14.2571 9.40586C17.9417 8.29845 20.7121 6.31426 22.2849 3.70391C23.8568 6.31404 26.6267 8.29845 30.3108 9.40586C33.9196 10.4908 38.1348 10.6236 41.8562 9.80139V30.2846C41.8562 32.1999 41.5706 34.0419 41.006 35.7771C40.3112 35.4071 39.5691 35.1146 38.7908 34.9118C39.2512 33.4496 39.4849 31.8988 39.4849 30.2845V13.72C39.4849 13.425 39.3637 13.1431 39.1495 12.9401C38.9353 12.7372 38.6465 12.6306 38.3526 12.6473C32.3649 12.9718 26.6203 11.2971 22.9862 8.16793C22.5834 7.82117 21.9875 7.82096 21.5847 8.16771C17.9476 11.2971 12.2034 12.9721 6.21789 12.6473C5.92323 12.6316 5.63523 12.7372 5.42104 12.9401C5.20684 13.1431 5.08556 13.425 5.08556 13.72V30.2846C5.08556 32.571 5.52405 34.6352 6.425 36.5932C9.2604 42.7901 16.5528 47.111 21.7915 49.8221C21.9463 49.9022 22.1158 49.9423 22.2852 49.9423C22.4546 49.9423 22.6239 49.9022 22.7787 49.8222C24.1044 49.1365 25.3105 48.4719 26.4342 47.8089C26.6718 48.5736 26.9976 49.2999 27.399 49.9764C25.8601 50.8766 24.1743 51.7833 22.2849 52.7267C8.57236 45.8827 2.71143 39.1529 2.71143 30.2846V25.2513C2.71143 24.6582 2.2305 24.1771 1.63721 24.1771C1.04392 24.1771 0.562988 24.6582 0.562988 25.2513V30.2846C0.562988 35.7324 2.56265 40.4581 6.67604 44.732C10.0475 48.2347 14.8565 51.4623 21.8105 54.8894C21.9602 54.9632 22.1228 55 22.2853 55C22.4482 55 22.611 54.9629 22.7609 54.889C24.9764 53.7952 26.9258 52.75 28.6918 51.7088C30.5622 53.7311 33.239 55 36.2074 55C41.8479 55 46.4369 50.4202 46.4369 44.7908C46.4369 41.6877 45.0421 38.904 42.8457 37.03ZM8.37782 35.6972C7.60814 34.0248 7.2341 32.2543 7.2341 30.2846V14.8316C9.92491 14.8725 12.618 14.5383 15.0872 13.8546C17.8673 13.0851 20.2841 11.9138 22.2852 10.3677C24.2851 11.9137 26.7013 13.0852 29.4813 13.8546C31.951 14.5382 34.6441 14.872 37.3366 14.8316V30.2846C37.3366 31.823 37.106 33.2392 36.6356 34.5913C36.4936 34.5854 36.351 34.5818 36.2075 34.5818C35.0382 34.5818 33.9144 34.7791 32.8669 35.1413C32.1875 32.4282 30.4627 30.054 28.0842 28.5505C29.1511 27.2567 29.7927 25.6012 29.7927 23.7989C29.7927 19.6671 26.4249 16.3058 22.2854 16.3058C18.1459 16.3058 14.778 19.6671 14.778 23.7989C14.778 25.6005 15.4191 27.2554 16.4854 28.549C13.3418 30.5292 11.3783 33.9984 11.3783 37.7541V40.0032C10.1343 38.6855 9.08874 37.2509 8.37782 35.6972ZM16.9265 23.7989C16.9265 20.8518 19.3305 18.4542 22.2854 18.4542C25.2403 18.4542 27.6443 20.8518 27.6443 23.7989C27.6443 26.7442 25.2403 29.1404 22.2854 29.1404C19.3305 29.1404 16.9265 26.7442 16.9265 23.7989ZM22.2852 47.6567C19.54 46.2166 16.2911 44.3393 13.5268 42.0183V37.7541C13.5268 34.5342 15.3287 31.575 18.1647 30.0554C19.3485 30.8341 20.7644 31.289 22.2853 31.289C23.8061 31.289 25.2217 30.8343 26.4054 30.0557C28.7208 31.3006 30.3715 33.5291 30.8755 36.0817C27.9403 37.8781 25.9779 41.11 25.9779 44.7909C25.9779 45.0499 25.9878 45.3067 26.0069 45.5608C24.8693 46.2527 23.6432 46.9435 22.2852 47.6567ZM36.2074 52.8516C31.7515 52.8516 28.1264 49.2355 28.1264 44.7908C28.1264 40.3462 31.7515 36.7302 36.2074 36.7302C40.6633 36.7302 44.2884 40.3462 44.2884 44.7908C44.2884 49.2355 40.6634 52.8516 36.2074 52.8516Z" fill="url(#paint0_linear_607_178)"/>
<path d="M40.5419 41.1335C40.0876 40.7518 39.4099 40.811 39.0285 41.2654L34.9615 46.1089L33.2579 44.6656C32.8053 44.2823 32.1273 44.3381 31.7439 44.7909C31.3604 45.2436 31.4165 45.9213 31.8691 46.3049L34.3959 48.4456C34.5907 48.6106 34.8369 48.7002 35.0902 48.7002C35.1205 48.7002 35.1508 48.6989 35.1812 48.6963C35.4658 48.6721 35.7292 48.5356 35.9129 48.3168L40.6736 42.6471C41.0554 42.1926 40.9963 41.5151 40.5419 41.1335Z" fill="url(#paint1_linear_607_178)"/>
<path d="M1.63721 21.5024C2.2305 21.5024 2.71143 21.0213 2.71143 20.4282V20.4251C2.71143 19.832 2.2305 19.3525 1.63721 19.3525C1.04392 19.3525 0.562988 19.835 0.562988 20.4283C0.562988 21.0216 1.04392 21.5024 1.63721 21.5024Z" fill="url(#paint2_linear_607_178)"/>
<defs>
<linearGradient id="paint0_linear_607_178" x1="0.56299" y1="55" x2="53.8067" y2="8.42505" gradientUnits="userSpaceOnUse">
<stop stop-color="#3A67F6"/>
<stop offset="1" stop-color="#71E6FC"/>
</linearGradient>
<linearGradient id="paint1_linear_607_178" x1="31.4893" y1="48.7002" x2="38.9185" y2="39.2963" gradientUnits="userSpaceOnUse">
<stop stop-color="#3A67F6"/>
<stop offset="1" stop-color="#71E6FC"/>
</linearGradient>
<linearGradient id="paint2_linear_607_178" x1="0.562988" y1="21.5024" x2="2.66052" y2="19.304" gradientUnits="userSpaceOnUse">
<stop stop-color="#3A67F6"/>
<stop offset="1" stop-color="#71E6FC"/>
</linearGradient>
</defs>
</svg>
