<svg width="70" height="70" viewBox="0 0 70 70" fill="none" xmlns="http://www.w3.org/2000/svg">
<path d="M42.0001 46.6667H30.1352C29.6407 45.2676 28.3174 44.3328 26.8334 44.3333H24.5001V31.5C24.5001 30.8557 25.0225 30.3333 25.6667 30.3333H41.5216L52.6283 41.44C53.0914 41.8365 53.7813 41.8097 54.2125 41.3791C54.6432 40.9478 54.6699 40.258 54.2734 39.7948L44.8119 30.3333H56.0001C56.6444 30.3333 57.1668 30.8557 57.1668 31.5V42.6768C57.1668 43.321 57.6891 43.8434 58.3334 43.8434C58.9777 43.8434 59.5001 43.321 59.5001 42.6768V31.5C59.5001 29.5671 57.9329 28 56.0001 28H25.6667C23.7339 28 22.1667 29.5671 22.1667 31.5V44.3333H8.16675C6.23389 44.3333 4.66675 45.9005 4.66675 47.8333V60.6667H2.33341C1.68913 60.6667 1.16675 61.189 1.16675 61.8333V63C1.16675 65.5771 3.25627 67.6667 5.83342 67.6667H29.1667C31.7439 67.6667 33.8334 65.5771 33.8334 63V61.8333C33.8334 61.189 33.311 60.6667 32.6667 60.6667H30.3334V53.6667H35.0001L32.9003 56.4666C32.6348 56.8203 32.5921 57.2931 32.7898 57.6885C32.9875 58.0838 33.3914 58.3333 33.8334 58.3333H40.8334C41.4777 58.3333 42.0001 57.811 42.0001 57.1667C42.0001 56.5224 41.4777 56 40.8334 56H36.1668L37.9168 53.6667H40.8334C41.4777 53.6667 42.0001 53.1443 42.0001 52.5C42.0001 51.8557 41.4777 51.3333 40.8334 51.3333H30.3334V49H42.0001C42.6444 49 43.1668 48.4776 43.1668 47.8333C43.1668 47.189 42.6444 46.6667 42.0001 46.6667ZM29.1667 65.3333H5.83342C4.54484 65.3333 3.50008 64.2886 3.50008 63H31.5001C31.5001 64.2886 30.4553 65.3333 29.1667 65.3333ZM7.00008 60.6667V47.8333C7.00008 47.189 7.52246 46.6667 8.16675 46.6667H17.0216L23.6718 53.3283C23.8905 53.5493 24.189 53.6735 24.5001 53.6735C24.8111 53.6735 25.1096 53.5493 25.3284 53.3283C25.5494 53.1095 25.6736 52.811 25.6736 52.5C25.6736 52.189 25.5494 51.8905 25.3284 51.6717L20.3119 46.6667H26.8334C27.4777 46.6667 28.0001 47.189 28.0001 47.8333V60.6667H7.00008Z" fill="url(#paint0_linear_605_63)"/>
<path d="M40.8334 60.6667H37.3334C36.6891 60.6667 36.1667 61.1891 36.1667 61.8333C36.1667 62.4776 36.6891 63 37.3334 63H40.8334C41.4777 63 42.0001 62.4776 42.0001 61.8333C42.0001 61.1891 41.4777 60.6667 40.8334 60.6667Z" fill="url(#paint1_linear_605_63)"/>
<path d="M66.4999 54.8334H59.4999V50.1667C59.4999 48.2338 57.9328 46.6667 55.9999 46.6667H47.8333C45.9004 46.6667 44.3333 48.2338 44.3333 50.1667V64.1667C44.3333 66.0996 45.9004 67.6667 47.8333 67.6667H55.9999C56.397 67.6673 56.7918 67.6 57.1666 67.4684V68.8334C57.1666 69.4776 57.689 70 58.3333 70C58.9775 70 59.4999 69.4776 59.4999 68.8334V57.6452L66.4999 64.6452V68.8334C66.4999 69.4776 67.0223 70 67.6666 70C68.3109 70 68.8333 69.4776 68.8333 68.8334V57.1667C68.8333 55.8781 67.7885 54.8334 66.4999 54.8334ZM57.1666 50.1667V60.6667H46.6666V50.1667C46.6643 49.9747 46.7127 49.7856 46.8067 49.6181L52.8383 55.6616C53.057 55.8827 53.3556 56.0069 53.6666 56.0069C53.9776 56.0069 54.2761 55.8827 54.4949 55.6616C54.7159 55.4429 54.8401 55.1444 54.8401 54.8334C54.8401 54.5223 54.7159 54.2238 54.4949 54.0051L49.4784 49H55.9999C56.6442 49 57.1666 49.5224 57.1666 50.1667ZM55.9999 65.3334H47.8333C47.189 65.3334 46.6666 64.811 46.6666 64.1667V63H57.1666V64.1667C57.1666 64.811 56.6442 65.3334 55.9999 65.3334ZM62.3118 57.1667H66.4999V61.3548L62.3118 57.1667Z" fill="url(#paint2_linear_605_63)"/>
<path d="M25.7947 12.8333C25.7144 13.1324 25.7566 13.4514 25.9115 13.7197L28.2449 17.7569C28.397 18.0247 28.6482 18.2218 28.945 18.3049C29.2446 18.379 29.5613 18.3374 29.8314 18.1882L31.4999 17.2197C31.869 17.4709 32.2593 17.6897 32.6666 17.8731V19.8333C32.6666 20.4776 33.1889 21 33.8332 21H38.4999C39.1442 21 39.6666 20.4776 39.6666 19.8333V17.8731C40.0739 17.6897 40.4641 17.4709 40.8332 17.2197L42.5365 18.2001C42.8071 18.3494 43.1233 18.3909 43.4235 18.3169C43.7197 18.2337 43.9715 18.0366 44.123 17.7683L46.4564 13.7317C46.6119 13.4634 46.6535 13.1444 46.5731 12.8447C46.4957 12.5462 46.3025 12.2904 46.0365 12.1332L44.3332 11.1534C44.3332 10.9318 44.3332 10.7216 44.3332 10.5C44.3332 10.2784 44.3332 10.0682 44.3332 9.8466L46.0251 8.86678C46.2798 8.70784 46.4638 8.45719 46.5384 8.16667C46.6187 7.86759 46.5766 7.54858 46.4216 7.28027L44.0883 3.24308C43.7681 2.68766 43.0595 2.49512 42.5018 2.81185L40.8332 3.78027C40.4641 3.52905 40.0739 3.3103 39.6666 3.12687V1.16667C39.6666 0.522379 39.1442 0 38.4999 0H33.8332C33.1889 0 32.6666 0.522379 32.6666 1.16667V3.12687C32.2593 3.3103 31.869 3.52905 31.4999 3.78027L29.8314 2.79989C29.2737 2.48315 28.565 2.67627 28.2449 3.23169L25.9115 7.26831C25.7566 7.53662 25.7144 7.85563 25.7947 8.15527C25.8728 8.45378 26.0653 8.70955 26.3314 8.86678L28.0233 9.8466V10.5V11.1534L26.3314 12.1332C26.0682 12.2876 25.8751 12.5388 25.7947 12.8333ZM30.4614 11.5499C30.3218 10.8492 30.3218 10.1274 30.4614 9.42676C30.5634 8.92147 30.3213 8.40934 29.8667 8.16667L28.5132 7.38509L29.6798 5.35482L31.0333 6.14836C31.4623 6.39445 32.0001 6.34318 32.3749 6.02018C32.9206 5.55819 33.545 5.19816 34.2183 4.95833C34.6689 4.80111 34.9788 4.38525 34.9999 3.90845V2.33333H37.3332V3.90845C37.3349 4.40234 37.6483 4.84212 38.1148 5.00505C38.7881 5.24487 39.4125 5.6049 39.9582 6.06689C40.3331 6.38932 40.8708 6.44116 41.2998 6.19507L42.6533 5.40153L43.82 7.4318L42.4664 8.16667C42.0346 8.41162 41.8056 8.90324 41.8951 9.39144C42.0346 10.0927 42.0346 10.8139 41.8951 11.5151C41.7601 12.0335 41.9959 12.5776 42.4664 12.8333L43.82 13.6149L42.6533 15.6452L41.2998 14.8516C40.8708 14.6055 40.3331 14.6568 39.9582 14.9798C39.4125 15.4418 38.7881 15.8018 38.1148 16.0417C37.6483 16.2046 37.3349 16.6444 37.3332 17.1383V18.6667H34.9999V17.0916C34.9982 16.5977 34.6849 16.1579 34.2183 15.995C33.545 15.7551 32.9206 15.3951 32.3749 14.9331C32.0001 14.6107 31.4623 14.5588 31.0333 14.8049L29.6798 15.5985L28.5132 13.5682L29.8667 12.8333C30.3173 12.5827 30.5497 12.0654 30.438 11.5618L30.4614 11.5499Z" fill="url(#paint3_linear_605_63)"/>
<path d="M36.1667 14C38.0996 14 39.6667 12.4329 39.6667 10.5C39.6667 8.56714 38.0996 7 36.1667 7C34.2339 7 32.6667 8.56714 32.6667 10.5C32.6667 12.4329 34.2339 14 36.1667 14ZM36.1667 9.33333C36.811 9.33333 37.3334 9.85571 37.3334 10.5C37.3334 11.1443 36.811 11.6667 36.1667 11.6667C35.5225 11.6667 35.0001 11.1443 35.0001 10.5C35.0001 9.85571 35.5225 9.33333 36.1667 9.33333Z" fill="url(#paint4_linear_605_63)"/>
<path d="M13.8017 24.6982C14.1116 24.7 14.4096 24.5786 14.63 24.3599C14.8511 24.1411 14.9752 23.8426 14.9752 23.5316C14.9752 23.2205 14.8511 22.9226 14.63 22.7033C13.5357 21.6061 12.0495 20.9897 10.5 20.9897C8.9505 20.9897 7.46425 21.6061 6.36993 22.7033C5.9125 23.1607 5.9125 23.9024 6.36993 24.3599C6.82737 24.8173 7.56907 24.8173 8.02651 24.3599C9.41307 23.0445 11.5869 23.0445 12.9735 24.3599C13.1933 24.5786 13.4913 24.7 13.8017 24.6982Z" fill="url(#paint5_linear_605_63)"/>
<path d="M4.72475 21.0581C7.91428 17.8686 13.0857 17.8686 16.2752 21.0581C16.7298 21.5104 17.4647 21.5104 17.9198 21.0581C18.3721 20.6035 18.3721 19.8687 17.9198 19.4135C13.8205 15.3188 7.17942 15.3188 3.08014 19.4135C2.68365 19.8761 2.71043 20.5665 3.14109 20.9972C3.57232 21.4278 4.26218 21.4546 4.72475 21.0581Z" fill="url(#paint6_linear_605_63)"/>
<path d="M11.6666 26.8334C11.6666 27.4776 11.1442 28 10.4999 28C9.85563 28 9.33325 27.4776 9.33325 26.8334C9.33325 26.1891 9.85563 25.6667 10.4999 25.6667C11.1442 25.6667 11.6666 26.1891 11.6666 26.8334Z" fill="url(#paint7_linear_605_63)"/>
<path d="M10.4999 38.5C11.1442 38.5 11.6666 37.9776 11.6666 37.3333V31.5C11.6666 30.8557 11.1442 30.3333 10.4999 30.3333C9.85563 30.3333 9.33325 30.8557 9.33325 31.5V37.3333C9.33325 37.9776 9.85563 38.5 10.4999 38.5Z" fill="url(#paint8_linear_605_63)"/>
<path d="M48.9999 11.6666H59.4999C61.4328 11.6666 62.9999 13.2338 62.9999 15.1666V50.1666C62.9999 50.8109 63.5223 51.3333 64.1666 51.3333C64.8109 51.3333 65.3333 50.8109 65.3333 50.1666V15.1666C65.3333 11.9452 62.7214 9.33331 59.4999 9.33331H48.9999C48.3556 9.33331 47.8333 9.85569 47.8333 10.5C47.8333 11.1443 48.3556 11.6666 48.9999 11.6666Z" fill="url(#paint9_linear_605_63)"/>
<path d="M48.4746 18.5385L49.5251 19.0632C49.921 19.2631 50.1694 19.6699 50.1665 20.1137V24.5C50.1665 25.1443 50.6889 25.6667 51.3332 25.6667C51.9775 25.6667 52.4999 25.1443 52.4999 24.5V20.1137C52.5027 18.7846 51.7525 17.5684 50.563 16.9748L49.5251 16.4616C49.1503 16.236 48.6809 16.2394 48.3089 16.4695C47.9375 16.6997 47.7255 17.1189 47.7603 17.5547C47.7956 17.9905 48.0713 18.3705 48.4746 18.5385Z" fill="url(#paint10_linear_605_63)"/>
<path d="M10.4999 12.8334C11.1442 12.8334 11.6666 12.311 11.6666 11.6667V8.16669C11.6666 7.5224 12.189 7.00002 12.8333 7.00002H20.9999C21.6442 7.00002 22.1666 6.47764 22.1666 5.83335C22.1666 5.18907 21.6442 4.66669 20.9999 4.66669H12.8333C10.9004 4.66669 9.33325 6.23383 9.33325 8.16669V11.6667C9.33325 12.311 9.85563 12.8334 10.4999 12.8334Z" fill="url(#paint11_linear_605_63)"/>
<defs>
<linearGradient id="paint0_linear_605_63" x1="1.16675" y1="67.6667" x2="36.5385" y2="13.1123" gradientUnits="userSpaceOnUse">
<stop stop-color="#3A67F6"/>
<stop offset="1" stop-color="#71E6FC"/>
</linearGradient>
<linearGradient id="paint1_linear_605_63" x1="36.1667" y1="63" x2="37.6844" y2="59.0207" gradientUnits="userSpaceOnUse">
<stop stop-color="#3A67F6"/>
<stop offset="1" stop-color="#71E6FC"/>
</linearGradient>
<linearGradient id="paint2_linear_605_63" x1="44.3333" y1="70" x2="67.0185" y2="45.0187" gradientUnits="userSpaceOnUse">
<stop stop-color="#3A67F6"/>
<stop offset="1" stop-color="#71E6FC"/>
</linearGradient>
<linearGradient id="paint3_linear_605_63" x1="25.7549" y1="21" x2="46.2495" y2="-0.349086" gradientUnits="userSpaceOnUse">
<stop stop-color="#3A67F6"/>
<stop offset="1" stop-color="#71E6FC"/>
</linearGradient>
<linearGradient id="paint4_linear_605_63" x1="32.6667" y1="14" x2="39.4962" y2="6.83742" gradientUnits="userSpaceOnUse">
<stop stop-color="#3A67F6"/>
<stop offset="1" stop-color="#71E6FC"/>
</linearGradient>
<linearGradient id="paint5_linear_605_63" x1="6.02686" y1="24.7029" x2="8.50838" y2="18.4311" gradientUnits="userSpaceOnUse">
<stop stop-color="#3A67F6"/>
<stop offset="1" stop-color="#71E6FC"/>
</linearGradient>
<linearGradient id="paint6_linear_605_63" x1="2.79956" y1="21.3974" x2="5.60547" y2="12.3975" gradientUnits="userSpaceOnUse">
<stop stop-color="#3A67F6"/>
<stop offset="1" stop-color="#71E6FC"/>
</linearGradient>
<linearGradient id="paint7_linear_605_63" x1="9.33325" y1="28" x2="11.6097" y2="25.6125" gradientUnits="userSpaceOnUse">
<stop stop-color="#3A67F6"/>
<stop offset="1" stop-color="#71E6FC"/>
</linearGradient>
<linearGradient id="paint8_linear_605_63" x1="9.33325" y1="38.5" x2="13.7198" y2="37.1855" gradientUnits="userSpaceOnUse">
<stop stop-color="#3A67F6"/>
<stop offset="1" stop-color="#71E6FC"/>
</linearGradient>
<linearGradient id="paint9_linear_605_63" x1="47.8333" y1="51.3333" x2="77.938" y2="38.1779" gradientUnits="userSpaceOnUse">
<stop stop-color="#3A67F6"/>
<stop offset="1" stop-color="#71E6FC"/>
</linearGradient>
<linearGradient id="paint10_linear_605_63" x1="47.7566" y1="25.6667" x2="55.3384" y2="21.6423" gradientUnits="userSpaceOnUse">
<stop stop-color="#3A67F6"/>
<stop offset="1" stop-color="#71E6FC"/>
</linearGradient>
<linearGradient id="paint11_linear_605_63" x1="9.33325" y1="12.8334" x2="16.4085" y2="1.17285" gradientUnits="userSpaceOnUse">
<stop stop-color="#3A67F6"/>
<stop offset="1" stop-color="#71E6FC"/>
</linearGradient>
</defs>
</svg>
