<svg width="16" height="16" viewBox="0 0 16 16" fill="none" xmlns="http://www.w3.org/2000/svg">
<path d="M8.99997 14.7915V3.62147L13.88 8.50147C14.27 8.89147 14.91 8.89147 15.3 8.50147C15.69 8.11147 15.69 7.48147 15.3 7.09147L8.70997 0.50147C8.52314 0.314217 8.26949 0.208984 8.00497 0.208984C7.74045 0.208984 7.4868 0.314217 7.29997 0.50147L0.699971 7.08147C0.309971 7.47147 0.309971 8.10147 0.699971 8.49147C1.08997 8.88147 1.71997 8.88147 2.10997 8.49147L6.99997 3.62147V14.7915C6.99997 15.3415 7.44997 15.7915 7.99997 15.7915C8.54997 15.7915 8.99997 15.3415 8.99997 14.7915Z" fill="white"/>
</svg>
