<svg width="340" height="617" viewBox="0 0 340 617" fill="none" xmlns="http://www.w3.org/2000/svg">
<circle cx="170" cy="170" r="153.099" fill="white" fill-opacity="0.07"/>
<circle cx="170" cy="170" r="169.75" stroke="white" stroke-opacity="0.25" stroke-width="0.5"/>
<path fill-rule="evenodd" clip-rule="evenodd" d="M170.497 303.216C243.796 303.216 303.216 243.796 303.216 170.497C303.216 97.1983 243.796 37.7778 170.497 37.7778C97.1983 37.7778 37.7778 97.1983 37.7778 170.497C37.7778 243.796 97.1983 303.216 170.497 303.216ZM170.497 257.568C218.585 257.568 257.568 218.585 257.568 170.497C257.568 122.409 218.585 83.4265 170.497 83.4265C122.409 83.4265 83.4265 122.409 83.4265 170.497C83.4265 218.585 122.409 257.568 170.497 257.568Z" fill="#00C9EE"/>
<path fill-rule="evenodd" clip-rule="evenodd" d="M170.994 83.428C218.853 83.6955 257.568 122.575 257.568 170.497C257.568 180.604 255.846 190.308 252.679 199.333L296.145 213.354C300.729 199.909 303.216 185.494 303.216 170.497C303.216 97.3641 244.064 38.0467 170.994 37.7788V83.428Z" fill="#AE31D9"/>
<path fill-rule="evenodd" clip-rule="evenodd" d="M272.134 85.3438L237.603 115.216C249.973 130.252 257.4 149.507 257.4 170.497C257.4 180.604 255.678 190.308 252.512 199.333L295.977 213.354C300.561 199.909 303.049 185.494 303.049 170.497C303.049 138.087 291.431 108.39 272.134 85.3438Z" fill="#F2994A"/>
<path fill-rule="evenodd" clip-rule="evenodd" d="M290.443 113.614L249.46 133.758C243.36 120.669 234.101 109.349 222.664 100.778L249.076 63.5298C266.682 76.4848 280.973 93.6819 290.443 113.614Z" fill="#EB5757"/>
<path d="M98.9723 383.454V384.786H95.5523V396H93.9143V384.786H90.4763V383.454H98.9723ZM105.291 396.162C104.367 396.162 103.527 395.952 102.771 395.532C102.027 395.112 101.439 394.518 101.007 393.75C100.587 392.97 100.377 392.07 100.377 391.05C100.377 390.042 100.593 389.154 101.025 388.386C101.469 387.606 102.069 387.012 102.825 386.604C103.581 386.184 104.427 385.974 105.363 385.974C106.299 385.974 107.145 386.184 107.901 386.604C108.657 387.012 109.251 387.6 109.683 388.368C110.127 389.136 110.349 390.03 110.349 391.05C110.349 392.07 110.121 392.97 109.665 393.75C109.221 394.518 108.615 395.112 107.847 395.532C107.079 395.952 106.227 396.162 105.291 396.162ZM105.291 394.722C105.879 394.722 106.431 394.584 106.947 394.308C107.463 394.032 107.877 393.618 108.189 393.066C108.513 392.514 108.675 391.842 108.675 391.05C108.675 390.258 108.519 389.586 108.207 389.034C107.895 388.482 107.487 388.074 106.983 387.81C106.479 387.534 105.933 387.396 105.345 387.396C104.745 387.396 104.193 387.534 103.689 387.81C103.197 388.074 102.801 388.482 102.501 389.034C102.201 389.586 102.051 390.258 102.051 391.05C102.051 391.854 102.195 392.532 102.483 393.084C102.783 393.636 103.179 394.05 103.671 394.326C104.163 394.59 104.703 394.722 105.291 394.722ZM118.01 396L114.14 391.644V396H112.502V382.68H114.14V390.51L117.938 386.136H120.224L115.58 391.05L120.242 396H118.01ZM130.766 390.69C130.766 391.002 130.748 391.332 130.712 391.68H122.828C122.888 392.652 123.218 393.414 123.818 393.966C124.43 394.506 125.168 394.776 126.032 394.776C126.74 394.776 127.328 394.614 127.796 394.29C128.276 393.954 128.612 393.51 128.804 392.958H130.568C130.304 393.906 129.776 394.68 128.984 395.28C128.192 395.868 127.208 396.162 126.032 396.162C125.096 396.162 124.256 395.952 123.512 395.532C122.78 395.112 122.204 394.518 121.784 393.75C121.364 392.97 121.154 392.07 121.154 391.05C121.154 390.03 121.358 389.136 121.766 388.368C122.174 387.6 122.744 387.012 123.476 386.604C124.22 386.184 125.072 385.974 126.032 385.974C126.968 385.974 127.796 386.178 128.516 386.586C129.236 386.994 129.788 387.558 130.172 388.278C130.568 388.986 130.766 389.79 130.766 390.69ZM129.074 390.348C129.074 389.724 128.936 389.19 128.66 388.746C128.384 388.29 128.006 387.948 127.526 387.72C127.058 387.48 126.536 387.36 125.96 387.36C125.132 387.36 124.424 387.624 123.836 388.152C123.26 388.68 122.93 389.412 122.846 390.348H129.074ZM137.734 385.956C138.934 385.956 139.906 386.322 140.65 387.054C141.394 387.774 141.766 388.818 141.766 390.186V396H140.146V390.42C140.146 389.436 139.9 388.686 139.408 388.17C138.916 387.642 138.244 387.378 137.392 387.378C136.528 387.378 135.838 387.648 135.322 388.188C134.818 388.728 134.566 389.514 134.566 390.546V396H132.928V386.136H134.566V387.54C134.89 387.036 135.328 386.646 135.88 386.37C136.444 386.094 137.062 385.956 137.734 385.956ZM153.218 396.126C152.39 396.126 151.646 395.982 150.986 395.694C150.338 395.394 149.828 394.986 149.456 394.47C149.084 393.942 148.892 393.336 148.88 392.652H150.626C150.686 393.24 150.926 393.738 151.346 394.146C151.778 394.542 152.402 394.74 153.218 394.74C153.998 394.74 154.61 394.548 155.054 394.164C155.51 393.768 155.738 393.264 155.738 392.652C155.738 392.172 155.606 391.782 155.342 391.482C155.078 391.182 154.748 390.954 154.352 390.798C153.956 390.642 153.422 390.474 152.75 390.294C151.922 390.078 151.256 389.862 150.752 389.646C150.26 389.43 149.834 389.094 149.474 388.638C149.126 388.17 148.952 387.546 148.952 386.766C148.952 386.082 149.126 385.476 149.474 384.948C149.822 384.42 150.308 384.012 150.932 383.724C151.568 383.436 152.294 383.292 153.11 383.292C154.286 383.292 155.246 383.586 155.99 384.174C156.746 384.762 157.172 385.542 157.268 386.514H155.468C155.408 386.034 155.156 385.614 154.712 385.254C154.268 384.882 153.68 384.696 152.948 384.696C152.264 384.696 151.706 384.876 151.274 385.236C150.842 385.584 150.626 386.076 150.626 386.712C150.626 387.168 150.752 387.54 151.004 387.828C151.268 388.116 151.586 388.338 151.958 388.494C152.342 388.638 152.876 388.806 153.56 388.998C154.388 389.226 155.054 389.454 155.558 389.682C156.062 389.898 156.494 390.24 156.854 390.708C157.214 391.164 157.394 391.788 157.394 392.58C157.394 393.192 157.232 393.768 156.908 394.308C156.584 394.848 156.104 395.286 155.468 395.622C154.832 395.958 154.082 396.126 153.218 396.126ZM159.193 391.032C159.193 390.024 159.397 389.142 159.805 388.386C160.213 387.618 160.771 387.024 161.479 386.604C162.199 386.184 162.997 385.974 163.873 385.974C164.737 385.974 165.487 386.16 166.123 386.532C166.759 386.904 167.233 387.372 167.545 387.936V386.136H169.201V396H167.545V394.164C167.221 394.74 166.735 395.22 166.087 395.604C165.451 395.976 164.707 396.162 163.855 396.162C162.979 396.162 162.187 395.946 161.479 395.514C160.771 395.082 160.213 394.476 159.805 393.696C159.397 392.916 159.193 392.028 159.193 391.032ZM167.545 391.05C167.545 390.306 167.395 389.658 167.095 389.106C166.795 388.554 166.387 388.134 165.871 387.846C165.367 387.546 164.809 387.396 164.197 387.396C163.585 387.396 163.027 387.54 162.523 387.828C162.019 388.116 161.617 388.536 161.317 389.088C161.017 389.64 160.867 390.288 160.867 391.032C160.867 391.788 161.017 392.448 161.317 393.012C161.617 393.564 162.019 393.99 162.523 394.29C163.027 394.578 163.585 394.722 164.197 394.722C164.809 394.722 165.367 394.578 165.871 394.29C166.387 393.99 166.795 393.564 167.095 393.012C167.395 392.448 167.545 391.794 167.545 391.05ZM173.607 382.68V396H171.969V382.68H173.607ZM185.399 390.69C185.399 391.002 185.381 391.332 185.345 391.68H177.461C177.521 392.652 177.851 393.414 178.451 393.966C179.063 394.506 179.801 394.776 180.665 394.776C181.373 394.776 181.961 394.614 182.429 394.29C182.909 393.954 183.245 393.51 183.437 392.958H185.201C184.937 393.906 184.409 394.68 183.617 395.28C182.825 395.868 181.841 396.162 180.665 396.162C179.729 396.162 178.889 395.952 178.145 395.532C177.413 395.112 176.837 394.518 176.417 393.75C175.997 392.97 175.787 392.07 175.787 391.05C175.787 390.03 175.991 389.136 176.399 388.368C176.807 387.6 177.377 387.012 178.109 386.604C178.853 386.184 179.705 385.974 180.665 385.974C181.601 385.974 182.429 386.178 183.149 386.586C183.869 386.994 184.421 387.558 184.805 388.278C185.201 388.986 185.399 389.79 185.399 390.69ZM183.707 390.348C183.707 389.724 183.569 389.19 183.293 388.746C183.017 388.29 182.639 387.948 182.159 387.72C181.691 387.48 181.169 387.36 180.593 387.36C179.765 387.36 179.057 387.624 178.469 388.152C177.893 388.68 177.563 389.412 177.479 390.348H183.707ZM97.8563 451L94.8683 445.87H92.8883V451H91.2503V438.454H95.3003C96.2483 438.454 97.0463 438.616 97.6943 438.94C98.3543 439.264 98.8463 439.702 99.1703 440.254C99.4943 440.806 99.6563 441.436 99.6563 442.144C99.6563 443.008 99.4043 443.77 98.9003 444.43C98.4083 445.09 97.6643 445.528 96.6683 445.744L99.8183 451H97.8563ZM92.8883 444.556H95.3003C96.1883 444.556 96.8543 444.34 97.2983 443.908C97.7423 443.464 97.9643 442.876 97.9643 442.144C97.9643 441.4 97.7423 440.824 97.2983 440.416C96.8663 440.008 96.2003 439.804 95.3003 439.804H92.8883V444.556ZM111.201 445.69C111.201 446.002 111.183 446.332 111.147 446.68H103.263C103.323 447.652 103.653 448.414 104.253 448.966C104.865 449.506 105.603 449.776 106.467 449.776C107.175 449.776 107.763 449.614 108.231 449.29C108.711 448.954 109.047 448.51 109.239 447.958H111.003C110.739 448.906 110.211 449.68 109.419 450.28C108.627 450.868 107.643 451.162 106.467 451.162C105.531 451.162 104.691 450.952 103.947 450.532C103.215 450.112 102.639 449.518 102.219 448.75C101.799 447.97 101.589 447.07 101.589 446.05C101.589 445.03 101.793 444.136 102.201 443.368C102.609 442.6 103.179 442.012 103.911 441.604C104.655 441.184 105.507 440.974 106.467 440.974C107.403 440.974 108.231 441.178 108.951 441.586C109.671 441.994 110.223 442.558 110.607 443.278C111.003 443.986 111.201 444.79 111.201 445.69ZM109.509 445.348C109.509 444.724 109.371 444.19 109.095 443.746C108.819 443.29 108.441 442.948 107.961 442.72C107.493 442.48 106.971 442.36 106.395 442.36C105.567 442.36 104.859 442.624 104.271 443.152C103.695 443.68 103.365 444.412 103.281 445.348H109.509ZM116.856 451.162C116.1 451.162 115.422 451.036 114.822 450.784C114.222 450.52 113.748 450.16 113.4 449.704C113.052 449.236 112.86 448.702 112.824 448.102H114.516C114.564 448.594 114.792 448.996 115.2 449.308C115.62 449.62 116.166 449.776 116.838 449.776C117.462 449.776 117.954 449.638 118.314 449.362C118.674 449.086 118.854 448.738 118.854 448.318C118.854 447.886 118.662 447.568 118.278 447.364C117.894 447.148 117.3 446.938 116.496 446.734C115.764 446.542 115.164 446.35 114.696 446.158C114.24 445.954 113.844 445.66 113.508 445.276C113.184 444.88 113.022 444.364 113.022 443.728C113.022 443.224 113.172 442.762 113.472 442.342C113.772 441.922 114.198 441.592 114.75 441.352C115.302 441.1 115.932 440.974 116.64 440.974C117.732 440.974 118.614 441.25 119.286 441.802C119.958 442.354 120.318 443.11 120.366 444.07H118.728C118.692 443.554 118.482 443.14 118.098 442.828C117.726 442.516 117.222 442.36 116.586 442.36C115.998 442.36 115.53 442.486 115.182 442.738C114.834 442.99 114.66 443.32 114.66 443.728C114.66 444.052 114.762 444.322 114.966 444.538C115.182 444.742 115.446 444.91 115.758 445.042C116.082 445.162 116.526 445.3 117.09 445.456C117.798 445.648 118.374 445.84 118.818 446.032C119.262 446.212 119.64 446.488 119.952 446.86C120.276 447.232 120.444 447.718 120.456 448.318C120.456 448.858 120.306 449.344 120.006 449.776C119.706 450.208 119.28 450.55 118.728 450.802C118.188 451.042 117.564 451.162 116.856 451.162ZM131.768 445.69C131.768 446.002 131.75 446.332 131.714 446.68H123.83C123.89 447.652 124.22 448.414 124.82 448.966C125.432 449.506 126.17 449.776 127.034 449.776C127.742 449.776 128.33 449.614 128.798 449.29C129.278 448.954 129.614 448.51 129.806 447.958H131.57C131.306 448.906 130.778 449.68 129.986 450.28C129.194 450.868 128.21 451.162 127.034 451.162C126.098 451.162 125.258 450.952 124.514 450.532C123.782 450.112 123.206 449.518 122.786 448.75C122.366 447.97 122.156 447.07 122.156 446.05C122.156 445.03 122.36 444.136 122.768 443.368C123.176 442.6 123.746 442.012 124.478 441.604C125.222 441.184 126.074 440.974 127.034 440.974C127.97 440.974 128.798 441.178 129.518 441.586C130.238 441.994 130.79 442.558 131.174 443.278C131.57 443.986 131.768 444.79 131.768 445.69ZM130.076 445.348C130.076 444.724 129.938 444.19 129.662 443.746C129.386 443.29 129.008 442.948 128.528 442.72C128.06 442.48 127.538 442.36 126.962 442.36C126.134 442.36 125.426 442.624 124.838 443.152C124.262 443.68 123.932 444.412 123.848 445.348H130.076ZM135.568 442.738C135.856 442.174 136.264 441.736 136.792 441.424C137.332 441.112 137.986 440.956 138.754 440.956V442.648H138.322C136.486 442.648 135.568 443.644 135.568 445.636V451H133.93V441.136H135.568V442.738ZM144.317 449.488L147.377 441.136H149.123L145.253 451H143.345L139.475 441.136H141.239L144.317 449.488ZM159.735 445.69C159.735 446.002 159.717 446.332 159.681 446.68H151.797C151.857 447.652 152.187 448.414 152.787 448.966C153.399 449.506 154.137 449.776 155.001 449.776C155.709 449.776 156.297 449.614 156.765 449.29C157.245 448.954 157.581 448.51 157.773 447.958H159.537C159.273 448.906 158.745 449.68 157.953 450.28C157.161 450.868 156.177 451.162 155.001 451.162C154.065 451.162 153.225 450.952 152.481 450.532C151.749 450.112 151.173 449.518 150.753 448.75C150.333 447.97 150.123 447.07 150.123 446.05C150.123 445.03 150.327 444.136 150.735 443.368C151.143 442.6 151.713 442.012 152.445 441.604C153.189 441.184 154.041 440.974 155.001 440.974C155.937 440.974 156.765 441.178 157.485 441.586C158.205 441.994 158.757 442.558 159.141 443.278C159.537 443.986 159.735 444.79 159.735 445.69ZM158.043 445.348C158.043 444.724 157.905 444.19 157.629 443.746C157.353 443.29 156.975 442.948 156.495 442.72C156.027 442.48 155.505 442.36 154.929 442.36C154.101 442.36 153.393 442.624 152.805 443.152C152.229 443.68 151.899 444.412 151.815 445.348H158.043ZM90.6383 499.718C90.6383 498.494 90.9143 497.396 91.4663 496.424C92.0183 495.44 92.7683 494.672 93.7163 494.12C94.6763 493.568 95.7383 493.292 96.9023 493.292C98.2703 493.292 99.4643 493.622 100.484 494.282C101.504 494.942 102.248 495.878 102.716 497.09H100.754C100.406 496.334 99.9023 495.752 99.2423 495.344C98.5943 494.936 97.8143 494.732 96.9023 494.732C96.0263 494.732 95.2403 494.936 94.5443 495.344C93.8483 495.752 93.3023 496.334 92.9063 497.09C92.5103 497.834 92.3123 498.71 92.3123 499.718C92.3123 500.714 92.5103 501.59 92.9063 502.346C93.3023 503.09 93.8483 503.666 94.5443 504.074C95.2403 504.482 96.0263 504.686 96.9023 504.686C97.8143 504.686 98.5943 504.488 99.2423 504.092C99.9023 503.684 100.406 503.102 100.754 502.346H102.716C102.248 503.546 101.504 504.476 100.484 505.136C99.4643 505.784 98.2703 506.108 96.9023 506.108C95.7383 506.108 94.6763 505.838 93.7163 505.298C92.7683 504.746 92.0183 503.984 91.4663 503.012C90.9143 502.04 90.6383 500.942 90.6383 499.718ZM104.543 501.032C104.543 500.024 104.747 499.142 105.155 498.386C105.563 497.618 106.121 497.024 106.829 496.604C107.549 496.184 108.347 495.974 109.223 495.974C110.087 495.974 110.837 496.16 111.473 496.532C112.109 496.904 112.583 497.372 112.895 497.936V496.136H114.551V506H112.895V504.164C112.571 504.74 112.085 505.22 111.437 505.604C110.801 505.976 110.057 506.162 109.205 506.162C108.329 506.162 107.537 505.946 106.829 505.514C106.121 505.082 105.563 504.476 105.155 503.696C104.747 502.916 104.543 502.028 104.543 501.032ZM112.895 501.05C112.895 500.306 112.745 499.658 112.445 499.106C112.145 498.554 111.737 498.134 111.221 497.846C110.717 497.546 110.159 497.396 109.547 497.396C108.935 497.396 108.377 497.54 107.873 497.828C107.369 498.116 106.967 498.536 106.667 499.088C106.367 499.64 106.217 500.288 106.217 501.032C106.217 501.788 106.367 502.448 106.667 503.012C106.967 503.564 107.369 503.99 107.873 504.29C108.377 504.578 108.935 504.722 109.547 504.722C110.159 504.722 110.717 504.578 111.221 504.29C111.737 503.99 112.145 503.564 112.445 503.012C112.745 502.448 112.895 501.794 112.895 501.05ZM118.957 497.954C119.281 497.39 119.761 496.922 120.397 496.55C121.045 496.166 121.795 495.974 122.647 495.974C123.523 495.974 124.315 496.184 125.023 496.604C125.743 497.024 126.307 497.618 126.715 498.386C127.123 499.142 127.327 500.024 127.327 501.032C127.327 502.028 127.123 502.916 126.715 503.696C126.307 504.476 125.743 505.082 125.023 505.514C124.315 505.946 123.523 506.162 122.647 506.162C121.807 506.162 121.063 505.976 120.415 505.604C119.779 505.22 119.293 504.746 118.957 504.182V510.68H117.319V496.136H118.957V497.954ZM125.653 501.032C125.653 500.288 125.503 499.64 125.203 499.088C124.903 498.536 124.495 498.116 123.979 497.828C123.475 497.54 122.917 497.396 122.305 497.396C121.705 497.396 121.147 497.546 120.631 497.846C120.127 498.134 119.719 498.56 119.407 499.124C119.107 499.676 118.957 500.318 118.957 501.05C118.957 501.794 119.107 502.448 119.407 503.012C119.719 503.564 120.127 503.99 120.631 504.29C121.147 504.578 121.705 504.722 122.305 504.722C122.917 504.722 123.475 504.578 123.979 504.29C124.495 503.99 124.903 503.564 125.203 503.012C125.503 502.448 125.653 501.788 125.653 501.032ZM130.329 494.534C130.017 494.534 129.753 494.426 129.537 494.21C129.321 493.994 129.213 493.73 129.213 493.418C129.213 493.106 129.321 492.842 129.537 492.626C129.753 492.41 130.017 492.302 130.329 492.302C130.629 492.302 130.881 492.41 131.085 492.626C131.301 492.842 131.409 493.106 131.409 493.418C131.409 493.73 131.301 493.994 131.085 494.21C130.881 494.426 130.629 494.534 130.329 494.534ZM131.121 496.136V506H129.483V496.136H131.121ZM135.91 497.486V503.3C135.91 503.78 136.012 504.122 136.216 504.326C136.42 504.518 136.774 504.614 137.278 504.614H138.484V506H137.008C136.096 506 135.412 505.79 134.956 505.37C134.5 504.95 134.272 504.26 134.272 503.3V497.486H132.994V496.136H134.272V493.652H135.91V496.136H138.484V497.486H135.91ZM139.857 501.032C139.857 500.024 140.061 499.142 140.469 498.386C140.877 497.618 141.435 497.024 142.143 496.604C142.863 496.184 143.661 495.974 144.537 495.974C145.401 495.974 146.151 496.16 146.787 496.532C147.423 496.904 147.897 497.372 148.209 497.936V496.136H149.865V506H148.209V504.164C147.885 504.74 147.399 505.22 146.751 505.604C146.115 505.976 145.371 506.162 144.519 506.162C143.643 506.162 142.851 505.946 142.143 505.514C141.435 505.082 140.877 504.476 140.469 503.696C140.061 502.916 139.857 502.028 139.857 501.032ZM148.209 501.05C148.209 500.306 148.059 499.658 147.759 499.106C147.459 498.554 147.051 498.134 146.535 497.846C146.031 497.546 145.473 497.396 144.861 497.396C144.249 497.396 143.691 497.54 143.187 497.828C142.683 498.116 142.281 498.536 141.981 499.088C141.681 499.64 141.531 500.288 141.531 501.032C141.531 501.788 141.681 502.448 141.981 503.012C142.281 503.564 142.683 503.99 143.187 504.29C143.691 504.578 144.249 504.722 144.861 504.722C145.473 504.722 146.031 504.578 146.535 504.29C147.051 503.99 147.459 503.564 147.759 503.012C148.059 502.448 148.209 501.794 148.209 501.05ZM154.271 492.68V506H152.633V492.68H154.271ZM98.9723 548.454V549.786H95.5523V561H93.9143V549.786H90.4763V548.454H98.9723ZM109.989 555.69C109.989 556.002 109.971 556.332 109.935 556.68H102.051C102.111 557.652 102.441 558.414 103.041 558.966C103.653 559.506 104.391 559.776 105.255 559.776C105.963 559.776 106.551 559.614 107.019 559.29C107.499 558.954 107.835 558.51 108.027 557.958H109.791C109.527 558.906 108.999 559.68 108.207 560.28C107.415 560.868 106.431 561.162 105.255 561.162C104.319 561.162 103.479 560.952 102.735 560.532C102.003 560.112 101.427 559.518 101.007 558.75C100.587 557.97 100.377 557.07 100.377 556.05C100.377 555.03 100.581 554.136 100.989 553.368C101.397 552.6 101.967 552.012 102.699 551.604C103.443 551.184 104.295 550.974 105.255 550.974C106.191 550.974 107.019 551.178 107.739 551.586C108.459 551.994 109.011 552.558 109.395 553.278C109.791 553.986 109.989 554.79 109.989 555.69ZM108.297 555.348C108.297 554.724 108.159 554.19 107.883 553.746C107.607 553.29 107.229 552.948 106.749 552.72C106.281 552.48 105.759 552.36 105.183 552.36C104.355 552.36 103.647 552.624 103.059 553.152C102.483 553.68 102.153 554.412 102.069 555.348H108.297ZM111.539 556.032C111.539 555.024 111.743 554.142 112.151 553.386C112.559 552.618 113.117 552.024 113.825 551.604C114.545 551.184 115.343 550.974 116.219 550.974C117.083 550.974 117.833 551.16 118.469 551.532C119.105 551.904 119.579 552.372 119.891 552.936V551.136H121.547V561H119.891V559.164C119.567 559.74 119.081 560.22 118.433 560.604C117.797 560.976 117.053 561.162 116.201 561.162C115.325 561.162 114.533 560.946 113.825 560.514C113.117 560.082 112.559 559.476 112.151 558.696C111.743 557.916 111.539 557.028 111.539 556.032ZM119.891 556.05C119.891 555.306 119.741 554.658 119.441 554.106C119.141 553.554 118.733 553.134 118.217 552.846C117.713 552.546 117.155 552.396 116.543 552.396C115.931 552.396 115.373 552.54 114.869 552.828C114.365 553.116 113.963 553.536 113.663 554.088C113.363 554.64 113.213 555.288 113.213 556.032C113.213 556.788 113.363 557.448 113.663 558.012C113.963 558.564 114.365 558.99 114.869 559.29C115.373 559.578 115.931 559.722 116.543 559.722C117.155 559.722 117.713 559.578 118.217 559.29C118.733 558.99 119.141 558.564 119.441 558.012C119.741 557.448 119.891 556.794 119.891 556.05ZM136.177 550.956C136.945 550.956 137.629 551.118 138.229 551.442C138.829 551.754 139.303 552.228 139.651 552.864C139.999 553.5 140.173 554.274 140.173 555.186V561H138.553V555.42C138.553 554.436 138.307 553.686 137.815 553.17C137.335 552.642 136.681 552.378 135.853 552.378C135.001 552.378 134.323 552.654 133.819 553.206C133.315 553.746 133.063 554.532 133.063 555.564V561H131.443V555.42C131.443 554.436 131.197 553.686 130.705 553.17C130.225 552.642 129.571 552.378 128.743 552.378C127.891 552.378 127.213 552.654 126.709 553.206C126.205 553.746 125.953 554.532 125.953 555.564V561H124.315V551.136H125.953V552.558C126.277 552.042 126.709 551.646 127.249 551.37C127.801 551.094 128.407 550.956 129.067 550.956C129.895 550.956 130.627 551.142 131.263 551.514C131.899 551.886 132.373 552.432 132.685 553.152C132.961 552.456 133.417 551.916 134.053 551.532C134.689 551.148 135.397 550.956 136.177 550.956ZM98.6663 613.21H93.1943L92.1863 616H90.4583L94.9943 603.526H96.8843L101.402 616H99.6743L98.6663 613.21ZM98.1983 611.878L95.9303 605.542L93.6623 611.878H98.1983ZM102.767 611.032C102.767 610.024 102.971 609.142 103.379 608.386C103.787 607.618 104.345 607.024 105.053 606.604C105.773 606.184 106.577 605.974 107.465 605.974C108.233 605.974 108.947 606.154 109.607 606.514C110.267 606.862 110.771 607.324 111.119 607.9V602.68H112.775V616H111.119V614.146C110.795 614.734 110.315 615.22 109.679 615.604C109.043 615.976 108.299 616.162 107.447 616.162C106.571 616.162 105.773 615.946 105.053 615.514C104.345 615.082 103.787 614.476 103.379 613.696C102.971 612.916 102.767 612.028 102.767 611.032ZM111.119 611.05C111.119 610.306 110.969 609.658 110.669 609.106C110.369 608.554 109.961 608.134 109.445 607.846C108.941 607.546 108.383 607.396 107.771 607.396C107.159 607.396 106.601 607.54 106.097 607.828C105.593 608.116 105.191 608.536 104.891 609.088C104.591 609.64 104.441 610.288 104.441 611.032C104.441 611.788 104.591 612.448 104.891 613.012C105.191 613.564 105.593 613.99 106.097 614.29C106.601 614.578 107.159 614.722 107.771 614.722C108.383 614.722 108.941 614.578 109.445 614.29C109.961 613.99 110.369 613.564 110.669 613.012C110.969 612.448 111.119 611.794 111.119 611.05ZM119.215 614.488L122.275 606.136H124.021L120.151 616H118.243L114.373 606.136H116.137L119.215 614.488ZM126.479 604.534C126.167 604.534 125.903 604.426 125.687 604.21C125.471 603.994 125.363 603.73 125.363 603.418C125.363 603.106 125.471 602.842 125.687 602.626C125.903 602.41 126.167 602.302 126.479 602.302C126.779 602.302 127.031 602.41 127.235 602.626C127.451 602.842 127.559 603.106 127.559 603.418C127.559 603.73 127.451 603.994 127.235 604.21C127.031 604.426 126.779 604.534 126.479 604.534ZM127.271 606.136V616H125.633V606.136H127.271ZM133.555 616.162C132.799 616.162 132.121 616.036 131.521 615.784C130.921 615.52 130.447 615.16 130.099 614.704C129.751 614.236 129.559 613.702 129.523 613.102H131.215C131.263 613.594 131.491 613.996 131.899 614.308C132.319 614.62 132.865 614.776 133.537 614.776C134.161 614.776 134.653 614.638 135.013 614.362C135.373 614.086 135.553 613.738 135.553 613.318C135.553 612.886 135.361 612.568 134.977 612.364C134.593 612.148 133.999 611.938 133.195 611.734C132.463 611.542 131.863 611.35 131.395 611.158C130.939 610.954 130.543 610.66 130.207 610.276C129.883 609.88 129.721 609.364 129.721 608.728C129.721 608.224 129.871 607.762 130.171 607.342C130.471 606.922 130.897 606.592 131.449 606.352C132.001 606.1 132.631 605.974 133.339 605.974C134.431 605.974 135.313 606.25 135.985 606.802C136.657 607.354 137.017 608.11 137.065 609.07H135.427C135.391 608.554 135.181 608.14 134.797 607.828C134.425 607.516 133.921 607.36 133.285 607.36C132.697 607.36 132.229 607.486 131.881 607.738C131.533 607.99 131.359 608.32 131.359 608.728C131.359 609.052 131.461 609.322 131.665 609.538C131.881 609.742 132.145 609.91 132.457 610.042C132.781 610.162 133.225 610.3 133.789 610.456C134.497 610.648 135.073 610.84 135.517 611.032C135.961 611.212 136.339 611.488 136.651 611.86C136.975 612.232 137.143 612.718 137.155 613.318C137.155 613.858 137.005 614.344 136.705 614.776C136.405 615.208 135.979 615.55 135.427 615.802C134.887 616.042 134.263 616.162 133.555 616.162ZM143.769 616.162C142.845 616.162 142.005 615.952 141.249 615.532C140.505 615.112 139.917 614.518 139.485 613.75C139.065 612.97 138.855 612.07 138.855 611.05C138.855 610.042 139.071 609.154 139.503 608.386C139.947 607.606 140.547 607.012 141.303 606.604C142.059 606.184 142.905 605.974 143.841 605.974C144.777 605.974 145.623 606.184 146.379 606.604C147.135 607.012 147.729 607.6 148.161 608.368C148.605 609.136 148.827 610.03 148.827 611.05C148.827 612.07 148.599 612.97 148.143 613.75C147.699 614.518 147.093 615.112 146.325 615.532C145.557 615.952 144.705 616.162 143.769 616.162ZM143.769 614.722C144.357 614.722 144.909 614.584 145.425 614.308C145.941 614.032 146.355 613.618 146.667 613.066C146.991 612.514 147.153 611.842 147.153 611.05C147.153 610.258 146.997 609.586 146.685 609.034C146.373 608.482 145.965 608.074 145.461 607.81C144.957 607.534 144.411 607.396 143.823 607.396C143.223 607.396 142.671 607.534 142.167 607.81C141.675 608.074 141.279 608.482 140.979 609.034C140.679 609.586 140.529 610.258 140.529 611.05C140.529 611.854 140.673 612.532 140.961 613.084C141.261 613.636 141.657 614.05 142.149 614.326C142.641 614.59 143.181 614.722 143.769 614.722ZM152.619 607.738C152.907 607.174 153.315 606.736 153.843 606.424C154.383 606.112 155.037 605.956 155.805 605.956V607.648H155.373C153.537 607.648 152.619 608.644 152.619 610.636V616H150.981V606.136H152.619V607.738ZM161.188 616.162C160.432 616.162 159.754 616.036 159.154 615.784C158.554 615.52 158.08 615.16 157.732 614.704C157.384 614.236 157.192 613.702 157.156 613.102H158.848C158.896 613.594 159.124 613.996 159.532 614.308C159.952 614.62 160.498 614.776 161.17 614.776C161.794 614.776 162.286 614.638 162.646 614.362C163.006 614.086 163.186 613.738 163.186 613.318C163.186 612.886 162.994 612.568 162.61 612.364C162.226 612.148 161.632 611.938 160.828 611.734C160.096 611.542 159.496 611.35 159.028 611.158C158.572 610.954 158.176 610.66 157.84 610.276C157.516 609.88 157.354 609.364 157.354 608.728C157.354 608.224 157.504 607.762 157.804 607.342C158.104 606.922 158.53 606.592 159.082 606.352C159.634 606.1 160.264 605.974 160.972 605.974C162.064 605.974 162.946 606.25 163.618 606.802C164.29 607.354 164.65 608.11 164.698 609.07H163.06C163.024 608.554 162.814 608.14 162.43 607.828C162.058 607.516 161.554 607.36 160.918 607.36C160.33 607.36 159.862 607.486 159.514 607.738C159.166 607.99 158.992 608.32 158.992 608.728C158.992 609.052 159.094 609.322 159.298 609.538C159.514 609.742 159.778 609.91 160.09 610.042C160.414 610.162 160.858 610.3 161.422 610.456C162.13 610.648 162.706 610.84 163.15 611.032C163.594 611.212 163.972 611.488 164.284 611.86C164.608 612.232 164.776 612.718 164.788 613.318C164.788 613.858 164.638 614.344 164.338 614.776C164.038 615.208 163.612 615.55 163.06 615.802C162.52 616.042 161.896 616.162 161.188 616.162Z" fill="white" fill-opacity="0.5"/>
<path d="M40.7666 386.568C40.8146 385.284 41.2346 384.294 42.0266 383.598C42.8186 382.902 43.8926 382.554 45.2486 382.554C46.1486 382.554 46.9166 382.71 47.5526 383.022C48.2006 383.334 48.6866 383.76 49.0106 384.3C49.3466 384.84 49.5146 385.446 49.5146 386.118C49.5146 386.91 49.3166 387.558 48.9206 388.062C48.5246 388.554 48.0626 388.89 47.5346 389.07V389.142C48.2186 389.37 48.7586 389.748 49.1546 390.276C49.5506 390.804 49.7486 391.482 49.7486 392.31C49.7486 393.054 49.5746 393.714 49.2266 394.29C48.8906 394.854 48.3926 395.298 47.7326 395.622C47.0846 395.946 46.3106 396.108 45.4106 396.108C43.9706 396.108 42.8186 395.754 41.9546 395.046C41.1026 394.338 40.6526 393.27 40.6046 391.842H43.5926C43.6046 392.37 43.7546 392.79 44.0426 393.102C44.3306 393.402 44.7506 393.552 45.3026 393.552C45.7706 393.552 46.1306 393.42 46.3826 393.156C46.6466 392.88 46.7786 392.52 46.7786 392.076C46.7786 391.5 46.5926 391.086 46.2206 390.834C45.8606 390.57 45.2786 390.438 44.4746 390.438H43.8986V387.936H44.4746C45.0866 387.936 45.5786 387.834 45.9506 387.63C46.3346 387.414 46.5266 387.036 46.5266 386.496C46.5266 386.064 46.4066 385.728 46.1666 385.488C45.9266 385.248 45.5966 385.128 45.1766 385.128C44.7206 385.128 44.3786 385.266 44.1506 385.542C43.9346 385.818 43.8086 386.16 43.7726 386.568H40.7666ZM51.5571 389.25C51.5571 387.186 51.9531 385.56 52.7451 384.372C53.5491 383.184 54.8391 382.59 56.6151 382.59C58.3911 382.59 59.6751 383.184 60.4671 384.372C61.2711 385.56 61.6731 387.186 61.6731 389.25C61.6731 391.338 61.2711 392.976 60.4671 394.164C59.6751 395.352 58.3911 395.946 56.6151 395.946C54.8391 395.946 53.5491 395.352 52.7451 394.164C51.9531 392.976 51.5571 391.338 51.5571 389.25ZM58.6491 389.25C58.6491 388.038 58.5171 387.108 58.2531 386.46C57.9891 385.8 57.4431 385.47 56.6151 385.47C55.7871 385.47 55.2411 385.8 54.9771 386.46C54.7131 387.108 54.5811 388.038 54.5811 389.25C54.5811 390.066 54.6291 390.744 54.7251 391.284C54.8211 391.812 55.0131 392.244 55.3011 392.58C55.6011 392.904 56.0391 393.066 56.6151 393.066C57.1911 393.066 57.6231 392.904 57.9111 392.58C58.2111 392.244 58.4091 391.812 58.5051 391.284C58.6011 390.744 58.6491 390.066 58.6491 389.25ZM63.0473 386.172C63.0473 385.2 63.3233 384.45 63.8753 383.922C64.4393 383.394 65.1653 383.13 66.0533 383.13C66.9413 383.13 67.6613 383.394 68.2133 383.922C68.7653 384.45 69.0413 385.2 69.0413 386.172C69.0413 387.144 68.7653 387.894 68.2133 388.422C67.6613 388.95 66.9413 389.214 66.0533 389.214C65.1653 389.214 64.4393 388.95 63.8753 388.422C63.3233 387.894 63.0473 387.144 63.0473 386.172ZM75.2693 383.328L68.3393 396H65.3693L72.2993 383.328H75.2693ZM66.0353 384.93C65.4593 384.93 65.1713 385.344 65.1713 386.172C65.1713 386.988 65.4593 387.396 66.0353 387.396C66.3113 387.396 66.5273 387.294 66.6833 387.09C66.8393 386.886 66.9173 386.58 66.9173 386.172C66.9173 385.344 66.6233 384.93 66.0353 384.93ZM71.6153 393.156C71.6153 392.184 71.8913 391.434 72.4433 390.906C72.9953 390.378 73.7153 390.114 74.6033 390.114C75.4913 390.114 76.2113 390.378 76.7633 390.906C77.3153 391.434 77.5913 392.184 77.5913 393.156C77.5913 394.128 77.3153 394.878 76.7633 395.406C76.2113 395.934 75.4913 396.198 74.6033 396.198C73.7153 396.198 72.9953 395.934 72.4433 395.406C71.8913 394.878 71.6153 394.128 71.6153 393.156ZM74.5853 391.914C74.3093 391.914 74.0933 392.016 73.9373 392.22C73.7933 392.424 73.7213 392.736 73.7213 393.156C73.7213 393.972 74.0093 394.38 74.5853 394.38C74.8613 394.38 75.0773 394.278 75.2333 394.074C75.3893 393.87 75.4673 393.564 75.4673 393.156C75.4673 392.748 75.3893 392.442 75.2333 392.238C75.0773 392.022 74.8613 391.914 74.5853 391.914ZM40.8583 448.534C41.2663 448.21 41.4523 448.06 41.4163 448.084C42.5923 447.112 43.5163 446.314 44.1883 445.69C44.8723 445.066 45.4483 444.412 45.9163 443.728C46.3843 443.044 46.6183 442.378 46.6183 441.73C46.6183 441.238 46.5043 440.854 46.2763 440.578C46.0483 440.302 45.7063 440.164 45.2503 440.164C44.7943 440.164 44.4343 440.338 44.1703 440.686C43.9183 441.022 43.7923 441.502 43.7923 442.126H40.8223C40.8463 441.106 41.0623 440.254 41.4703 439.57C41.8903 438.886 42.4363 438.382 43.1083 438.058C43.7923 437.734 44.5483 437.572 45.3763 437.572C46.8043 437.572 47.8783 437.938 48.5983 438.67C49.3303 439.402 49.6963 440.356 49.6963 441.532C49.6963 442.816 49.2583 444.01 48.3823 445.114C47.5063 446.206 46.3903 447.274 45.0343 448.318H49.8943V450.82H40.8583V448.534ZM51.2495 444.25C51.2495 442.186 51.6455 440.56 52.4375 439.372C53.2415 438.184 54.5315 437.59 56.3075 437.59C58.0835 437.59 59.3675 438.184 60.1595 439.372C60.9635 440.56 61.3655 442.186 61.3655 444.25C61.3655 446.338 60.9635 447.976 60.1595 449.164C59.3675 450.352 58.0835 450.946 56.3075 450.946C54.5315 450.946 53.2415 450.352 52.4375 449.164C51.6455 447.976 51.2495 446.338 51.2495 444.25ZM58.3415 444.25C58.3415 443.038 58.2095 442.108 57.9455 441.46C57.6815 440.8 57.1355 440.47 56.3075 440.47C55.4795 440.47 54.9335 440.8 54.6695 441.46C54.4055 442.108 54.2735 443.038 54.2735 444.25C54.2735 445.066 54.3215 445.744 54.4175 446.284C54.5135 446.812 54.7055 447.244 54.9935 447.58C55.2935 447.904 55.7315 448.066 56.3075 448.066C56.8835 448.066 57.3155 447.904 57.6035 447.58C57.9035 447.244 58.1015 446.812 58.1975 446.284C58.2935 445.744 58.3415 445.066 58.3415 444.25ZM62.7396 441.172C62.7396 440.2 63.0156 439.45 63.5676 438.922C64.1316 438.394 64.8576 438.13 65.7456 438.13C66.6336 438.13 67.3536 438.394 67.9056 438.922C68.4576 439.45 68.7336 440.2 68.7336 441.172C68.7336 442.144 68.4576 442.894 67.9056 443.422C67.3536 443.95 66.6336 444.214 65.7456 444.214C64.8576 444.214 64.1316 443.95 63.5676 443.422C63.0156 442.894 62.7396 442.144 62.7396 441.172ZM74.9616 438.328L68.0316 451H65.0616L71.9916 438.328H74.9616ZM65.7276 439.93C65.1516 439.93 64.8636 440.344 64.8636 441.172C64.8636 441.988 65.1516 442.396 65.7276 442.396C66.0036 442.396 66.2196 442.294 66.3756 442.09C66.5316 441.886 66.6096 441.58 66.6096 441.172C66.6096 440.344 66.3156 439.93 65.7276 439.93ZM71.3076 448.156C71.3076 447.184 71.5836 446.434 72.1356 445.906C72.6876 445.378 73.4076 445.114 74.2956 445.114C75.1836 445.114 75.9036 445.378 76.4556 445.906C77.0076 446.434 77.2836 447.184 77.2836 448.156C77.2836 449.128 77.0076 449.878 76.4556 450.406C75.9036 450.934 75.1836 451.198 74.2956 451.198C73.4076 451.198 72.6876 450.934 72.1356 450.406C71.5836 449.878 71.3076 449.128 71.3076 448.156ZM74.2776 446.914C74.0016 446.914 73.7856 447.016 73.6296 447.22C73.4856 447.424 73.4136 447.736 73.4136 448.156C73.4136 448.972 73.7016 449.38 74.2776 449.38C74.5536 449.38 74.7696 449.278 74.9256 449.074C75.0816 448.87 75.1596 448.564 75.1596 448.156C75.1596 447.748 75.0816 447.442 74.9256 447.238C74.7696 447.022 74.5536 446.914 74.2776 446.914ZM42.4001 495.722V492.86H47.3861V506H44.1821V495.722H42.4001ZM49.4916 499.25C49.4916 497.186 49.8876 495.56 50.6796 494.372C51.4836 493.184 52.7736 492.59 54.5496 492.59C56.3256 492.59 57.6096 493.184 58.4016 494.372C59.2056 495.56 59.6076 497.186 59.6076 499.25C59.6076 501.338 59.2056 502.976 58.4016 504.164C57.6096 505.352 56.3256 505.946 54.5496 505.946C52.7736 505.946 51.4836 505.352 50.6796 504.164C49.8876 502.976 49.4916 501.338 49.4916 499.25ZM56.5836 499.25C56.5836 498.038 56.4516 497.108 56.1876 496.46C55.9236 495.8 55.3776 495.47 54.5496 495.47C53.7216 495.47 53.1756 495.8 52.9116 496.46C52.6476 497.108 52.5156 498.038 52.5156 499.25C52.5156 500.066 52.5636 500.744 52.6596 501.284C52.7556 501.812 52.9476 502.244 53.2356 502.58C53.5356 502.904 53.9736 503.066 54.5496 503.066C55.1256 503.066 55.5576 502.904 55.8456 502.58C56.1456 502.244 56.3436 501.812 56.4396 501.284C56.5356 500.744 56.5836 500.066 56.5836 499.25ZM60.9818 496.172C60.9818 495.2 61.2578 494.45 61.8098 493.922C62.3738 493.394 63.0998 493.13 63.9878 493.13C64.8758 493.13 65.5958 493.394 66.1478 493.922C66.6998 494.45 66.9758 495.2 66.9758 496.172C66.9758 497.144 66.6998 497.894 66.1478 498.422C65.5958 498.95 64.8758 499.214 63.9878 499.214C63.0998 499.214 62.3738 498.95 61.8098 498.422C61.2578 497.894 60.9818 497.144 60.9818 496.172ZM73.2038 493.328L66.2738 506H63.3038L70.2338 493.328H73.2038ZM63.9698 494.93C63.3938 494.93 63.1058 495.344 63.1058 496.172C63.1058 496.988 63.3938 497.396 63.9698 497.396C64.2458 497.396 64.4618 497.294 64.6178 497.09C64.7738 496.886 64.8518 496.58 64.8518 496.172C64.8518 495.344 64.5578 494.93 63.9698 494.93ZM69.5498 503.156C69.5498 502.184 69.8258 501.434 70.3778 500.906C70.9298 500.378 71.6498 500.114 72.5378 500.114C73.4258 500.114 74.1458 500.378 74.6978 500.906C75.2498 501.434 75.5258 502.184 75.5258 503.156C75.5258 504.128 75.2498 504.878 74.6978 505.406C74.1458 505.934 73.4258 506.198 72.5378 506.198C71.6498 506.198 70.9298 505.934 70.3778 505.406C69.8258 504.878 69.5498 504.128 69.5498 503.156ZM72.5198 501.914C72.2438 501.914 72.0278 502.016 71.8718 502.22C71.7278 502.424 71.6558 502.736 71.6558 503.156C71.6558 503.972 71.9438 504.38 72.5198 504.38C72.7958 504.38 73.0118 504.278 73.1678 504.074C73.3238 503.87 73.4018 503.564 73.4018 503.156C73.4018 502.748 73.3238 502.442 73.1678 502.238C73.0118 502.022 72.7958 501.914 72.5198 501.914ZM42.4001 550.722V547.86H47.3861V561H44.1821V550.722H42.4001ZM49.4916 554.25C49.4916 552.186 49.8876 550.56 50.6796 549.372C51.4836 548.184 52.7736 547.59 54.5496 547.59C56.3256 547.59 57.6096 548.184 58.4016 549.372C59.2056 550.56 59.6076 552.186 59.6076 554.25C59.6076 556.338 59.2056 557.976 58.4016 559.164C57.6096 560.352 56.3256 560.946 54.5496 560.946C52.7736 560.946 51.4836 560.352 50.6796 559.164C49.8876 557.976 49.4916 556.338 49.4916 554.25ZM56.5836 554.25C56.5836 553.038 56.4516 552.108 56.1876 551.46C55.9236 550.8 55.3776 550.47 54.5496 550.47C53.7216 550.47 53.1756 550.8 52.9116 551.46C52.6476 552.108 52.5156 553.038 52.5156 554.25C52.5156 555.066 52.5636 555.744 52.6596 556.284C52.7556 556.812 52.9476 557.244 53.2356 557.58C53.5356 557.904 53.9736 558.066 54.5496 558.066C55.1256 558.066 55.5576 557.904 55.8456 557.58C56.1456 557.244 56.3436 556.812 56.4396 556.284C56.5356 555.744 56.5836 555.066 56.5836 554.25ZM60.9818 551.172C60.9818 550.2 61.2578 549.45 61.8098 548.922C62.3738 548.394 63.0998 548.13 63.9878 548.13C64.8758 548.13 65.5958 548.394 66.1478 548.922C66.6998 549.45 66.9758 550.2 66.9758 551.172C66.9758 552.144 66.6998 552.894 66.1478 553.422C65.5958 553.95 64.8758 554.214 63.9878 554.214C63.0998 554.214 62.3738 553.95 61.8098 553.422C61.2578 552.894 60.9818 552.144 60.9818 551.172ZM73.2038 548.328L66.2738 561H63.3038L70.2338 548.328H73.2038ZM63.9698 549.93C63.3938 549.93 63.1058 550.344 63.1058 551.172C63.1058 551.988 63.3938 552.396 63.9698 552.396C64.2458 552.396 64.4618 552.294 64.6178 552.09C64.7738 551.886 64.8518 551.58 64.8518 551.172C64.8518 550.344 64.5578 549.93 63.9698 549.93ZM69.5498 558.156C69.5498 557.184 69.8258 556.434 70.3778 555.906C70.9298 555.378 71.6498 555.114 72.5378 555.114C73.4258 555.114 74.1458 555.378 74.6978 555.906C75.2498 556.434 75.5258 557.184 75.5258 558.156C75.5258 559.128 75.2498 559.878 74.6978 560.406C74.1458 560.934 73.4258 561.198 72.5378 561.198C71.6498 561.198 70.9298 560.934 70.3778 560.406C69.8258 559.878 69.5498 559.128 69.5498 558.156ZM72.5198 556.914C72.2438 556.914 72.0278 557.016 71.8718 557.22C71.7278 557.424 71.6558 557.736 71.6558 558.156C71.6558 558.972 71.9438 559.38 72.5198 559.38C72.7958 559.38 73.0118 559.278 73.1678 559.074C73.3238 558.87 73.4018 558.564 73.4018 558.156C73.4018 557.748 73.3238 557.442 73.1678 557.238C73.0118 557.022 72.7958 556.914 72.5198 556.914ZM42.4001 605.722V602.86H47.3861V616H44.1821V605.722H42.4001ZM49.4916 609.25C49.4916 607.186 49.8876 605.56 50.6796 604.372C51.4836 603.184 52.7736 602.59 54.5496 602.59C56.3256 602.59 57.6096 603.184 58.4016 604.372C59.2056 605.56 59.6076 607.186 59.6076 609.25C59.6076 611.338 59.2056 612.976 58.4016 614.164C57.6096 615.352 56.3256 615.946 54.5496 615.946C52.7736 615.946 51.4836 615.352 50.6796 614.164C49.8876 612.976 49.4916 611.338 49.4916 609.25ZM56.5836 609.25C56.5836 608.038 56.4516 607.108 56.1876 606.46C55.9236 605.8 55.3776 605.47 54.5496 605.47C53.7216 605.47 53.1756 605.8 52.9116 606.46C52.6476 607.108 52.5156 608.038 52.5156 609.25C52.5156 610.066 52.5636 610.744 52.6596 611.284C52.7556 611.812 52.9476 612.244 53.2356 612.58C53.5356 612.904 53.9736 613.066 54.5496 613.066C55.1256 613.066 55.5576 612.904 55.8456 612.58C56.1456 612.244 56.3436 611.812 56.4396 611.284C56.5356 610.744 56.5836 610.066 56.5836 609.25ZM60.9818 606.172C60.9818 605.2 61.2578 604.45 61.8098 603.922C62.3738 603.394 63.0998 603.13 63.9878 603.13C64.8758 603.13 65.5958 603.394 66.1478 603.922C66.6998 604.45 66.9758 605.2 66.9758 606.172C66.9758 607.144 66.6998 607.894 66.1478 608.422C65.5958 608.95 64.8758 609.214 63.9878 609.214C63.0998 609.214 62.3738 608.95 61.8098 608.422C61.2578 607.894 60.9818 607.144 60.9818 606.172ZM73.2038 603.328L66.2738 616H63.3038L70.2338 603.328H73.2038ZM63.9698 604.93C63.3938 604.93 63.1058 605.344 63.1058 606.172C63.1058 606.988 63.3938 607.396 63.9698 607.396C64.2458 607.396 64.4618 607.294 64.6178 607.09C64.7738 606.886 64.8518 606.58 64.8518 606.172C64.8518 605.344 64.5578 604.93 63.9698 604.93ZM69.5498 613.156C69.5498 612.184 69.8258 611.434 70.3778 610.906C70.9298 610.378 71.6498 610.114 72.5378 610.114C73.4258 610.114 74.1458 610.378 74.6978 610.906C75.2498 611.434 75.5258 612.184 75.5258 613.156C75.5258 614.128 75.2498 614.878 74.6978 615.406C74.1458 615.934 73.4258 616.198 72.5378 616.198C71.6498 616.198 70.9298 615.934 70.3778 615.406C69.8258 614.878 69.5498 614.128 69.5498 613.156ZM72.5198 611.914C72.2438 611.914 72.0278 612.016 71.8718 612.22C71.7278 612.424 71.6558 612.736 71.6558 613.156C71.6558 613.972 71.9438 614.38 72.5198 614.38C72.7958 614.38 73.0118 614.278 73.1678 614.074C73.3238 613.87 73.4018 613.564 73.4018 613.156C73.4018 612.748 73.3238 612.442 73.1678 612.238C73.0118 612.022 72.7958 611.914 72.5198 611.914Z" fill="white"/>
<circle cx="16" cy="388" r="8" fill="#AE31D9"/>
<circle cx="16" cy="444" r="8" fill="#EB5757"/>
<circle cx="16" cy="500" r="8" fill="#F2994A"/>
<circle cx="16" cy="556" r="8" fill="#00C9EE"/>
<circle cx="16" cy="608" r="8" fill="#088AF7"/>
</svg>
