<svg width="60" height="60" viewBox="0 0 60 60" fill="none" xmlns="http://www.w3.org/2000/svg">
<g clip-path="url(#clip0_605_15)">
<path d="M58.5367 54.1448H53.3689V21.1589C53.3689 20.352 52.7125 19.6956 51.9056 19.6956H48.5668C48.0819 19.6956 47.6889 20.0886 47.6889 20.5735C47.6889 21.0584 48.0819 21.4515 48.5668 21.4515H51.613V54.1448H43.2731V21.4515H44.4383C44.9232 21.4515 45.3163 21.0584 45.3163 20.5735C45.3163 20.0886 44.9232 19.6956 44.4383 19.6956H42.9805C42.1737 19.6956 41.5172 20.352 41.5172 21.1589V54.1449H35.9261V32.2746C35.9261 31.4677 35.2696 30.8113 34.4627 30.8113H25.5375C24.7307 30.8113 24.0742 31.4677 24.0742 32.2746V54.1448H18.4829V41.8773C18.4829 41.0704 17.8264 40.414 17.0196 40.414H8.09449C7.28766 40.414 6.63117 41.0704 6.63117 41.8773V45.8036C6.63117 46.2886 7.02422 46.6816 7.50914 46.6816C7.99406 46.6816 8.38711 46.2886 8.38711 45.8036V42.17H16.7269V54.1449H8.38711V49.8866C8.38711 49.4017 7.99406 49.0086 7.50914 49.0086C7.02422 49.0086 6.63117 49.4017 6.63117 49.8866V54.1449H1.46332C0.656484 54.1448 0 54.8013 0 55.6082V58.408C0 59.2148 0.656484 59.8713 1.46332 59.8713H58.5367C59.3435 59.8713 60 59.2148 60 58.408V55.6082C60 54.8013 59.3435 54.1448 58.5367 54.1448ZM25.8301 32.5673H34.17V54.1449H25.8301V32.5673ZM58.2439 58.1154H1.75605V55.901H7.50926H17.6051H24.9523H35.0481H42.3952H52.491H58.2441V58.1154H58.2439Z" fill="url(#paint0_linear_605_15)"/>
<path d="M7.29449 32.2796L6.79223 35.208C6.65219 36.0246 6.9816 36.8342 7.6518 37.3212C8.03055 37.5963 8.47363 37.7362 8.91965 37.7362C9.26301 37.7362 9.60812 37.6533 9.92711 37.4857L12.5569 36.1031L15.1867 37.4857C15.9198 37.8711 16.7916 37.8081 17.462 37.3213C18.1322 36.8342 18.4616 36.0245 18.3216 35.208L17.8193 32.2796L19.9469 30.2058C20.5401 29.6276 20.7496 28.7789 20.4937 27.991C20.2376 27.2031 19.5694 26.6396 18.7496 26.5205L15.8093 26.0932L14.4945 23.4289C14.1278 22.686 13.3854 22.2246 12.5569 22.2246C11.7285 22.2246 10.9861 22.6861 10.6196 23.4289L9.30473 26.0932L6.36437 26.5205C5.54453 26.6396 4.87633 27.203 4.62027 27.991C4.36433 28.779 4.57375 29.6276 5.16695 30.2057L7.29449 32.2796ZM6.29031 28.5336C6.31375 28.4617 6.39226 28.2909 6.61691 28.2582L9.69144 27.8114C10.1793 27.7407 10.6008 27.4344 10.8191 26.9923L12.1942 24.2061C12.2946 24.0026 12.4813 23.9805 12.5569 23.9805C12.6325 23.9805 12.8192 24.0025 12.9197 24.2061L14.2948 26.9921C14.513 27.4343 14.9345 27.7406 15.4223 27.8114L18.497 28.2582C18.7217 28.2909 18.8002 28.4617 18.8236 28.5336C18.8471 28.6056 18.8839 28.7899 18.7212 28.9482L16.4965 31.1169C16.1433 31.4608 15.9823 31.9566 16.0657 32.4424L16.591 35.5048C16.6293 35.7285 16.4911 35.8561 16.43 35.9005C16.3687 35.9449 16.2046 36.037 16.004 35.9312L13.2538 34.4853C13.0356 34.3706 12.7962 34.3133 12.5569 34.3133C12.3176 34.3133 12.0782 34.3707 11.86 34.4853L9.10984 35.9312C8.90887 36.0369 8.74504 35.9449 8.68387 35.9005C8.62269 35.856 8.48453 35.7285 8.52285 35.5048L9.04808 32.4425C9.13152 31.9566 8.97039 31.461 8.61754 31.117L6.39262 28.9484C6.23008 28.7899 6.26687 28.6056 6.29031 28.5336Z" fill="url(#paint1_linear_605_15)"/>
<path d="M24.7375 21.597L24.2353 24.5255C24.0952 25.342 24.4245 26.1516 25.0947 26.6386C25.4735 26.9137 25.9166 27.0535 26.3627 27.0535C26.7061 27.0535 27.0512 26.9707 27.3702 26.8031L30 25.4205L32.6298 26.8031C33.363 27.1888 34.2349 27.1256 34.9053 26.6386C35.5755 26.1516 35.9048 25.3419 35.7648 24.5255L35.2624 21.597L37.39 19.5232C37.9832 18.945 38.1927 18.0963 37.9367 17.3084C37.6808 16.5205 37.0125 15.9571 36.1925 15.838L33.2524 15.4107L31.9374 12.7463C31.5707 12.0035 30.8284 11.542 30 11.542C29.1716 11.542 28.4292 12.0035 28.0625 12.7463L26.7477 15.4107L23.8073 15.838C22.9876 15.9571 22.3193 16.5205 22.0632 17.3084C21.8072 18.0962 22.0166 18.945 22.6099 19.5233L24.7375 21.597ZM23.7333 17.851C23.7567 17.7791 23.8352 17.6084 24.0599 17.5757L27.1349 17.1289C27.6226 17.0579 28.0439 16.7518 28.2621 16.3098L29.6372 13.5235C29.7376 13.32 29.9243 13.298 29.9998 13.298C30.0754 13.298 30.2621 13.32 30.3625 13.5235L31.7379 16.3101C31.9559 16.7519 32.3773 17.0579 32.8652 17.1289L35.94 17.5757C36.1646 17.6084 36.2431 17.7793 36.2666 17.8511C36.2899 17.9231 36.3267 18.1073 36.1641 18.2657L33.9392 20.4345C33.5864 20.7786 33.4255 21.2739 33.5087 21.7599L34.0339 24.8223C34.0722 25.046 33.9341 25.1735 33.8729 25.2179C33.8117 25.2622 33.6477 25.3545 33.4468 25.2486L30.6968 23.8029C30.4787 23.6881 30.2393 23.6307 29.9998 23.6307C29.7606 23.6307 29.5211 23.6881 29.3029 23.8027L26.5528 25.2486C26.3517 25.3544 26.1879 25.2622 26.1268 25.2179C26.0656 25.1735 25.9276 25.046 25.9659 24.8223L26.4911 21.7599C26.5745 21.2742 26.4136 20.7787 26.0605 20.4344L23.8356 18.2659C23.6731 18.1073 23.7099 17.9231 23.7333 17.851Z" fill="url(#paint2_linear_605_15)"/>
<path d="M42.1804 10.1835L41.6781 13.1119C41.5379 13.9283 41.8673 14.7381 42.5375 15.225C43.2079 15.7119 44.0795 15.7748 44.813 15.3895L47.4428 14.0069L50.0726 15.3895C50.3916 15.5571 50.7367 15.6399 51.0802 15.6399C51.5263 15.6399 51.9694 15.5001 52.348 15.225C53.0183 14.7381 53.3476 13.9283 53.2075 13.1119L52.7052 10.1835L54.8327 8.10959C55.4261 7.53139 55.6355 6.68271 55.3795 5.89498C55.1236 5.10701 54.4553 4.54357 53.6354 4.42439L50.6952 3.99701L49.3802 1.33275C49.0136 0.589902 48.2712 0.128418 47.4428 0.128418C46.6144 0.128418 45.872 0.589902 45.5053 1.33275L44.1904 3.99701L41.2502 4.42439C40.4304 4.54346 39.7621 5.10689 39.506 5.89486C39.2501 6.6826 39.4595 7.53139 40.0527 8.10959L42.1804 10.1835ZM41.1762 6.43756C41.1995 6.36561 41.278 6.19486 41.5028 6.16217L44.5772 5.71533C45.0654 5.64455 45.487 5.33834 45.705 4.89619L47.0801 2.11006C47.1806 1.9065 47.3673 1.88459 47.4428 1.88459C47.5182 1.88459 47.7052 1.9065 47.8055 2.11006L49.1807 4.89631C49.3989 5.33834 49.8205 5.64467 50.308 5.71533L53.3829 6.16217C53.6075 6.19486 53.6862 6.36572 53.7095 6.43756C53.7328 6.50951 53.7696 6.69373 53.6071 6.85217L51.382 9.02107C51.0293 9.36514 50.8683 9.86049 50.9515 10.3465L51.4767 13.4087C51.515 13.6325 51.3769 13.76 51.3157 13.8044C51.2546 13.849 51.0906 13.941 50.8896 13.8351L48.1396 12.3894C47.9214 12.2747 47.682 12.2172 47.4427 12.2172C47.2032 12.2172 46.9639 12.2747 46.7459 12.3893L43.9957 13.8351C43.7948 13.941 43.6308 13.8487 43.5696 13.8044C43.5084 13.7599 43.3704 13.6325 43.4086 13.4087L43.9338 10.3467C44.0173 9.86084 43.8564 9.36537 43.5033 9.02096L41.2784 6.85217C41.1158 6.69373 41.1527 6.50939 41.1762 6.43756Z" fill="url(#paint3_linear_605_15)"/>
</g>
<defs>
<linearGradient id="paint0_linear_605_15" x1="1.67638e-06" y1="59.8713" x2="35.5975" y2="4.11565" gradientUnits="userSpaceOnUse">
<stop stop-color="#3A67F6"/>
<stop offset="1" stop-color="#71E6FC"/>
</linearGradient>
<linearGradient id="paint1_linear_605_15" x1="4.51294" y1="37.7362" x2="19.6105" y2="21.314" gradientUnits="userSpaceOnUse">
<stop stop-color="#3A67F6"/>
<stop offset="1" stop-color="#71E6FC"/>
</linearGradient>
<linearGradient id="paint2_linear_605_15" x1="21.9558" y1="27.0536" x2="37.0533" y2="10.6312" gradientUnits="userSpaceOnUse">
<stop stop-color="#3A67F6"/>
<stop offset="1" stop-color="#71E6FC"/>
</linearGradient>
<linearGradient id="paint3_linear_605_15" x1="39.3987" y1="15.6399" x2="54.4961" y2="-0.782434" gradientUnits="userSpaceOnUse">
<stop stop-color="#3A67F6"/>
<stop offset="1" stop-color="#71E6FC"/>
</linearGradient>
<clipPath id="clip0_605_15">
<rect width="60" height="60" fill="white"/>
</clipPath>
</defs>
</svg>
