<svg width="55" height="55" viewBox="0 0 55 55" fill="none" xmlns="http://www.w3.org/2000/svg">
<path d="M29.1177 25.8823H40.4412C41.3346 25.8823 42.0589 26.6066 42.0589 27.5V40.4412C42.0589 41.3346 41.3346 42.0589 40.4412 42.0589H14.5588C13.6654 42.0589 12.9411 41.3346 12.9411 40.4412V14.5588C12.9411 13.6653 13.6654 12.9411 14.5588 12.9411H27.5C28.3934 12.9411 29.1177 13.6653 29.1177 14.5588V25.8823ZM16.1764 38.8236H25.8823V29.1177H16.1764V38.8236ZM16.1764 16.1764V25.8823H25.8823V16.1764H16.1764ZM29.1177 38.8236H38.8236V29.1177H29.1177V38.8236ZM40.4412 0H53.3824C54.2759 0 55.0001 0.724237 55.0001 1.61766V14.5589C55.0001 15.4523 54.2759 16.1765 53.3824 16.1765H40.4412C39.5478 16.1765 38.8236 15.4523 38.8236 14.5589V1.61766C38.8236 0.724237 39.5478 0 40.4412 0ZM42.0588 3.23533V12.9412H51.7647V3.23533H42.0588ZM51.7647 24.2647C51.7647 23.3712 52.4889 22.647 53.3823 22.647C54.2758 22.647 55 23.3712 55 24.2647V48.5293C55 52.1029 52.103 54.9999 48.5294 54.9999H6.47056C2.89695 55 0 52.103 0 48.5294V6.47055C0 2.89695 2.89695 0 6.47056 0H30.7352C31.6287 0 32.3529 0.724237 32.3529 1.61766C32.3529 2.51109 31.6287 3.23533 30.7352 3.23533H6.47056C4.6837 3.23533 3.23523 4.68381 3.23523 6.47066V48.5294C3.23523 50.3162 4.6837 51.7648 6.47056 51.7648H48.5293C50.3162 51.7648 51.7647 50.3163 51.7647 48.5294V24.2647Z" fill="url(#paint0_linear_2529_2697)"/>
<defs>
<linearGradient id="paint0_linear_2529_2697" x1="6.87501" y1="55.0085" x2="61.7903" y2="21.7566" gradientUnits="userSpaceOnUse">
<stop stop-color="#3A67F6"/>
<stop offset="1" stop-color="#72E8FC"/>
</linearGradient>
</defs>
</svg>
