<svg width="47" height="46" viewBox="0 0 47 46" fill="none" xmlns="http://www.w3.org/2000/svg">
<g clip-path="url(#clip0)">
<path d="M33.6833 23C28.0592 23 23.5 27.4622 23.5 32.9667C23.5 38.4711 28.0592 42.9333 33.6833 42.9333C39.3075 42.9333 43.8667 38.4711 43.8667 32.9667C43.8602 27.4649 39.3047 23.0063 33.6833 23ZM33.6833 41.4C28.9245 41.4 25.0667 37.6243 25.0667 32.9667C25.0667 28.3091 28.9245 24.5333 33.6833 24.5333C38.4422 24.5333 42.3 28.3091 42.3 32.9667C42.2944 37.622 38.4398 41.3945 33.6833 41.4Z" fill="url(#paint0_linear)"/>
<path d="M38.3834 29.9C38.3834 28.6297 37.3313 27.6 36.0334 27.6H35.2501V26.0667H33.6834V27.6H32.9063L32.9189 26.0728L31.3522 26.0605L31.3397 27.6H28.9834V29.1333H30.5501V36.8H28.9834V38.3333H31.3397L31.3522 39.8728L32.9189 39.8605L32.9063 38.3333H33.6834V39.8667H35.2501V38.3333H36.0334C37.3313 38.3333 38.3834 37.3036 38.3834 36.0333V34.5C38.3813 33.9324 38.1636 33.3858 37.7724 32.9667C38.1636 32.5476 38.3813 32.001 38.3834 31.4333V29.9ZM36.8167 36.0333C36.8167 36.4567 36.466 36.8 36.0334 36.8H32.1167V33.7333H36.0334C36.466 33.7333 36.8167 34.0766 36.8167 34.5V36.0333ZM36.8167 31.4333C36.8167 31.8567 36.466 32.2 36.0334 32.2H32.1167V29.1333H36.0334C36.466 29.1333 36.8167 29.4766 36.8167 29.9V31.4333Z" fill="url(#paint1_linear)"/>
<path d="M33.6834 19.9333C26.3287 19.9333 20.3667 25.7685 20.3667 32.9667C20.3667 40.1648 26.3287 46 33.6834 46C41.038 46 47 40.1648 47 32.9667C46.9918 25.7719 41.0346 19.9414 33.6834 19.9333ZM33.6834 44.4667C27.194 44.4667 21.9334 39.3179 21.9334 32.9667C21.9334 26.6154 27.194 21.4667 33.6834 21.4667C40.1727 21.4667 45.4334 26.6154 45.4334 32.9667C45.426 39.315 40.1697 44.4595 33.6834 44.4667Z" fill="url(#paint2_linear)"/>
<path d="M13.3166 3.06665C7.6925 3.06665 3.1333 7.52884 3.1333 13.0333C3.1333 18.5378 7.6925 23 13.3166 23C18.938 22.9937 23.4935 18.5351 23.5 13.0333C23.5 7.52884 18.9408 3.06665 13.3166 3.06665ZM13.3166 21.4667C8.56014 21.4612 4.70555 17.6886 4.69997 13.0333C4.69997 8.37572 8.55779 4.59998 13.3166 4.59998C18.0755 4.59998 21.9333 8.37572 21.9333 13.0333C21.9333 17.6909 18.0755 21.4667 13.3166 21.4667Z" fill="url(#paint3_linear)"/>
<path d="M13.3167 0C5.96205 0 0 5.8352 0 13.0333C0 20.2315 5.96205 26.0667 13.3167 26.0667C20.6679 26.0586 26.6251 20.2281 26.6333 13.0333C26.6333 5.8352 20.6713 0 13.3167 0ZM13.3167 24.5333C6.83037 24.5261 1.57401 19.3816 1.56667 13.0333C1.56667 6.68207 6.82734 1.53333 13.3167 1.53333C19.806 1.53333 25.0667 6.68207 25.0667 13.0333C25.0667 19.3846 19.806 24.5333 13.3167 24.5333Z" fill="url(#paint4_linear)"/>
<path d="M13.3167 12.2666C12.043 12.2666 10.9667 11.5644 10.9667 10.7333C10.9667 9.90223 12.043 9.19997 13.3167 9.19997C14.5904 9.19997 15.6667 9.90223 15.6667 10.7333C15.6667 11.1567 16.0174 11.5 16.45 11.5C16.8826 11.5 17.2334 11.1567 17.2334 10.7333C17.2334 9.2521 15.8852 8.01393 14.1 7.72873V6.1333H12.5334V7.72873C10.7481 8.01393 9.40002 9.2521 9.40002 10.7333C9.40002 12.4246 11.157 13.8 13.3167 13.8C14.5904 13.8 15.6667 14.5022 15.6667 15.3333C15.6667 16.1644 14.5904 16.8666 13.3167 16.8666C12.043 16.8666 10.9667 16.1644 10.9667 15.3333C10.9667 14.9099 10.616 14.5666 10.1834 14.5666C9.75076 14.5666 9.40002 14.9099 9.40002 15.3333C9.40002 16.8145 10.7481 18.0527 12.5334 18.3379V19.9333H14.1V18.3379C15.8852 18.0527 17.2334 16.8145 17.2334 15.3333C17.2334 13.642 15.4763 12.2666 13.3167 12.2666Z" fill="url(#paint5_linear)"/>
<path d="M33.6834 7.66664H30.091L32.0768 5.72237L30.9691 4.63831L27.0924 8.43331L30.9691 12.2283L32.0768 11.1442L30.091 9.19997H33.6834C37.5752 9.20419 40.7291 12.291 40.7334 16.1V19.9333H42.3V16.1C42.2945 11.4447 38.4399 7.6721 33.6834 7.66664Z" fill="url(#paint6_linear)"/>
<path d="M15.2477 33.7716L14.14 34.8557L16.1258 36.8H13.3167C9.42494 36.7958 6.27105 33.709 6.26674 29.9V26.0667H4.70007V29.9C4.70565 34.5553 8.56024 38.3279 13.3167 38.3333H16.1258L14.14 40.2776L15.2477 41.3617L19.1244 37.5667L15.2477 33.7716Z" fill="url(#paint7_linear)"/>
</g>
<defs>
<linearGradient id="paint0_linear" x1="24.3257" y1="35.1333" x2="43.8702" y2="35.2208" gradientUnits="userSpaceOnUse">
<stop stop-color="#088AF7"/>
<stop offset="1" stop-color="#1AB1E7"/>
</linearGradient>
<linearGradient id="paint1_linear" x1="29.3645" y1="34.468" x2="38.3851" y2="34.4949" gradientUnits="userSpaceOnUse">
<stop stop-color="#088AF7"/>
<stop offset="1" stop-color="#1AB1E7"/>
</linearGradient>
<linearGradient id="paint2_linear" x1="21.4464" y1="35.8" x2="47.0046" y2="35.9143" gradientUnits="userSpaceOnUse">
<stop stop-color="#088AF7"/>
<stop offset="1" stop-color="#1AB1E7"/>
</linearGradient>
<linearGradient id="paint3_linear" x1="3.95898" y1="15.2" x2="23.5035" y2="15.2874" gradientUnits="userSpaceOnUse">
<stop stop-color="#088AF7"/>
<stop offset="1" stop-color="#1AB1E7"/>
</linearGradient>
<linearGradient id="paint4_linear" x1="1.07973" y1="15.8667" x2="26.6379" y2="15.981" gradientUnits="userSpaceOnUse">
<stop stop-color="#088AF7"/>
<stop offset="1" stop-color="#1AB1E7"/>
</linearGradient>
<linearGradient id="paint5_linear" x1="9.71759" y1="14.5333" x2="17.2348" y2="14.552" gradientUnits="userSpaceOnUse">
<stop stop-color="#088AF7"/>
<stop offset="1" stop-color="#1AB1E7"/>
</linearGradient>
<linearGradient id="paint6_linear" x1="27.7089" y1="13.9483" x2="42.3027" y2="14.0118" gradientUnits="userSpaceOnUse">
<stop stop-color="#088AF7"/>
<stop offset="1" stop-color="#1AB1E7"/>
</linearGradient>
<linearGradient id="paint7_linear" x1="5.28484" y1="35.3767" x2="19.1269" y2="35.4338" gradientUnits="userSpaceOnUse">
<stop stop-color="#088AF7"/>
<stop offset="1" stop-color="#1AB1E7"/>
</linearGradient>
<clipPath id="clip0">
<rect width="47" height="46" fill="white"/>
</clipPath>
</defs>
</svg>
