<svg width="55" height="55" viewBox="0 0 55 55" fill="none" xmlns="http://www.w3.org/2000/svg">
<path d="M18.9063 19.7656H12.8906V13.75C12.8906 13.5221 12.8001 13.3035 12.6389 13.1423C12.4778 12.9812 12.2592 12.8906 12.0313 12.8906C10.5015 12.8906 9.00618 13.3442 7.73426 14.1941C6.46235 15.044 5.47102 16.2519 4.88562 17.6652C4.30023 19.0785 4.14706 20.6336 4.44549 22.1339C4.74392 23.6342 5.48055 25.0124 6.56222 26.094C7.6439 27.1757 9.02203 27.9123 10.5224 28.2108C12.0227 28.5092 13.5778 28.356 14.9911 27.7706C16.4043 27.1852 17.6123 26.1939 18.4622 24.922C19.312 23.6501 19.7656 22.1547 19.7656 20.625C19.7656 20.3971 19.6751 20.1785 19.5139 20.0173C19.3528 19.8562 19.1342 19.7656 18.9063 19.7656ZM11.1719 14.6704V20.2692L7.21875 24.2223C6.59128 23.3883 6.19211 22.4051 6.06064 21.3697C5.92917 20.3343 6.06994 19.2825 6.46905 18.3181C6.86817 17.3537 7.51185 16.51 8.33656 15.8704C9.16127 15.2307 10.1385 14.8171 11.1719 14.6704ZM12.0313 26.6406C10.7339 26.6406 9.47177 26.2183 8.43563 25.4375L12.3888 21.4844H17.9876C17.779 22.9157 17.0625 24.2242 15.9689 25.1709C14.8753 26.1176 13.4777 26.6392 12.0313 26.6406Z" fill="url(#paint0_linear_2529_2610)"/>
<path d="M15.4688 18.0469H22.3438C22.5717 18.0469 22.7903 17.9563 22.9514 17.7952C23.1126 17.634 23.2031 17.4154 23.2031 17.1875C23.2006 15.137 22.385 13.1712 20.935 11.7212C19.4851 10.2713 17.5193 9.45563 15.4688 9.45312C15.2408 9.45312 15.0222 9.54367 14.8611 9.70483C14.6999 9.86599 14.6094 10.0846 14.6094 10.3125V17.1875C14.6094 17.4154 14.6999 17.634 14.8611 17.7952C15.0222 17.9563 15.2408 18.0469 15.4688 18.0469ZM16.3281 11.2329C17.6127 11.4207 18.8024 12.018 19.7203 12.9359C20.6383 13.8539 21.2356 15.0436 21.4234 16.3281H16.3281V11.2329Z" fill="url(#paint1_linear_2529_2610)"/>
<path d="M33.5156 22.3438C31.306 22.3437 29.1461 22.999 27.3089 24.2265C25.4717 25.4541 24.0397 27.1989 23.1942 29.2403C22.3486 31.2817 22.1274 33.528 22.5584 35.6951C22.9895 37.8623 24.0535 39.8529 25.6159 41.4153C27.1783 42.9777 29.169 44.0418 31.3361 44.4728C33.5032 44.9039 35.7495 44.6827 37.7909 43.8371C39.8323 42.9915 41.5771 41.5596 42.8047 39.7224C44.0323 37.8852 44.6875 35.7252 44.6875 33.5156C44.6841 30.5537 43.506 27.7141 41.4116 25.6197C39.3172 23.5253 36.4775 22.3472 33.5156 22.3438ZM29.2188 30.0781V25.1058C29.7681 24.8243 30.3438 24.5975 30.9375 24.4286V30.0781H29.2188ZM39.5313 31.7969V33.5156H27.5V31.7969H39.5313ZM36.0938 30.0781V24.4286C36.6875 24.5975 37.2631 24.8243 37.8125 25.1058V30.0781H36.0938ZM34.375 24.1063V30.0781H32.6563V24.1063C32.9398 24.0805 33.2252 24.0625 33.5156 24.0625C33.8061 24.0625 34.0914 24.0805 34.375 24.1063ZM27.5 26.229V30.0781H26.6406C26.4127 30.0781 26.1941 30.1687 26.033 30.3298C25.8718 30.491 25.7813 30.7096 25.7813 30.9375V34.375C25.7813 34.6029 25.8718 34.8215 26.033 34.9827C26.1941 35.1438 26.4127 35.2344 26.6406 35.2344H40.3906C40.6186 35.2344 40.8371 35.1438 40.9983 34.9827C41.1595 34.8215 41.25 34.6029 41.25 34.375V30.9375C41.25 30.7096 41.1595 30.491 40.9983 30.3298C40.8371 30.1687 40.6186 30.0781 40.3906 30.0781H39.5313V26.229C41.0698 27.4924 42.1679 29.2113 42.6676 31.1383C43.1673 33.0654 43.0429 35.1013 42.3122 36.9531H24.7191C23.9884 35.1013 23.864 33.0654 24.3637 31.1383C24.8634 29.2113 25.9615 27.4924 27.5 26.229ZM33.5156 42.9687C31.9433 42.9671 30.3963 42.5733 29.0146 41.823C27.6329 41.0727 26.4601 39.9897 25.6025 38.6719H41.4288C40.5711 39.9897 39.3984 41.0727 38.0167 41.823C36.635 42.5733 35.0879 42.9671 33.5156 42.9687Z" fill="url(#paint2_linear_2529_2610)"/>
<path d="M52.9985 47.4865L49.2809 43.7688C49.4527 43.4452 49.5166 43.0751 49.4633 42.7126C49.41 42.35 49.2422 42.014 48.9844 41.7536L46.7973 39.5665C47.8506 37.2766 48.2893 34.7518 48.0701 32.2409C47.8508 29.7299 46.9812 27.3194 45.5469 25.2467V3.4375C45.5469 2.75374 45.2752 2.09798 44.7918 1.61449C44.3083 1.131 43.6525 0.859375 42.9688 0.859375H3.4375C2.75374 0.859375 2.09798 1.131 1.61449 1.61449C1.131 2.09798 0.859375 2.75374 0.859375 3.4375V36.0938C0.859375 36.7775 1.131 37.4333 1.61449 37.9168C2.09798 38.4002 2.75374 38.6719 3.4375 38.6719H19.8636C20.5644 40.5449 21.6437 42.2534 23.0342 43.6908C24.4247 45.1281 26.0965 46.2634 27.9453 47.0259C29.7941 47.7883 31.7803 48.1615 33.7797 48.1222C35.7792 48.0828 37.7491 47.6318 39.5665 46.7973L41.7536 48.9844C42.012 49.2456 42.3482 49.4157 42.7117 49.4692C43.0752 49.5226 43.4462 49.4566 43.7688 49.2809L47.4865 52.9985C48.2174 53.7295 49.2088 54.1401 50.2425 54.1401C51.2762 54.1401 52.2676 53.7295 52.9985 52.9985C53.7295 52.2676 54.1401 51.2762 54.1401 50.2425C54.1401 49.2088 53.7295 48.2174 52.9985 47.4865ZM3.4375 2.57812H42.9688C43.1967 2.57812 43.4153 2.66867 43.5764 2.82983C43.7376 2.99099 43.8281 3.20958 43.8281 3.4375V6.01562H2.57812V3.4375C2.57812 3.20958 2.66867 2.99099 2.82983 2.82983C2.99099 2.66867 3.20958 2.57812 3.4375 2.57812ZM3.4375 36.9531C3.20958 36.9531 2.99099 36.8626 2.82983 36.7014C2.66867 36.5403 2.57812 36.3217 2.57812 36.0938V7.73438H43.8281V23.1782C42.5844 21.9423 41.1291 20.9396 39.5312 20.2177V10.3125C39.5312 10.0846 39.4407 9.86599 39.2795 9.70483C39.1184 9.54367 38.8998 9.45312 38.6719 9.45312H35.2344C35.0065 9.45312 34.7879 9.54367 34.6267 9.70483C34.4655 9.86599 34.375 10.0846 34.375 10.3125V18.9501C34.0888 18.9329 33.8061 18.9062 33.5156 18.9062C33.2252 18.9062 32.9424 18.9329 32.6562 18.9501V15.4688C32.6562 15.2408 32.5657 15.0222 32.4045 14.8611C32.2434 14.6999 32.0248 14.6094 31.7969 14.6094H28.3594C28.1315 14.6094 27.9129 14.6999 27.7517 14.8611C27.5905 15.0222 27.5 15.2408 27.5 15.4688V20.2177C24.392 21.6062 21.8713 24.0434 20.3788 27.1028C18.8864 30.1622 18.5172 33.649 19.3359 36.9531H3.4375ZM37.8125 19.5534C37.2484 19.3832 36.6744 19.2478 36.0938 19.1477V11.1719H37.8125V19.5534ZM30.9375 19.1477C30.3568 19.2478 29.7829 19.3832 29.2188 19.5534V16.3281H30.9375V19.1477ZM20.625 33.5156C20.625 30.9661 21.381 28.4738 22.7975 26.354C24.2139 24.2341 26.2271 22.5819 28.5826 21.6062C30.9381 20.6306 33.5299 20.3753 36.0305 20.8727C38.531 21.3701 40.8279 22.5978 42.6307 24.4006C44.4335 26.2034 45.6612 28.5003 46.1586 31.0008C46.6559 33.5013 46.4007 36.0932 45.425 38.4487C44.4493 40.8041 42.7971 42.8173 40.6773 44.2338C38.5574 45.6502 36.0652 46.4062 33.5156 46.4062C30.098 46.4024 26.8215 45.043 24.4048 42.6264C21.9882 40.2098 20.6289 36.9332 20.625 33.5156ZM41.1486 45.9491C43.1015 44.7455 44.7455 43.1015 45.9491 41.1486L47.7692 42.9688L42.9688 47.7692L41.1486 45.9491ZM50.2425 52.4219C49.9562 52.4226 49.6726 52.3665 49.4081 52.2569C49.1437 52.1473 48.9035 51.9864 48.7016 51.7834L45.0433 48.125L48.125 45.0433L51.7834 48.7016C52.0881 49.0064 52.2956 49.3947 52.3796 49.8174C52.4637 50.2401 52.4205 50.6783 52.2556 51.0765C52.0907 51.4746 51.8114 51.815 51.4531 52.0545C51.0948 52.2939 50.6735 52.4218 50.2425 52.4219Z" fill="url(#paint3_linear_2529_2610)"/>
<path d="M15.4688 30.0781H5.15625C4.92833 30.0781 4.70974 30.1687 4.54858 30.3298C4.38742 30.491 4.29688 30.7096 4.29688 30.9375V34.375C4.29688 34.6029 4.38742 34.8215 4.54858 34.9827C4.70974 35.1438 4.92833 35.2344 5.15625 35.2344H15.4688C15.6967 35.2344 15.9153 35.1438 16.0764 34.9827C16.2376 34.8215 16.3281 34.6029 16.3281 34.375V30.9375C16.3281 30.7096 16.2376 30.491 16.0764 30.3298C15.9153 30.1687 15.6967 30.0781 15.4688 30.0781ZM14.6094 33.5156H6.01562V31.7969H14.6094V33.5156Z" fill="url(#paint4_linear_2529_2610)"/>
<defs>
<linearGradient id="paint0_linear_2529_2610" x1="6.23047" y1="28.3618" x2="21.6754" y2="19.0097" gradientUnits="userSpaceOnUse">
<stop stop-color="#3A67F6"/>
<stop offset="1" stop-color="#72E8FC"/>
</linearGradient>
<linearGradient id="paint1_linear_2529_2610" x1="15.6836" y1="18.0482" x2="24.2641" y2="12.8526" gradientUnits="userSpaceOnUse">
<stop stop-color="#3A67F6"/>
<stop offset="1" stop-color="#72E8FC"/>
</linearGradient>
<linearGradient id="paint2_linear_2529_2610" x1="25.1367" y1="44.691" x2="47.4461" y2="31.1824" gradientUnits="userSpaceOnUse">
<stop stop-color="#3A67F6"/>
<stop offset="1" stop-color="#72E8FC"/>
</linearGradient>
<linearGradient id="paint3_linear_2529_2610" x1="7.51946" y1="54.1484" x2="60.7181" y2="21.9361" gradientUnits="userSpaceOnUse">
<stop stop-color="#3A67F6"/>
<stop offset="1" stop-color="#72E8FC"/>
</linearGradient>
<linearGradient id="paint4_linear_2529_2610" x1="5.80078" y1="35.2352" x2="11.2802" y2="27.4936" gradientUnits="userSpaceOnUse">
<stop stop-color="#3A67F6"/>
<stop offset="1" stop-color="#72E8FC"/>
</linearGradient>
</defs>
</svg>
