<svg width="55" height="55" viewBox="0 0 55 55" fill="none" xmlns="http://www.w3.org/2000/svg">
<path d="M50.166 0.107422H4.83398C2.16853 0.107422 0 2.27595 0 4.94141V50.0586C0 52.7241 2.16853 54.8926 4.83398 54.8926H50.166C52.8315 54.8926 55 52.7241 55 50.0586V4.94141C55 2.27595 52.8315 0.107422 50.166 0.107422ZM4.83398 3.33008H50.166C51.0545 3.33008 51.7773 4.05292 51.7773 4.94141V12.998H3.22266V4.94141C3.22266 4.05292 3.9455 3.33008 4.83398 3.33008ZM50.166 51.6699H4.83398C3.9455 51.6699 3.22266 50.9471 3.22266 50.0586V16.2207H51.7773V50.0586C51.7773 50.9471 51.0545 51.6699 50.166 51.6699Z" fill="url(#paint0_linear_2529_2692)"/>
<path d="M32.9687 21.185C32.1508 20.8345 31.2034 21.2134 30.8529 22.0313L21.1849 44.5899C20.8343 45.4078 21.2133 46.3551 22.0312 46.7056C22.8494 47.0563 23.7966 46.6771 24.147 45.8594L33.8149 23.3008C34.1656 22.4828 33.7866 21.5355 32.9687 21.185V21.185Z" fill="url(#paint1_linear_2529_2692)"/>
<path d="M19.0903 26.4934C18.5343 25.7985 17.5201 25.6859 16.8256 26.2418L8.76892 32.6871C7.96336 33.3313 7.96283 34.5588 8.76892 35.2036L16.8256 41.6489C17.5205 42.2049 18.5346 42.0921 19.0903 41.3973C19.6462 40.7024 19.5337 39.6883 18.8386 39.1325L12.3549 33.9453L18.8386 28.7582C19.5337 28.2023 19.6462 27.1884 19.0903 26.4934V26.4934Z" fill="url(#paint2_linear_2529_2692)"/>
<path d="M46.2312 32.6871L38.1746 26.2418C37.4797 25.6858 36.4656 25.7984 35.9098 26.4933C35.3539 27.1883 35.4665 28.2023 36.1615 28.7581L42.6453 33.9453L36.1615 39.1324C35.4665 39.6883 35.3539 40.7023 35.9098 41.3972C36.4665 42.0928 37.4806 42.2041 38.1746 41.6488L46.2312 35.2034C47.0368 34.5592 47.0373 33.3318 46.2312 32.6871Z" fill="url(#paint3_linear_2529_2692)"/>
<path d="M8.16406 9.77539C9.05397 9.77539 9.77539 9.05397 9.77539 8.16406C9.77539 7.27415 9.05397 6.55273 8.16406 6.55273C7.27415 6.55273 6.55273 7.27415 6.55273 8.16406C6.55273 9.05397 7.27415 9.77539 8.16406 9.77539Z" fill="url(#paint4_linear_2529_2692)"/>
<path d="M14.6094 9.77539C15.4993 9.77539 16.2207 9.05397 16.2207 8.16406C16.2207 7.27415 15.4993 6.55273 14.6094 6.55273C13.7195 6.55273 12.998 7.27415 12.998 8.16406C12.998 9.05397 13.7195 9.77539 14.6094 9.77539Z" fill="url(#paint5_linear_2529_2692)"/>
<path d="M21.0547 9.77539C21.9446 9.77539 22.666 9.05397 22.666 8.16406C22.666 7.27415 21.9446 6.55273 21.0547 6.55273C20.1648 6.55273 19.4434 7.27415 19.4434 8.16406C19.4434 9.05397 20.1648 9.77539 21.0547 9.77539Z" fill="url(#paint6_linear_2529_2692)"/>
<path d="M37.168 9.77539H46.8359C47.7258 9.77539 48.4473 9.05395 48.4473 8.16406C48.4473 7.27418 47.7258 6.55273 46.8359 6.55273H37.168C36.2781 6.55273 35.5566 7.27418 35.5566 8.16406C35.5566 9.05395 36.2781 9.77539 37.168 9.77539Z" fill="url(#paint7_linear_2529_2692)"/>
<defs>
<linearGradient id="paint0_linear_2529_2692" x1="6.875" y1="54.9011" x2="61.6748" y2="21.5892" gradientUnits="userSpaceOnUse">
<stop stop-color="#3A67F6"/>
<stop offset="1" stop-color="#72E8FC"/>
</linearGradient>
<linearGradient id="paint1_linear_2529_2692" x1="22.6656" y1="46.8404" x2="38.7794" y2="41.9617" gradientUnits="userSpaceOnUse">
<stop stop-color="#3A67F6"/>
<stop offset="1" stop-color="#72E8FC"/>
</linearGradient>
<linearGradient id="paint2_linear_2529_2692" x1="9.57442" y1="42.0046" x2="22.6212" y2="36.4748" gradientUnits="userSpaceOnUse">
<stop stop-color="#3A67F6"/>
<stop offset="1" stop-color="#72E8FC"/>
</linearGradient>
<linearGradient id="paint3_linear_2529_2692" x1="36.9665" y1="42.0045" x2="50.0133" y2="36.4747" gradientUnits="userSpaceOnUse">
<stop stop-color="#3A67F6"/>
<stop offset="1" stop-color="#72E8FC"/>
</linearGradient>
<linearGradient id="paint4_linear_2529_2692" x1="6.95557" y1="9.77589" x2="10.1733" y2="7.82755" gradientUnits="userSpaceOnUse">
<stop stop-color="#3A67F6"/>
<stop offset="1" stop-color="#72E8FC"/>
</linearGradient>
<linearGradient id="paint5_linear_2529_2692" x1="13.4009" y1="9.77589" x2="16.6186" y2="7.82755" gradientUnits="userSpaceOnUse">
<stop stop-color="#3A67F6"/>
<stop offset="1" stop-color="#72E8FC"/>
</linearGradient>
<linearGradient id="paint6_linear_2529_2692" x1="19.8462" y1="9.77589" x2="23.0639" y2="7.82755" gradientUnits="userSpaceOnUse">
<stop stop-color="#3A67F6"/>
<stop offset="1" stop-color="#72E8FC"/>
</linearGradient>
<linearGradient id="paint7_linear_2529_2692" x1="37.168" y1="9.77589" x2="39.7297" y2="3.57121" gradientUnits="userSpaceOnUse">
<stop stop-color="#3A67F6"/>
<stop offset="1" stop-color="#72E8FC"/>
</linearGradient>
</defs>
</svg>
