<svg width="20" height="20" viewBox="0 0 20 20" fill="none" xmlns="http://www.w3.org/2000/svg">
<path d="M7.50008 18.3334H12.5001C16.6667 18.3334 18.3334 16.6667 18.3334 12.5V7.50002C18.3334 3.33335 16.6667 1.66669 12.5001 1.66669H7.50008C3.33341 1.66669 1.66675 3.33335 1.66675 7.50002V12.5C1.66675 16.6667 3.33341 18.3334 7.50008 18.3334Z" stroke="white" stroke-width="1.5" stroke-linecap="round" stroke-linejoin="round"/>
<path d="M12.9167 15.4166C13.8333 15.4166 14.5833 14.6666 14.5833 13.75V6.24998C14.5833 5.33331 13.8333 4.58331 12.9167 4.58331C12 4.58331 11.25 5.33331 11.25 6.24998V13.75C11.25 14.6666 11.9917 15.4166 12.9167 15.4166Z" stroke="white" stroke-width="1.5" stroke-linecap="round" stroke-linejoin="round"/>
<path d="M7.08341 15.4167C8.00008 15.4167 8.75008 14.6667 8.75008 13.75V10.8334C8.75008 9.91669 8.00008 9.16669 7.08341 9.16669C6.16675 9.16669 5.41675 9.91669 5.41675 10.8334V13.75C5.41675 14.6667 6.15841 15.4167 7.08341 15.4167Z" stroke="white" stroke-width="1.5" stroke-linecap="round" stroke-linejoin="round"/>
</svg>
