<svg width="55" height="55" viewBox="0 0 55 55" fill="none" xmlns="http://www.w3.org/2000/svg">
<path d="M53.9258 44.2578H52.8516V18.6914C52.8516 15.2559 50.0566 12.4609 46.6211 12.4609H38.9531C38.9797 12.1421 38.9941 11.8197 38.9941 11.4941C38.9941 5.15625 33.8379 0 27.5 0C21.1621 0 16.0059 5.15625 16.0059 11.4941C16.0059 11.8197 16.0203 12.1421 16.0469 12.4609H8.37891C4.94345 12.4609 2.14844 15.2559 2.14844 18.6914V44.2578H1.07422C0.481035 44.2578 0 44.7388 0 45.332V48.7695C0 52.205 2.79501 55 6.23047 55H48.7695C52.205 55 55 52.205 55 48.7695V45.332C55 44.7388 54.519 44.2578 53.9258 44.2578ZM44.7591 44.2578V33.9015L50.7031 27.9575V44.2578H44.7591ZM42.6107 34.5307V44.2578H36.6666V34.5307H42.6107ZM27.5 2.14844C32.6532 2.14844 36.8457 6.3409 36.8457 11.4941C36.8457 16.6474 32.6532 20.8398 27.5 20.8398C22.3468 20.8398 18.1543 16.6474 18.1543 11.4941C18.1543 6.3409 22.3468 2.14844 27.5 2.14844ZM8.37891 14.6094H16.4351C17.7966 19.4384 22.2414 22.9883 27.5 22.9883C32.7586 22.9883 37.2035 19.4384 38.5649 14.6094H46.6211C48.8719 14.6094 50.7031 16.4406 50.7031 18.6914V24.9191L43.2399 32.3823H32.3483C31.7551 32.3823 31.2741 32.8634 31.2741 33.4565C31.2741 34.0497 31.7551 34.5308 32.3483 34.5308H34.5182V44.2578H28.5742V38.2904C28.5742 37.6972 28.0932 37.2162 27.5 37.2162C26.9068 37.2162 26.4258 37.6972 26.4258 38.2904V44.2578H20.4818V34.5307H22.6797C23.2728 34.5307 23.7539 34.0496 23.7539 33.4564C23.7539 32.8633 23.2728 32.3822 22.6797 32.3822H15.0983C14.8134 32.3822 14.5402 32.4954 14.3387 32.6969L4.29688 42.7385V18.6914C4.29688 16.4406 6.1281 14.6094 8.37891 14.6094ZM5.81614 44.2578L10.2408 39.8331V44.2578H5.81614ZM12.3893 37.6847L15.5432 34.5308H18.3334V44.2578H12.3893V37.6847ZM52.8516 48.7695C52.8516 51.0203 51.0203 52.8516 48.7695 52.8516H6.23047C3.97966 52.8516 2.14844 51.0203 2.14844 48.7695V46.4062H52.8516V48.7695Z" fill="url(#paint0_linear_2529_2603)"/>
<path d="M31.439 48.5547H23.5613C22.9681 48.5547 22.4871 49.0357 22.4871 49.6289C22.4871 50.2221 22.9681 50.7031 23.5613 50.7031H31.439C32.0321 50.7031 32.5132 50.2221 32.5132 49.6289C32.5132 49.0357 32.0321 48.5547 31.439 48.5547Z" fill="url(#paint1_linear_2529_2603)"/>
<path d="M27.5001 14.9374C26.72 14.9374 26.0854 14.406 26.0854 13.7529C26.0854 13.1596 25.6044 12.6787 25.0112 12.6787C24.418 12.6787 23.937 13.1596 23.937 13.7529C23.937 15.2406 24.9846 16.5034 26.4259 16.9308V17.0801C26.4259 17.6734 26.9069 18.1543 27.5001 18.1543C28.0933 18.1543 28.5743 17.6734 28.5743 17.0801V16.9308C30.0156 16.5035 31.0632 15.2407 31.0632 13.7529C31.0632 11.915 29.4647 10.4199 27.5001 10.4199C26.72 10.4199 26.0854 9.88851 26.0854 9.23538C26.0854 8.58226 26.72 8.05084 27.5001 8.05084C28.2802 8.05084 28.9147 8.58226 28.9147 9.23538C28.9147 9.82867 29.3958 10.3096 29.9889 10.3096C30.5821 10.3096 31.0632 9.82867 31.0632 9.23538C31.0632 7.7477 30.0156 6.48484 28.5743 6.05752V5.9082C28.5743 5.31491 28.0933 4.83398 27.5001 4.83398C26.9069 4.83398 26.4259 5.31491 26.4259 5.9082V6.05752C24.9846 6.48474 23.937 7.74759 23.937 9.23538C23.937 11.0732 25.5354 12.5684 27.5001 12.5684C28.2802 12.5684 28.9147 13.0998 28.9147 13.7529C28.9147 14.406 28.2802 14.9374 27.5001 14.9374Z" fill="url(#paint2_linear_2529_2603)"/>
<path d="M27.5 34.7102C27.7825 34.7102 28.0597 34.5952 28.2594 34.3953C28.4592 34.1944 28.5742 33.9185 28.5742 33.6348C28.5742 33.3522 28.4593 33.0763 28.2594 32.8754C28.0597 32.6756 27.7825 32.5605 27.5 32.5605C27.2175 32.5605 26.9403 32.6755 26.7405 32.8754C26.5407 33.0763 26.4258 33.3522 26.4258 33.6348C26.4258 33.9185 26.5406 34.1956 26.7405 34.3953C26.9403 34.5952 27.2175 34.7102 27.5 34.7102Z" fill="url(#paint3_linear_2529_2603)"/>
<path d="M9.63545 28.4607C9.7897 28.5379 9.95363 28.5744 10.1151 28.5744C10.5091 28.5744 10.8884 28.3569 11.0766 27.9805L14.8473 20.4411C15.1128 19.9105 14.8977 19.2651 14.3671 18.9998C13.8364 18.7343 13.1912 18.9495 12.9259 19.4801L9.15516 27.0195C8.88983 27.5501 9.10489 28.1955 9.63545 28.4607Z" fill="url(#paint4_linear_2529_2603)"/>
<path d="M8.43262 21.0354C8.71514 21.0354 8.99229 20.9204 9.19198 20.7206C9.39179 20.5208 9.50684 20.2437 9.50684 19.9611C9.50684 19.6775 9.39189 19.4004 9.19198 19.2017C8.99229 19.0008 8.71514 18.8869 8.43262 18.8869C8.1501 18.8869 7.87295 19.0008 7.67314 19.2017C7.47334 19.4015 7.3584 19.6775 7.3584 19.9611C7.3584 20.2437 7.47323 20.5197 7.67314 20.7206C7.87295 20.9204 8.1501 21.0354 8.43262 21.0354Z" fill="url(#paint5_linear_2529_2603)"/>
<path d="M14.4954 27.5C14.4954 27.7825 14.6103 28.0597 14.8102 28.2594C15.0099 28.4592 15.2871 28.5742 15.5696 28.5742C15.8533 28.5742 16.1292 28.4593 16.3291 28.2594C16.5299 28.0597 16.6438 27.7825 16.6438 27.5C16.6438 27.2175 16.5299 26.9403 16.3291 26.7405C16.1292 26.5407 15.8532 26.4258 15.5696 26.4258C15.2871 26.4258 15.0099 26.5407 14.8102 26.7405C14.6104 26.9403 14.4954 27.2175 14.4954 27.5Z" fill="url(#paint6_linear_2529_2603)"/>
<defs>
<linearGradient id="paint0_linear_2529_2603" x1="6.875" y1="55.0086" x2="61.7903" y2="21.7568" gradientUnits="userSpaceOnUse">
<stop stop-color="#3A67F6"/>
<stop offset="1" stop-color="#72E8FC"/>
</linearGradient>
<linearGradient id="paint1_linear_2529_2603" x1="23.7403" y1="50.7035" x2="25.263" y2="46.4007" gradientUnits="userSpaceOnUse">
<stop stop-color="#3A67F6"/>
<stop offset="1" stop-color="#72E8FC"/>
</linearGradient>
<linearGradient id="paint2_linear_2529_2603" x1="24.8278" y1="18.1564" x2="33.6282" y2="15.3056" gradientUnits="userSpaceOnUse">
<stop stop-color="#3A67F6"/>
<stop offset="1" stop-color="#72E8FC"/>
</linearGradient>
<linearGradient id="paint3_linear_2529_2603" x1="26.6943" y1="34.7105" x2="28.8401" y2="33.4119" gradientUnits="userSpaceOnUse">
<stop stop-color="#3A67F6"/>
<stop offset="1" stop-color="#72E8FC"/>
</linearGradient>
<linearGradient id="paint4_linear_2529_2603" x1="9.78145" y1="28.576" x2="16.8864" y2="25.9474" gradientUnits="userSpaceOnUse">
<stop stop-color="#3A67F6"/>
<stop offset="1" stop-color="#72E8FC"/>
</linearGradient>
<linearGradient id="paint5_linear_2529_2603" x1="7.62695" y1="21.0357" x2="9.77208" y2="19.7368" gradientUnits="userSpaceOnUse">
<stop stop-color="#3A67F6"/>
<stop offset="1" stop-color="#72E8FC"/>
</linearGradient>
<linearGradient id="paint6_linear_2529_2603" x1="14.7639" y1="28.5746" x2="16.909" y2="27.2757" gradientUnits="userSpaceOnUse">
<stop stop-color="#3A67F6"/>
<stop offset="1" stop-color="#72E8FC"/>
</linearGradient>
</defs>
</svg>
