<svg width="49" height="50" viewBox="0 0 49 50" fill="none" xmlns="http://www.w3.org/2000/svg">
<path d="M42.4667 30H43.2834C43.7344 30 44.1 29.6269 44.1 29.1667C44.1 28.7065 43.7344 28.3334 43.2834 28.3334H40.0167V26.6667C40.0167 26.2065 39.6511 25.8334 39.2 25.8334C38.749 25.8334 38.3834 26.2065 38.3834 26.6667V28.3334H35.1167C34.6657 28.3334 34.3 28.7065 34.3 29.1667C34.3 29.6269 34.6657 30 35.1167 30H40.8334V31.6667C40.8334 32.9782 40.2282 34.2132 39.2 35C38.563 34.5105 38.0803 33.8413 37.8117 33.075C37.6497 32.6554 37.1898 32.4435 36.7741 32.5969C36.3584 32.7503 36.1378 33.2134 36.2764 33.6417C36.5497 34.4326 36.9903 35.1523 37.5667 35.75C36.7548 35.8613 35.9341 35.8893 35.1167 35.8334C34.6657 35.8334 34.3 36.2065 34.3 36.6667C34.3 37.127 34.6657 37.5 35.1167 37.5C36.8235 37.5 37.8035 37.6084 39.2 36.925C40.6129 37.6084 41.5602 37.5 43.2834 37.5C43.7344 37.5 44.1 37.127 44.1 36.6667C44.1 36.2065 43.7344 35.8334 43.2834 35.8334C42.466 35.8982 41.6439 35.8675 40.8334 35.7417C42.679 33.8167 42.4667 31.8084 42.4667 30Z" fill="url(#paint0_linear)"/>
<path d="M0.816667 50H28.5833C29.0344 50 29.4 49.6269 29.4 49.1667V48.5C29.4036 46.4044 28.2897 44.4727 26.4927 43.4583L20.9312 39.9083C20.1186 39.4496 19.6103 38.5808 19.6 37.6333V35C21.0907 33.5141 22.1674 31.6504 22.7197 29.6C23.3143 29.2009 23.6755 28.5262 23.6833 27.8V24.925C23.6415 24.3012 23.3452 23.7238 22.8667 23.3333V19.1083C22.8667 18.8333 22.295 12.5 14.7 12.5C7.105 12.5 6.53333 18.8917 6.53333 19.2167V23.3333C6.05273 23.7258 5.75629 24.3066 5.71667 24.9333V27.8083C5.72088 28.5421 6.08599 29.2246 6.6885 29.625C7.23361 31.6694 8.30844 33.5261 9.8 35V37.6333C9.79585 38.6309 9.24807 39.5432 8.379 40L2.989 43.45C1.17042 44.4573 0.0272278 46.3887 0 48.5V49.1667C0 49.6269 0.365634 50 0.816667 50ZM3.81383 44.85L9.20383 41.3917C10.5667 40.6514 11.4225 39.2087 11.4333 37.6333V35C11.4341 34.5352 11.2447 34.0911 10.9107 33.775C9.65931 32.5257 8.75236 30.9621 8.281 29.2417C8.0605 28.25 7.35 28.3333 7.35 27.8V24.9417C7.41149 24.7956 7.50677 24.6669 7.62767 24.5667C7.96982 24.2516 8.16558 23.8036 8.16667 23.3333V19.275C8.16667 18.75 8.66483 14.1667 14.7 14.1667C20.7352 14.1667 21.2333 18.7083 21.2333 19.1667V23.3333C21.2333 24.3583 21.9602 24.5917 22.05 24.925V27.8C22.0494 27.9699 21.963 28.1274 21.8213 28.2167C21.4657 28.4524 21.2138 28.8199 21.119 29.2417C20.6476 30.9621 19.7407 32.5257 18.4893 33.775C18.1553 34.0911 17.9659 34.5352 17.9667 35V37.6333C17.9633 39.1753 18.7834 40.5966 20.1063 41.3417L25.6678 44.9C26.9084 45.5904 27.7046 46.8928 27.7667 48.3334H1.63333C1.70477 46.8603 2.53406 45.5355 3.81383 44.85Z" fill="url(#paint1_linear)"/>
<path d="M44.9167 22.5H33.4833C31.2282 22.5 29.4 24.3655 29.4 26.6667V27.8833L24.8675 30.975C24.6418 31.1298 24.5063 31.3891 24.5063 31.6667C24.5063 31.9442 24.6418 32.2035 24.8675 32.3583L29.4 35.45V36.6667C29.4 38.9679 31.2282 40.8333 33.4833 40.8333H44.9167C47.1718 40.8333 49 38.9679 49 36.6667V26.6667C49 24.3655 47.1718 22.5 44.9167 22.5ZM47.3667 36.6667C47.3667 38.0474 46.2698 39.1667 44.9167 39.1667H33.4833C32.1302 39.1667 31.0333 38.0474 31.0333 36.6667V35C31.0319 34.7212 30.894 34.4617 30.6658 34.3083L26.7867 31.6667L30.6658 29.025C30.894 28.8717 31.0319 28.6121 31.0333 28.3333V26.6667C31.0333 25.286 32.1302 24.1667 33.4833 24.1667H44.9167C46.2698 24.1667 47.3667 25.286 47.3667 26.6667V36.6667Z" fill="url(#paint2_linear)"/>
<path d="M44.9167 0H33.4833C31.2282 0 29.4 1.86548 29.4 4.16667V5.38333L24.8675 8.475C24.6418 8.6298 24.5063 8.88913 24.5063 9.16667C24.5063 9.44421 24.6418 9.70353 24.8675 9.85833L29.4 12.95V14.1667C29.4 16.4679 31.2282 18.3333 33.4833 18.3333H44.9167C47.1718 18.3333 49 16.4679 49 14.1667V4.16667C49 1.86548 47.1718 0 44.9167 0ZM47.3667 14.1667C47.3667 15.5474 46.2698 16.6667 44.9167 16.6667H33.4833C32.1302 16.6667 31.0333 15.5474 31.0333 14.1667V12.5C31.0319 12.2212 30.894 11.9617 30.6658 11.8083L26.7867 9.16667L30.6658 6.525C30.894 6.37168 31.0319 6.1121 31.0333 5.83333V4.16667C31.0333 2.78595 32.1302 1.66667 33.4833 1.66667H44.9167C46.2698 1.66667 47.3667 2.78595 47.3667 4.16667V14.1667Z" fill="url(#paint3_linear)"/>
<path d="M39.2 3.33337C36.4939 3.33337 34.3 5.57195 34.3 8.33337V14.1667C34.3 14.6269 34.6657 15 35.1167 15C35.5677 15 35.9334 14.6269 35.9334 14.1667V10.8334H42.4667V14.1667C42.4667 14.6269 42.8323 15 43.2834 15C43.7344 15 44.1 14.6269 44.1 14.1667V8.33337C44.1 5.57195 41.9062 3.33337 39.2 3.33337ZM35.9334 9.16671V8.33337C35.9334 6.49243 37.3959 5.00004 39.2 5.00004C41.0042 5.00004 42.4667 6.49243 42.4667 8.33337V9.16671H35.9334Z" fill="url(#paint4_linear)"/>
<defs>
<linearGradient id="paint0_linear" x1="34.6973" y1="32.9386" x2="44.1018" y2="32.9732" gradientUnits="userSpaceOnUse">
<stop stop-color="#088AF7"/>
<stop offset="1" stop-color="#1AB1E7"/>
</linearGradient>
<linearGradient id="paint1_linear" x1="1.19189" y1="35.3261" x2="29.4053" y2="35.4229" gradientUnits="userSpaceOnUse">
<stop stop-color="#088AF7"/>
<stop offset="1" stop-color="#1AB1E7"/>
</linearGradient>
<linearGradient id="paint2_linear" x1="25.4993" y1="33.6594" x2="49.0039" y2="33.7969" gradientUnits="userSpaceOnUse">
<stop stop-color="#088AF7"/>
<stop offset="1" stop-color="#1AB1E7"/>
</linearGradient>
<linearGradient id="paint3_linear" x1="25.4993" y1="11.1594" x2="49.0039" y2="11.2969" gradientUnits="userSpaceOnUse">
<stop stop-color="#088AF7"/>
<stop offset="1" stop-color="#1AB1E7"/>
</linearGradient>
<linearGradient id="paint4_linear" x1="34.6973" y1="10.4348" x2="44.1018" y2="10.4694" gradientUnits="userSpaceOnUse">
<stop stop-color="#088AF7"/>
<stop offset="1" stop-color="#1AB1E7"/>
</linearGradient>
</defs>
</svg>
