<svg width="20" height="20" viewBox="0 0 20 20" fill="none" xmlns="http://www.w3.org/2000/svg">
<g clip-path="url(#clip0_2529_2530)">
<path d="M18.9441 8.77607C18.3333 6.8328 17.9408 5.93301 17.7611 5.56954L17.761 5.56942C17.6166 5.27187 17.2505 4.63159 17.2359 4.60614C17.1846 4.54355 15.9133 3.02216 12.8492 1.89685L12.4443 2.99922C13.8931 3.5313 14.8848 4.14574 15.499 4.60771C13.8023 4.10174 11.7847 3.79209 9.99779 3.79209C8.20871 3.79209 6.18871 4.10264 4.49069 4.6097C5.05941 4.18774 6.09359 3.53458 7.55129 2.99922L7.14639 1.89685C4.08232 3.02216 2.81096 4.54355 2.75967 4.60614C2.75967 4.60614 2.45766 5.09367 2.20391 5.629C2.05183 5.94985 1.65786 6.68243 1.04768 8.78875C0.282403 11.4311 0.0106087 15.1661 0 15.3155C0.135095 15.611 1.70096 18.1032 5.91461 18.1032L7.06924 16.4312C8.02226 16.6785 9.00542 16.8035 9.99786 16.8035C10.9924 16.8035 11.9775 16.6779 12.9324 16.4297L14.0799 18.1032C18.3773 18.1032 19.7801 15.6958 20 15.3088C19.983 15.1308 19.5574 10.7277 18.9441 8.77607ZM17.8194 15.8941C16.9255 16.5267 15.8754 16.872 14.6942 16.9224L14.1018 16.0585C14.9188 15.7506 15.7027 15.3499 16.4393 14.8596L15.7886 13.882C14.9669 14.4289 14.0799 14.8521 13.1514 15.1451V15.1463C13.1514 15.1463 11.6138 15.6291 9.9979 15.6291C8.38198 15.6291 6.84876 15.1477 6.84876 15.1477V15.1465C5.91868 14.8534 5.03013 14.4298 4.20723 13.882L3.55646 14.8596C4.29437 15.3508 5.07973 15.7519 5.89832 16.06L5.30279 16.9224C4.12107 16.8722 3.0705 16.5269 2.17635 15.8941C1.67786 15.5413 1.3567 15.1836 1.20235 14.991C1.27046 14.1866 1.54918 11.2789 2.17588 9.11547C2.64623 7.49187 2.97091 6.73207 3.14816 6.36523C3.14816 6.36523 7.69343 4.96645 9.9979 4.96645C12.3005 4.96645 15.1099 5.53849 16.8323 6.35795C17.0185 6.78222 17.35 7.62078 17.8237 9.12815C18.3235 10.7184 18.6963 14.0977 18.7893 14.9961C18.6326 15.1907 18.3129 15.5448 17.8194 15.8941Z" fill="white"/>
<path d="M6.1084 9.90369H7.28279V11.861H6.1084V9.90369Z" fill="white"/>
<path d="M12.7129 9.90369H13.8873V11.861H12.7129V9.90369Z" fill="white"/>
</g>
<defs>
<clipPath id="clip0_2529_2530">
<rect width="20" height="20" fill="white"/>
</clipPath>
</defs>
</svg>
