<svg width="26" height="20" viewBox="0 0 26 20" fill="none" xmlns="http://www.w3.org/2000/svg">
<path d="M22.0247 1.6756C20.3196 0.882759 18.5157 0.319264 16.6608 0C16.4294 0.414702 16.1603 0.974097 15.9731 1.41722C14.0029 1.11879 11.9985 1.11879 10.0282 1.41722C9.82158 0.932996 9.58942 0.459932 9.33269 0C7.47617 0.31979 5.67096 0.884612 3.96496 1.67948C0.570636 6.77734 -0.34977 11.7486 0.110433 16.6488C2.09185 18.1355 4.31804 19.269 6.68977 19.9987C7.22266 19.2699 7.694 18.4986 8.09898 17.6927C7.3287 17.4009 6.58606 17.0416 5.87987 16.6191C6.06577 16.4821 6.24777 16.3387 6.42327 16.1915C10.7016 18.1797 15.3491 18.1797 19.5767 16.1915C19.7548 16.3387 19.9368 16.4821 20.1201 16.6191C19.4168 17.0402 18.6719 17.402 17.8971 17.6939C18.3014 18.5003 18.7728 19.2717 19.3063 20C21.68 19.2708 23.9077 18.1363 25.8896 16.6475C26.4291 10.9683 24.9679 6.04225 22.0247 1.6756ZM8.68138 13.6348C7.39698 13.6348 6.34397 12.4436 6.34397 10.9928C6.34397 9.54202 7.37488 8.3483 8.68138 8.3483C9.98789 8.3483 11.0409 9.53944 11.0188 10.9928C11.0201 12.4436 9.98789 13.6348 8.68138 13.6348ZM17.3186 13.6348C16.0342 13.6348 14.9812 12.4436 14.9812 10.9928C14.9812 9.54202 16.0121 8.3483 17.3186 8.3483C18.6251 8.3483 19.6781 9.53944 19.656 10.9928C19.656 12.4436 18.6251 13.6348 17.3186 13.6348Z" fill="white"/>
</svg>
