<svg width="20" height="20" viewBox="0 0 20 20" fill="none" xmlns="http://www.w3.org/2000/svg">
<g clip-path="url(#clip0_2529_2544)">
<path d="M17.4999 20.0001H12.5001V12.5001H14.9249L15.5625 9.99994H12.5001V6.99994C12.5001 6.17157 13.1715 5.49994 14.0001 5.49994H15.5001V3H14.0001C11.7924 3.00348 10.0034 4.79224 9.99994 6.99994V9.99994H7.5V12.5001H9.99994V20.0001H2.49994C1.11932 20.0001 0 18.8807 0 17.4999V2.49994C0 1.11932 1.11932 0 2.49994 0H17.4999C18.8807 0 20.0001 1.11932 20.0001 2.49994V17.4999C20.0001 18.8807 18.8807 20.0001 17.4999 20.0001ZM13.5 18.9999H17.4999C18.3285 18.9999 18.9999 18.3285 18.9999 17.4999V2.49994C18.9999 1.67157 18.3285 0.999939 17.4999 0.999939H2.49994C1.67157 0.999939 0.999939 1.67157 0.999939 2.49994V17.4999C0.999939 18.3285 1.67157 18.9999 2.49994 18.9999H9V13.5H6.50006V9H9V6.99994C9.00348 4.23999 11.2399 2.00336 14.0001 2.00006H16.5V6.50006H14.0001C13.7239 6.50006 13.5 6.72382 13.5 6.99994V9H16.8499L15.7 13.5H13.5V18.9999Z" fill="white"/>
</g>
<defs>
<clipPath id="clip0_2529_2544">
<rect width="20" height="20" fill="white"/>
</clipPath>
</defs>
</svg>
