<svg width="70" height="70" viewBox="0 0 70 70" fill="none" xmlns="http://www.w3.org/2000/svg">
<path d="M16.2928 18.1292H8.5033C7.93701 18.1292 7.47791 18.5883 7.47791 19.1546V26.9443C7.47791 27.5106 7.93701 27.9697 8.5033 27.9697H16.2928C16.8591 27.9697 17.3182 27.5106 17.3182 26.9443V19.1546C17.3182 18.5883 16.8591 18.1292 16.2928 18.1292ZM15.2675 25.919H9.52869V20.1801H15.2675V25.919Z" fill="url(#paint0_linear_605_113)"/>
<path d="M27.5966 18.1293H21.8229C21.2566 18.1293 20.7975 18.5884 20.7975 19.1547C20.7975 19.721 21.2566 20.1801 21.8229 20.1801H27.5966C28.1629 20.1801 28.622 19.721 28.622 19.1547C28.622 18.5884 28.1629 18.1293 27.5966 18.1293Z" fill="url(#paint1_linear_605_113)"/>
<path d="M16.2928 32.935H8.5033C7.93701 32.935 7.47791 33.3941 7.47791 33.9604V41.7501C7.47791 42.3164 7.93701 42.7755 8.5033 42.7755H16.2928C16.8591 42.7755 17.3182 42.3164 17.3182 41.7501V33.9604C17.3182 33.3941 16.8591 32.935 16.2928 32.935ZM15.2675 40.7247H9.52869V34.9858H15.2675V40.7247Z" fill="url(#paint2_linear_605_113)"/>
<path d="M27.5966 32.935H21.8229C21.2566 32.935 20.7975 33.3941 20.7975 33.9604C20.7975 34.5267 21.2566 34.9858 21.8229 34.9858H27.5966C28.1629 34.9858 28.622 34.5267 28.622 33.9604C28.622 33.3941 28.1629 32.935 27.5966 32.935Z" fill="url(#paint3_linear_605_113)"/>
<path d="M16.2928 47.7408H8.5033C7.93701 47.7408 7.47791 48.1999 7.47791 48.7662V56.5559C7.47791 57.1222 7.93701 57.5813 8.5033 57.5813H16.2928C16.8591 57.5813 17.3182 57.1222 17.3182 56.5559V48.7662C17.3182 48.1999 16.8591 47.7408 16.2928 47.7408ZM15.2675 55.5305H9.52869V49.7916H15.2675V55.5305Z" fill="url(#paint4_linear_605_113)"/>
<path d="M27.5966 47.7408H21.8229C21.2566 47.7408 20.7975 48.1999 20.7975 48.7662C20.7975 49.3325 21.2566 49.7916 21.8229 49.7916H27.5966C28.1629 49.7916 28.622 49.3325 28.622 48.7662C28.622 48.1999 28.1629 47.7408 27.5966 47.7408Z" fill="url(#paint5_linear_605_113)"/>
<path d="M38.2495 55.5305H21.8229C21.2566 55.5305 20.7975 55.9896 20.7975 56.5558C20.7975 57.1221 21.2566 57.5812 21.8229 57.5812H38.2495C38.8158 57.5812 39.2749 57.1221 39.2749 56.5558C39.2749 55.9896 38.8158 55.5305 38.2495 55.5305Z" fill="url(#paint6_linear_605_113)"/>
<path d="M61.8789 19.9436V1.71448C61.8789 1.14819 61.4198 0.689087 60.8535 0.689087H1.02539C0.459102 0.689087 0 1.14819 0 1.71448V36.9141C0 37.4804 0.459102 37.9395 1.02539 37.9395C1.59168 37.9395 2.05078 37.4804 2.05078 36.9141V10.393H42.3373C42.9036 10.393 43.3627 9.93387 43.3627 9.36758C43.3627 8.80129 42.9036 8.34219 42.3373 8.34219H2.05078V2.73987H59.8281V8.34219H46.6666C46.1003 8.34219 45.6412 8.80129 45.6412 9.36758C45.6412 9.93387 46.1003 10.393 46.6666 10.393H59.8281V18.6001C56.8896 16.9202 53.4897 15.9591 49.8693 15.9591C44.2378 15.9591 39.14 18.2844 35.4829 22.0242H21.8226C21.2563 22.0242 20.7972 22.4833 20.7972 23.0496C20.7972 23.6159 21.2563 24.075 21.8226 24.075H33.7269C33.2862 24.6655 32.8781 25.2814 32.5032 25.919H21.8226C21.2563 25.919 20.7972 26.3781 20.7972 26.9444C20.7972 27.5107 21.2563 27.9698 21.8226 27.9698H31.4508C30.3509 30.4549 29.7385 33.202 29.7385 36.0898C29.7385 36.3377 29.7447 36.5842 29.7536 36.83H21.8226C21.2563 36.83 20.7972 37.2891 20.7972 37.8554C20.7972 38.4217 21.2563 38.8808 21.8226 38.8808H29.9329C30.0199 39.5049 30.135 40.1201 30.278 40.7248H21.8226C21.2563 40.7248 20.7972 41.1839 20.7972 41.7502C20.7972 42.3165 21.2563 42.7756 21.8226 42.7756H30.8813C32.1152 46.2697 34.2869 49.325 37.0938 51.6358H21.8228C21.2565 51.6358 20.7974 52.0949 20.7974 52.6612C20.7974 53.2275 21.2565 53.6866 21.8228 53.6866H38.2494C38.6471 53.6866 38.9912 53.4598 39.1613 53.1287C42.2648 55.0861 45.9368 56.2206 49.8694 56.2206C53.4898 56.2206 56.8896 55.2593 59.8283 53.5796V67.2602H2.05078V41.3903C2.05078 40.824 1.59168 40.3649 1.02539 40.3649C0.459102 40.3649 0 40.824 0 41.3903V68.2856C0 68.8519 0.459102 69.311 1.02539 69.311H60.8535C61.4198 69.311 61.8789 68.8519 61.8789 68.2856V52.2359C66.8045 48.5627 70 42.6925 70 36.0897C70 29.4868 66.8045 23.6167 61.8789 19.9436ZM49.8693 54.1696C39.9 54.1696 31.7893 46.0591 31.7893 36.0897C31.7893 26.1203 39.8999 18.0097 49.8693 18.0097C59.8386 18.0097 67.9492 26.1204 67.9492 36.0897C67.9492 46.0589 59.8386 54.1696 49.8693 54.1696Z" fill="url(#paint7_linear_605_113)"/>
<path d="M62.0469 29.0932C61.7645 28.6024 61.1375 28.4334 60.6467 28.7161C60.1558 28.9986 59.987 29.6256 60.2696 30.1164C61.3104 31.9247 61.8607 33.9902 61.8607 36.0898C61.8607 42.7019 56.4814 48.0811 49.8694 48.0811C43.2574 48.0811 37.8781 42.7018 37.8781 36.0898C37.8781 29.4778 43.2574 24.0985 49.8694 24.0985C52.767 24.0985 55.5641 25.1457 57.7454 27.0474C58.1722 27.4195 58.8198 27.3751 59.1921 26.9482C59.5643 26.5213 59.5198 25.8736 59.093 25.5015C56.5381 23.2742 53.2625 22.0475 49.8693 22.0475C42.1263 22.0475 35.8271 28.3469 35.8271 36.0897C35.8271 43.8324 42.1265 50.1318 49.8693 50.1318C57.6121 50.1318 63.9114 43.8324 63.9114 36.0897C63.9115 33.6316 63.2667 31.2122 62.0469 29.0932Z" fill="url(#paint8_linear_605_113)"/>
<path d="M50.7872 35.2742H49.1056C48.456 35.2742 47.9275 34.7458 47.9275 34.0961C47.9275 33.4464 48.4559 32.918 49.1056 32.918H51.8309C51.905 32.918 51.9652 32.9783 51.9652 33.0523C51.9652 33.6186 52.4243 34.0777 52.9906 34.0777C53.5569 34.0777 54.016 33.6186 54.016 33.0523C54.016 31.8474 53.0357 30.8672 51.8309 30.8672H50.9718V29.2642C50.9718 28.6979 50.5127 28.2388 49.9464 28.2388C49.3801 28.2388 48.921 28.6979 48.921 29.2642V30.8729C47.2263 30.9688 45.8767 32.3776 45.8767 34.0961C45.8767 35.8765 47.3251 37.325 49.1056 37.325H50.7872C51.4368 37.325 51.9653 37.8534 51.9653 38.5031C51.9653 39.1528 51.4369 39.6812 50.7872 39.6812H48.0619C47.9878 39.6812 47.9275 39.6209 47.9275 39.547C47.9275 38.9807 47.4684 38.5216 46.9021 38.5216C46.3358 38.5216 45.8767 38.9807 45.8767 39.547C45.8767 40.7519 46.857 41.732 48.0619 41.732H48.921V43.335C48.921 43.9013 49.3801 44.3604 49.9464 44.3604C50.5127 44.3604 50.9718 43.9013 50.9718 43.335V41.7264C52.6666 41.6304 54.0161 40.2217 54.0161 38.5031C54.0161 36.7228 52.5677 35.2742 50.7872 35.2742Z" fill="url(#paint9_linear_605_113)"/>
<path d="M26.0505 4.51544H24.7574C24.1912 4.51544 23.7321 4.97454 23.7321 5.54083C23.7321 6.10712 24.1912 6.56622 24.7574 6.56622H26.0505C26.6168 6.56622 27.0759 6.10712 27.0759 5.54083C27.0759 4.97454 26.6168 4.51544 26.0505 4.51544Z" fill="url(#paint10_linear_605_113)"/>
<path d="M31.5861 4.51544H30.2928C29.7266 4.51544 29.2675 4.97454 29.2675 5.54083C29.2675 6.10712 29.7266 6.56622 30.2928 6.56622H31.5861C32.1524 6.56622 32.6115 6.10712 32.6115 5.54083C32.6115 4.97454 32.1524 4.51544 31.5861 4.51544Z" fill="url(#paint11_linear_605_113)"/>
<path d="M37.1216 4.51544H35.8284C35.2621 4.51544 34.803 4.97454 34.803 5.54083C34.803 6.10712 35.2621 6.56622 35.8284 6.56622H37.1216C37.6879 6.56622 38.147 6.10712 38.147 5.54083C38.147 4.97454 37.6879 4.51544 37.1216 4.51544Z" fill="url(#paint12_linear_605_113)"/>
<defs>
<linearGradient id="paint0_linear_605_113" x1="7.47791" y1="27.9697" x2="17.0787" y2="17.9008" gradientUnits="userSpaceOnUse">
<stop stop-color="#3A67F6"/>
<stop offset="1" stop-color="#71E6FC"/>
</linearGradient>
<linearGradient id="paint1_linear_605_113" x1="20.7975" y1="20.1801" x2="21.7398" y2="16.4094" gradientUnits="userSpaceOnUse">
<stop stop-color="#3A67F6"/>
<stop offset="1" stop-color="#71E6FC"/>
</linearGradient>
<linearGradient id="paint2_linear_605_113" x1="7.47791" y1="42.7755" x2="17.0787" y2="32.7066" gradientUnits="userSpaceOnUse">
<stop stop-color="#3A67F6"/>
<stop offset="1" stop-color="#71E6FC"/>
</linearGradient>
<linearGradient id="paint3_linear_605_113" x1="20.7975" y1="34.9858" x2="21.7398" y2="31.2151" gradientUnits="userSpaceOnUse">
<stop stop-color="#3A67F6"/>
<stop offset="1" stop-color="#71E6FC"/>
</linearGradient>
<linearGradient id="paint4_linear_605_113" x1="7.47791" y1="57.5813" x2="17.0787" y2="47.5124" gradientUnits="userSpaceOnUse">
<stop stop-color="#3A67F6"/>
<stop offset="1" stop-color="#71E6FC"/>
</linearGradient>
<linearGradient id="paint5_linear_605_113" x1="20.7975" y1="49.7916" x2="21.7398" y2="46.0209" gradientUnits="userSpaceOnUse">
<stop stop-color="#3A67F6"/>
<stop offset="1" stop-color="#71E6FC"/>
</linearGradient>
<linearGradient id="paint6_linear_605_113" x1="20.7975" y1="57.5812" x2="21.2168" y2="53.6194" gradientUnits="userSpaceOnUse">
<stop stop-color="#3A67F6"/>
<stop offset="1" stop-color="#71E6FC"/>
</linearGradient>
<linearGradient id="paint7_linear_605_113" x1="1.95578e-06" y1="69.311" x2="66.8738" y2="-2.23304" gradientUnits="userSpaceOnUse">
<stop stop-color="#3A67F6"/>
<stop offset="1" stop-color="#71E6FC"/>
</linearGradient>
<linearGradient id="paint8_linear_605_113" x1="35.8271" y1="50.1318" x2="63.2273" y2="21.3953" gradientUnits="userSpaceOnUse">
<stop stop-color="#3A67F6"/>
<stop offset="1" stop-color="#71E6FC"/>
</linearGradient>
<linearGradient id="paint9_linear_605_113" x1="45.8767" y1="44.3604" x2="58.9009" y2="37.4641" gradientUnits="userSpaceOnUse">
<stop stop-color="#3A67F6"/>
<stop offset="1" stop-color="#71E6FC"/>
</linearGradient>
<linearGradient id="paint10_linear_605_113" x1="23.7321" y1="6.56622" x2="25.4778" y2="3.5809" gradientUnits="userSpaceOnUse">
<stop stop-color="#3A67F6"/>
<stop offset="1" stop-color="#71E6FC"/>
</linearGradient>
<linearGradient id="paint11_linear_605_113" x1="29.2675" y1="6.56622" x2="31.0132" y2="3.58084" gradientUnits="userSpaceOnUse">
<stop stop-color="#3A67F6"/>
<stop offset="1" stop-color="#71E6FC"/>
</linearGradient>
<linearGradient id="paint12_linear_605_113" x1="34.803" y1="6.56622" x2="36.5487" y2="3.58083" gradientUnits="userSpaceOnUse">
<stop stop-color="#3A67F6"/>
<stop offset="1" stop-color="#71E6FC"/>
</linearGradient>
</defs>
</svg>
