
<svg xmlns="http://www.w3.org/2000/svg" xmlns:xlink="http://www.w3.org/1999/xlink" viewBox="0 0 712.44 652.55"><defs><style>.cls-1,.cls-2,.cls-3,.cls-4{fill-rule:evenodd;}.cls-1{fill:url(#linear-gradient);}.cls-2{fill:url(#linear-gradient-2);}.cls-3{fill:url(#linear-gradient-3);}.cls-4{fill:url(#linear-gradient-4);}.cls-5{fill:url(#linear-gradient-5);}.cls-6{fill:url(#linear-gradient-6);}.cls-7{fill:url(#linear-gradient-7);}.cls-8{fill:url(#linear-gradient-8);}.cls-9{fill:url(#linear-gradient-10);}</style><linearGradient id="linear-gradient" x1="8.36" y1="188.58" x2="625.44" y2="68.88" gradientUnits="userSpaceOnUse"><stop offset="0" stop-color="#006fff"/><stop offset="1" stop-color="#00b0ff"/></linearGradient><linearGradient id="linear-gradient-2" x1="23.53" y1="266.78" x2="640.61" y2="147.07" xlink:href="#linear-gradient"/><linearGradient id="linear-gradient-3" x1="31.34" y1="307.06" x2="648.43" y2="187.35" xlink:href="#linear-gradient"/><linearGradient id="linear-gradient-4" x1="62.77" y1="469.1" x2="679.86" y2="349.39" xlink:href="#linear-gradient"/><linearGradient id="linear-gradient-5" x1="79.28" y1="554.16" x2="696.36" y2="434.45" xlink:href="#linear-gradient"/><linearGradient id="linear-gradient-6" x1="70.64" y1="509.65" x2="687.73" y2="389.94" xlink:href="#linear-gradient"/><linearGradient id="linear-gradient-7" x1="85.28" y1="585.1" x2="702.36" y2="465.39" xlink:href="#linear-gradient"/><linearGradient id="linear-gradient-8" x1="468.37" y1="465.71" x2="504.41" y2="458.72" xlink:href="#linear-gradient"/><linearGradient id="linear-gradient-10" x1="46.84" y1="386.97" x2="663.93" y2="267.26" xlink:href="#linear-gradient"/></defs><title>Asset 2</title><g id="Layer_2" data-name="Layer 2"><g id="Layer_1-2" data-name="Layer 1"><path class="cls-1" d="M224.1,131.67,164,235.73A29.61,29.61,0,1,0,191.66,253L257,139.77a16.28,16.28,0,0,0,0-16.31l.06,0L214.55,49.74H432.08a29.61,29.61,0,1,0-3.92-34.93c-.46.79-.86,1.58-1.24,2.39H187.82a16.15,16.15,0,0,0-9.71,2.12,16.34,16.34,0,0,0-6,22.32Z"/><path class="cls-2" d="M341.36,115.32a30.77,30.77,0,1,0-.7,32.55H469.47a16.25,16.25,0,0,0,14.13-8.14l.06,0,42.53-73.68,107,185.39a30.76,30.76,0,1,0,28-18l-.83,0L541,26.66a16.35,16.35,0,0,0-29-1.36l-52,90Z"/><path class="cls-3" d="M178.54,445a30.76,30.76,0,0,0,26.54,46.29h.18a30.75,30.75,0,0,0,2.12-61.42L143.76,319.7a16.28,16.28,0,0,0-14.11-8.17v-.07H44.57L150.69,127.65a30.75,30.75,0,0,0-1.2-61.48l-.87,0v0a30.75,30.75,0,0,0-26.18,45.34L3,318.35a16.18,16.18,0,0,0-3,9.46,16.36,16.36,0,0,0,16.35,16.35h104Z"/><path class="cls-4" d="M712.44,327.81a16.36,16.36,0,0,0-16.35-16.35h-104l-60.08-104a29.61,29.61,0,1,0-28.74,15.31l65.35,113.2a16.29,16.29,0,0,0,14.11,8.17v.07h85.08L559.1,532.54a29.21,29.21,0,0,0-8.23,3.24,29.61,29.61,0,1,0,40.44,10.84c-.45-.79-.93-1.54-1.44-2.27L709.42,337.28A16.28,16.28,0,0,0,712.44,327.81Z"/><polygon class="cls-5" points="469.54 491.41 486.39 462.22 469.45 491.27 469.54 491.41"/><path class="cls-6" d="M228.84,515.88l-.06,0-42.54,73.68L77.48,401.15A29.62,29.62,0,1,0,49.18,422c.91,0,1.8,0,2.68-.12L171.42,629a16.35,16.35,0,0,0,29,1.36l52-90H372.56a29.62,29.62,0,1,0,1.12-32.55H242.93a16.26,16.26,0,0,0-14.09,8.13Z"/><path class="cls-7" d="M545.19,356.88a30.88,30.88,0,0,0-28.6,29.44,30.5,30.5,0,0,0,4.06,16.56l-34.26,59.34h0l-16.85,29.19-.09-.14-14.11,24.21a16.44,16.44,0,0,0,0,16.5h0l.11.18-.07,0,42.54,73.68H285.65a30.75,30.75,0,1,0-52.2,32.52l0,0h0a30.75,30.75,0,0,0,51.73,0H524.62a16.18,16.18,0,0,0,9.71-2.12,16.34,16.34,0,0,0,6-22.32l-52-90,61-105.7a30.76,30.76,0,1,0-4.17-61.37Z"/><polygon class="cls-8" points="486.39 462.22 486.39 462.22 486.39 462.22 486.39 462.22"/><polygon class="cls-8" points="486.39 462.22 486.39 462.22 486.39 462.22 486.39 462.22"/><path class="cls-9" d="M483.52,319.46,427,221.58a16.28,16.28,0,0,0-14.11-8.17v-.07H299.6a16.36,16.36,0,0,0-14.87,9.55L228.84,319.7a13.4,13.4,0,0,0,.14,14.74l56.5,97.87a16.27,16.27,0,0,0,14.11,8.17v.07h113.3A16.36,16.36,0,0,0,427.76,431l55.89-96.81a16,16,0,0,0,2.14-7.24A16.25,16.25,0,0,0,483.52,319.46ZM450.25,327l-46.71,80.91H309L262.23,327h0L309,246h94.59L450.26,327Z"/></g></g></svg>