<svg width="20" height="20" viewBox="0 0 20 20" fill="none" xmlns="http://www.w3.org/2000/svg">
<path d="M1.66333 7.08331H9.58" stroke="white" stroke-width="1.5" stroke-miterlimit="10" stroke-linecap="round" stroke-linejoin="round"/>
<path d="M4.99683 13.75H6.66349" stroke="white" stroke-width="1.5" stroke-miterlimit="10" stroke-linecap="round" stroke-linejoin="round"/>
<path d="M8.74683 13.75H12.0802" stroke="white" stroke-width="1.5" stroke-miterlimit="10" stroke-linecap="round" stroke-linejoin="round"/>
<path d="M18.33 10.025V13.425C18.33 16.35 17.5883 17.0834 14.63 17.0834H5.36333C2.405 17.0834 1.66333 16.35 1.66333 13.425V6.57502C1.66333 3.65002 2.405 2.91669 5.36333 2.91669H12.08" stroke="white" stroke-width="1.5" stroke-linecap="round" stroke-linejoin="round"/>
<path d="M15.8967 3.44166L12.8051 6.53332C12.6884 6.64999 12.5717 6.88332 12.5467 7.04999L12.3801 8.23332C12.3217 8.65832 12.6217 8.95832 13.0467 8.89999L14.2301 8.73332C14.3967 8.70832 14.6301 8.59166 14.7467 8.47499L17.8384 5.38332C18.3717 4.84999 18.6217 4.23332 17.8384 3.44999C17.0467 2.65832 16.4301 2.90832 15.8967 3.44166Z" stroke="white" stroke-width="1.5" stroke-miterlimit="10" stroke-linecap="round" stroke-linejoin="round"/>
<path d="M15.4551 3.88336C15.7217 4.82503 16.4551 5.55836 17.3884 5.8167" stroke="white" stroke-width="1.5" stroke-miterlimit="10" stroke-linecap="round" stroke-linejoin="round"/>
</svg>
