<svg width="20" height="20" viewBox="0 0 20 20" fill="none" xmlns="http://www.w3.org/2000/svg">
<path d="M10.0001 14.1667V16.15C10.0001 17.7083 9.37508 18.3333 7.80841 18.3333H3.85008C2.29175 18.3333 1.66675 17.7083 1.66675 16.15V12.1917C1.66675 10.625 2.29175 10 3.85008 10H5.83341V11.975C5.83341 13.5417 6.45841 14.1667 8.01675 14.1667H10.0001Z" stroke="white" stroke-width="1.5" stroke-linecap="round" stroke-linejoin="round"/>
<path d="M14.1666 9.99998V11.975C14.1666 13.5416 13.5416 14.1666 11.9749 14.1666H8.01659C6.45825 14.1666 5.83325 13.5416 5.83325 11.975V8.01665C5.83325 6.45831 6.45825 5.83331 8.01659 5.83331H9.99992V7.80831C9.99992 9.37498 10.6249 9.99998 12.1833 9.99998H14.1666Z" stroke="white" stroke-width="1.5" stroke-linecap="round" stroke-linejoin="round"/>
<path d="M18.3333 3.85002V7.80835C18.3333 9.37502 17.7083 10 16.1417 10H12.1833C10.625 10 10 9.37502 10 7.80835V3.85002C10 2.29169 10.625 1.66669 12.1833 1.66669H16.1417C17.7083 1.66669 18.3333 2.29169 18.3333 3.85002Z" stroke="white" stroke-width="1.5" stroke-linecap="round" stroke-linejoin="round"/>
</svg>
