<svg width="20" height="20" viewBox="0 0 20 20" fill="none" xmlns="http://www.w3.org/2000/svg">
<g clip-path="url(#clip0_2529_2550)">
<path d="M5.21739 19.7962H0V6.31799H5.21739V19.7962ZM0.869512 18.9266H4.34788V7.18751H0.869512V18.9266Z" fill="white"/>
<path d="M20 19.7962H14.7826V12.4049C14.7826 11.6846 14.1986 11.1006 13.4783 11.1006C12.7578 11.1006 12.1739 11.6846 12.1739 12.4049V19.7962H6.95654V6.31799H12.1739V7.19292C12.9615 6.62354 13.9087 6.31736 14.8804 6.31799C17.701 6.31799 20 8.60602 20 11.4212V19.7962ZM15.6522 18.9267H19.1304V11.4212C19.1245 9.07907 17.2226 7.18448 14.8804 7.18751C13.8098 7.18751 12.8043 7.63858 12.0544 8.4538L11.3043 9.27443V7.18751H7.82606V18.9267H11.3043V12.4049C11.3043 11.2042 12.2776 10.231 13.4783 10.231C14.6788 10.231 15.6522 11.2042 15.6522 12.4049V18.9267Z" fill="white"/>
<path d="M2.60869 5.44829C1.16789 5.44829 0 4.2804 0 2.83959C0 1.39895 1.16789 0.230896 2.60869 0.230896C4.04949 0.230896 5.21739 1.39895 5.21739 2.83959C5.21436 4.27912 4.04822 5.44543 2.60869 5.44829ZM2.60869 1.10057C1.64827 1.10057 0.869512 1.87916 0.869512 2.83959C0.869512 3.80018 1.64827 4.57878 2.60869 4.57878C3.56912 4.57878 4.34788 3.80018 4.34788 2.83959C4.34788 1.87916 3.56912 1.10057 2.60869 1.10057Z" fill="white"/>
</g>
<defs>
<clipPath id="clip0_2529_2550">
<rect width="20" height="20" fill="white"/>
</clipPath>
</defs>
</svg>
