<svg width="24" height="24" viewBox="0 0 24 24" fill="none" xmlns="http://www.w3.org/2000/svg">
<path d="M3.22865 5.9962C4.73915 5.9962 5.96365 4.7717 5.96365 3.2612C5.96365 1.7507 4.73915 0.526199 3.22865 0.526199C1.71815 0.526199 0.493652 1.7507 0.493652 3.2612C0.493652 4.7717 1.71815 5.9962 3.22865 5.9962Z" fill="white"/>
<path d="M8.54615 8.06879V23.2425H13.2574V15.7388C13.2574 13.7588 13.6299 11.8413 16.0849 11.8413C18.5062 11.8413 18.5362 14.105 18.5362 15.8638V23.2438H23.2499V14.9225C23.2499 10.835 22.3699 7.69379 17.5924 7.69379C15.2987 7.69379 13.7612 8.95254 13.1324 10.1438H13.0687V8.06879H8.54615ZM0.868652 8.06879H5.5874V23.2425H0.868652V8.06879Z" fill="white"/>
</svg>
