<svg xmlns="http://www.w3.org/2000/svg" xmlns:xlink="http://www.w3.org/1999/xlink" viewBox="0 0 2460.51 454.34"><defs><style>.cls-1{fill:#fff;}.cls-2,.cls-3,.cls-4,.cls-5{fill-rule:evenodd;}.cls-2{fill:url(#linear-gradient);}.cls-3{fill:url(#linear-gradient-2);}.cls-4{fill:url(#linear-gradient-3);}.cls-5{fill:url(#linear-gradient-4);}.cls-6{fill:url(#linear-gradient-5);}.cls-7{fill:url(#linear-gradient-6);}.cls-8{fill:url(#linear-gradient-7);}.cls-9{fill:url(#linear-gradient-8);}.cls-10{fill:url(#linear-gradient-10);}</style><linearGradient id="linear-gradient" x1="5.82" y1="131.3" x2="435.47" y2="47.96" gradientUnits="userSpaceOnUse"><stop offset="0" stop-color="#006fff"/><stop offset="1" stop-color="#00b0ff"/></linearGradient><linearGradient id="linear-gradient-2" x1="16.38" y1="185.75" x2="446.03" y2="102.4" xlink:href="#linear-gradient"/><linearGradient id="linear-gradient-3" x1="21.82" y1="213.79" x2="451.47" y2="130.45" xlink:href="#linear-gradient"/><linearGradient id="linear-gradient-4" x1="43.71" y1="326.62" x2="473.36" y2="243.27" xlink:href="#linear-gradient"/><linearGradient id="linear-gradient-5" x1="55.2" y1="385.84" x2="484.85" y2="302.49" xlink:href="#linear-gradient"/><linearGradient id="linear-gradient-6" x1="49.18" y1="354.85" x2="478.84" y2="271.5" xlink:href="#linear-gradient"/><linearGradient id="linear-gradient-7" x1="59.37" y1="407.38" x2="489.03" y2="324.03" xlink:href="#linear-gradient"/><linearGradient id="linear-gradient-8" x1="326.11" y1="324.26" x2="351.2" y2="319.39" xlink:href="#linear-gradient"/><linearGradient id="linear-gradient-10" x1="32.61" y1="269.43" x2="462.27" y2="186.08" xlink:href="#linear-gradient"/></defs><title>Asset 6</title><g id="Layer_2" data-name="Layer 2"><g id="Layer_1-2" data-name="Layer 1"><path class="cls-1" d="M758.13,110.11v29.73H694.42v161.4H662.56V139.84H598.85V110.11Z"/><path class="cls-1" d="M851,152.59v29.73H808.57c-7.17,0-10.62,4.24-10.62,12.74V301.24H766.09V195.06c0-28.94,13.54-42.47,42.48-42.47Z"/><path class="cls-1" d="M965.19,152.59c28.93,0,42.47,13.53,42.47,42.47v63.71c0,28.93-13.54,42.47-42.47,42.47h-53.1c-28.93,0-42.47-13.54-42.47-42.47,0-12.74,4.25-21.5,13.54-26.81,9.56-5.58,15.13-7.44,28.93-10.89l63.71-15.92V195.06c0-8.5-3.45-12.74-10.61-12.74h-53.1c-7.16,0-10.61,4.24-10.61,12.74v10.62H869.62V195.06c0-28.94,13.54-42.47,42.47-42.47ZM975.8,230.1,912.09,246c-9.55,2.39-10.61,5.57-10.61,12.74,0,8.49,3.45,12.74,10.61,12.74h53.1c7.16,0,10.61-4.25,10.61-12.74Z"/><path class="cls-1" d="M1143,99.49h31.86V258.77c0,28.93-13,42.47-42.47,42.47h-53.1c-29.46,0-42.47-13.54-42.47-42.47V195.06c0-28.94,13-42.47,42.47-42.47H1143Zm-10.61,172c7.16,0,10.61-4.25,10.61-12.74V182.32h-63.71c-7.16,0-10.61,4.24-10.61,12.74v63.71c0,8.49,3.45,12.74,10.61,12.74Z"/><path class="cls-1" d="M1237.55,97.9a20.85,20.85,0,0,1,0,30,21.21,21.21,0,0,1-30-30A20.85,20.85,0,0,1,1237.55,97.9Zm-30.8,203.34V152.59h31.86V301.24Z"/><path class="cls-1" d="M1376.64,301.24V195.06c0-8.5-3.45-12.74-10.61-12.74h-53.1c-7.16,0-10.61,4.24-10.61,12.74V301.24h-31.86V195.06c0-28.94,13.54-42.47,42.47-42.47H1366c28.93,0,42.47,13.53,42.47,42.47V301.24Z"/><path class="cls-1" d="M1535.92,279.47c13.8,3.45,19.38,5.31,28.67,10.89,9.56,5.31,13.8,14.07,13.8,26.81,0,28.93-13.53,42.47-42.47,42.47h-53.09c-28.94,0-42.47-13.54-42.47-42.47V195.06c0-28.94,13.53-42.47,42.47-42.47h42.47c28.94,0,42.48,13.53,42.48,42.47v13.27c0,26.55-14.07,39.82-42.48,39.82h-53.09v15.4Zm-63.71-55.74h53.09c7.7,0,10.62-4.52,10.62-15.4V195.06c0-8.5-3.45-12.74-10.62-12.74h-42.47c-7.17,0-10.62,4.24-10.62,12.74Zm63.71,106.18c7.17,0,10.62-4.25,10.62-12.74,0-6.11,0-9-10.62-12.74l-63.71-15.93v28.67c0,8.49,3.45,12.74,10.62,12.74Z"/><path class="cls-1" d="M1755.19,271.51h2.65l53.09-161.4h33.72l-62.92,191.13h-50.17l-62.91-191.13h33.45Z"/><path class="cls-1" d="M1894,97.9a20.85,20.85,0,0,1,0,30,21.21,21.21,0,0,1-30-30A20.85,20.85,0,0,1,1894,97.9Zm-30.8,203.34V152.59h31.86V301.24Z"/><path class="cls-1" d="M2019.85,301.24h-53.09c-28.94,0-42.48-13.54-42.48-42.47V248.15h31.86v10.62c0,8.49,3.45,12.74,10.62,12.74h53.09c7.17,0,10.62-4.25,10.62-12.74,0-6.11,0-9-10.62-12.74l-53.09-13.28c-13.81-3.45-19.38-5.31-28.94-10.62-9.29-5.57-13.54-14.33-13.54-27.07,0-28.94,13.54-42.47,42.48-42.47h53.09c28.93,0,42.47,13.53,42.47,42.47v10.62h-31.85V195.06c0-8.5-3.45-12.74-10.62-12.74h-53.09c-7.17,0-10.62,4.24-10.62,12.74,0,6.1,0,9,10.62,12.74l53.09,13.27c13.8,3.45,19.38,5.31,28.67,10.89,9.56,5.31,13.8,14.07,13.8,26.81C2062.32,287.7,2048.78,301.24,2019.85,301.24Z"/><path class="cls-1" d="M2122.32,97.9a20.85,20.85,0,0,1,0,30,21.21,21.21,0,0,1-30-30A20.85,20.85,0,0,1,2122.32,97.9Zm-30.8,203.34V152.59h31.86V301.24Z"/><path class="cls-1" d="M2249.47,152.59c29.47,0,42.47,13.53,42.47,42.47v63.71c0,28.93-13,42.47-42.47,42.47h-53.09c-29.47,0-42.47-13.54-42.47-42.47V195.06c0-28.94,13-42.47,42.47-42.47Zm10.62,42.47c0-8.5-3.45-12.74-10.62-12.74h-53.09c-7.17,0-10.62,4.24-10.62,12.74v63.71c0,8.49,3.45,12.74,10.62,12.74h53.09c7.17,0,10.62-4.25,10.62-12.74Z"/><path class="cls-1" d="M2428.65,301.24V195.06c0-8.5-3.45-12.74-10.62-12.74h-53.09c-7.16,0-10.62,4.24-10.62,12.74V301.24h-31.85V195.06c0-28.94,13.54-42.47,42.47-42.47H2418c28.94,0,42.48,13.53,42.48,42.47V301.24Z"/><path class="cls-2" d="M156,91.68,114.2,164.13a20.62,20.62,0,1,0,19.24,12L179,97.31A11.31,11.31,0,0,0,179,86l0,0-29.62-51.3H300.84a20.86,20.86,0,0,0,4.81,3.83,20.61,20.61,0,1,0-7.54-28.16c-.32.55-.6,1.1-.86,1.66H130.77a11.39,11.39,0,0,0-10.93,17Z"/><path class="cls-3" d="M237.67,80.3a21.41,21.41,0,1,0-.48,22.66h89.68a11.33,11.33,0,0,0,9.84-5.67l0,0L366.37,46l74.52,129.07a21.42,21.42,0,1,0,19.5-12.56h-.58l-83.12-144a11.39,11.39,0,0,0-20.21-.95L320.29,80.3Z"/><path class="cls-4" d="M124.31,309.86a21.42,21.42,0,0,0,18.48,32.23h.13a21.41,21.41,0,0,0,1.47-42.77l-44.3-76.72a11.3,11.3,0,0,0-9.82-5.69v0H31l73.88-128a21.41,21.41,0,0,0-.84-42.81h-.62A21.42,21.42,0,0,0,85.23,77.65L2.1,221.65a11.38,11.38,0,0,0,9.28,18H83.76Z"/><path class="cls-5" d="M496,228.24a11.39,11.39,0,0,0-11.38-11.38H412.28l-41.83-72.45a20.62,20.62,0,1,0-20,10.66l45.5,78.82a11.34,11.34,0,0,0,9.83,5.68v.05H465L389.28,370.78a20.62,20.62,0,1,0,22.43,9.81c-.32-.55-.65-1.07-1-1.58l83.24-144.18A11.34,11.34,0,0,0,496,228.24Z"/><polygon class="cls-6" points="326.92 342.15 338.65 321.83 326.86 342.05 326.92 342.15"/><path class="cls-7" d="M159.33,359.19l0,0-29.62,51.3L54,279.3a20.63,20.63,0,0,0-18.52-26.67,20.62,20.62,0,1,0-1.19,41.2c.63,0,1.25,0,1.87-.09l83.24,144.18A11.25,11.25,0,0,0,124,443a11.38,11.38,0,0,0,15.55-4.16l36.18-62.68H259.4a20.62,20.62,0,1,0,.78-22.66h-91a11.31,11.31,0,0,0-9.81,5.66Z"/><path class="cls-8" d="M379.59,248.48A21.5,21.5,0,0,0,359.68,269a21.21,21.21,0,0,0,2.83,11.53l-23.85,41.31h0l-11.73,20.32-.06-.1L317,358.91a11.44,11.44,0,0,0,0,11.48h0l.07.13,0,0,29.62,51.3H198.89a21.41,21.41,0,1,0-36.35,22.64v0h0a21.41,21.41,0,0,0,36,0h166.7a11.39,11.39,0,0,0,10.93-17L340,364.81l42.49-73.6a21.41,21.41,0,1,0-2.91-42.73Z"/><polygon class="cls-9" points="338.66 321.82 338.66 321.82 338.65 321.83 338.66 321.82"/><polygon class="cls-9" points="338.66 321.82 338.66 321.82 338.65 321.83 338.66 321.82"/><path class="cls-10" d="M336.65,222.42l-39.34-68.14a11.32,11.32,0,0,0-9.82-5.69v-.05H208.6a11.4,11.4,0,0,0-10.35,6.65L159.33,222.6a9.32,9.32,0,0,0,.1,10.26L198.77,301a11.32,11.32,0,0,0,9.82,5.69v.05h78.89a11.39,11.39,0,0,0,10.35-6.65l38.92-67.41a11.21,11.21,0,0,0,1.49-5A11.37,11.37,0,0,0,336.65,222.42Zm-23.16,5.22L281,284H215.11l-32.53-56.33h0l32.52-56.33H281l32.53,56.33Z"/></g></g></svg>