<svg width="26" height="22" viewBox="0 0 26 22" fill="none" xmlns="http://www.w3.org/2000/svg">
<path d="M25.4463 4.41244C25.4582 4.39293 25.4624 4.36964 25.458 4.34718C25.4536 4.32472 25.4409 4.30474 25.4225 4.29119C25.4175 4.28619 25.4125 4.28119 25.4075 4.27869L25.4 4.27619L17.8587 0.503689C17.7442 0.450804 17.6199 0.422286 17.4937 0.419939C17.3482 0.419012 17.2047 0.454841 17.0767 0.524108C16.9486 0.593374 16.8401 0.693837 16.7612 0.816189L12.4187 7.87369L17.8675 16.7274L25.4463 4.41244ZM24.1162 21.3412C24.88 21.7237 25.5 21.4562 25.5 20.7437V6.60369L18.2388 18.4024L24.1162 21.3412ZM10.0275 6.26619V14.2987L17.1663 17.8674L10.0275 6.26619ZM1.1925 18.2137L7.68 21.4574C7.82427 21.5339 7.98429 21.5758 8.1475 21.5799C8.55125 21.5799 8.83375 21.2674 8.83375 20.7437V4.37619C8.83378 4.3611 8.82973 4.34627 8.82203 4.33329C8.81433 4.32031 8.80326 4.30965 8.79 4.30244L1.42375 0.621189C1.30821 0.559345 1.17976 0.525519 1.04875 0.522439C0.72625 0.522439 0.5 0.771189 0.5 1.18994V17.0937C0.5 17.5199 0.8125 18.0237 1.1925 18.2137Z" fill="white"/>
</svg>
