<svg width="20" height="20" viewBox="0 0 20 20" fill="none" xmlns="http://www.w3.org/2000/svg">
<path d="M19.5854 3.8521C19.5824 3.85093 19.5795 3.84953 19.5766 3.84867L14.4425 2.36668C13.5116 2.00843 12.4449 2.34957 11.8956 3.1855C11.8921 3.19082 11.8888 3.19617 11.8854 3.20156L9.1818 7.62257L7.64484 4.9723C7.64445 4.97163 7.64387 4.97113 7.64348 4.97046C7.58863 4.87671 7.50801 4.79816 7.40797 4.74624L3.11387 2.51644C2.44746 2.17046 1.66656 2.1966 1.02484 2.58648C0.383125 2.97628 0 3.65734 0 4.40816V13.9317C0 14.7488 0.455039 15.4811 1.18758 15.8429L4.6484 17.5524C4.94914 17.7009 5.27195 17.7746 5.59367 17.7746C5.98367 17.7746 6.37203 17.6663 6.71742 17.4516C7.34766 17.06 7.72395 16.3831 7.72395 15.6412V14.288L12.8893 16.0666L17.1745 17.5421C17.4053 17.6216 17.6414 17.6608 17.8754 17.6608C18.3101 17.6608 18.737 17.5254 19.1063 17.262C19.6743 16.8569 20 16.2244 20 15.5268V4.41245C20 4.14847 19.8254 3.92538 19.5854 3.8521ZM12.8797 3.82199C13.131 3.44667 13.6154 3.29683 14.0352 3.46562C14.0536 3.473 14.0723 3.47945 14.0913 3.48496L18.5361 4.768L13.076 14.3375L9.85043 8.7755L12.8797 3.82199ZM6.55203 15.6412C6.55203 15.9803 6.38684 16.2773 6.09887 16.4563C5.81082 16.6353 5.47133 16.6517 5.16734 16.5016L1.70656 14.7922C1.37676 14.6293 1.17188 14.2996 1.17188 13.9317V4.40816C1.17188 4.06507 1.34004 3.76609 1.63328 3.58796C1.78926 3.4932 1.9593 3.44558 2.13012 3.44558C2.28039 3.44558 2.43129 3.48242 2.57383 3.55644L6.55207 5.62218V15.6412H6.55203ZM7.72391 13.0487V7.44464L8.66012 9.05901C8.66102 9.06061 8.66195 9.06218 8.66289 9.06378L11.7847 14.4469L7.72391 13.0487ZM18.4257 16.3081C18.17 16.4905 17.853 16.5365 17.556 16.4342L13.9394 15.1889L18.8281 6.62085V15.5268C18.8281 15.8409 18.6815 16.1256 18.4257 16.3081Z" fill="white"/>
</svg>
