<svg width="20" height="20" viewBox="0 0 20 20" fill="none" xmlns="http://www.w3.org/2000/svg">
<path d="M18.3334 10.8333V7.49996C18.3334 3.33329 16.6667 1.66663 12.5001 1.66663H7.50008C3.33341 1.66663 1.66675 3.33329 1.66675 7.49996V12.5C1.66675 16.6666 3.33341 18.3333 7.50008 18.3333H10.8334" stroke="white" stroke-width="1.5" stroke-linecap="round" stroke-linejoin="round"/>
<path d="M6.1084 12.0751L8.09174 9.50005C8.37507 9.13338 8.90007 9.06672 9.26674 9.35005L10.7918 10.5501C11.1584 10.8334 11.6834 10.7667 11.9667 10.4084L13.8918 7.92505" stroke="white" stroke-width="1.5" stroke-linecap="round" stroke-linejoin="round"/>
<path d="M16.2334 13.1833L16.4668 13.6583C16.5834 13.8917 16.8751 14.1083 17.1334 14.1583L17.4501 14.2083C18.4001 14.3667 18.6251 15.0667 17.9418 15.7583L17.6501 16.05C17.4584 16.25 17.3501 16.6333 17.4084 16.9L17.4501 17.075C17.7084 18.225 17.1001 18.6666 16.1001 18.0666L15.8834 17.9417C15.6251 17.7917 15.2084 17.7917 14.9501 17.9417L14.7334 18.0666C13.7251 18.675 13.1168 18.225 13.3834 17.075L13.4251 16.9C13.4834 16.6333 13.3751 16.25 13.1834 16.05L12.8918 15.7583C12.2084 15.0667 12.4334 14.3667 13.3834 14.2083L13.7001 14.1583C13.9501 14.1167 14.2501 13.8917 14.3668 13.6583L14.6001 13.1833C15.0501 12.275 15.7834 12.275 16.2334 13.1833Z" stroke="white" stroke-width="1.5" stroke-linecap="round" stroke-linejoin="round"/>
</svg>
