<svg width="50" height="48" viewBox="0 0 50 48" fill="none" xmlns="http://www.w3.org/2000/svg">
<path d="M45.5497 1.55901C42.9626 0.72436 39.4473 0.19717 35.6509 0.0747183C35.2432 0.0602225 34.9082 0.379131 34.8953 0.783488C34.8823 1.18784 35.1993 1.52621 35.604 1.53918C43.93 1.80735 48.5351 3.89933 48.5351 5.24324C48.5351 6.77484 42.9248 8.97439 33.9183 8.97439C25.5504 8.97439 19.8204 7.04606 19.3298 5.42177C19.3107 5.35883 19.3016 5.29932 19.3016 5.24324C19.3016 3.89933 23.9067 1.80735 32.2326 1.53918C32.6373 1.52583 32.9543 1.18746 32.9414 0.783488C32.928 0.379131 32.5938 0.059841 32.1857 0.0747183C28.3893 0.19717 24.8741 0.72436 22.2869 1.55901C19.3756 2.49857 17.8367 3.77268 17.8367 5.24324V10.4915C9.44975 10.2191 0.000762938 11.9876 0 15.6589V42.7985C0 49.6722 32.1632 49.7263 32.1632 42.7985V37.5495C39.7464 37.8005 46.7902 36.4283 49.1084 34.2173C49.7001 33.6531 49.9999 33.0359 49.9999 32.3825V22.1721C49.9999 21.7673 49.6722 21.4396 49.2675 21.4396C48.8627 21.4396 48.5351 21.7673 48.5351 22.1721V23.3359C48.5351 23.5728 48.3878 23.8334 48.0975 24.1103C46.4122 25.7178 41.6141 26.517 39.286 26.7787C36.9563 27.0408 34.4966 27.1186 32.1632 27.0377C32.1632 26.8283 32.1632 19.815 32.1632 19.4572C36.7694 19.6094 44.9367 19.1104 48.5351 16.5897V18.7537C48.5351 19.1585 48.8627 19.4865 49.2675 19.4865C49.6722 19.4865 49.9999 19.1585 49.9999 18.7537C49.9999 17.9931 49.9999 5.82536 49.9999 5.24324C49.9999 3.77268 48.4611 2.49857 45.5497 1.55901ZM19.3016 7.53968C24.7657 11.4005 43.0766 11.3963 48.5351 7.53968V14.2894C48.5351 14.5267 48.3878 14.7876 48.0971 15.0645C46.9073 16.1994 44.0227 16.9326 42.4121 17.2526C39.1647 17.9011 35.5006 18.106 32.1632 17.9912V15.6593C32.1632 11.9323 23.0098 10.786 19.3016 10.5598V7.53968ZM30.6983 17.9557V24.7054C30.6983 25.3047 29.6592 26.3068 26.7307 27.1586C20.8614 28.8653 11.2983 28.8642 5.4325 27.1586C2.50396 26.3068 1.46484 25.3047 1.46484 24.7054V17.9557C6.96219 21.8402 25.3208 21.7555 30.6983 17.9557ZM1.46484 27.0022C6.95036 30.8799 25.2738 30.8364 30.6983 27.0022V33.7519C30.6983 34.3512 29.6592 35.3533 26.7307 36.2052C20.8614 37.9119 11.2983 37.9107 5.4325 36.2052C2.50396 35.3533 1.46484 34.3512 1.46484 33.7519V27.0022ZM5.4325 13.206C11.3186 11.4944 20.8881 11.507 26.7307 13.206C29.6592 14.0575 30.6983 15.0596 30.6983 15.6593C30.6983 17.1908 25.0881 19.3904 16.0816 19.3904C7.01827 19.3904 1.46522 17.1722 1.46484 15.6593C1.46484 15.0596 2.50396 14.0578 5.4325 13.206ZM30.6983 42.7985C30.6983 43.3978 29.6592 44.3995 26.7307 45.2513C20.8614 46.9584 11.2983 46.9573 5.4325 45.2513C2.50396 44.3999 1.46484 43.3978 1.46484 42.7985V36.0488C6.8199 39.8326 25.1502 39.9687 30.6983 36.0488V42.7985ZM48.5351 32.3825C48.5351 32.6197 48.3878 32.8803 48.0975 33.1572C46.3393 34.8342 39.9547 36.3501 32.1632 36.0842C32.1632 35.8748 32.1632 28.8615 32.1632 28.5037C39.1261 28.7341 45.7442 27.5908 48.5351 25.6358V32.3825Z" fill="url(#paint0_linear)"/>
<defs>
<linearGradient id="paint0_linear" x1="2.02702" y1="29.2307" x2="50.0084" y2="29.4499" gradientUnits="userSpaceOnUse">
<stop stop-color="#088AF7"/>
<stop offset="1" stop-color="#1AB1E7"/>
</linearGradient>
</defs>
</svg>
