<svg width="55" height="55" viewBox="0 0 55 55" fill="none" xmlns="http://www.w3.org/2000/svg">
<path d="M53.9258 22.4242H47.0508C46.4575 22.4242 45.9766 22.9052 45.9766 23.4984V28.9232C45.9766 29.5164 46.4575 29.9975 47.0508 29.9975C47.6441 29.9975 48.125 29.5164 48.125 28.9232V24.5726H52.8516V52.8516H50.4883H48.125V36.9799C48.125 36.3867 47.6441 35.9057 47.0508 35.9057C46.4575 35.9057 45.9766 36.3867 45.9766 36.9799V52.8516H43.8281V30.6152C43.8281 30.0221 43.3472 29.541 42.7539 29.541H35.8789C35.2856 29.541 34.8047 30.0221 34.8047 30.6152V52.8516H32.6562V38.1348C32.6562 37.5416 32.1753 37.0605 31.582 37.0605H24.707C24.1137 37.0605 23.6328 37.5416 23.6328 38.1348V52.8516H21.4844V44.2981C21.4844 43.7049 21.0034 43.2239 20.4102 43.2239H13.5352C12.9419 43.2239 12.4609 43.7049 12.4609 44.2981V52.8516H3.22266C2.63033 52.8516 2.14844 52.3697 2.14844 51.7773V3.22266C2.14844 2.63033 2.63033 2.14844 3.22266 2.14844H30.9348V9.2386C30.9348 11.0156 32.3805 12.4613 34.1575 12.4613H41.2473V25.6738C41.2473 26.267 41.7282 26.748 42.3215 26.748C42.9148 26.748 43.3958 26.267 43.3958 25.6738V11.387C43.3958 11.1022 43.2825 10.829 43.0811 10.6275L32.7686 0.314639C32.5671 0.113223 32.2939 0 32.009 0H3.22266C1.44568 0 0 1.44568 0 3.22266V51.7773C0 53.5543 1.44568 55 3.22266 55H53.9258C54.5191 55 55 54.519 55 53.9258V23.4984C55 22.9052 54.5191 22.4242 53.9258 22.4242ZM33.0833 3.66771L39.7283 10.3128H34.1575C33.565 10.3128 33.0833 9.83093 33.0833 9.2386V3.66771ZM19.3359 52.8516H14.6094V45.3723H19.3359V52.8516ZM30.5078 52.8516H25.7812V39.209H30.5078V52.8516ZM41.6797 52.8516H36.9531V31.6895H41.6797V52.8516Z" fill="url(#paint0_linear_2529_2619)"/>
<path d="M47.8103 31.9924C47.6105 31.7916 47.3333 31.6776 47.0508 31.6776C46.7683 31.6776 46.4911 31.7916 46.2913 31.9924C46.0915 32.1922 45.9766 32.4693 45.9766 32.7519C45.9766 33.0344 46.0915 33.3115 46.2913 33.5113C46.4911 33.711 46.7683 33.8261 47.0508 33.8261C47.3333 33.8261 47.6105 33.7111 47.8103 33.5113C48.0101 33.3115 48.125 33.0344 48.125 32.7519C48.125 32.4693 48.0101 32.1922 47.8103 31.9924Z" fill="url(#paint1_linear_2529_2619)"/>
<path d="M15.6382 5.87909C15.0449 5.87909 14.564 6.36012 14.564 6.95331V8.88572C9.61923 9.42251 5.75806 13.6227 5.75806 18.7078C5.75806 24.1557 10.1903 28.588 15.6382 28.588C20.7233 28.588 24.9235 24.7269 25.4603 19.7821H27.3926C27.9859 19.7821 28.4668 19.301 28.4668 18.7078C28.4668 11.634 22.7119 5.87909 15.6382 5.87909ZM15.6382 26.4394C11.3749 26.4394 7.90649 22.971 7.90649 18.7077C7.90649 14.8091 10.8074 11.575 14.564 11.0505V18.7077C14.564 19.3009 15.0449 19.7819 15.6382 19.7819H23.2954C22.7709 23.5385 19.5368 26.4394 15.6382 26.4394ZM16.7124 17.6336V17.6335V8.08113C21.7453 8.58623 25.7597 12.6007 26.2648 17.6336H16.7124Z" fill="url(#paint2_linear_2529_2619)"/>
<path d="M27.3926 31.6089H6.875C6.28171 31.6089 5.80078 32.0899 5.80078 32.6831C5.80078 33.2763 6.28171 33.7573 6.875 33.7573H27.3926C27.9859 33.7573 28.4668 33.2763 28.4668 32.6831C28.4668 32.0899 27.9859 31.6089 27.3926 31.6089Z" fill="url(#paint3_linear_2529_2619)"/>
<path d="M13.75 36.792H6.875C6.28171 36.792 5.80078 37.273 5.80078 37.8662C5.80078 38.4594 6.28171 38.9404 6.875 38.9404H13.75C14.3433 38.9404 14.8242 38.4594 14.8242 37.8662C14.8242 37.273 14.3433 36.792 13.75 36.792Z" fill="url(#paint4_linear_2529_2619)"/>
<path d="M19.8891 37.1067C19.6893 36.9069 19.4122 36.792 19.1296 36.792C18.846 36.792 18.57 36.9068 18.3702 37.1067C18.1693 37.3065 18.0554 37.5837 18.0554 37.8662C18.0554 38.1487 18.1693 38.4259 18.3702 38.6256C18.57 38.8254 18.846 38.9404 19.1296 38.9404C19.4122 38.9404 19.6893 38.8255 19.8891 38.6256C20.0889 38.4259 20.2039 38.1487 20.2039 37.8662C20.2039 37.5837 20.0889 37.3065 19.8891 37.1067Z" fill="url(#paint5_linear_2529_2619)"/>
<defs>
<linearGradient id="paint0_linear_2529_2619" x1="6.875" y1="55.0086" x2="61.7903" y2="21.7568" gradientUnits="userSpaceOnUse">
<stop stop-color="#3A67F6"/>
<stop offset="1" stop-color="#72E8FC"/>
</linearGradient>
<linearGradient id="paint1_linear_2529_2619" x1="46.2451" y1="33.8264" x2="48.3902" y2="32.5275" gradientUnits="userSpaceOnUse">
<stop stop-color="#3A67F6"/>
<stop offset="1" stop-color="#72E8FC"/>
</linearGradient>
<linearGradient id="paint2_linear_2529_2619" x1="8.59665" y1="28.5915" x2="31.2705" y2="14.8623" gradientUnits="userSpaceOnUse">
<stop stop-color="#3A67F6"/>
<stop offset="1" stop-color="#72E8FC"/>
</linearGradient>
<linearGradient id="paint3_linear_2529_2619" x1="8.63403" y1="33.7577" x2="9.37381" y2="29.0319" gradientUnits="userSpaceOnUse">
<stop stop-color="#3A67F6"/>
<stop offset="1" stop-color="#72E8FC"/>
</linearGradient>
<linearGradient id="paint4_linear_2529_2619" x1="6.92871" y1="38.9408" x2="8.57755" y2="34.7475" gradientUnits="userSpaceOnUse">
<stop stop-color="#3A67F6"/>
<stop offset="1" stop-color="#72E8FC"/>
</linearGradient>
<linearGradient id="paint5_linear_2529_2619" x1="18.324" y1="38.9408" x2="20.4691" y2="37.6419" gradientUnits="userSpaceOnUse">
<stop stop-color="#3A67F6"/>
<stop offset="1" stop-color="#72E8FC"/>
</linearGradient>
</defs>
</svg>
