<svg width="20" height="20" viewBox="0 0 20 20" fill="none" xmlns="http://www.w3.org/2000/svg">
<path d="M18.3332 10.8334V7.50002C18.3332 3.33335 16.6665 1.66669 12.4998 1.66669H7.49984C3.33317 1.66669 1.6665 3.33335 1.6665 7.50002V12.5C1.6665 16.6667 3.33317 18.3334 7.49984 18.3334H10.8332" stroke="white" stroke-width="1.5" stroke-linecap="round" stroke-linejoin="round"/>
<path d="M6.1084 12.075L8.09174 9.49999C8.37507 9.13332 8.90007 9.06666 9.26674 9.34999L10.7918 10.55C11.1584 10.8333 11.6834 10.7667 11.9667 10.4083L13.8918 7.92499" stroke="white" stroke-width="1.5" stroke-linecap="round" stroke-linejoin="round"/>
<path d="M16.2332 13.1833L16.4665 13.6583C16.5832 13.8917 16.8748 14.1083 17.1332 14.1583L17.4499 14.2083C18.3999 14.3667 18.6248 15.0667 17.9415 15.7583L17.6498 16.05C17.4582 16.25 17.3499 16.6333 17.4082 16.9L17.4499 17.075C17.7082 18.225 17.0999 18.6666 16.0999 18.0666L15.8832 17.9417C15.6248 17.7917 15.2082 17.7917 14.9499 17.9417L14.7332 18.0666C13.7248 18.675 13.1165 18.225 13.3832 17.075L13.4248 16.9C13.4832 16.6333 13.3749 16.25 13.1832 16.05L12.8915 15.7583C12.2082 15.0667 12.4332 14.3667 13.3832 14.2083L13.6999 14.1583C13.9499 14.1167 14.2498 13.8917 14.3665 13.6583L14.5998 13.1833C15.0498 12.275 15.7832 12.275 16.2332 13.1833Z" stroke="white" stroke-width="1.5" stroke-linecap="round" stroke-linejoin="round"/>
</svg>
