
<svg width="901" height="901" viewBox="0 0 901 901" fill="none" xmlns="http://www.w3.org/2000/svg">
<path opacity="0.6" d="M796.739 450.763C796.739 641.843 641.843 796.739 450.763 796.739C259.69 796.739 104.794 641.843 104.794 450.763C104.794 259.687 259.69 104.789 450.763 104.789C641.842 104.789 796.739 259.687 796.739 450.763Z" stroke="white" stroke-opacity="0.75" stroke-width="0.4008" stroke-miterlimit="10"/>
<path d="M692.946 450.763C692.946 584.521 584.519 692.944 450.763 692.944C317.01 692.944 208.582 584.521 208.582 450.763C208.582 317.01 317.01 208.583 450.763 208.583C584.519 208.582 692.946 317.009 692.946 450.763Z" stroke="white" stroke-width="0.3476" stroke-miterlimit="10" stroke-dasharray="1.39 4.17"/>
<path opacity="0.6" d="M900.532 450.763C900.532 699.166 699.163 900.531 450.763 900.531C202.367 900.531 1 699.167 1 450.763C1 202.366 202.367 1 450.763 1C699.162 1 900.532 202.366 900.532 450.763Z" stroke="white" stroke-opacity="0.5" stroke-width="0.4008" stroke-miterlimit="10"/>
<path opacity="0.08" d="M623.24 449.828C623.24 544.208 546.726 620.726 452.342 620.726C357.954 620.726 281.442 544.207 281.442 449.828C281.442 355.44 357.954 278.927 452.342 278.927C546.726 278.927 623.24 355.44 623.24 449.828Z" stroke="white" stroke-width="30.0557" stroke-miterlimit="10"/>
<path opacity="0.22" d="M452.34 592.895C530.418 592.895 593.712 529.601 593.712 451.523C593.712 373.445 530.418 310.151 452.34 310.151C374.263 310.151 310.968 373.445 310.968 451.523C310.968 529.601 374.263 592.895 452.34 592.895Z" stroke="white" stroke-width="29.5041" stroke-miterlimit="10"/>
<path d="M452.34 571.465C517.88 571.465 571.011 518.334 571.011 452.794C571.011 387.254 517.88 334.123 452.34 334.123C386.8 334.123 333.669 387.254 333.669 452.794C333.669 518.334 386.8 571.465 452.34 571.465Z" stroke="white" stroke-width="16.6976" stroke-miterlimit="10"/>
<path d="M900.472 640.502C900.472 640.502 874.674 640.611 843.142 640.745C811.611 640.878 767.617 615.458 745.379 584.258L716.69 544.006L688.001 503.754C665.763 472.553 629.546 447.351 607.519 447.75C585.494 448.148 567.472 448.475 567.472 448.475" stroke="url(#paint0_linear_3168_2469)" stroke-width="16.6976" stroke-miterlimit="10"/>
<path d="M900.472 254.988C900.472 254.988 874.674 254.879 843.142 254.746C811.611 254.612 767.617 280.032 745.379 311.233L688.001 391.736C665.763 422.938 629.546 448.139 607.519 447.74C585.494 447.342 567.472 447.015 567.472 447.015" stroke="url(#paint1_linear_3168_2469)" stroke-width="16.6976" stroke-miterlimit="10"/>
<path d="M569.472 447.745H899.472" stroke="url(#paint2_linear_3168_2469)" stroke-width="16.6976" stroke-miterlimit="10"/>
<path d="M1.47193 640.502C1.47193 640.502 27.2702 640.611 58.8023 640.745C90.3324 640.878 134.327 615.458 156.565 584.258L213.942 503.754C236.181 472.553 272.397 447.351 294.425 447.75C316.45 448.148 334.472 448.475 334.472 448.475" stroke="url(#paint3_linear_3168_2469)" stroke-width="16.6976" stroke-miterlimit="10"/>
<path d="M1.47192 254.988C1.47192 254.988 27.2702 254.879 58.8023 254.746C90.3324 254.612 134.327 280.032 156.565 311.233L213.942 391.736C236.181 422.938 272.397 448.139 294.425 447.74C316.45 447.342 334.472 447.015 334.472 447.015" stroke="url(#paint4_linear_3168_2469)" stroke-width="16.6976" stroke-miterlimit="10"/>
<path d="M332.472 447.745H2.47192" stroke="url(#paint5_linear_3168_2469)" stroke-width="16.6976" stroke-miterlimit="10"/>
<g clip-path="url(#clip0_3168_2469)">
<path fill-rule="evenodd" clip-rule="evenodd" d="M426.565 414.617L415.454 434.068C414.565 434.086 413.676 434.33 412.842 434.816C410.231 436.351 409.324 439.74 410.842 442.379C412.361 445.019 415.694 445.936 418.324 444.401C420.787 442.96 421.731 439.871 420.565 437.287L432.657 416.133C433.213 415.16 433.176 413.999 432.657 413.082H432.676L424.805 399.304H465.028C465.398 399.697 465.824 400.053 466.306 400.334C468.917 401.869 472.269 400.951 473.787 398.312C475.306 395.654 474.398 392.265 471.787 390.749C469.176 389.214 465.824 390.131 464.306 392.771C464.213 392.92 464.139 393.07 464.083 393.22H419.861C419.25 393.164 418.639 393.295 418.065 393.613C416.62 394.455 416.12 396.327 416.954 397.788L426.565 414.617Z" fill="white"/>
<path fill-rule="evenodd" clip-rule="evenodd" d="M448.25 411.566C447.25 409.881 445.435 408.758 443.361 408.758C440.213 408.758 437.676 411.341 437.676 414.505C437.676 417.669 440.232 420.252 443.361 420.252C445.361 420.252 447.102 419.222 448.121 417.65H471.935C473.047 417.65 474.028 417.032 474.547 416.134H474.565L482.436 402.355L502.232 437.007C501.899 437.737 501.732 438.542 501.732 439.384C501.732 442.567 504.288 445.131 507.417 445.131C510.565 445.131 513.102 442.548 513.102 439.384C513.102 436.202 510.547 433.637 507.417 433.637C507.362 433.637 507.306 433.637 507.269 433.637L485.176 394.98C484.917 394.418 484.51 393.931 483.936 393.613C482.491 392.771 480.639 393.276 479.806 394.736L470.195 411.566H448.25Z" fill="white"/>
<path fill-rule="evenodd" clip-rule="evenodd" d="M418.139 473.193C417.639 474.054 417.361 475.027 417.361 476.095C417.361 479.277 419.917 481.842 423.046 481.842C423.065 481.842 423.065 481.842 423.083 481.842C426.213 481.823 428.731 479.258 428.731 476.095C428.731 473.062 426.417 470.591 423.472 470.366L411.713 449.774C411.157 448.8 410.139 448.257 409.102 448.239V448.22H393.361L412.991 413.85C416.028 413.737 418.454 411.21 418.454 408.102C418.454 404.92 415.898 402.355 412.768 402.355C412.713 402.355 412.657 402.355 412.602 402.355C409.546 402.449 407.083 404.976 407.083 408.102C407.083 409.095 407.324 410.012 407.768 410.836L385.676 449.512C385.324 450.017 385.12 450.616 385.12 451.29C385.12 452.975 386.472 454.342 388.139 454.342H407.361L418.139 473.193Z" fill="white"/>
<path fill-rule="evenodd" clip-rule="evenodd" d="M516.88 451.29C516.88 449.605 515.528 448.239 513.862 448.239H494.621L483.509 428.788C483.935 428.002 484.176 427.104 484.176 426.13C484.176 423.079 481.732 420.589 478.695 420.589C475.676 420.589 473.213 423.06 473.213 426.13C473.213 429.013 475.398 431.391 478.176 431.634L490.269 452.788C490.824 453.761 491.843 454.304 492.88 454.323V454.342H508.621L488.51 489.554C487.991 489.667 487.472 489.873 486.991 490.153C484.38 491.688 483.472 495.077 484.991 497.716C486.51 500.356 489.843 501.273 492.473 499.738C495.084 498.203 495.991 494.815 494.473 492.175C494.398 492.025 494.306 491.894 494.213 491.745L516.324 453.031C516.658 452.544 516.88 451.945 516.88 451.29Z" fill="white"/>
<path d="M471.954 481.86L475.065 476.413L471.935 481.842L471.954 481.86Z" fill="white"/>
<path d="M427.435 486.447L419.565 500.206L399.453 464.993C399.676 464.282 399.75 463.514 399.657 462.709C399.342 460.07 397.176 457.992 394.528 457.842C391.361 457.655 388.731 460.201 388.731 463.365C388.731 466.416 391.176 468.906 394.213 468.906C394.379 468.906 394.546 468.906 394.713 468.887L416.824 507.601C417.083 508.162 417.491 508.649 418.065 508.967C419.509 509.81 421.361 509.304 422.194 507.844L431.806 491.015H454.028C454.491 491.782 455.139 492.437 455.972 492.924C458.583 494.459 461.935 493.542 463.454 490.902C464.972 488.263 464.065 484.874 461.454 483.339C458.991 481.898 455.861 482.628 454.25 484.93H435.268H430.046C428.972 484.93 427.972 485.511 427.435 486.447Z" fill="white"/>
<path d="M485.936 456.719C483.065 456.906 480.769 459.321 480.639 462.223C480.602 463.346 480.88 464.413 481.399 465.312L475.065 476.413L471.954 481.879L471.935 481.86L469.324 486.391C468.769 487.345 468.769 488.525 469.324 489.48L469.343 489.517H469.324L477.195 503.295H437.954C436.898 501.535 434.917 500.393 432.695 500.524C429.843 500.712 427.546 503.052 427.398 505.935C427.324 507.208 427.676 508.387 428.287 509.36C429.306 510.952 431.065 512 433.065 512C435.065 512 436.843 510.952 437.843 509.36H482.121C482.732 509.417 483.343 509.286 483.917 508.967C485.362 508.125 485.862 506.253 485.028 504.793L475.417 487.963L486.695 468.195C489.658 468.007 492.01 465.499 492.01 462.466C492.028 459.153 489.269 456.494 485.936 456.719Z" fill="white"/>
<path d="M474.546 449.718L464.102 431.428C463.546 430.454 462.528 429.912 461.491 429.893V429.874H440.528C439.306 429.874 438.25 430.604 437.787 431.653L427.454 449.755C427.213 450.186 427.083 450.654 427.065 451.103C427.083 451.59 427.231 452.076 427.491 452.507L437.935 470.797C438.491 471.77 439.509 472.313 440.546 472.332V472.35H461.491C462.713 472.35 463.769 471.62 464.232 470.572L474.565 452.47C474.806 452.039 474.935 451.571 474.954 451.122C474.935 450.635 474.787 450.148 474.546 449.718ZM468.38 451.122L459.75 466.248H442.25L433.62 451.122L442.25 435.996H459.75L468.38 451.122Z" fill="white"/>
</g>
<defs>
<linearGradient id="paint0_linear_3168_2469" x1="832" y1="544.245" x2="567.328" y2="544.245" gradientUnits="userSpaceOnUse">
<stop offset="0.0471" stop-color="white" stop-opacity="0"/>
<stop offset="1" stop-color="white" stop-opacity="0.6"/>
</linearGradient>
<linearGradient id="paint1_linear_3168_2469" x1="832" y1="351.245" x2="567.328" y2="351.245" gradientUnits="userSpaceOnUse">
<stop offset="0.0471" stop-color="white" stop-opacity="0"/>
<stop offset="1" stop-color="white" stop-opacity="0.6"/>
</linearGradient>
<linearGradient id="paint2_linear_3168_2469" x1="831.617" y1="448.245" x2="569.329" y2="448.245" gradientUnits="userSpaceOnUse">
<stop offset="0.0471" stop-color="white" stop-opacity="0"/>
<stop offset="1" stop-color="white" stop-opacity="0.6"/>
</linearGradient>
<linearGradient id="paint3_linear_3168_2469" x1="69.9439" y1="544.245" x2="334.616" y2="544.245" gradientUnits="userSpaceOnUse">
<stop offset="0.0471" stop-color="white" stop-opacity="0"/>
<stop offset="1" stop-color="white" stop-opacity="0.6"/>
</linearGradient>
<linearGradient id="paint4_linear_3168_2469" x1="69.9439" y1="351.245" x2="334.616" y2="351.245" gradientUnits="userSpaceOnUse">
<stop offset="0.0471" stop-color="white" stop-opacity="0"/>
<stop offset="1" stop-color="white" stop-opacity="0.6"/>
</linearGradient>
<linearGradient id="paint5_linear_3168_2469" x1="70.327" y1="448.245" x2="332.614" y2="448.245" gradientUnits="userSpaceOnUse">
<stop offset="0.0471" stop-color="white" stop-opacity="0"/>
<stop offset="1" stop-color="white" stop-opacity="0.6"/>
</linearGradient>
<clipPath id="clip0_3168_2469">
<rect width="131.76" height="122" fill="white" transform="translate(385.12 390)"/>
</clipPath>
</defs>
</svg>
