<svg width="55" height="55" viewBox="0 0 55 55" fill="none" xmlns="http://www.w3.org/2000/svg">
<path d="M21.0023 8.56787C20.4455 8.56787 19.9012 8.73299 19.4382 9.04234C18.9752 9.35169 18.6144 9.79138 18.4013 10.3058C18.1882 10.8202 18.1325 11.3863 18.2411 11.9324C18.3497 12.4785 18.6179 12.9802 19.0116 13.3739C19.4053 13.7676 19.907 14.0358 20.4531 14.1444C20.9992 14.253 21.5653 14.1973 22.0797 13.9842C22.5941 13.7711 23.0338 13.4103 23.3432 12.9473C23.6525 12.4843 23.8176 11.94 23.8176 11.3832C23.8167 10.6368 23.5198 9.92124 22.992 9.39346C22.4643 8.86568 21.7487 8.56878 21.0023 8.56787ZM21.0023 12.4789C20.7854 12.4789 20.5734 12.4145 20.393 12.294C20.2127 12.1735 20.0721 12.0022 19.9891 11.8018C19.9062 11.6013 19.8845 11.3808 19.9269 11.1681C19.9693 10.9553 20.0738 10.76 20.2272 10.6066C20.3807 10.4533 20.5762 10.3489 20.7889 10.3067C21.0017 10.2645 21.2222 10.2863 21.4226 10.3695C21.6229 10.4526 21.7941 10.5933 21.9145 10.7737C22.0349 10.9542 22.0991 11.1663 22.0989 11.3832C22.0987 11.6739 21.983 11.9526 21.7774 12.158C21.5718 12.3635 21.293 12.4789 21.0023 12.4789Z" fill="url(#paint0_linear_607_167)"/>
<path d="M21.0023 16.7017C20.4455 16.7017 19.9011 16.8668 19.4381 17.1762C18.9751 17.4856 18.6143 17.9253 18.4012 18.4398C18.1882 18.9543 18.1325 19.5204 18.2412 20.0665C18.3499 20.6127 18.6181 21.1143 19.0119 21.508C19.4057 21.9017 19.9074 22.1698 20.4536 22.2783C20.9998 22.3868 21.5659 22.331 22.0803 22.1177C22.5947 21.9045 23.0343 21.5435 23.3436 21.0805C23.6528 20.6174 23.8178 20.073 23.8176 19.5161C23.8165 18.7699 23.5195 18.0545 22.9917 17.5269C22.464 16.9994 21.7486 16.7026 21.0023 16.7017ZM21.0023 20.6127C20.7854 20.6127 20.5734 20.5484 20.3931 20.4279C20.2128 20.3074 20.0722 20.1361 19.9892 19.9358C19.9062 19.7354 19.8845 19.5149 19.9268 19.3022C19.9691 19.0895 20.0736 18.8941 20.2269 18.7407C20.3803 18.5874 20.5757 18.4829 20.7884 18.4406C21.0011 18.3983 21.2216 18.42 21.422 18.503C21.6223 18.586 21.7936 18.7266 21.9141 18.9069C22.0346 19.0872 22.0989 19.2992 22.0989 19.5161C22.0987 19.8069 21.9831 20.0857 21.7775 20.2913C21.5719 20.4969 21.2931 20.6125 21.0023 20.6127Z" fill="url(#paint1_linear_607_167)"/>
<path d="M21.0023 24.8359C20.4455 24.8359 19.9011 25.0011 19.4381 25.3105C18.9751 25.6199 18.6143 26.0596 18.4012 26.5741C18.1882 27.0886 18.1325 27.6547 18.2412 28.2008C18.3499 28.747 18.6181 29.2486 19.0119 29.6423C19.4057 30.036 19.9074 30.304 20.4536 30.4126C20.9998 30.5211 21.5659 30.4652 22.0803 30.252C22.5947 30.0388 23.0343 29.6778 23.3436 29.2147C23.6528 28.7516 23.8178 28.2072 23.8176 27.6504C23.8165 26.9042 23.5195 26.1888 22.9917 25.6612C22.464 25.1336 21.7486 24.8368 21.0023 24.8359ZM21.0023 28.747C20.7854 28.747 20.5734 28.6826 20.3931 28.5622C20.2128 28.4417 20.0722 28.2704 19.9892 28.07C19.9062 27.8697 19.8845 27.6492 19.9268 27.4365C19.9691 27.2238 20.0736 27.0284 20.2269 26.875C20.3803 26.7216 20.5757 26.6172 20.7884 26.5749C21.0011 26.5326 21.2216 26.5543 21.422 26.6373C21.6223 26.7203 21.7936 26.8608 21.9141 27.0412C22.0346 27.2215 22.0989 27.4335 22.0989 27.6504C22.0987 27.9412 21.9831 28.2199 21.7775 28.4255C21.5719 28.6311 21.2931 28.7467 21.0023 28.747Z" fill="url(#paint2_linear_607_167)"/>
<path d="M25.8054 8.78174H33.6137V10.5005H25.8054V8.78174Z" fill="url(#paint3_linear_607_167)"/>
<path d="M25.8054 12.2642H36.7135V13.9829H25.8054V12.2642Z" fill="url(#paint4_linear_607_167)"/>
<path d="M25.8054 16.9165H36.7135V18.6353H25.8054V16.9165Z" fill="url(#paint5_linear_607_167)"/>
<path d="M25.8054 20.3989H36.7135V22.1177H25.8054V20.3989Z" fill="url(#paint6_linear_607_167)"/>
<path d="M53.2203 43.4765H51.3202V11.4596C51.3202 11.2317 51.2297 11.0131 51.0685 10.852C50.9074 10.6908 50.6888 10.6003 50.4609 10.6003H41.6729V8.29801C41.6729 8.07011 41.5823 7.85156 41.4211 7.69043L36.4745 2.74301C36.3134 2.58183 36.0949 2.49126 35.867 2.49121H15.2909C15.063 2.49121 14.8444 2.58175 14.6833 2.74292C14.5221 2.90408 14.4316 3.12267 14.4316 3.35059V10.6003H5.64446C5.41654 10.6003 5.19796 10.6908 5.03679 10.852C4.87563 11.0131 4.78509 11.2317 4.78509 11.4596V43.4765H2.88501C2.65709 43.4765 2.4385 43.5671 2.27734 43.7282C2.11618 43.8894 2.02563 44.108 2.02563 44.3359V48.9482C2.02677 49.762 2.35055 50.5421 2.92598 51.1175C3.50141 51.6929 4.28154 52.0167 5.09532 52.0179H51.01C51.8238 52.0167 52.6039 51.6929 53.1794 51.1175C53.7548 50.5421 54.0786 49.762 54.0797 48.9482V44.3359C54.0797 44.108 53.9892 43.8894 53.828 43.7282C53.6668 43.5671 53.4482 43.4765 53.2203 43.4765ZM36.3517 30.078C36.1896 30.2327 35.9741 30.319 35.7501 30.319C35.526 30.319 35.3106 30.2327 35.1485 30.078L31.5624 26.4927C31.4055 26.3326 31.3181 26.1171 31.3192 25.8929C31.3204 25.6688 31.4099 25.4541 31.5684 25.2956C31.7269 25.1371 31.9415 25.0476 32.1657 25.0464C32.3898 25.0453 32.6054 25.1327 32.7655 25.2896L35.1485 27.6718C35.2283 27.7517 35.3231 27.815 35.4274 27.8583C35.5318 27.9015 35.6436 27.9238 35.7565 27.9238C35.8695 27.9238 35.9813 27.9015 36.0856 27.8583C36.1899 27.815 36.2847 27.7517 36.3645 27.6718L41.5835 22.4528C41.7431 22.2932 41.9595 22.2036 42.1851 22.2036C42.4107 22.2036 42.6271 22.2932 42.7867 22.4528C42.9462 22.6123 43.0358 22.8287 43.0358 23.0543C43.0358 23.28 42.9462 23.4964 42.7867 23.6559L36.3517 30.078ZM36.7238 5.42598L38.6402 7.34238H36.7238V5.42598ZM16.1503 4.21082H35.0076V8.2009C35.0076 8.42882 35.0981 8.6474 35.2593 8.80857C35.4205 8.96973 35.639 9.06027 35.867 9.06027H39.9542V21.6432L35.7501 25.8447L33.9806 24.0736C33.4977 23.5939 32.8446 23.3247 32.1639 23.3247C31.4832 23.3247 30.8302 23.5939 30.3472 24.0736C30.0749 24.3489 29.8691 24.6828 29.7456 25.0498H25.8011V26.7686H29.7542C29.8793 27.1205 30.0803 27.4405 30.3429 27.7061L31.1688 28.532H25.7977V30.2507H32.8875L33.9291 31.2923C34.4109 31.7738 35.0642 32.0443 35.7454 32.0443C36.4265 32.0443 37.0798 31.7738 37.5617 31.2923L39.9464 28.9067V34.8226H16.1417L16.1503 4.21082ZM40.8144 36.5431C41.0423 36.5431 41.2609 36.4525 41.4221 36.2914C41.5832 36.1302 41.6738 35.9116 41.6738 35.6837V27.1888L43.9941 24.8685C44.3841 24.479 44.6384 23.9742 44.7192 23.4289C44.8 22.8837 44.7031 22.3269 44.4428 21.841C44.1825 21.3551 43.7726 20.9659 43.2739 20.7311C42.7752 20.4963 42.2141 20.4283 41.6738 20.5372V16.9554H44.966V38.8127H11.1402V16.9554H14.4316V35.6829C14.4316 35.9108 14.5221 36.1294 14.6833 36.2905C14.8444 36.4517 15.063 36.5422 15.2909 36.5422L40.8144 36.5431ZM6.50384 12.319H14.4316V15.2366H10.2808C10.0529 15.2366 9.83428 15.3271 9.67312 15.4883C9.51196 15.6495 9.42142 15.8681 9.42142 16.096V39.6721C9.42142 39.9 9.51196 40.1186 9.67312 40.2797C9.83428 40.4409 10.0529 40.5315 10.2808 40.5315H45.8245C46.0525 40.5315 46.271 40.4409 46.4322 40.2797C46.5934 40.1186 46.6839 39.9 46.6839 39.6721V16.096C46.6839 15.8681 46.5934 15.6495 46.4322 15.4883C46.271 15.3271 46.0525 15.2366 45.8245 15.2366H41.6729V12.319H49.6015V43.449H6.50384V12.319ZM20.1954 45.1953H35.9099V46.8221H20.1954V45.1953ZM52.361 48.9482C52.3605 49.3063 52.218 49.6497 51.9648 49.9029C51.7115 50.1562 51.3682 50.2986 51.01 50.2991H5.09532C4.73717 50.2986 4.39382 50.1562 4.14057 49.9029C3.88732 49.6497 3.74484 49.3063 3.74438 48.9482V45.1953H18.4767V47.6814C18.4767 47.9094 18.5672 48.128 18.7284 48.2891C18.8895 48.4503 19.1081 48.5408 19.336 48.5408H36.7693C36.9972 48.5408 37.2158 48.4503 37.377 48.2891C37.5381 48.128 37.6287 47.9094 37.6287 47.6814V45.1953H52.361V48.9482Z" fill="url(#paint7_linear_607_167)"/>
<defs>
<linearGradient id="paint0_linear_607_167" x1="18.187" y1="14.1985" x2="23.6805" y2="8.4371" gradientUnits="userSpaceOnUse">
<stop stop-color="#3A67F6"/>
<stop offset="1" stop-color="#71E6FC"/>
</linearGradient>
<linearGradient id="paint1_linear_607_167" x1="18.187" y1="22.3323" x2="23.6805" y2="16.5709" gradientUnits="userSpaceOnUse">
<stop stop-color="#3A67F6"/>
<stop offset="1" stop-color="#71E6FC"/>
</linearGradient>
<linearGradient id="paint2_linear_607_167" x1="18.187" y1="30.4666" x2="23.6805" y2="24.7052" gradientUnits="userSpaceOnUse">
<stop stop-color="#3A67F6"/>
<stop offset="1" stop-color="#71E6FC"/>
</linearGradient>
<linearGradient id="paint3_linear_607_167" x1="25.8054" y1="10.5005" x2="26.4804" y2="7.28458" gradientUnits="userSpaceOnUse">
<stop stop-color="#3A67F6"/>
<stop offset="1" stop-color="#71E6FC"/>
</linearGradient>
<linearGradient id="paint4_linear_607_167" x1="25.8054" y1="13.9829" x2="26.2987" y2="10.6995" gradientUnits="userSpaceOnUse">
<stop stop-color="#3A67F6"/>
<stop offset="1" stop-color="#71E6FC"/>
</linearGradient>
<linearGradient id="paint5_linear_607_167" x1="25.8054" y1="18.6353" x2="26.2987" y2="15.3518" gradientUnits="userSpaceOnUse">
<stop stop-color="#3A67F6"/>
<stop offset="1" stop-color="#71E6FC"/>
</linearGradient>
<linearGradient id="paint6_linear_607_167" x1="25.8054" y1="22.1177" x2="26.2987" y2="18.8342" gradientUnits="userSpaceOnUse">
<stop stop-color="#3A67F6"/>
<stop offset="1" stop-color="#71E6FC"/>
</linearGradient>
<linearGradient id="paint7_linear_607_167" x1="2.02564" y1="52.0179" x2="50.1721" y2="-1.05373" gradientUnits="userSpaceOnUse">
<stop stop-color="#3A67F6"/>
<stop offset="1" stop-color="#71E6FC"/>
</linearGradient>
</defs>
</svg>
