<svg width="51" height="51" viewBox="0 0 51 51" fill="none" xmlns="http://www.w3.org/2000/svg">
<path d="M2.00073 50.544H19.8422C20.7321 50.544 21.4535 49.8226 21.4535 48.9327V31.0913C21.4535 30.2014 20.7321 29.48 19.8422 29.48H2.00073C1.11085 29.48 0.389404 30.2014 0.389404 31.0913V48.9327C0.389404 49.8226 1.11085 50.544 2.00073 50.544ZM3.61206 32.7026H18.2309V47.3214H3.61206V32.7026Z" fill="url(#paint0_linear_2529_2676)"/>
<path d="M19.8422 4.15097H2.00073C1.11085 4.15097 0.389404 4.87242 0.389404 5.7623V23.6038C0.389404 24.4937 1.11085 25.2151 2.00073 25.2151H19.8422C20.7321 25.2151 21.4535 24.4937 21.4535 23.6038V5.7623C21.4535 4.87242 20.7321 4.15097 19.8422 4.15097ZM18.2309 21.9925H3.61206V7.37363H18.2309V21.9925Z" fill="url(#paint1_linear_2529_2676)"/>
<path d="M37.5227 0.927891C36.8936 0.298613 35.8733 0.298613 35.244 0.927891L22.6283 13.5437C22.3261 13.8459 22.1562 14.2557 22.1562 14.6831C22.1562 15.1105 22.3261 15.5202 22.6283 15.8224L35.2441 28.4382C35.5587 28.7529 35.9711 28.9102 36.3834 28.9102C36.7957 28.9102 37.2082 28.753 37.5227 28.4382L50.1386 15.8224C50.4407 15.5202 50.6106 15.1104 50.6106 14.6831C50.6106 14.2557 50.4407 13.8459 50.1386 13.5437L37.5227 0.927891ZM36.3834 25.0202L26.0463 14.6831L36.3834 4.34606L46.7205 14.6831L36.3834 25.0202Z" fill="url(#paint2_linear_2529_2676)"/>
<path d="M45.3041 50.544C46.194 50.544 46.9155 49.8226 46.9155 48.9327V31.0913C46.9155 30.2014 46.194 29.48 45.3041 29.48H27.4626C26.5728 29.48 25.8513 30.2014 25.8513 31.0913V48.9327C25.8513 49.8226 26.5728 50.544 27.4626 50.544H45.3041ZM29.074 32.7026H43.6928V47.3214H29.074V32.7026Z" fill="url(#paint3_linear_2529_2676)"/>
<defs>
<linearGradient id="paint0_linear_2529_2676" x1="3.02242" y1="50.5473" x2="24.0541" y2="37.8124" gradientUnits="userSpaceOnUse">
<stop stop-color="#3A67F6"/>
<stop offset="1" stop-color="#72E8FC"/>
</linearGradient>
<linearGradient id="paint1_linear_2529_2676" x1="3.02242" y1="25.2184" x2="24.0541" y2="12.4835" gradientUnits="userSpaceOnUse">
<stop stop-color="#3A67F6"/>
<stop offset="1" stop-color="#72E8FC"/>
</linearGradient>
<linearGradient id="paint2_linear_2529_2676" x1="25.713" y1="28.9147" x2="54.1235" y2="11.7118" gradientUnits="userSpaceOnUse">
<stop stop-color="#3A67F6"/>
<stop offset="1" stop-color="#72E8FC"/>
</linearGradient>
<linearGradient id="paint3_linear_2529_2676" x1="28.4843" y1="50.5473" x2="49.516" y2="37.8124" gradientUnits="userSpaceOnUse">
<stop stop-color="#3A67F6"/>
<stop offset="1" stop-color="#72E8FC"/>
</linearGradient>
</defs>
</svg>
