<svg width="60" height="60" viewBox="0 0 60 60" fill="none" xmlns="http://www.w3.org/2000/svg">
<path d="M55.3125 50.625H4.6875C3.44475 50.6235 2.25334 50.1292 1.37458 49.2504C0.495827 48.3717 0.00148862 47.1802 0 45.9375L0 14.0625C0.00148862 12.8198 0.495827 11.6283 1.37458 10.7496C2.25334 9.87083 3.44475 9.37649 4.6875 9.375H11.25V11.25H4.6875C3.94158 11.25 3.22621 11.5463 2.69876 12.0738C2.17132 12.6012 1.875 13.3166 1.875 14.0625V45.9375C1.875 46.6834 2.17132 47.3988 2.69876 47.9262C3.22621 48.4537 3.94158 48.75 4.6875 48.75H55.3125C56.0584 48.75 56.7738 48.4537 57.3012 47.9262C57.8287 47.3988 58.125 46.6834 58.125 45.9375V14.0625C58.125 13.3166 57.8287 12.6012 57.3012 12.0738C56.7738 11.5463 56.0584 11.25 55.3125 11.25H48.75V9.375H55.3125C56.5552 9.37649 57.7467 9.87083 58.6254 10.7496C59.5042 11.6283 59.9985 12.8198 60 14.0625V45.9375C59.9985 47.1802 59.5042 48.3717 58.6254 49.2504C57.7467 50.1292 56.5552 50.6235 55.3125 50.625Z" fill="url(#paint0_linear_605_37)"/>
<path d="M40.3125 56.25H19.6875C19.5513 56.25 19.4168 56.2203 19.2932 56.1629C19.1697 56.1056 19.0601 56.0221 18.9721 55.9182C18.8842 55.8142 18.8199 55.6923 18.7838 55.561C18.7477 55.4297 18.7406 55.2921 18.7631 55.1578L19.7006 49.5328C19.7372 49.3141 19.8501 49.1154 20.0194 48.9721C20.1886 48.8287 20.4032 48.7501 20.625 48.75H39.375C39.5968 48.7501 39.8113 48.8287 39.9806 48.9721C40.1498 49.1154 40.2628 49.3141 40.2994 49.5328L41.2369 55.1578C41.2593 55.2921 41.2523 55.4297 41.2162 55.561C41.1801 55.6923 41.1158 55.8142 41.0278 55.9182C40.9398 56.0221 40.8303 56.1056 40.7067 56.1629C40.5832 56.2203 40.4487 56.25 40.3125 56.25ZM20.7947 54.375H39.2053L38.5809 50.625H21.419L20.7947 54.375Z" fill="url(#paint1_linear_605_37)"/>
<path d="M43.125 60H16.875C16.6264 60 16.3879 59.9012 16.2121 59.7254C16.0363 59.5496 15.9375 59.3111 15.9375 59.0625V55.3125C15.9375 55.0639 16.0363 54.8254 16.2121 54.6496C16.3879 54.4738 16.6264 54.375 16.875 54.375H43.125C43.3736 54.375 43.6121 54.4738 43.7879 54.6496C43.9637 54.8254 44.0625 55.0639 44.0625 55.3125V59.0625C44.0625 59.3111 43.9637 59.5496 43.7879 59.7254C43.6121 59.9012 43.3736 60 43.125 60ZM17.8125 58.125H42.1875V56.25H17.8125V58.125Z" fill="url(#paint2_linear_605_37)"/>
<path d="M0.9375 41.25H59.0625V43.125H0.9375V41.25Z" fill="url(#paint3_linear_605_37)"/>
<path d="M49.6875 42.1875H47.8125V2.8125C47.8125 2.56386 47.7137 2.3254 47.5379 2.14959C47.3621 1.97377 47.1236 1.875 46.875 1.875H19.1381L11.9128 9.10031L10.5872 7.77469L18.0872 0.274687C18.2629 0.09886 18.5013 5.30976e-05 18.75 0L46.875 0C47.6209 0 48.3363 0.296316 48.8637 0.823762C49.3912 1.35121 49.6875 2.06658 49.6875 2.8125V42.1875Z" fill="url(#paint4_linear_605_37)"/>
<path d="M12.1875 42.1875H10.3125V8.4375C10.3125 8.18886 10.4113 7.9504 10.5871 7.77459C10.7629 7.59877 11.0014 7.5 11.25 7.5H17.8125V0.9375H19.6875V8.4375C19.6875 8.68614 19.5887 8.9246 19.4129 9.10041C19.2371 9.27623 18.9986 9.375 18.75 9.375H12.1875V42.1875Z" fill="url(#paint5_linear_605_37)"/>
<path d="M30 12.1875C29.0054 12.1875 28.0516 11.7924 27.3484 11.0892C26.6451 10.3859 26.25 9.43206 26.25 8.4375V6.5625C26.25 5.56794 26.6451 4.61411 27.3484 3.91085C28.0516 3.20759 29.0054 2.8125 30 2.8125C30.9946 2.8125 31.9484 3.20759 32.6516 3.91085C33.3549 4.61411 33.75 5.56794 33.75 6.5625V8.4375C33.75 9.43206 33.3549 10.3859 32.6516 11.0892C31.9484 11.7924 30.9946 12.1875 30 12.1875ZM30 4.6875C29.5027 4.6875 29.0258 4.88504 28.6742 5.23667C28.3225 5.58831 28.125 6.06522 28.125 6.5625V8.4375C28.125 8.93478 28.3225 9.41169 28.6742 9.76332C29.0258 10.115 29.5027 10.3125 30 10.3125C30.4973 10.3125 30.9742 10.115 31.3258 9.76332C31.6775 9.41169 31.875 8.93478 31.875 8.4375V6.5625C31.875 6.06522 31.6775 5.58831 31.3258 5.23667C30.9742 4.88504 30.4973 4.6875 30 4.6875Z" fill="url(#paint6_linear_605_37)"/>
<path d="M35.625 17.8125H24.375C24.1264 17.8125 23.8879 17.7137 23.7121 17.5379C23.5363 17.3621 23.4375 17.1236 23.4375 16.875C23.4375 15.1345 24.1289 13.4653 25.3596 12.2346C26.5903 11.0039 28.2595 10.3125 30 10.3125C31.7405 10.3125 33.4097 11.0039 34.6404 12.2346C35.8711 13.4653 36.5625 15.1345 36.5625 16.875C36.5625 17.1236 36.4637 17.3621 36.2879 17.5379C36.1121 17.7137 35.8736 17.8125 35.625 17.8125ZM25.4063 15.9375H34.5938C34.3786 14.8779 33.8037 13.9252 32.9665 13.2409C32.1293 12.5566 31.0813 12.1828 30 12.1828C28.9187 12.1828 27.8707 12.5566 27.0335 13.2409C26.1963 13.9252 25.6214 14.8779 25.4063 15.9375Z" fill="url(#paint7_linear_605_37)"/>
<path d="M18.75 28.125C17.8229 28.125 16.9166 27.8501 16.1458 27.335C15.3749 26.8199 14.7741 26.0879 14.4193 25.2313C14.0645 24.3748 13.9717 23.4323 14.1526 22.523C14.3334 21.6137 14.7799 20.7785 15.4354 20.1229C16.091 19.4674 16.9262 19.0209 17.8355 18.8401C18.7448 18.6592 19.6873 18.752 20.5438 19.1068C21.4004 19.4616 22.1324 20.0624 22.6475 20.8333C23.1626 21.6041 23.4375 22.5104 23.4375 23.4375C23.436 24.6802 22.9417 25.8717 22.0629 26.7504C21.1842 27.6292 19.9927 28.1235 18.75 28.125ZM18.75 20.625C18.1937 20.625 17.65 20.79 17.1875 21.099C16.7249 21.408 16.3645 21.8473 16.1516 22.3612C15.9387 22.8751 15.883 23.4406 15.9915 23.9862C16.1001 24.5318 16.3679 25.0329 16.7613 25.4262C17.1546 25.8196 17.6557 26.0874 18.2013 26.196C18.7469 26.3045 19.3124 26.2488 19.8263 26.0359C20.3402 25.823 20.7795 25.4626 21.0885 25C21.3975 24.5375 21.5625 23.9938 21.5625 23.4375C21.5625 22.6916 21.2662 21.9762 20.7387 21.4488C20.2113 20.9213 19.4959 20.625 18.75 20.625Z" fill="url(#paint8_linear_605_37)"/>
<path d="M20.8997 26.9128L18.0872 24.1003C17.9114 23.9245 17.8126 23.6861 17.8125 23.4375V19.6875H19.6875V23.0494L22.2253 25.5872L20.8997 26.9128Z" fill="url(#paint9_linear_605_37)"/>
<path d="M18.75 39.375C17.8229 39.375 16.9166 39.1001 16.1458 38.585C15.3749 38.07 14.7741 37.3379 14.4193 36.4813C14.0645 35.6248 13.9717 34.6823 14.1526 33.773C14.3334 32.8637 14.7799 32.0285 15.4354 31.3729C16.091 30.7174 16.9262 30.2709 17.8355 30.0901C18.7448 29.9092 19.6873 30.002 20.5438 30.3568C21.4004 30.7116 22.1324 31.3124 22.6475 32.0833C23.1626 32.8541 23.4375 33.7604 23.4375 34.6875C23.436 35.9303 22.9417 37.1217 22.0629 38.0004C21.1842 38.8792 19.9927 39.3735 18.75 39.375ZM18.75 31.875C18.1937 31.875 17.65 32.04 17.1875 32.349C16.7249 32.658 16.3645 33.0973 16.1516 33.6112C15.9387 34.1251 15.883 34.6906 15.9915 35.2362C16.1001 35.7818 16.3679 36.2829 16.7613 36.6762C17.1546 37.0696 17.6557 37.3375 18.2013 37.446C18.7469 37.5545 19.3124 37.4988 19.8263 37.2859C20.3402 37.0731 20.7795 36.7126 21.0885 36.2501C21.3975 35.7875 21.5625 35.2438 21.5625 34.6875C21.5625 33.9416 21.2662 33.2262 20.7387 32.6988C20.2113 32.1713 19.4959 31.875 18.75 31.875Z" fill="url(#paint10_linear_605_37)"/>
<path d="M22.5 35.625H18.75C18.5014 35.625 18.2629 35.5262 18.0871 35.3504C17.9113 35.1746 17.8125 34.9361 17.8125 34.6875V30.9375H19.6875V33.75H22.5V35.625Z" fill="url(#paint11_linear_605_37)"/>
<path d="M25.3125 20.625H27.1875V22.5H25.3125V20.625Z" fill="url(#paint12_linear_605_37)"/>
<path d="M29.0625 20.625H45.9375V22.5H29.0625V20.625Z" fill="url(#paint13_linear_605_37)"/>
<path d="M25.3125 24.375H45.9375V26.25H25.3125V24.375Z" fill="url(#paint14_linear_605_37)"/>
<path d="M25.3125 31.875H27.1875V33.75H25.3125V31.875Z" fill="url(#paint15_linear_605_37)"/>
<path d="M29.0625 31.875H45.9375V33.75H29.0625V31.875Z" fill="url(#paint16_linear_605_37)"/>
<path d="M25.3125 35.625H45.9375V37.5H25.3125V35.625Z" fill="url(#paint17_linear_605_37)"/>
<defs>
<linearGradient id="paint0_linear_605_37" x1="1.67638e-06" y1="50.625" x2="36.9468" y2="-5.73698" gradientUnits="userSpaceOnUse">
<stop stop-color="#3A67F6"/>
<stop offset="1" stop-color="#71E6FC"/>
</linearGradient>
<linearGradient id="paint1_linear_605_37" x1="18.7502" y1="56.25" x2="22.9797" y2="42.9431" gradientUnits="userSpaceOnUse">
<stop stop-color="#3A67F6"/>
<stop offset="1" stop-color="#71E6FC"/>
</linearGradient>
<linearGradient id="paint2_linear_605_37" x1="15.9375" y1="60" x2="17.9594" y2="49.3972" gradientUnits="userSpaceOnUse">
<stop stop-color="#3A67F6"/>
<stop offset="1" stop-color="#71E6FC"/>
</linearGradient>
<linearGradient id="paint3_linear_605_37" x1="0.937502" y1="43.125" x2="1.05006" y2="39.4657" gradientUnits="userSpaceOnUse">
<stop stop-color="#3A67F6"/>
<stop offset="1" stop-color="#71E6FC"/>
</linearGradient>
<linearGradient id="paint4_linear_605_37" x1="10.5872" y1="42.1875" x2="51.7771" y2="2.14978" gradientUnits="userSpaceOnUse">
<stop stop-color="#3A67F6"/>
<stop offset="1" stop-color="#71E6FC"/>
</linearGradient>
<linearGradient id="paint5_linear_605_37" x1="10.3125" y1="42.1875" x2="28.4872" y2="37.8554" gradientUnits="userSpaceOnUse">
<stop stop-color="#3A67F6"/>
<stop offset="1" stop-color="#71E6FC"/>
</linearGradient>
<linearGradient id="paint6_linear_605_37" x1="26.25" y1="12.1875" x2="35.2677" y2="4.62145" gradientUnits="userSpaceOnUse">
<stop stop-color="#3A67F6"/>
<stop offset="1" stop-color="#71E6FC"/>
</linearGradient>
<linearGradient id="paint7_linear_605_37" x1="23.4375" y1="17.8125" x2="29.5929" y2="6.5151" gradientUnits="userSpaceOnUse">
<stop stop-color="#3A67F6"/>
<stop offset="1" stop-color="#71E6FC"/>
</linearGradient>
<linearGradient id="paint8_linear_605_37" x1="14.0625" y1="28.125" x2="23.2091" y2="18.5323" gradientUnits="userSpaceOnUse">
<stop stop-color="#3A67F6"/>
<stop offset="1" stop-color="#71E6FC"/>
</linearGradient>
<linearGradient id="paint9_linear_605_37" x1="17.8125" y1="26.9128" x2="24.2232" y2="22.8066" gradientUnits="userSpaceOnUse">
<stop stop-color="#3A67F6"/>
<stop offset="1" stop-color="#71E6FC"/>
</linearGradient>
<linearGradient id="paint10_linear_605_37" x1="14.0625" y1="39.375" x2="23.2092" y2="29.7823" gradientUnits="userSpaceOnUse">
<stop stop-color="#3A67F6"/>
<stop offset="1" stop-color="#71E6FC"/>
</linearGradient>
<linearGradient id="paint11_linear_605_37" x1="17.8125" y1="35.625" x2="22.3858" y2="30.8286" gradientUnits="userSpaceOnUse">
<stop stop-color="#3A67F6"/>
<stop offset="1" stop-color="#71E6FC"/>
</linearGradient>
<linearGradient id="paint12_linear_605_37" x1="25.3125" y1="22.5" x2="27.1418" y2="20.5815" gradientUnits="userSpaceOnUse">
<stop stop-color="#3A67F6"/>
<stop offset="1" stop-color="#71E6FC"/>
</linearGradient>
<linearGradient id="paint13_linear_605_37" x1="29.0625" y1="22.5" x2="29.4462" y2="18.8779" gradientUnits="userSpaceOnUse">
<stop stop-color="#3A67F6"/>
<stop offset="1" stop-color="#71E6FC"/>
</linearGradient>
<linearGradient id="paint14_linear_605_37" x1="25.3125" y1="26.25" x2="25.6276" y2="22.6145" gradientUnits="userSpaceOnUse">
<stop stop-color="#3A67F6"/>
<stop offset="1" stop-color="#71E6FC"/>
</linearGradient>
<linearGradient id="paint15_linear_605_37" x1="25.3125" y1="33.75" x2="27.1418" y2="31.8315" gradientUnits="userSpaceOnUse">
<stop stop-color="#3A67F6"/>
<stop offset="1" stop-color="#71E6FC"/>
</linearGradient>
<linearGradient id="paint16_linear_605_37" x1="29.0625" y1="33.75" x2="29.4462" y2="30.1279" gradientUnits="userSpaceOnUse">
<stop stop-color="#3A67F6"/>
<stop offset="1" stop-color="#71E6FC"/>
</linearGradient>
<linearGradient id="paint17_linear_605_37" x1="25.3125" y1="37.5" x2="25.6276" y2="33.8645" gradientUnits="userSpaceOnUse">
<stop stop-color="#3A67F6"/>
<stop offset="1" stop-color="#71E6FC"/>
</linearGradient>
</defs>
</svg>
