<svg width="20" height="20" viewBox="0 0 20 20" fill="none" xmlns="http://www.w3.org/2000/svg">
<path d="M7.9165 11.4583C7.9165 12.2667 8.54152 12.9167 9.30818 12.9167H10.8748C11.5415 12.9167 12.0832 12.35 12.0832 11.6417C12.0832 10.8833 11.7498 10.6083 11.2582 10.4333L8.74984 9.55834C8.25817 9.38334 7.92485 9.11668 7.92485 8.35001C7.92485 7.65001 8.4665 7.07501 9.13316 7.07501H10.6998C11.4665 7.07501 12.0915 7.72501 12.0915 8.53335" stroke="white" stroke-width="1.5" stroke-linecap="round" stroke-linejoin="round"/>
<path d="M10 6.25V13.75" stroke="white" stroke-width="1.5" stroke-linecap="round" stroke-linejoin="round"/>
<path d="M18.3332 9.99999C18.3332 14.6 14.5998 18.3333 9.99984 18.3333C5.39984 18.3333 1.6665 14.6 1.6665 9.99999C1.6665 5.39999 5.39984 1.66666 9.99984 1.66666" stroke="white" stroke-width="1.5" stroke-linecap="round" stroke-linejoin="round"/>
<path d="M18.3333 4.99999V1.66666H15" stroke="white" stroke-width="1.5" stroke-linecap="round" stroke-linejoin="round"/>
<path d="M14.1665 5.83332L18.3332 1.66666" stroke="white" stroke-width="1.5" stroke-linecap="round" stroke-linejoin="round"/>
</svg>
