<svg width="50" height="50" viewBox="0 0 50 50" fill="none" xmlns="http://www.w3.org/2000/svg">
<path d="M48.8281 42.8204H44.7979V25.8303C44.7979 25.291 44.3605 24.8537 43.8213 24.8537H37.3245C36.7853 24.8537 36.3479 25.291 36.3479 25.8303V42.8204H31.8553V22.4964C31.8553 21.9572 31.418 21.5198 30.8787 21.5198H24.3819C23.8427 21.5198 23.4054 21.9572 23.4054 22.4964V42.8204H18.9127V32.0381C18.9127 31.4988 18.4754 31.0615 17.9361 31.0615H11.4394C10.9001 31.0615 10.4628 31.4988 10.4628 32.0381V42.8204H5.86016V27.9097H7.1917C12.3365 27.9097 17.153 24.9047 19.4159 20.2866L20.3028 18.4768C21.2257 16.5931 23.038 15.2854 25.0799 14.9652V17.3692C25.0799 18.2196 26.1451 18.6615 26.747 18.0597L31.4396 13.3672C32.4024 17.5345 36.1439 20.6504 40.5996 20.6504C45.783 20.6504 50.0001 16.4334 50.0001 11.25C50.0001 7.90452 48.1974 4.7845 45.2954 3.10764C44.8284 2.83752 44.2312 2.99768 43.9613 3.46458C43.6914 3.93147 43.8513 4.52883 44.3183 4.79866C46.6181 6.12776 48.0469 8.59983 48.0469 11.25C48.0469 15.3565 44.7061 18.6973 40.5995 18.6973C36.493 18.6973 33.1521 15.3565 33.1521 11.25C33.1521 8.56409 34.6093 6.07581 36.9549 4.75618C37.4249 4.49172 37.5917 3.89622 37.3271 3.4262C37.0625 2.95618 36.467 2.78938 35.9972 3.05393C33.6679 4.36438 32.0337 6.58909 31.443 9.13L26.7483 4.41399C26.1478 3.81028 25.0797 4.2509 25.0797 5.10295V8.02288C20.3204 8.36438 15.9926 11.2672 13.8683 15.5374L12.9466 17.3902C11.8562 19.582 9.65801 20.9437 7.20996 20.9437H5.86016V1.94055C5.86016 1.40129 5.42285 0.963989 4.88359 0.963989C4.34434 0.963989 3.90703 1.40129 3.90703 1.94055V21.9201V26.9331V42.8205H0.976562C0.437305 42.8205 0 43.2578 0 43.7971C0 44.3363 0.437305 44.7737 0.976562 44.7737H3.90703V48.0595C3.90703 48.5988 4.34434 49.0361 4.88359 49.0361C5.42285 49.0361 5.86016 48.5988 5.86016 48.0595V44.7737H48.8281C49.3674 44.7737 49.8047 44.3363 49.8047 43.7971C49.8047 43.2578 49.3674 42.8204 48.8281 42.8204ZM7.21006 22.8967C10.4044 22.8967 13.2726 21.12 14.6953 18.2601L15.617 16.4073C17.5678 12.486 21.6743 9.94094 26.0563 9.94094C26.5955 9.94094 27.0328 9.50364 27.0328 8.96438V7.46809L30.796 11.2485L27.0328 15.0116V13.9123C27.0328 13.3731 26.5955 12.9358 26.0563 12.9358C22.889 12.9358 19.9422 14.7735 18.5487 17.6174L17.6619 19.4272C15.7236 23.3825 11.598 25.9565 7.1915 25.9565H5.86016V22.8966H7.21006V22.8967ZM12.4159 42.8204V33.0147H16.9596V42.8204H12.4159ZM25.3585 42.8204V23.473H29.9021V42.8204H25.3585ZM38.3011 42.8204V26.8069H42.8447V42.8204H38.3011Z" fill="url(#paint0_linear)"/>
<defs>
<linearGradient id="paint0_linear" x1="2.02703" y1="30.2252" x2="50.0086" y2="30.4437" gradientUnits="userSpaceOnUse">
<stop stop-color="#088AF7"/>
<stop offset="1" stop-color="#1AB1E7"/>
</linearGradient>
</defs>
</svg>
