<svg width="55" height="55" viewBox="0 0 55 55" fill="none" xmlns="http://www.w3.org/2000/svg">
<path d="M36.0938 12.8906C35.5008 12.8906 35.0195 13.3719 35.0195 13.9648C35.0195 14.5578 35.5008 15.0391 36.0938 15.0391C36.6867 15.0391 37.168 14.5578 37.168 13.9648C37.168 13.3719 36.6867 12.8906 36.0938 12.8906Z" fill="url(#paint0_linear_2529_2670)"/>
<path d="M36.0938 43.9355C35.5008 43.9355 35.0195 44.4168 35.0195 45.0098C35.0195 45.6027 35.5008 46.084 36.0938 46.084C36.6867 46.084 37.168 45.6027 37.168 45.0098C37.168 44.4168 36.6867 43.9355 36.0938 43.9355Z" fill="url(#paint1_linear_2529_2670)"/>
<path d="M31.7969 17.1875C31.2039 17.1875 30.7227 17.6687 30.7227 18.2617C30.7227 18.8547 31.2039 19.3359 31.7969 19.3359C32.3898 19.3359 32.8711 18.8547 32.8711 18.2617C32.8711 17.6687 32.3898 17.1875 31.7969 17.1875Z" fill="url(#paint2_linear_2529_2670)"/>
<path d="M27.5 8.59375C26.907 8.59375 26.4258 9.075 26.4258 9.66797C26.4258 10.2609 26.907 10.7422 27.5 10.7422C28.093 10.7422 28.5742 10.2609 28.5742 9.66797C28.5742 9.075 28.093 8.59375 27.5 8.59375Z" fill="url(#paint3_linear_2529_2670)"/>
<path d="M23.2031 27.9297C22.6102 27.9297 22.1289 28.4109 22.1289 29.0039C22.1289 29.5969 22.6102 30.0781 23.2031 30.0781C23.7961 30.0781 24.2773 29.5969 24.2773 29.0039C24.2773 28.4109 23.7961 27.9297 23.2031 27.9297Z" fill="url(#paint4_linear_2529_2670)"/>
<path d="M16.7578 25.7812C16.1648 25.7812 15.6836 26.2625 15.6836 26.8555C15.6836 27.4484 16.1648 27.9297 16.7578 27.9297C17.3508 27.9297 17.832 27.4484 17.832 26.8555C17.832 26.2625 17.3508 25.7812 16.7578 25.7812Z" fill="url(#paint5_linear_2529_2670)"/>
<path d="M40.9322 23.5702L38.3885 22.2983L37.1156 19.7536C36.9336 19.3896 36.5616 19.1599 36.1547 19.16C35.7478 19.16 35.3759 19.39 35.194 19.7539L33.9223 22.2984L31.3778 23.5702C31.0138 23.7518 30.7839 24.1239 30.7839 24.5309C30.7839 24.9378 31.0139 25.3098 31.3779 25.4917L33.9224 26.7635L35.1941 29.308C35.376 29.672 35.7479 29.9019 36.1548 29.9019H36.1549C36.5617 29.9019 36.9337 29.6721 37.1156 29.3083L38.3885 26.7636L40.9322 25.4917C41.2961 25.3098 41.526 24.9378 41.526 24.531C41.526 24.1242 41.2961 23.7522 40.9322 23.5702ZM37.1076 25.0021C36.8998 25.106 36.7312 25.2745 36.6274 25.4824L36.1554 26.4259L35.684 25.4827C35.58 25.2746 35.4113 25.1061 35.2034 25.0021L34.261 24.5311L35.2034 24.0598C35.4115 23.9558 35.58 23.7872 35.684 23.5792L36.1554 22.636L36.6274 23.5795C36.7312 23.7874 36.8999 23.9558 37.1076 24.0598L38.0498 24.531L37.1076 25.0021Z" fill="url(#paint6_linear_2529_2670)"/>
<path d="M27.8934 17.1663L23.569 15.7248L22.1275 11.4005C21.9813 10.9619 21.5707 10.6659 21.1084 10.6659C20.6461 10.6659 20.2356 10.9618 20.0893 11.4005L18.6478 15.7248L14.3234 17.1663C13.8848 17.3125 13.5889 17.7231 13.5889 18.1855C13.5889 18.6478 13.8847 19.0584 14.3234 19.2046L18.6478 20.6461L20.0893 24.9704C20.2355 25.409 20.6461 25.705 21.1084 25.705C21.5707 25.705 21.9812 25.4091 22.1275 24.9704L23.569 20.6461L27.8934 19.2046C28.332 19.0584 28.6279 18.6478 28.6279 18.1855C28.6279 17.7231 28.3321 17.3126 27.8934 17.1663ZM22.3801 18.7777C22.0593 18.8846 21.8075 19.1362 21.7006 19.4571L21.1084 21.2339L20.5162 19.4571C20.4093 19.1364 20.1576 18.8846 19.8367 18.7777L18.06 18.1855L19.8367 17.5932C20.1575 17.4863 20.4093 17.2347 20.5162 16.9138L21.1084 15.137L21.7006 16.9138C21.8075 17.2346 22.0592 17.4863 22.3801 17.5932L24.1568 18.1855L22.3801 18.7777Z" fill="url(#paint7_linear_2529_2670)"/>
<path d="M45.6111 48.6903L43.7782 38.4258C44.9209 37.9497 45.7617 36.8133 45.7617 35.4492C45.7617 34.1622 45.003 33.0494 43.9097 32.5334C46.501 29.0336 47.9102 24.7954 47.9102 20.4102C47.9102 9.156 38.7542 0 27.5 0C16.2458 0 7.08984 9.156 7.08984 20.4102C7.08984 24.7947 8.49857 29.0322 11.0891 32.5316C10.0059 33.0421 9.23828 34.1474 9.23828 35.4492C9.23828 36.7875 10.0583 37.9374 11.2221 38.4239L9.38921 48.6886C8.08156 49.0779 7.08984 50.2959 7.08984 51.7773C7.08984 53.5543 8.53553 55 10.3125 55H44.6875C46.4681 55 47.9102 53.5579 47.9102 51.7773C47.9102 50.3213 46.9393 49.0884 45.6111 48.6903ZM9.23828 20.4102C9.23828 10.3406 17.4305 2.14844 27.5 2.14844C37.5695 2.14844 45.7617 10.3406 45.7617 20.4102C45.7617 24.748 44.22 28.9251 41.4112 32.2266H13.5888C10.78 28.9251 9.23828 24.748 9.23828 20.4102ZM42.5391 36.5234H12.4609C11.8686 36.5234 11.3867 36.0415 11.3867 35.4492C11.3867 34.8561 11.8678 34.375 12.4609 34.375H42.5391C43.1314 34.375 43.6133 34.8569 43.6133 35.4492C43.6133 36.0423 43.1322 36.5234 42.5391 36.5234ZM43.4046 48.5547H11.5955L13.3604 38.6719H41.6397L43.4046 48.5547ZM44.6875 52.8516H10.3125C9.72018 52.8516 9.23828 52.3697 9.23828 51.7773C9.23828 51.1851 9.71824 50.7038 10.3114 50.7031C10.3122 50.7031 10.313 50.7032 10.3138 50.7032C10.315 50.7032 10.3162 50.7031 10.3173 50.7031H44.6828C44.684 50.7031 44.6851 50.7032 44.6863 50.7032C44.6871 50.7032 44.6879 50.7031 44.6887 50.7031C45.2806 50.7037 45.7618 51.1853 45.7618 51.7773C45.7617 52.3704 45.2807 52.8516 44.6875 52.8516Z" fill="url(#paint8_linear_2529_2670)"/>
<path d="M31.7969 43.9355H18.9062C18.313 43.9355 17.832 44.4165 17.832 45.0098C17.832 45.6031 18.313 46.084 18.9062 46.084H31.7969C32.3902 46.084 32.8711 45.6031 32.8711 45.0098C32.8711 44.4165 32.3902 43.9355 31.7969 43.9355Z" fill="url(#paint9_linear_2529_2670)"/>
<defs>
<linearGradient id="paint0_linear_2529_2670" x1="35.2881" y1="15.0394" x2="37.4332" y2="13.7405" gradientUnits="userSpaceOnUse">
<stop stop-color="#3A67F6"/>
<stop offset="1" stop-color="#72E8FC"/>
</linearGradient>
<linearGradient id="paint1_linear_2529_2670" x1="35.2881" y1="46.0843" x2="37.4332" y2="44.7854" gradientUnits="userSpaceOnUse">
<stop stop-color="#3A67F6"/>
<stop offset="1" stop-color="#72E8FC"/>
</linearGradient>
<linearGradient id="paint2_linear_2529_2670" x1="30.9912" y1="19.3363" x2="33.1363" y2="18.0374" gradientUnits="userSpaceOnUse">
<stop stop-color="#3A67F6"/>
<stop offset="1" stop-color="#72E8FC"/>
</linearGradient>
<linearGradient id="paint3_linear_2529_2670" x1="26.6943" y1="10.7425" x2="28.8395" y2="9.44363" gradientUnits="userSpaceOnUse">
<stop stop-color="#3A67F6"/>
<stop offset="1" stop-color="#72E8FC"/>
</linearGradient>
<linearGradient id="paint4_linear_2529_2670" x1="22.3975" y1="30.0785" x2="24.5426" y2="28.7796" gradientUnits="userSpaceOnUse">
<stop stop-color="#3A67F6"/>
<stop offset="1" stop-color="#72E8FC"/>
</linearGradient>
<linearGradient id="paint5_linear_2529_2670" x1="15.9521" y1="27.93" x2="18.0973" y2="26.6311" gradientUnits="userSpaceOnUse">
<stop stop-color="#3A67F6"/>
<stop offset="1" stop-color="#72E8FC"/>
</linearGradient>
<linearGradient id="paint6_linear_2529_2670" x1="32.1267" y1="29.9036" x2="42.8522" y2="23.4092" gradientUnits="userSpaceOnUse">
<stop stop-color="#3A67F6"/>
<stop offset="1" stop-color="#72E8FC"/>
</linearGradient>
<linearGradient id="paint7_linear_2529_2670" x1="15.4687" y1="25.7073" x2="30.4846" y2="16.615" gradientUnits="userSpaceOnUse">
<stop stop-color="#3A67F6"/>
<stop offset="1" stop-color="#72E8FC"/>
</linearGradient>
<linearGradient id="paint8_linear_2529_2670" x1="12.1924" y1="55.0086" x2="58.534" y2="34.1826" gradientUnits="userSpaceOnUse">
<stop stop-color="#3A67F6"/>
<stop offset="1" stop-color="#72E8FC"/>
</linearGradient>
<linearGradient id="paint9_linear_2529_2670" x1="19.7119" y1="46.0843" x2="20.794" y2="41.498" gradientUnits="userSpaceOnUse">
<stop stop-color="#3A67F6"/>
<stop offset="1" stop-color="#72E8FC"/>
</linearGradient>
</defs>
</svg>
