<svg width="20" height="20" viewBox="0 0 20 20" fill="none" xmlns="http://www.w3.org/2000/svg">
<path d="M17.1585 8.79166V5.93333C17.1585 4.90833 16.3751 3.775 15.4168 3.41666L11.2585 1.85833C10.5668 1.6 9.43346 1.6 8.7418 1.85833L4.58346 3.425C3.62513 3.78333 2.8418 4.91666 2.8418 5.93333V12.125C2.8418 13.1083 3.4918 14.4 4.28346 14.9917L7.8668 17.6667C8.45013 18.1167 9.22513 18.3333 10.0001 18.3333" stroke="white" stroke-width="1.5" stroke-linecap="round" stroke-linejoin="round"/>
<path d="M13.3333 16.6667C15.1743 16.6667 16.6667 15.1743 16.6667 13.3333C16.6667 11.4924 15.1743 10 13.3333 10C11.4924 10 10 11.4924 10 13.3333C10 15.1743 11.4924 16.6667 13.3333 16.6667Z" stroke="white" stroke-width="1.5" stroke-linecap="round" stroke-linejoin="round"/>
<path d="M17.4964 17.5H17.5039" stroke="white" stroke-width="2" stroke-linecap="round" stroke-linejoin="round"/>
</svg>
