<svg width="50" height="50" viewBox="0 0 50 50" fill="none" xmlns="http://www.w3.org/2000/svg">
<path d="M29.3521 28.3379C29.3268 28.3379 29.3015 28.3365 29.2764 28.3338C28.5757 28.2547 27.9365 28.1987 27.3237 28.1608C27.235 28.1554 27.1482 28.1326 27.0683 28.0936C26.9884 28.0547 26.9169 28.0004 26.858 27.9338C26.7991 27.8672 26.7539 27.7897 26.7249 27.7056C26.6959 27.6216 26.6838 27.5327 26.6892 27.4439C26.6947 27.3552 26.7175 27.2684 26.7564 27.1885C26.7954 27.1086 26.8497 27.0372 26.9163 26.9782C26.9829 26.9193 27.0604 26.8741 27.1444 26.8451C27.2285 26.8162 27.3174 26.8041 27.4061 26.8095C28.0419 26.8487 28.7028 26.9068 29.4264 26.9879C29.5982 27.0068 29.7562 27.0908 29.868 27.2226C29.9797 27.3545 30.0367 27.5241 30.0272 27.6967C30.0176 27.8693 29.9423 28.0316 29.8168 28.1504C29.6912 28.2691 29.5249 28.3353 29.3521 28.3352V28.3379Z" fill="url(#paint0_linear)"/>
<path d="M10.1353 40.5878C9.95607 40.5878 9.78421 40.5166 9.6575 40.3899C9.53078 40.2632 9.45959 40.0913 9.45959 39.9121V30.4527C9.45948 30.3203 9.49822 30.1909 9.57101 30.0804C9.6438 29.9699 9.74743 29.8832 9.86905 29.831C11.7751 29.0149 13.745 28.3568 15.7589 27.8635C15.9331 27.821 16.117 27.8495 16.2702 27.9426C16.4234 28.0357 16.5333 28.1859 16.5758 28.3601C16.6183 28.5343 16.5898 28.7182 16.4967 28.8714C16.4035 29.0246 16.2534 29.1345 16.0792 29.177C14.2817 29.6167 12.5205 30.1932 10.8109 30.9013V38.9932C12.4493 38.4994 14.1132 38.095 15.7954 37.7817C17.4346 37.4763 19.0481 37.2554 20.5927 37.1236C21.3184 37.056 21.9792 37.0128 22.6089 36.9885C24.1724 36.9142 25.7846 36.9121 27.3954 36.9817C28.0711 37.0162 28.7434 37.0574 29.415 37.1169C31.0245 37.2523 32.6257 37.4717 34.2123 37.7743C35.8928 38.086 37.5545 38.492 39.1893 38.9905V30.9013C37.4791 30.1931 35.7172 29.6166 33.9191 29.177C33.7449 29.1345 33.5947 29.0246 33.5016 28.8714C33.4084 28.7182 33.38 28.5343 33.4224 28.3601C33.4649 28.1859 33.5748 28.0357 33.728 27.9426C33.8812 27.8495 34.0651 27.821 34.2393 27.8635C36.2532 28.3567 38.2232 29.0148 40.1292 29.831C40.2508 29.8832 40.3544 29.9699 40.4272 30.0804C40.5 30.1909 40.5388 30.3203 40.5387 30.4527V39.9121C40.5386 40.0188 40.5133 40.1239 40.4648 40.2189C40.4163 40.314 40.346 40.3961 40.2596 40.4587C40.1732 40.5221 40.0729 40.5638 39.9671 40.5804C39.8613 40.597 39.7531 40.5879 39.6515 40.554C37.7869 39.9449 35.8838 39.4605 33.9549 39.104C32.4131 38.8094 30.8569 38.5958 29.2927 38.4642C28.6353 38.4033 27.9826 38.3635 27.3292 38.329C25.7623 38.2615 24.1914 38.2615 22.667 38.3358C22.0589 38.3608 21.417 38.4033 20.7076 38.4709C19.2042 38.5986 17.6353 38.8142 16.04 39.1108C14.1112 39.4703 12.2073 39.9529 10.34 40.5554C10.2739 40.5768 10.2048 40.5878 10.1353 40.5878Z" fill="url(#paint1_linear)"/>
<path d="M20.648 28.3378C20.4752 28.3379 20.3089 28.2718 20.1833 28.1531C20.0578 28.0343 19.9825 27.872 19.973 27.6994C19.9634 27.5268 20.0204 27.3572 20.1321 27.2253C20.2439 27.0935 20.4019 27.0095 20.5737 26.9905C21.2973 26.9095 21.9582 26.8514 22.594 26.8122C22.6827 26.8068 22.7716 26.8189 22.8557 26.8478C22.9397 26.8768 23.0172 26.922 23.0838 26.9809C23.1504 27.0398 23.2047 27.1113 23.2437 27.1912C23.2826 27.2711 23.3054 27.3579 23.3109 27.4466C23.3163 27.5354 23.3042 27.6243 23.2752 27.7083C23.2462 27.7924 23.201 27.8699 23.1421 27.9365C23.0832 28.003 23.0117 28.0574 22.9318 28.0963C22.8519 28.1353 22.7651 28.1581 22.6764 28.1635C22.0636 28.2014 21.4244 28.2574 20.7237 28.3365C20.6985 28.3383 20.6733 28.3387 20.648 28.3378Z" fill="url(#paint2_linear)"/>
<path d="M47.973 44.983H39.8649C39.6857 44.983 39.5138 44.9119 39.3871 44.7851C39.2604 44.6584 39.1892 44.4866 39.1892 44.3074V34.8479C39.1892 34.6687 39.2604 34.4969 39.3871 34.3701C39.5138 34.2434 39.6857 34.1722 39.8649 34.1722H47.973C48.0917 34.1721 48.2083 34.2033 48.3111 34.2625C48.4139 34.3218 48.4993 34.4071 48.5586 34.5098C48.618 34.6125 48.6493 34.7291 48.6493 34.8478C48.6494 34.9664 48.6181 35.083 48.5588 35.1858L46.0487 39.5445L48.5608 43.9749C48.6189 44.0777 48.6491 44.1939 48.6483 44.3119C48.6475 44.43 48.6157 44.5458 48.5563 44.6477C48.4968 44.7497 48.4117 44.8343 48.3093 44.8932C48.207 44.952 48.091 44.983 47.973 44.983ZM40.5406 43.6317H46.8129L44.6825 39.8749C44.624 39.7728 44.5933 39.6572 44.5933 39.5395C44.5933 39.4218 44.624 39.3061 44.6825 39.204L46.8027 35.5236H40.5406V43.6317Z" fill="url(#paint3_linear)"/>
<path d="M10.1352 44.983H2.02714C1.909 44.983 1.79292 44.9521 1.69049 44.8932C1.58806 44.8343 1.50285 44.7496 1.44337 44.6476C1.38389 44.5455 1.35221 44.4296 1.3515 44.3115C1.35078 44.1933 1.38106 44.0771 1.4393 43.9743L3.95147 39.5439L1.44133 35.1851C1.38217 35.0823 1.35108 34.9658 1.3512 34.8473C1.35131 34.7287 1.38262 34.6123 1.44198 34.5096C1.50134 34.407 1.58666 34.3218 1.68938 34.2626C1.79209 34.2033 1.90858 34.1722 2.02714 34.1722H10.1352C10.3144 34.1722 10.4863 34.2434 10.613 34.3701C10.7397 34.4969 10.8109 34.6687 10.8109 34.8479V44.3074C10.8109 44.4866 10.7397 44.6584 10.613 44.7851C10.4863 44.9119 10.3144 44.983 10.1352 44.983ZM3.18728 43.6317H9.45957V35.5236H3.19538L5.31565 39.204C5.37408 39.3061 5.40482 39.4218 5.40482 39.5395C5.40482 39.6572 5.37408 39.7728 5.31565 39.8749L3.18728 43.6317Z" fill="url(#paint4_linear)"/>
<path d="M30.1918 22.348C30.0823 22.3479 29.9745 22.3212 29.8776 22.2703L24.9999 19.7061L20.1222 22.2737C20.0106 22.3323 19.8848 22.3586 19.7591 22.3495C19.6333 22.3404 19.5126 22.2964 19.4106 22.2223C19.3087 22.1482 19.2294 22.047 19.1819 21.9303C19.1344 21.8135 19.1205 21.6857 19.1418 21.5615L20.0735 16.1297L16.1276 12.2838C16.0372 12.1958 15.9733 12.0843 15.9431 11.9619C15.9128 11.8394 15.9174 11.711 15.9564 11.5911C15.9953 11.4711 16.0671 11.3645 16.1635 11.2832C16.2599 11.2019 16.3771 11.1492 16.5019 11.1311L21.9553 10.3378L24.3918 5.39392C24.4539 5.28842 24.5425 5.20097 24.6488 5.14021C24.7551 5.07945 24.8754 5.04749 24.9979 5.04749C25.1203 5.04749 25.2406 5.07945 25.3469 5.14021C25.4532 5.20097 25.5418 5.28842 25.6039 5.39392L28.0445 10.3378L33.4979 11.1304C33.6227 11.1485 33.7399 11.2012 33.8363 11.2825C33.9327 11.3638 34.0044 11.4704 34.0434 11.5904C34.0823 11.7103 34.087 11.8388 34.0567 11.9612C34.0264 12.0836 33.9625 12.1951 33.8722 12.2831L29.9262 16.1291L30.858 21.5608C30.8746 21.6578 30.8699 21.7573 30.844 21.8523C30.8182 21.9472 30.772 22.0354 30.7085 22.1106C30.6451 22.1859 30.5659 22.2463 30.4767 22.2878C30.3874 22.3293 30.2902 22.3507 30.1918 22.3507V22.348ZM24.9999 18.2669C25.1093 18.2668 25.2171 18.2932 25.3141 18.3439L29.2945 20.4385L28.5337 16.0061C28.5153 15.898 28.5235 15.7872 28.5575 15.683C28.5915 15.5788 28.6503 15.4845 28.7289 15.4081L31.9485 12.2696L27.4999 11.6216C27.3915 11.6059 27.2885 11.564 27.1999 11.4996C27.1112 11.4352 27.0396 11.3503 26.9911 11.252L24.9999 7.2196L23.01 11.252C22.9615 11.3503 22.8899 11.4352 22.8012 11.4996C22.7126 11.564 22.6097 11.6059 22.5012 11.6216L18.0512 12.2682L21.2708 15.4054C21.3494 15.4818 21.4083 15.5761 21.4423 15.6803C21.4763 15.7845 21.4845 15.8953 21.4661 16.0034L20.7053 20.4358L24.6857 18.3412C24.7829 18.2914 24.8907 18.2659 24.9999 18.2669Z" fill="url(#paint5_linear)"/>
<path d="M42.0758 24.3385C41.9663 24.3381 41.8586 24.3114 41.7616 24.2608L38.7298 22.6662L35.6981 24.2608C35.5864 24.3196 35.4606 24.346 35.3347 24.3371C35.2089 24.3281 35.0881 24.284 34.986 24.2099C34.8838 24.1358 34.8045 24.0345 34.757 23.9177C34.7095 23.8008 34.6956 23.6729 34.717 23.5486L35.296 20.1702L32.8433 17.7797C32.753 17.6916 32.6891 17.5801 32.6588 17.4576C32.6286 17.3351 32.6333 17.2066 32.6723 17.0867C32.7113 16.9667 32.7832 16.8601 32.8797 16.7788C32.9762 16.6976 33.0935 16.645 33.2183 16.627L36.6082 16.1344L38.1237 13.0628C38.1859 12.9574 38.2745 12.8701 38.3807 12.8095C38.4869 12.7488 38.6071 12.7169 38.7295 12.7169C38.8518 12.7169 38.972 12.7488 39.0782 12.8095C39.1845 12.8701 39.273 12.9574 39.3352 13.0628L40.8514 16.1344L44.242 16.627C44.3667 16.6452 44.4839 16.698 44.5802 16.7793C44.6765 16.8606 44.7482 16.9673 44.787 17.0872C44.8259 17.2071 44.8305 17.3355 44.8002 17.4579C44.7699 17.5803 44.7059 17.6917 44.6156 17.7797L42.1622 20.1716L42.7413 23.5499C42.7579 23.6469 42.7532 23.7464 42.7274 23.8414C42.7015 23.9364 42.6553 24.0245 42.5918 24.0998C42.5284 24.175 42.4493 24.2355 42.36 24.2769C42.2707 24.3184 42.1735 24.3398 42.0751 24.3398L42.0758 24.3385ZM38.7298 21.2304C38.8392 21.2302 38.9471 21.2566 39.044 21.3074L41.1785 22.4297L40.7731 20.0526C40.7546 19.9447 40.7626 19.8338 40.7965 19.7296C40.8304 19.6255 40.8892 19.5311 40.9676 19.4547L42.6926 17.7702L40.3055 17.4236C40.1972 17.4077 40.0944 17.3658 40.0059 17.3014C39.9173 17.2371 39.8458 17.1522 39.7974 17.054L38.7298 14.8918L37.6629 17.054C37.6144 17.1522 37.5428 17.2372 37.4541 17.3016C37.3655 17.366 37.2625 17.4079 37.1541 17.4236L34.7676 17.7702L36.494 19.4533C36.5725 19.5298 36.6312 19.6241 36.6651 19.7283C36.699 19.8325 36.7071 19.9433 36.6886 20.0513L36.2832 22.4283L38.4176 21.306C38.514 21.2554 38.621 21.2285 38.7298 21.2276V21.2304Z" fill="url(#paint6_linear)"/>
<path d="M14.6169 24.3386C14.5073 24.3382 14.3993 24.3115 14.3021 24.2608L11.2703 22.6663L8.23857 24.2608C8.12698 24.3195 8.00121 24.3458 7.87547 24.3367C7.74973 24.3276 7.62903 24.2836 7.52703 24.2095C7.42503 24.1354 7.3458 24.0342 7.29828 23.9175C7.25077 23.8007 7.23687 23.6729 7.25816 23.5487L7.83722 20.1703L5.38451 17.7798C5.29419 17.6918 5.23026 17.5804 5.19997 17.458C5.16968 17.3356 5.17423 17.2072 5.2131 17.0873C5.25197 16.9674 5.32362 16.8607 5.41994 16.7794C5.51627 16.6981 5.63342 16.6453 5.75816 16.6271L9.1487 16.1345L10.6649 13.0629C10.7209 12.9495 10.8076 12.8542 10.9151 12.7877C11.0226 12.7211 11.1466 12.6861 11.273 12.6865C11.3994 12.6861 11.5235 12.7211 11.631 12.7877C11.7385 12.8542 11.8251 12.9495 11.8811 13.0629L13.3967 16.1345L16.7865 16.6271C16.9114 16.6451 17.0287 16.6977 17.1252 16.7789C17.2217 16.8602 17.2935 16.9668 17.3326 17.0868C17.3716 17.2067 17.3762 17.3352 17.346 17.4577C17.3158 17.5802 17.2519 17.6917 17.1615 17.7798L14.7088 20.1703L15.2879 23.5487C15.3045 23.6457 15.2998 23.7452 15.2739 23.8401C15.2481 23.9351 15.2019 24.0233 15.1384 24.0985C15.075 24.1737 14.9958 24.2342 14.9066 24.2757C14.8173 24.3171 14.7201 24.3386 14.6217 24.3386H14.6169ZM7.30749 17.7703L9.03451 19.4534C9.113 19.5299 9.17172 19.6242 9.20562 19.7284C9.23952 19.8326 9.24758 19.9434 9.22911 20.0514L8.8237 22.4284L10.9582 21.3061C11.0552 21.2551 11.1631 21.2285 11.2727 21.2285C11.3823 21.2285 11.4902 21.2551 11.5872 21.3061L13.7217 22.4284L13.3163 20.0514C13.2978 19.9434 13.3059 19.8326 13.3398 19.7284C13.3737 19.6242 13.4324 19.5299 13.5109 19.4534L15.2325 17.7703L12.846 17.4237C12.7376 17.4079 12.6346 17.3661 12.546 17.3017C12.4574 17.2373 12.3857 17.1523 12.3372 17.0541L11.2703 14.8919L10.2028 17.0541C10.1543 17.1522 10.0828 17.2372 9.99428 17.3015C9.90577 17.3659 9.80294 17.4078 9.69465 17.4237L7.30749 17.7703Z" fill="url(#paint7_linear)"/>
<defs>
<linearGradient id="paint0_linear" x1="26.8234" y1="27.7393" x2="30.0285" y2="27.7699" gradientUnits="userSpaceOnUse">
<stop stop-color="#088AF7"/>
<stop offset="1" stop-color="#1AB1E7"/>
</linearGradient>
<linearGradient id="paint1_linear" x1="10.7196" y1="35.6016" x2="40.5412" y2="35.92" gradientUnits="userSpaceOnUse">
<stop stop-color="#088AF7"/>
<stop offset="1" stop-color="#1AB1E7"/>
</linearGradient>
<linearGradient id="paint2_linear" x1="20.1073" y1="27.7406" x2="23.3125" y2="27.7713" gradientUnits="userSpaceOnUse">
<stop stop-color="#088AF7"/>
<stop offset="1" stop-color="#1AB1E7"/>
</linearGradient>
<linearGradient id="paint3_linear" x1="39.5727" y1="40.7527" x2="48.651" y2="40.7875" gradientUnits="userSpaceOnUse">
<stop stop-color="#088AF7"/>
<stop offset="1" stop-color="#1AB1E7"/>
</linearGradient>
<linearGradient id="paint4_linear" x1="1.7347" y1="40.7527" x2="10.8126" y2="40.7875" gradientUnits="userSpaceOnUse">
<stop stop-color="#088AF7"/>
<stop offset="1" stop-color="#1AB1E7"/>
</linearGradient>
<linearGradient id="paint5_linear" x1="16.6593" y1="15.5802" x2="34.0795" y2="15.6602" gradientUnits="userSpaceOnUse">
<stop stop-color="#088AF7"/>
<stop offset="1" stop-color="#1AB1E7"/>
</linearGradient>
<linearGradient id="paint6_linear" x1="33.133" y1="19.7917" x2="44.822" y2="19.8453" gradientUnits="userSpaceOnUse">
<stop stop-color="#088AF7"/>
<stop offset="1" stop-color="#1AB1E7"/>
</linearGradient>
<linearGradient id="paint7_linear" x1="5.67418" y1="19.7791" x2="17.3678" y2="19.8326" gradientUnits="userSpaceOnUse">
<stop stop-color="#088AF7"/>
<stop offset="1" stop-color="#1AB1E7"/>
</linearGradient>
</defs>
</svg>
