<svg width="53" height="55" viewBox="0 0 53 55" fill="none" xmlns="http://www.w3.org/2000/svg">
<path d="M50.409 33.821C49.379 32.7968 48.0513 32.1832 46.625 32.0582C47.87 30.933 48.6539 29.3064 48.6539 27.5C48.6539 24.1119 45.8974 21.3555 42.5094 21.3555C39.1213 21.3555 36.3648 24.1119 36.3648 27.5C36.3648 29.3065 37.1487 30.9331 38.3939 32.0583C36.9657 32.1839 35.639 32.7973 34.6097 33.821C33.4414 34.9829 32.7981 36.5302 32.7981 38.1778V48.0339C32.7981 48.479 33.1587 48.8396 33.6038 48.8396C34.0488 48.8396 34.4094 48.479 34.4094 48.0339V44.8165L35.8264 45.5251C36.1586 45.691 36.3648 46.0247 36.3648 46.396V53.3887H34.4936C34.4471 53.3887 34.4094 53.3509 34.4094 53.3046V51.2563C34.4094 50.8113 34.0488 50.4507 33.6038 50.4507C33.1587 50.4507 32.7981 50.8113 32.7981 51.2563V53.3045C32.7981 54.2393 33.5587 54.9999 34.4936 54.9999H50.5251C51.46 54.9999 52.2205 54.2393 52.2205 53.3045V38.1777C52.2205 36.5302 51.5772 34.9829 50.409 33.821ZM43.5746 33.6446L42.5739 34.9887C42.5661 34.9986 42.5469 35.0189 42.5093 35.0189C42.4715 35.0189 42.4525 34.9985 42.4445 34.9886L41.444 33.6446H43.5746ZM37.9762 27.5C37.9762 25.0003 40.0098 22.9668 42.5094 22.9668C45.0091 22.9668 47.0426 25.0004 47.0426 27.5C47.0426 29.9996 45.009 32.0332 42.5094 32.0332C40.0097 32.0332 37.9762 29.9997 37.9762 27.5ZM36.547 44.0838L34.4094 43.0149V38.1777C34.4094 36.9623 34.8841 35.8207 35.746 34.9635C36.6077 34.1063 37.756 33.6389 38.9724 33.6446H39.4354L41.1567 35.9568C41.159 35.9597 41.161 35.9627 41.1633 35.9656C41.4867 36.388 41.9773 36.6302 42.5093 36.6302C43.0412 36.6302 43.5319 36.388 43.8553 35.9656C43.8575 35.9627 43.8598 35.9597 43.8619 35.9568L45.5832 33.6446H46.0505C46.059 33.6445 46.0674 33.6445 46.076 33.6445C47.2823 33.6445 48.4168 34.1124 49.2725 34.9635C50.1344 35.8207 50.6091 36.9623 50.6091 38.1777V43.0149L48.4716 44.0838C47.5901 44.5244 47.0425 45.4104 47.0425 46.396V53.3887H37.976V46.396C37.9762 45.4103 37.4284 44.5243 36.547 44.0838ZM50.5251 53.3887H48.6539V46.396C48.6539 46.0247 48.8601 45.6909 49.1923 45.525L50.6092 44.8165V53.3046C50.6092 53.3509 50.5715 53.3887 50.5251 53.3887Z" fill="url(#paint0_linear_605_154)"/>
<path d="M46.0686 42.5426C47.4942 42.5426 48.6539 41.3829 48.6539 39.9574C48.6539 38.5319 47.4941 37.3721 46.0686 37.3721C44.6431 37.3721 43.4834 38.5318 43.4834 39.9573C43.4834 41.3828 44.643 42.5426 46.0686 42.5426ZM46.0686 38.9834C46.6057 38.9834 47.0426 39.4203 47.0426 39.9573C47.0426 40.4943 46.6057 40.9312 46.0686 40.9312C45.5316 40.9312 45.0947 40.4943 45.0947 39.9573C45.0947 39.4203 45.5315 38.9834 46.0686 38.9834Z" fill="url(#paint1_linear_605_154)"/>
<path d="M29.1621 34.7008H19.5866V33.7269C19.5866 33.0805 19.2275 32.4994 18.6494 32.2104C18.0712 31.9213 17.3909 31.9825 16.8738 32.3704L12.1281 35.9297C11.697 36.2529 11.45 36.7472 11.45 37.2861C11.45 37.8249 11.6971 38.3193 12.1281 38.6425L16.8738 42.2017C17.1746 42.4273 17.5304 42.5424 17.8894 42.5423C18.1476 42.5423 18.4075 42.4827 18.6494 42.3618C19.2275 42.0728 19.5866 41.4916 19.5866 40.8454V39.8714H29.1621C30.097 39.8714 30.8575 39.1109 30.8575 38.176V36.3964C30.8575 35.4613 30.097 34.7008 29.1621 34.7008ZM29.2462 38.1759C29.2462 38.2223 29.2084 38.26 29.1621 38.26H18.781C18.3359 38.26 17.9753 38.6206 17.9753 39.0656V40.8453C17.9753 40.8622 17.9753 40.8972 17.9288 40.9205C17.8823 40.9436 17.8541 40.9228 17.8406 40.9125L13.0949 37.3533C13.0866 37.347 13.0613 37.3281 13.0613 37.286C13.0613 37.2439 13.0866 37.225 13.0949 37.2186L17.8406 33.6594C17.8496 33.6525 17.8653 33.6409 17.8885 33.6409C17.8999 33.6409 17.9133 33.6437 17.9287 33.6515C17.9753 33.6748 17.9753 33.7099 17.9753 33.7268V35.5063C17.9753 35.9514 18.3359 36.312 18.781 36.312H29.1621C29.2085 36.312 29.2462 36.3498 29.2462 36.3961V38.1759Z" fill="url(#paint2_linear_605_154)"/>
<path d="M30.1791 46.6076L25.4333 43.0481C24.9163 42.6606 24.2359 42.5988 23.6579 42.8883C23.0798 43.1773 22.7207 43.7584 22.7207 44.4047V45.3785H13.1451C12.2103 45.3785 11.4497 46.1392 11.4497 47.0741V48.8536C11.4497 49.7885 12.2103 50.5491 13.1451 50.5491H22.7207V51.523C22.7207 52.1694 23.0798 52.7505 23.658 53.0395C23.8999 53.1604 24.1596 53.22 24.4179 53.22C24.7768 53.22 25.1328 53.105 25.4335 52.8794L30.179 49.3202C30.6101 48.9969 30.8573 48.5027 30.8573 47.9639C30.8574 47.4253 30.6102 46.9309 30.1791 46.6076ZM29.2123 48.0312L24.4667 51.5905C24.4531 51.6006 24.4252 51.6217 24.3786 51.5985C24.3321 51.5752 24.3321 51.5401 24.3321 51.5232V49.7436C24.3321 49.2986 23.9714 48.938 23.5264 48.938H13.1451C13.0987 48.938 13.061 48.9002 13.061 48.8539V47.0743C13.061 47.0278 13.0988 46.9901 13.1451 46.9901H23.5264C23.9714 46.9901 24.3321 46.6294 24.3321 46.1844V44.4049C24.3321 44.388 24.3321 44.3529 24.3786 44.3297C24.4252 44.3063 24.4532 44.3274 24.4667 44.3375L29.2123 47.8968C29.2206 47.9032 29.2461 47.9221 29.2461 47.9642C29.2461 48.006 29.2208 48.0249 29.2123 48.0312Z" fill="url(#paint3_linear_605_154)"/>
<path d="M15.8224 0C7.52781 0 0.779785 6.74803 0.779785 15.0426C0.779785 23.3372 7.52781 30.0852 15.8224 30.0852C19.3463 30.0852 22.7728 28.8417 25.4708 26.5837C25.8121 26.2981 25.8572 25.79 25.5716 25.4488C25.2858 25.1075 24.7778 25.0624 24.4367 25.3479C22.028 27.3638 18.9688 28.4739 15.8224 28.4739C8.41641 28.4739 2.39111 22.4486 2.39111 15.0426C2.39111 7.63662 8.41641 1.61133 15.8224 1.61133C23.2284 1.61133 29.2537 7.63662 29.2537 15.0426C29.2537 17.9961 28.3137 20.798 26.5353 23.1453C26.2666 23.5 26.3362 24.0054 26.6909 24.2741C27.0458 24.5429 27.5509 24.4732 27.8197 24.1185C29.8119 21.4887 30.865 18.3503 30.865 15.0427C30.865 6.74803 24.117 0 15.8224 0V0Z" fill="url(#paint4_linear_605_154)"/>
<path d="M15.8223 3.55957C9.49028 3.55957 4.33887 8.71099 4.33887 15.0429C4.33887 21.3748 9.49028 26.5263 15.8223 26.5263C22.1541 26.5263 27.3055 21.3748 27.3055 15.0429C27.3056 8.71099 22.1541 3.55957 15.8223 3.55957ZM15.8223 24.915C10.3788 24.915 5.95019 20.4864 5.95019 15.043C5.95019 9.59958 10.3789 5.17101 15.8223 5.17101C21.2656 5.17101 25.6942 9.59958 25.6942 15.043C25.6942 20.4864 21.2658 24.915 15.8223 24.915Z" fill="url(#paint5_linear_605_154)"/>
<path d="M17.6864 12.3734C17.6864 12.8185 18.047 13.1791 18.4921 13.1791C18.9371 13.1791 19.2977 12.8185 19.2977 12.3734C19.2977 10.7346 18.1571 9.35797 16.6283 8.99359V7.92432C16.6283 7.47927 16.2677 7.11865 15.8226 7.11865C15.3776 7.11865 15.017 7.47927 15.017 7.92432V8.99359C13.4881 9.35808 12.3474 10.7346 12.3474 12.3734C12.3474 14.0122 13.4881 15.3887 15.017 15.7531V19.3903C14.3921 19.0891 13.9587 18.4511 13.9587 17.7123C13.9587 17.2672 13.5981 16.9066 13.1531 16.9066C12.708 16.9066 12.3474 17.2672 12.3474 17.7123C12.3474 19.3511 13.4881 20.7276 15.017 21.092V22.1613C15.017 22.6063 15.3776 22.9669 15.8226 22.9669C16.2677 22.9669 16.6283 22.6063 16.6283 22.1613V21.092C18.1571 20.7275 19.2977 19.351 19.2977 17.7123C19.2977 16.0734 18.1571 14.6968 16.6283 14.3325V10.6953C17.2532 10.9966 17.6864 11.6345 17.6864 12.3734ZM13.9587 12.3734C13.9587 11.6345 14.3921 10.9966 15.017 10.6953V14.0514C14.3921 13.7501 13.9587 13.1123 13.9587 12.3734ZM17.6864 17.7123C17.6864 18.4511 17.2532 19.089 16.6283 19.3903V16.0342C17.2532 16.3354 17.6864 16.9733 17.6864 17.7123Z" fill="url(#paint6_linear_605_154)"/>
<defs>
<linearGradient id="paint0_linear_605_154" x1="32.7981" y1="54.9999" x2="61.9166" y2="37.3704" gradientUnits="userSpaceOnUse">
<stop stop-color="#3A67F6"/>
<stop offset="1" stop-color="#71E6FC"/>
</linearGradient>
<linearGradient id="paint1_linear_605_154" x1="43.4834" y1="42.5426" x2="48.528" y2="37.252" gradientUnits="userSpaceOnUse">
<stop stop-color="#3A67F6"/>
<stop offset="1" stop-color="#71E6FC"/>
</linearGradient>
<linearGradient id="paint2_linear_605_154" x1="11.45" y1="42.5423" x2="19.823" y2="26.3306" gradientUnits="userSpaceOnUse">
<stop stop-color="#3A67F6"/>
<stop offset="1" stop-color="#71E6FC"/>
</linearGradient>
<linearGradient id="paint3_linear_605_154" x1="11.4497" y1="53.22" x2="19.8227" y2="37.0084" gradientUnits="userSpaceOnUse">
<stop stop-color="#3A67F6"/>
<stop offset="1" stop-color="#71E6FC"/>
</linearGradient>
<linearGradient id="paint4_linear_605_154" x1="0.779786" y1="30.0852" x2="30.1322" y2="-0.698766" gradientUnits="userSpaceOnUse">
<stop stop-color="#3A67F6"/>
<stop offset="1" stop-color="#71E6FC"/>
</linearGradient>
<linearGradient id="paint5_linear_605_154" x1="4.33887" y1="26.5263" x2="26.7461" y2="3.02616" gradientUnits="userSpaceOnUse">
<stop stop-color="#3A67F6"/>
<stop offset="1" stop-color="#71E6FC"/>
</linearGradient>
<linearGradient id="paint6_linear_605_154" x1="12.3474" y1="22.9669" x2="24.1007" y2="17.5611" gradientUnits="userSpaceOnUse">
<stop stop-color="#3A67F6"/>
<stop offset="1" stop-color="#71E6FC"/>
</linearGradient>
</defs>
</svg>
