<svg width="20" height="20" viewBox="0 0 20 20" fill="none" xmlns="http://www.w3.org/2000/svg">
<path d="M1.72501 3.83328C2.39167 0.949943 6.73334 0.949943 7.39167 3.83328C7.78334 5.52494 6.70834 6.95828 5.77501 7.84994C5.09167 8.49994 4.01667 8.49161 3.33334 7.84994C2.40834 6.95828 1.33334 5.52494 1.72501 3.83328Z" stroke="white" stroke-width="1.5"/>
<path d="M12.5583 13.8333C13.225 10.9499 17.5917 10.9499 18.2583 13.8333C18.65 15.5249 17.575 16.9583 16.6333 17.8499C15.95 18.4999 14.8667 18.4916 14.1833 17.8499C13.2417 16.9583 12.1667 15.5249 12.5583 13.8333Z" stroke="white" stroke-width="1.5"/>
<path d="M10 4.16663H12.2334C13.775 4.16663 14.4917 6.07496 13.3334 7.09163L6.67504 12.9166C5.5167 13.925 6.23337 15.8333 7.7667 15.8333H10" stroke="white" stroke-width="1.5" stroke-linecap="round" stroke-linejoin="round"/>
<path d="M4.57185 4.58329H4.58148" stroke="white" stroke-width="2" stroke-linecap="round" stroke-linejoin="round"/>
<path d="M15.4052 14.5833H15.4148" stroke="white" stroke-width="2" stroke-linecap="round" stroke-linejoin="round"/>
</svg>
