<svg width="55" height="55" viewBox="0 0 55 55" fill="none" xmlns="http://www.w3.org/2000/svg">
<path d="M53.711 37.9258H53.423V34.1848C53.423 29.0926 49.2802 24.9498 44.1879 24.9498C41.5232 24.9498 39.12 26.0856 37.4329 27.8969C35.5081 25.9821 33.0013 24.4716 30.069 23.4542C31.801 21.3932 33.0194 18.9778 33.6194 16.3852C34.3088 13.4063 34.1153 10.3454 33.0747 7.76651C31.2584 3.26489 27.1708 0.639819 21.8599 0.564302L21.8416 0.564087L21.8232 0.564302C16.5124 0.639819 12.4247 3.26489 10.6084 7.7664C9.56777 10.3454 9.37441 13.4062 10.0637 16.3852C10.6645 18.9814 11.8855 21.3997 13.6211 23.4625C9.18911 25.0448 5.62173 27.9307 3.22579 31.8989C0.705247 36.0736 -0.394216 41.3526 0.129788 46.7637C0.167923 47.1578 0.385237 47.5125 0.718782 47.7257C6.26272 51.2676 11.9053 53.431 17.4896 54.1557C18.9179 54.3411 20.351 54.4335 21.7869 54.4335C25.9753 54.4335 30.1856 53.6463 34.3516 52.08C36.3155 51.3416 38.1584 50.4508 40.1916 49.4474L40.1754 49.4144C41.2339 50.3854 42.645 50.9715 44.188 50.9715C46.8331 50.9715 49.0914 49.2508 49.8475 46.8165H53.711C54.4229 46.8165 55 46.2393 55 45.5274V39.215C55 38.503 54.4229 37.9258 53.711 37.9258ZM44.188 27.5279C47.8586 27.5279 50.845 30.5142 50.845 34.1848V37.9258H37.5312V34.1848C37.5312 30.5142 40.5174 27.5279 44.188 27.5279ZM12.9991 8.73094C14.4268 5.19268 17.5665 3.20838 21.8415 3.14221C26.1165 3.20838 29.2562 5.19268 30.6838 8.73094C32.4802 13.1831 31.0382 18.967 27.1769 22.796C25.3774 24.5808 23.5821 25.4857 21.8414 25.4857C20.1005 25.4857 18.3054 24.5808 16.5058 22.7961C12.6448 18.967 11.2026 13.1833 12.9991 8.73094ZM33.4444 49.6667C23.2227 53.5096 12.862 52.2386 2.64282 45.8907C1.90998 35.9177 6.95419 28.0286 15.6585 25.5142C17.6619 27.2066 19.7371 28.064 21.8416 28.064C23.9467 28.064 26.0225 27.2061 28.0266 25.5125C31.2924 26.4405 34.0078 28.0016 35.9318 30.0548C35.3071 31.2986 34.9532 32.7008 34.9532 34.1849V37.9259H34.6651C33.9532 37.9259 33.376 38.5031 33.376 39.215V45.5274C33.376 46.2393 33.9532 46.8165 34.6651 46.8165H38.5286C38.5803 46.983 38.6386 47.1464 38.704 47.3059C36.8704 48.2083 35.188 49.0112 33.4444 49.6667ZM44.188 48.3932C42.991 48.3932 41.9345 47.7702 41.3413 46.8164H47.0348C46.4415 47.7702 45.3849 48.3932 44.188 48.3932ZM52.4219 44.2383H35.9541V40.504H52.4219V44.2383Z" fill="url(#paint0_linear_2529_2672)"/>
<defs>
<linearGradient id="paint0_linear_2529_2672" x1="6.87682" y1="54.4419" x2="61.1733" y2="20.876" gradientUnits="userSpaceOnUse">
<stop stop-color="#3A67F6"/>
<stop offset="1" stop-color="#72E8FC"/>
</linearGradient>
</defs>
</svg>
