<svg width="55" height="55" viewBox="0 0 55 55" fill="none" xmlns="http://www.w3.org/2000/svg">
<path d="M35.6524 48.63L26.0634 43.4668L27.449 40.6955C27.7294 40.1347 27.8229 39.4989 27.7158 38.8811C27.6087 38.2633 27.3065 37.6961 26.8536 37.2625C26.4008 36.8288 25.821 36.5516 25.1991 36.4714C24.5773 36.3912 23.9461 36.5122 23.398 36.8167L16.9648 40.3907H6.01562V42.1094H16.3281V51.5625H6.01562V53.2813H34.4797C35.0305 53.2813 35.5655 53.0975 35.9999 52.7589C36.4344 52.4204 36.7434 51.9466 36.8781 51.4125C37.0127 50.8785 36.9653 50.3147 36.7432 49.8107C36.5212 49.3067 36.1373 48.8912 35.6524 48.63ZM34.4797 51.5625H18.0469V41.7557L24.2327 38.3191C24.4599 38.1929 24.7215 38.1428 24.9792 38.176C25.237 38.2093 25.4773 38.3242 25.665 38.5039C25.8527 38.6836 25.9779 38.9187 26.0223 39.1747C26.0667 39.4308 26.028 39.6943 25.9118 39.9268L24.1532 43.4438C24.0533 43.6436 24.0351 43.8745 24.1026 44.0875C24.17 44.3005 24.3177 44.4789 24.5144 44.5848L34.8374 50.1433C34.9854 50.223 35.1025 50.3497 35.1703 50.5035C35.2381 50.6573 35.2525 50.8293 35.2115 50.9923C35.1704 51.1552 35.0761 51.2998 34.9436 51.4031C34.811 51.5064 34.6477 51.5625 34.4797 51.5625Z" fill="url(#paint0_linear_607_162)"/>
<path d="M38.1683 12.8906L38.5674 12.4915C39.4205 11.6431 40.0969 10.6338 40.5573 9.52226C41.0177 8.41068 41.2531 7.21881 41.2498 6.01564C41.2498 5.78772 41.1593 5.56914 40.9981 5.40798C40.837 5.24681 40.6184 5.15627 40.3904 5.15627H38.3435L37.4995 3.46847C37.2383 2.94142 36.8345 2.49814 36.3341 2.18888C35.8337 1.87962 35.2566 1.71676 34.6684 1.71877C34.1772 1.71995 33.693 1.83489 33.2536 2.05457C32.8143 2.27425 32.4318 2.5927 32.1362 2.98496L31.3132 4.08216C31.1576 4.28948 30.9286 4.42938 30.6731 4.47313C30.4176 4.51689 30.155 4.46119 29.9393 4.31745L28.8359 3.58187C28.727 3.50933 28.603 3.46259 28.4733 3.44521C28.3436 3.42784 28.2116 3.44027 28.0875 3.48158L26.942 3.86332C26.3534 4.05898 25.8414 4.43512 25.4787 4.93832C25.116 5.44152 24.9211 6.0462 24.9217 6.66647C24.9152 8.93322 25.7118 11.129 27.1703 12.8642L20.5817 19.4528C18.9555 21.0701 17.6663 22.9938 16.7887 25.1127C15.911 27.2316 15.4623 29.5035 15.4686 31.7969C15.4651 33.965 15.8738 36.1139 16.673 38.1293L18.2707 37.4957C17.5516 35.6819 17.184 33.748 17.1873 31.7969C17.1817 29.7293 17.5862 27.6811 18.3774 25.7708C19.1687 23.8606 20.331 22.1263 21.797 20.6682L28.7152 13.75H30.5813L30.4771 13.8543C30.0768 14.2524 29.7595 14.7259 29.5435 15.2474C29.3275 15.7689 29.217 16.3281 29.2186 16.8926V18.9063H30.9373V16.8926C30.9364 16.5539 31.0027 16.2184 31.1323 15.9055C31.2619 15.5926 31.4523 15.3085 31.6924 15.0696L32.6561 14.106L33.6197 15.0695C33.8598 15.3084 34.0502 15.5925 34.1798 15.9054C34.3095 16.2184 34.3757 16.5539 34.3748 16.8926V18.9063H36.0936V16.8926C36.0951 16.3281 35.9846 15.7689 35.7686 15.2474C35.5526 14.7258 35.2353 14.2523 34.835 13.8542L34.7309 13.75H36.597L43.5152 20.6682C44.9812 22.1263 46.1435 23.8606 46.9347 25.7708C47.726 27.6811 48.1305 29.7293 48.1248 31.7969C48.129 35.0463 47.1084 38.2142 45.2083 40.8501C43.3082 43.486 40.6252 45.4556 37.5411 46.4788L38.0835 48.1096C41.5103 46.9729 44.4914 44.7846 46.6027 41.8559C48.7141 38.9272 49.8481 35.4073 49.8436 31.7969C49.8498 29.5035 49.4011 27.2316 48.5235 25.1127C47.6458 22.9938 46.3566 21.0701 44.7305 19.4528L38.1683 12.8906ZM36.597 12.0313H28.7271C27.3804 10.5699 26.6351 8.6538 26.6404 6.66647C26.6402 6.40702 26.7217 6.15409 26.8734 5.9436C27.0251 5.73312 27.2393 5.57579 27.4855 5.49396L28.2322 5.24502L28.9859 5.74751C29.5672 6.13485 30.2747 6.28497 30.9632 6.16704C31.6517 6.04911 32.269 5.67209 32.6882 5.11337L33.5111 4.01617C33.6463 3.83691 33.8211 3.69138 34.0218 3.59098C34.2226 3.49059 34.4439 3.43806 34.6684 3.43752C34.9372 3.43661 35.201 3.51105 35.4297 3.65239C35.6584 3.79373 35.8429 3.99633 35.9623 4.2372L37.0437 6.40001C37.1151 6.54275 37.2248 6.66279 37.3605 6.74669C37.4963 6.83059 37.6527 6.87502 37.8123 6.87502H39.4823C39.2927 8.54145 38.5414 10.0937 37.3521 11.2762L36.597 12.0313Z" fill="url(#paint1_linear_607_162)"/>
<path d="M43.8281 31.7967C43.8269 30.1705 43.4706 28.5641 42.7842 27.0898C42.0978 25.6154 41.0978 24.3088 39.854 23.261C38.6102 22.2132 37.1527 21.4496 35.5832 21.0236C34.0138 20.5975 32.3702 20.5192 30.7673 20.7941C29.1645 21.0691 27.641 21.6907 26.3033 22.6155C24.9655 23.5403 23.8458 24.746 23.0224 26.1484C22.1989 27.5508 21.6916 29.116 21.5358 30.7348C21.38 32.3536 21.5794 33.9869 22.1203 35.5206L23.7408 34.9479C23.0285 32.9285 23.0236 30.7269 23.7271 28.7044C24.4305 26.6819 25.8004 24.9585 27.6121 23.8169C29.4238 22.6754 31.5697 22.1834 33.6977 22.4218C35.8258 22.6602 37.8096 23.6148 39.3238 25.129C40.838 26.6431 41.7926 28.6269 42.031 30.755C42.2694 32.883 41.7776 35.0289 40.636 36.8406C39.4945 38.6523 37.7711 40.0223 35.7486 40.7258C33.7261 41.4292 31.5246 41.4244 29.5052 40.7121L28.9323 42.3327C30.6176 42.9268 32.4208 43.1083 34.1907 42.8618C35.9606 42.6154 37.6456 41.9483 39.1045 40.9164C40.5634 39.8845 41.7537 38.5178 42.5756 36.9311C43.3974 35.3444 43.827 33.5837 43.8281 31.7967Z" fill="url(#paint2_linear_607_162)"/>
<path d="M30.5202 28.9245L29.636 27.4506L27.9173 28.4818C27.79 28.5582 27.6847 28.6662 27.6116 28.7953C27.5384 28.9245 27.5 29.0703 27.5 29.2188V34.375C27.5 34.5234 27.5384 34.6693 27.6115 34.7984C27.6847 34.9276 27.79 35.0356 27.9172 35.112L32.2141 37.6901C32.3477 37.7702 32.5005 37.8125 32.6562 37.8125C32.812 37.8125 32.9648 37.7702 33.0984 37.6901L37.3953 35.112C37.5225 35.0356 37.6278 34.9276 37.701 34.7984C37.7741 34.6693 37.8125 34.5234 37.8125 34.375L37.8124 29.2186C37.8124 29.0702 37.774 28.9244 37.7009 28.7952C37.6278 28.6661 37.5224 28.558 37.3952 28.4817L33.0984 25.9037C32.9648 25.8236 32.812 25.7813 32.6562 25.7812C32.5005 25.7812 32.3477 25.8236 32.2141 25.9037L30.7818 26.763L31.6661 28.237L32.6562 27.6428L36.0937 29.7052L36.0938 33.8885L32.6562 35.951L29.2188 33.8885V29.7053L30.5202 28.9245Z" fill="url(#paint3_linear_607_162)"/>
<defs>
<linearGradient id="paint0_linear_607_162" x1="6.01563" y1="53.2813" x2="19.4587" y2="27.3707" gradientUnits="userSpaceOnUse">
<stop stop-color="#3A67F6"/>
<stop offset="1" stop-color="#71E6FC"/>
</linearGradient>
<linearGradient id="paint1_linear_607_162" x1="15.4685" y1="48.1096" x2="59.3774" y2="13.9867" gradientUnits="userSpaceOnUse">
<stop stop-color="#3A67F6"/>
<stop offset="1" stop-color="#71E6FC"/>
</linearGradient>
<linearGradient id="paint2_linear_607_162" x1="21.4844" y1="42.9686" x2="43.2753" y2="20.1063" gradientUnits="userSpaceOnUse">
<stop stop-color="#3A67F6"/>
<stop offset="1" stop-color="#71E6FC"/>
</linearGradient>
<linearGradient id="paint3_linear_607_162" x1="27.5" y1="37.8125" x2="39.1851" y2="27.3082" gradientUnits="userSpaceOnUse">
<stop stop-color="#3A67F6"/>
<stop offset="1" stop-color="#71E6FC"/>
</linearGradient>
</defs>
</svg>
