<svg width="70" height="70" viewBox="0 0 70 70" fill="none" xmlns="http://www.w3.org/2000/svg">
<path d="M41.5625 47.0312H28.4375C26.6284 47.0312 25.1562 48.5034 25.1562 50.3125V52.5C25.1562 53.3433 25.4855 54.1056 26.0094 54.6875C25.4844 55.2694 25.1562 56.0317 25.1562 56.875V59.0625C25.1562 59.9058 25.4855 60.6681 26.0094 61.25C25.4844 61.8319 25.1562 62.5942 25.1562 63.4375V65.625C25.1562 67.4341 26.6284 68.9062 28.4375 68.9062H41.5625C43.3716 68.9062 44.8438 67.4341 44.8438 65.625V63.4375C44.8438 62.5942 44.5145 61.8319 43.9906 61.25C44.5156 60.6681 44.8438 59.9058 44.8438 59.0625V56.875C44.8438 56.0317 44.5145 55.2694 43.9906 54.6875C44.5156 54.1056 44.8438 53.3433 44.8438 52.5V50.3125C44.8438 48.5034 43.3716 47.0312 41.5625 47.0312ZM27.3438 50.3125C27.3438 49.7088 27.8348 49.2188 28.4375 49.2188H41.5625C42.1652 49.2188 42.6562 49.7088 42.6562 50.3125V52.5C42.6562 53.1037 42.1652 53.5938 41.5625 53.5938H28.4375C27.8348 53.5938 27.3438 53.1037 27.3438 52.5V50.3125ZM42.6562 56.875V59.0625C42.6562 59.6663 42.1652 60.1562 41.5625 60.1562H28.4375C27.8348 60.1562 27.3438 59.6663 27.3438 59.0625V56.875C27.3438 56.2712 27.8348 55.7812 28.4375 55.7812H41.5625C42.1652 55.7812 42.6562 56.2712 42.6562 56.875ZM42.6562 65.625C42.6562 66.2288 42.1652 66.7188 41.5625 66.7188H28.4375C27.8348 66.7188 27.3438 66.2288 27.3438 65.625V63.4375C27.3438 62.8337 27.8348 62.3438 28.4375 62.3438H41.5625C42.1652 62.3438 42.6562 62.8337 42.6562 63.4375V65.625Z" fill="url(#paint0_linear_605_100)"/>
<path d="M17.5 33.9062H4.375C2.56594 33.9062 1.09375 35.3784 1.09375 37.1875V39.375C1.09375 40.2183 1.42297 40.9806 1.94687 41.5625C1.42297 42.1444 1.09375 42.9067 1.09375 43.75V45.9375C1.09375 46.7808 1.42297 47.5431 1.94687 48.125C1.42297 48.7069 1.09375 49.4692 1.09375 50.3125V52.5C1.09375 54.3091 2.56594 55.7812 4.375 55.7812H17.5C19.3091 55.7812 20.7812 54.3091 20.7812 52.5V50.3125C20.7812 49.4692 20.452 48.7069 19.9281 48.125C20.4531 47.5431 20.7812 46.7808 20.7812 45.9375V43.75C20.7812 42.9067 20.452 42.1444 19.9281 41.5625C20.4531 40.9806 20.7812 40.2183 20.7812 39.375V37.1875C20.7812 35.3784 19.3091 33.9062 17.5 33.9062ZM3.28125 37.1875C3.28125 36.5838 3.77234 36.0938 4.375 36.0938H17.5C18.1027 36.0938 18.5938 36.5838 18.5938 37.1875V39.375C18.5938 39.9787 18.1027 40.4688 17.5 40.4688H4.375C3.77234 40.4688 3.28125 39.9787 3.28125 39.375V37.1875ZM18.5938 43.75V45.9375C18.5938 46.5413 18.1027 47.0312 17.5 47.0312H4.375C3.77234 47.0312 3.28125 46.5413 3.28125 45.9375V43.75C3.28125 43.1462 3.77234 42.6562 4.375 42.6562H17.5C18.1027 42.6562 18.5938 43.1462 18.5938 43.75ZM18.5938 52.5C18.5938 53.1038 18.1027 53.5938 17.5 53.5938H4.375C3.77234 53.5938 3.28125 53.1038 3.28125 52.5V50.3125C3.28125 49.7087 3.77234 49.2188 4.375 49.2188H17.5C18.1027 49.2188 18.5938 49.7087 18.5938 50.3125V52.5Z" fill="url(#paint1_linear_605_100)"/>
<path d="M65.625 33.9062H52.5C50.6909 33.9062 49.2188 35.3784 49.2188 37.1875V39.375C49.2188 40.2183 49.548 40.9806 50.0719 41.5625C49.5469 42.1444 49.2188 42.9067 49.2188 43.75V45.9375C49.2188 46.7808 49.548 47.5431 50.0719 48.125C49.5469 48.7069 49.2188 49.4692 49.2188 50.3125V52.5C49.2188 54.3091 50.6909 55.7812 52.5 55.7812H65.625C67.4341 55.7812 68.9062 54.3091 68.9062 52.5V50.3125C68.9062 49.4692 68.577 48.7069 68.0531 48.125C68.5781 47.5431 68.9062 46.7808 68.9062 45.9375V43.75C68.9062 42.9067 68.577 42.1444 68.0531 41.5625C68.5781 40.9806 68.9062 40.2183 68.9062 39.375V37.1875C68.9062 35.3784 67.4341 33.9062 65.625 33.9062ZM51.4062 37.1875C51.4062 36.5838 51.8973 36.0938 52.5 36.0938H65.625C66.2277 36.0938 66.7188 36.5838 66.7188 37.1875V39.375C66.7188 39.9787 66.2277 40.4688 65.625 40.4688H52.5C51.8973 40.4688 51.4062 39.9787 51.4062 39.375V37.1875ZM66.7188 43.75V45.9375C66.7188 46.5413 66.2277 47.0312 65.625 47.0312H52.5C51.8973 47.0312 51.4062 46.5413 51.4062 45.9375V43.75C51.4062 43.1462 51.8973 42.6562 52.5 42.6562H65.625C66.2277 42.6562 66.7188 43.1462 66.7188 43.75ZM66.7188 52.5C66.7188 53.1038 66.2277 53.5938 65.625 53.5938H52.5C51.8973 53.5938 51.4062 53.1038 51.4062 52.5V50.3125C51.4062 49.7087 51.8973 49.2188 52.5 49.2188H65.625C66.2277 49.2188 66.7188 49.7087 66.7188 50.3125V52.5Z" fill="url(#paint2_linear_605_100)"/>
<path d="M10.9375 31.7188H25.1562V29.5312H22.9688V27.8928C22.9688 27.3842 23.2936 26.9358 23.777 26.7761C24.7319 26.4633 25.4844 25.7567 25.8409 24.838C25.8869 24.7209 25.935 24.6039 25.9842 24.4902C26.3736 23.5933 26.3397 22.5684 25.8891 21.677C25.6594 21.2231 25.7469 20.6752 26.1067 20.3153L26.8767 19.5453C27.2377 19.1844 27.7823 19.0969 28.2384 19.3277C29.1298 19.7783 30.1558 19.8122 31.0505 19.4228C31.1664 19.3725 31.2834 19.3244 31.4005 19.2795C32.3181 18.9219 33.0247 18.1694 33.3386 17.2156C33.4972 16.7311 33.9467 16.4062 34.4553 16.4062H35.5447C36.0533 16.4062 36.5017 16.7311 36.6614 17.2156C36.9753 18.1694 37.6808 18.9219 38.5984 19.2784C38.7155 19.3244 38.8325 19.3725 38.9473 19.4217C39.842 19.8111 40.8691 19.7761 41.7605 19.3266C42.2144 19.0958 42.7623 19.1844 43.1222 19.5442L43.8922 20.3142C44.252 20.6741 44.3395 21.222 44.1098 21.6759C43.6592 22.5673 43.6253 23.5922 44.0147 24.488C44.0639 24.6028 44.112 24.7198 44.1591 24.8391C44.5156 25.7567 45.2681 26.4622 46.223 26.7761C46.7064 26.9347 47.0312 27.3842 47.0312 27.8928V29.5312H44.8798V31.7188H60.1562C64.9808 31.7188 68.9062 27.7933 68.9062 22.9688C68.9062 18.1442 64.9808 14.2188 60.1562 14.2188C59.5569 14.2188 58.9586 14.2822 58.3669 14.408C56.5884 9.09234 51.6283 5.46875 45.9375 5.46875C43.0314 5.46875 40.2795 6.43234 38.0352 8.13094C35.2286 3.76141 30.4106 1.09375 25.1562 1.09375C18.317 1.09375 12.4064 5.55187 10.4902 12.0411C5.26859 12.2762 1.09375 16.5977 1.09375 21.875C1.09375 27.3022 5.51031 31.7188 10.9375 31.7188ZM10.9375 14.2188C10.9966 14.2188 11.0534 14.2231 11.1114 14.2275L12.1855 14.2778L12.3933 13.3952C13.7933 7.43969 19.0422 3.28125 25.1562 3.28125C29.7817 3.28125 34.0156 5.69297 36.3891 9.62062C35.863 10.1817 35.3653 10.7745 34.9355 11.433L36.7686 12.6284C38.7986 9.51562 42.2264 7.65625 45.9375 7.65625C50.9961 7.65625 55.3613 11.0917 56.5545 16.0103L56.8389 17.185L57.9797 16.7836C58.6939 16.5331 59.4256 16.4062 60.1562 16.4062C63.7755 16.4062 66.7188 19.3495 66.7188 22.9688C66.7188 26.588 63.7755 29.5312 60.1562 29.5312H49.2188V27.8928C49.2188 26.437 48.2891 25.153 46.9044 24.698C46.5741 24.5897 46.3159 24.3523 46.1978 24.0483C46.142 23.9039 46.0841 23.7606 46.0217 23.6184C45.8927 23.3198 45.908 22.972 46.0633 22.6636C46.7206 21.3642 46.4702 19.798 45.4398 18.7687L44.6698 17.9987C43.6406 16.9684 42.0744 16.7191 40.775 17.3753C40.4677 17.5317 40.1198 17.547 39.8191 17.4169C39.6791 17.3556 39.5358 17.2977 39.3925 17.2408C39.0873 17.1227 38.8489 16.8634 38.7406 16.532C38.2845 15.1484 37.0005 14.2188 35.5447 14.2188H34.4553C32.9995 14.2188 31.7155 15.1484 31.2605 16.5331C31.1522 16.8634 30.9148 17.1216 30.6086 17.2397C30.4653 17.2955 30.3231 17.3534 30.1809 17.4158C29.8823 17.5448 29.5345 17.5306 29.2261 17.3742C27.9256 16.718 26.3616 16.9673 25.3312 17.9977L24.5612 18.7677C23.5309 19.7969 23.2805 21.3631 23.9378 22.6625C24.0942 22.9709 24.1084 23.3188 23.9794 23.6184C23.9181 23.7595 23.8591 23.9028 23.8033 24.045C23.6852 24.3512 23.4259 24.5886 23.0945 24.6969C21.7109 25.153 20.7812 26.437 20.7812 27.8928V29.5312H10.9375C6.71563 29.5312 3.28125 26.0969 3.28125 21.875C3.28125 17.6531 6.71563 14.2188 10.9375 14.2188Z" fill="url(#paint3_linear_605_100)"/>
<path d="M40.4688 28.4375H42.6562C42.6562 24.2156 39.2219 20.7812 35 20.7812C30.7781 20.7812 27.3438 24.2156 27.3438 28.4375H29.5312C29.5312 25.422 31.9845 22.9688 35 22.9688C38.0155 22.9688 40.4688 25.422 40.4688 28.4375Z" fill="url(#paint4_linear_605_100)"/>
<path d="M38.2812 28.4375C38.2812 26.6284 36.8091 25.1562 35 25.1562C33.1909 25.1562 31.7188 26.6284 31.7188 28.4375C31.7188 30.2466 33.1909 31.7188 35 31.7188C36.8091 31.7188 38.2812 30.2466 38.2812 28.4375ZM35 29.5312C34.3973 29.5312 33.9062 29.0402 33.9062 28.4375C33.9062 27.8348 34.3973 27.3438 35 27.3438C35.6027 27.3438 36.0938 27.8348 36.0938 28.4375C36.0938 29.0402 35.6027 29.5312 35 29.5312Z" fill="url(#paint5_linear_605_100)"/>
<path d="M42.6562 41.5625V30.625H40.4688V41.5625C40.4688 43.3716 41.9409 44.8438 43.75 44.8438H47.0312V42.6562H43.75C43.1473 42.6562 42.6562 42.1663 42.6562 41.5625Z" fill="url(#paint6_linear_605_100)"/>
<path d="M33.9062 33.9062H36.0938V44.8438H33.9062V33.9062Z" fill="url(#paint7_linear_605_100)"/>
<path d="M29.5312 41.5625V30.625H27.3438V41.5625C27.3438 42.1663 26.8527 42.6562 26.25 42.6562H22.9688V44.8438H26.25C28.0591 44.8438 29.5312 43.3716 29.5312 41.5625Z" fill="url(#paint8_linear_605_100)"/>
<path d="M25.1562 7.65625C26.5223 7.65625 27.8305 7.9625 29.0456 8.56516L30.0191 6.60625C28.4987 5.85156 26.8636 5.46875 25.1562 5.46875C20.0123 5.46875 15.6264 8.96766 14.49 13.977L16.6228 14.4605C17.5317 10.4541 21.0405 7.65625 25.1562 7.65625Z" fill="url(#paint9_linear_605_100)"/>
<path d="M10.9375 27.3438V25.1562C9.12844 25.1562 7.65625 23.6841 7.65625 21.875H5.46875C5.46875 24.8905 7.92203 27.3438 10.9375 27.3438Z" fill="url(#paint10_linear_605_100)"/>
<defs>
<linearGradient id="paint0_linear_605_100" x1="25.1563" y1="68.9063" x2="46.487" y2="48.7722" gradientUnits="userSpaceOnUse">
<stop stop-color="#3A67F6"/>
<stop offset="1" stop-color="#71E6FC"/>
</linearGradient>
<linearGradient id="paint1_linear_605_100" x1="1.09375" y1="55.7813" x2="22.4245" y2="35.6472" gradientUnits="userSpaceOnUse">
<stop stop-color="#3A67F6"/>
<stop offset="1" stop-color="#71E6FC"/>
</linearGradient>
<linearGradient id="paint2_linear_605_100" x1="49.2188" y1="55.7813" x2="70.5495" y2="35.6472" gradientUnits="userSpaceOnUse">
<stop stop-color="#3A67F6"/>
<stop offset="1" stop-color="#71E6FC"/>
</linearGradient>
<linearGradient id="paint3_linear_605_100" x1="1.09375" y1="31.7188" x2="22.8257" y2="-18.749" gradientUnits="userSpaceOnUse">
<stop stop-color="#3A67F6"/>
<stop offset="1" stop-color="#71E6FC"/>
</linearGradient>
<linearGradient id="paint4_linear_605_100" x1="27.3438" y1="28.4375" x2="33.1537" y2="16.2509" gradientUnits="userSpaceOnUse">
<stop stop-color="#3A67F6"/>
<stop offset="1" stop-color="#71E6FC"/>
</linearGradient>
<linearGradient id="paint5_linear_605_100" x1="31.7188" y1="31.7188" x2="38.1214" y2="25.0038" gradientUnits="userSpaceOnUse">
<stop stop-color="#3A67F6"/>
<stop offset="1" stop-color="#71E6FC"/>
</linearGradient>
<linearGradient id="paint6_linear_605_100" x1="40.4688" y1="44.8438" x2="51.3616" y2="39.5711" gradientUnits="userSpaceOnUse">
<stop stop-color="#3A67F6"/>
<stop offset="1" stop-color="#71E6FC"/>
</linearGradient>
<linearGradient id="paint7_linear_605_100" x1="33.9063" y1="44.8438" x2="38.1991" y2="43.9433" gradientUnits="userSpaceOnUse">
<stop stop-color="#3A67F6"/>
<stop offset="1" stop-color="#71E6FC"/>
</linearGradient>
<linearGradient id="paint8_linear_605_100" x1="22.9688" y1="44.8438" x2="33.8616" y2="39.5711" gradientUnits="userSpaceOnUse">
<stop stop-color="#3A67F6"/>
<stop offset="1" stop-color="#71E6FC"/>
</linearGradient>
<linearGradient id="paint9_linear_605_100" x1="14.49" y1="14.4605" x2="21.9223" y2="0.998542" gradientUnits="userSpaceOnUse">
<stop stop-color="#3A67F6"/>
<stop offset="1" stop-color="#71E6FC"/>
</linearGradient>
<linearGradient id="paint10_linear_605_100" x1="5.46875" y1="27.3438" x2="10.8043" y2="21.748" gradientUnits="userSpaceOnUse">
<stop stop-color="#3A67F6"/>
<stop offset="1" stop-color="#71E6FC"/>
</linearGradient>
</defs>
</svg>
