<svg width="20" height="20" viewBox="0 0 20 20" fill="none" xmlns="http://www.w3.org/2000/svg">
<g clip-path="url(#clip0_2529_2537)">
<path d="M19.6912 1.98669C19.4469 1.68793 19.081 1.52344 18.6608 1.52344C18.4323 1.52344 18.1903 1.5715 17.9416 1.66656L1.01199 8.12912C0.113557 8.47198 -0.00744541 8.98651 0.000336566 9.26269C0.00811854 9.53888 0.158112 10.0458 1.07456 10.3374C1.08005 10.339 1.08554 10.3407 1.09104 10.3423L4.60269 11.3472L6.5018 16.7778C6.76074 17.5182 7.34195 17.9781 8.01883 17.9781C8.44562 17.9781 8.86539 17.7992 9.23282 17.4611L11.4049 15.4611L14.5554 17.9979C14.5557 17.9982 14.5562 17.9983 14.5565 17.9987L14.5864 18.0228C14.5891 18.0249 14.592 18.0272 14.5948 18.0293C14.9449 18.3009 15.3272 18.4444 15.7006 18.4445H15.7007C16.4302 18.4445 17.0111 17.9045 17.1804 17.0689L19.9543 3.37204C20.0656 2.82227 19.9723 2.33032 19.6912 1.98669ZM5.77747 11.1563L12.5525 7.69516L8.33393 12.1777C8.2648 12.2511 8.21582 12.341 8.19171 12.4388L7.37827 15.7338L5.77747 11.1563ZM8.43891 16.599C8.41083 16.6248 8.3826 16.6478 8.35437 16.669L9.10907 13.6124L10.4819 14.7179L8.43891 16.599ZM18.8057 3.13934L16.0318 16.8364C16.0051 16.9675 15.9198 17.2725 15.7006 17.2725C15.5922 17.2725 15.4561 17.2134 15.3168 17.1062L11.7469 14.2317C11.7464 14.2313 11.7458 14.2308 11.7452 14.2305L9.62101 12.52L15.7216 6.0376C15.9169 5.83008 15.9346 5.51224 15.7636 5.28427C15.5924 5.0563 15.2822 4.98459 15.0284 5.11429L4.99454 10.2403L1.43512 9.22195L18.3596 2.76138C18.5025 2.70676 18.6023 2.69531 18.6608 2.69531C18.6966 2.69531 18.7604 2.69958 18.7841 2.72873C18.8152 2.76672 18.8549 2.89627 18.8057 3.13934Z" fill="white"/>
</g>
<defs>
<clipPath id="clip0_2529_2537">
<rect width="20" height="20" fill="white"/>
</clipPath>
</defs>
</svg>
