<svg width="633" height="379" viewBox="0 0 633 379" fill="none" xmlns="http://www.w3.org/2000/svg">
<path d="M507.271 33.8668C507.391 33.8668 507.451 33.9268 507.451 34.0468V34.8208C507.451 34.9408 507.391 35.0008 507.271 35.0008H503.743C503.695 35.0008 503.671 35.0248 503.671 35.0728V46.2868C503.671 46.4068 503.611 46.4668 503.491 46.4668H502.573C502.453 46.4668 502.393 46.4068 502.393 46.2868V35.0728C502.393 35.0248 502.369 35.0008 502.321 35.0008H498.937C498.817 35.0008 498.757 34.9408 498.757 34.8208V34.0468C498.757 33.9268 498.817 33.8668 498.937 33.8668H507.271ZM511.879 46.6108C511.015 46.6108 510.271 46.3888 509.647 45.9448C509.023 45.5008 508.591 44.8888 508.351 44.1088C508.183 43.5568 508.099 42.8188 508.099 41.8948C508.099 40.9708 508.183 40.2388 508.351 39.6988C508.579 38.9308 509.005 38.3248 509.629 37.8808C510.253 37.4368 511.009 37.2148 511.897 37.2148C512.749 37.2148 513.481 37.4368 514.093 37.8808C514.717 38.3248 515.143 38.9248 515.371 39.6808C515.539 40.1968 515.623 40.9348 515.623 41.8948C515.623 42.8668 515.539 43.6048 515.371 44.1088C515.143 44.8888 514.717 45.5008 514.093 45.9448C513.481 46.3888 512.743 46.6108 511.879 46.6108ZM511.879 45.4948C512.455 45.4948 512.947 45.3388 513.355 45.0268C513.763 44.7028 514.039 44.2708 514.183 43.7308C514.291 43.2988 514.345 42.6928 514.345 41.9128C514.345 41.1208 514.297 40.5148 514.201 40.0948C514.057 39.5548 513.775 39.1288 513.355 38.8168C512.947 38.4928 512.449 38.3308 511.861 38.3308C511.273 38.3308 510.775 38.4928 510.367 38.8168C509.959 39.1288 509.683 39.5548 509.539 40.0948C509.443 40.5148 509.395 41.1208 509.395 41.9128C509.395 42.7048 509.443 43.3108 509.539 43.7308C509.671 44.2708 509.941 44.7028 510.349 45.0268C510.769 45.3388 511.279 45.4948 511.879 45.4948ZM518.394 46.4668C518.274 46.4668 518.214 46.4068 518.214 46.2868V34.0468C518.214 33.9268 518.274 33.8668 518.394 33.8668H519.312C519.432 33.8668 519.492 33.9268 519.492 34.0468V41.4088C519.492 41.4328 519.498 41.4508 519.51 41.4628C519.534 41.4748 519.558 41.4688 519.582 41.4448L523.398 37.4488C523.458 37.3888 523.53 37.3588 523.614 37.3588H524.694C524.766 37.3588 524.814 37.3828 524.838 37.4308C524.862 37.4788 524.85 37.5268 524.802 37.5748L522.498 40.1308C522.474 40.1548 522.468 40.1848 522.48 40.2208L525.234 46.2508L525.252 46.3228C525.252 46.4188 525.198 46.4668 525.09 46.4668H524.118C524.022 46.4668 523.956 46.4188 523.92 46.3228L521.598 41.0668C521.574 41.0188 521.544 41.0128 521.508 41.0488L519.528 43.1368C519.504 43.1608 519.492 43.1908 519.492 43.2268V46.2868C519.492 46.4068 519.432 46.4668 519.312 46.4668H518.394ZM533.881 40.3828C533.929 40.7188 533.953 41.1388 533.953 41.6428V42.2188C533.953 42.3388 533.893 42.3988 533.773 42.3988H527.959C527.911 42.3988 527.887 42.4228 527.887 42.4708C527.911 43.1308 527.947 43.5568 527.995 43.7488C528.127 44.2888 528.409 44.7148 528.841 45.0268C529.273 45.3388 529.825 45.4948 530.497 45.4948C531.001 45.4948 531.445 45.3808 531.829 45.1528C532.213 44.9248 532.513 44.6008 532.729 44.1808C532.801 44.0728 532.885 44.0488 532.981 44.1088L533.683 44.5228C533.779 44.5828 533.803 44.6668 533.755 44.7748C533.455 45.3508 533.005 45.8068 532.405 46.1428C531.805 46.4668 531.115 46.6288 530.335 46.6288C529.483 46.6168 528.769 46.4128 528.193 46.0168C527.617 45.6208 527.203 45.0688 526.951 44.3608C526.735 43.7848 526.627 42.9568 526.627 41.8768C526.627 41.3728 526.633 40.9648 526.645 40.6528C526.669 40.3288 526.717 40.0408 526.789 39.7888C526.993 39.0088 527.401 38.3848 528.013 37.9168C528.637 37.4488 529.387 37.2148 530.263 37.2148C531.355 37.2148 532.195 37.4908 532.783 38.0428C533.371 38.5948 533.737 39.3748 533.881 40.3828ZM530.263 38.3308C529.675 38.3308 529.183 38.4868 528.787 38.7988C528.403 39.0988 528.151 39.5068 528.031 40.0228C527.959 40.2748 527.911 40.6828 527.887 41.2468C527.887 41.2948 527.911 41.3188 527.959 41.3188H532.621C532.669 41.3188 532.693 41.2948 532.693 41.2468C532.669 40.7068 532.633 40.3228 532.585 40.0948C532.453 39.5548 532.183 39.1288 531.775 38.8168C531.379 38.4928 530.875 38.3308 530.263 38.3308ZM540.275 37.2328C541.235 37.2328 541.997 37.5148 542.561 38.0788C543.137 38.6428 543.425 39.3988 543.425 40.3468V46.2868C543.425 46.4068 543.365 46.4668 543.245 46.4668H542.327C542.207 46.4668 542.147 46.4068 542.147 46.2868V40.5988C542.147 39.9388 541.943 39.3988 541.535 38.9788C541.139 38.5588 540.623 38.3488 539.987 38.3488C539.327 38.3488 538.793 38.5528 538.385 38.9608C537.977 39.3688 537.773 39.9028 537.773 40.5628V46.2868C537.773 46.4068 537.713 46.4668 537.593 46.4668H536.675C536.555 46.4668 536.495 46.4068 536.495 46.2868V37.5388C536.495 37.4188 536.555 37.3588 536.675 37.3588H537.593C537.713 37.3588 537.773 37.4188 537.773 37.5388V38.3128C537.773 38.3368 537.779 38.3548 537.791 38.3668C537.815 38.3788 537.833 38.3728 537.845 38.3488C538.373 37.6048 539.183 37.2328 540.275 37.2328ZM553.69 46.6108C552.334 46.6108 551.26 46.3048 550.468 45.6928C549.688 45.0808 549.298 44.2648 549.298 43.2448V42.6868C549.298 42.5668 549.358 42.5068 549.478 42.5068H550.36C550.48 42.5068 550.54 42.5668 550.54 42.6868V43.1728C550.54 43.8688 550.828 44.4328 551.404 44.8648C551.98 45.2848 552.778 45.4948 553.798 45.4948C554.722 45.4948 555.424 45.3028 555.904 44.9188C556.384 44.5228 556.624 44.0008 556.624 43.3528C556.624 42.9328 556.51 42.5728 556.282 42.2728C556.066 41.9728 555.724 41.6908 555.256 41.4268C554.8 41.1628 554.152 40.8568 553.312 40.5088C552.412 40.1488 551.71 39.8368 551.206 39.5728C550.714 39.2968 550.312 38.9488 550 38.5288C549.7 38.0968 549.55 37.5568 549.55 36.9088C549.55 35.9008 549.898 35.1208 550.594 34.5688C551.302 34.0048 552.268 33.7228 553.492 33.7228C554.824 33.7228 555.874 34.0348 556.642 34.6588C557.41 35.2828 557.794 36.1108 557.794 37.1428V37.5388C557.794 37.6588 557.734 37.7188 557.614 37.7188H556.714C556.594 37.7188 556.534 37.6588 556.534 37.5388V37.2148C556.534 36.5188 556.258 35.9488 555.706 35.5048C555.166 35.0608 554.41 34.8388 553.438 34.8388C552.586 34.8388 551.932 35.0128 551.476 35.3608C551.02 35.7088 550.792 36.2128 550.792 36.8728C550.792 37.3048 550.9 37.6648 551.116 37.9528C551.344 38.2288 551.662 38.4748 552.07 38.6908C552.49 38.8948 553.132 39.1648 553.996 39.5008C554.872 39.8608 555.574 40.1968 556.102 40.5088C556.642 40.8208 557.074 41.2048 557.398 41.6608C557.734 42.1048 557.902 42.6508 557.902 43.2988C557.902 44.3068 557.53 45.1108 556.786 45.7108C556.042 46.3108 555.01 46.6108 553.69 46.6108ZM563.428 37.2148C564.508 37.2148 565.342 37.4908 565.93 38.0428C566.518 38.5948 566.812 39.3268 566.812 40.2388V46.2868C566.812 46.4068 566.752 46.4668 566.632 46.4668H565.714C565.594 46.4668 565.534 46.4068 565.534 46.2868V45.5488C565.534 45.5248 565.522 45.5068 565.498 45.4948C565.486 45.4828 565.468 45.4888 565.444 45.5128C565.144 45.8728 564.754 46.1488 564.274 46.3408C563.794 46.5208 563.26 46.6108 562.672 46.6108C561.82 46.6108 561.106 46.3948 560.53 45.9628C559.954 45.5308 559.666 44.8708 559.666 43.9828C559.666 43.0828 559.99 42.3748 560.638 41.8588C561.298 41.3308 562.21 41.0668 563.374 41.0668H565.462C565.51 41.0668 565.534 41.0428 565.534 40.9948V40.3108C565.534 39.6988 565.36 39.2188 565.012 38.8708C564.676 38.5108 564.148 38.3308 563.428 38.3308C562.852 38.3308 562.384 38.4448 562.024 38.6728C561.664 38.8888 561.442 39.1948 561.358 39.5908C561.322 39.7108 561.25 39.7648 561.142 39.7528L560.17 39.6268C560.038 39.6028 559.984 39.5548 560.008 39.4828C560.104 38.8108 560.464 38.2648 561.088 37.8448C561.712 37.4248 562.492 37.2148 563.428 37.2148ZM562.924 45.5128C563.632 45.5128 564.244 45.3388 564.76 44.9908C565.276 44.6308 565.534 44.1508 565.534 43.5508V42.1468C565.534 42.0988 565.51 42.0748 565.462 42.0748H563.572C562.78 42.0748 562.144 42.2368 561.664 42.5608C561.184 42.8848 560.944 43.3348 560.944 43.9108C560.944 44.4388 561.124 44.8408 561.484 45.1168C561.856 45.3808 562.336 45.5128 562.924 45.5128ZM569.651 46.4668C569.531 46.4668 569.471 46.4068 569.471 46.2868V34.0468C569.471 33.9268 569.531 33.8668 569.651 33.8668H570.569C570.689 33.8668 570.749 33.9268 570.749 34.0468V46.2868C570.749 46.4068 570.689 46.4668 570.569 46.4668H569.651ZM580.604 40.3828C580.652 40.7188 580.676 41.1388 580.676 41.6428V42.2188C580.676 42.3388 580.616 42.3988 580.496 42.3988H574.682C574.634 42.3988 574.61 42.4228 574.61 42.4708C574.634 43.1308 574.67 43.5568 574.718 43.7488C574.85 44.2888 575.132 44.7148 575.564 45.0268C575.996 45.3388 576.548 45.4948 577.22 45.4948C577.724 45.4948 578.168 45.3808 578.552 45.1528C578.936 44.9248 579.236 44.6008 579.452 44.1808C579.524 44.0728 579.608 44.0488 579.704 44.1088L580.406 44.5228C580.502 44.5828 580.526 44.6668 580.478 44.7748C580.178 45.3508 579.728 45.8068 579.128 46.1428C578.528 46.4668 577.838 46.6288 577.058 46.6288C576.206 46.6168 575.492 46.4128 574.916 46.0168C574.34 45.6208 573.926 45.0688 573.674 44.3608C573.458 43.7848 573.35 42.9568 573.35 41.8768C573.35 41.3728 573.356 40.9648 573.368 40.6528C573.392 40.3288 573.44 40.0408 573.512 39.7888C573.716 39.0088 574.124 38.3848 574.736 37.9168C575.36 37.4488 576.11 37.2148 576.986 37.2148C578.078 37.2148 578.918 37.4908 579.506 38.0428C580.094 38.5948 580.46 39.3748 580.604 40.3828ZM576.986 38.3308C576.398 38.3308 575.906 38.4868 575.51 38.7988C575.126 39.0988 574.874 39.5068 574.754 40.0228C574.682 40.2748 574.634 40.6828 574.61 41.2468C574.61 41.2948 574.634 41.3188 574.682 41.3188H579.344C579.392 41.3188 579.416 41.2948 579.416 41.2468C579.392 40.7068 579.356 40.3228 579.308 40.0948C579.176 39.5548 578.906 39.1288 578.498 38.8168C578.102 38.4928 577.598 38.3308 576.986 38.3308ZM507.019 121.467C506.911 121.467 506.839 121.425 506.803 121.341L504.157 115.761C504.145 115.725 504.121 115.707 504.085 115.707H501.025C500.977 115.707 500.953 115.731 500.953 115.779V121.287C500.953 121.407 500.893 121.467 500.773 121.467H499.855C499.735 121.467 499.675 121.407 499.675 121.287V109.047C499.675 108.927 499.735 108.867 499.855 108.867H504.517C505.549 108.867 506.383 109.191 507.019 109.839C507.655 110.475 507.973 111.309 507.973 112.341C507.973 113.181 507.745 113.895 507.289 114.483C506.833 115.071 506.215 115.449 505.435 115.617C505.387 115.641 505.375 115.671 505.399 115.707L508.099 121.251C508.111 121.275 508.117 121.305 508.117 121.341C508.117 121.425 508.069 121.467 507.973 121.467H507.019ZM501.025 109.983C500.977 109.983 500.953 110.007 500.953 110.055V114.609C500.953 114.657 500.977 114.681 501.025 114.681H504.373C505.069 114.681 505.633 114.465 506.065 114.033C506.497 113.601 506.713 113.037 506.713 112.341C506.713 111.645 506.497 111.081 506.065 110.649C505.633 110.205 505.069 109.983 504.373 109.983H501.025ZM517.375 115.383C517.423 115.719 517.447 116.139 517.447 116.643V117.219C517.447 117.339 517.387 117.399 517.267 117.399H511.453C511.405 117.399 511.381 117.423 511.381 117.471C511.405 118.131 511.441 118.557 511.489 118.749C511.621 119.289 511.903 119.715 512.335 120.027C512.767 120.339 513.319 120.495 513.991 120.495C514.495 120.495 514.939 120.381 515.323 120.153C515.707 119.925 516.007 119.601 516.223 119.181C516.295 119.073 516.379 119.049 516.475 119.109L517.177 119.523C517.273 119.583 517.297 119.667 517.249 119.775C516.949 120.351 516.499 120.807 515.899 121.143C515.299 121.467 514.609 121.629 513.829 121.629C512.977 121.617 512.263 121.413 511.687 121.017C511.111 120.621 510.697 120.069 510.445 119.361C510.229 118.785 510.121 117.957 510.121 116.877C510.121 116.373 510.127 115.965 510.139 115.653C510.163 115.329 510.211 115.041 510.283 114.789C510.487 114.009 510.895 113.385 511.507 112.917C512.131 112.449 512.881 112.215 513.757 112.215C514.849 112.215 515.689 112.491 516.277 113.043C516.865 113.595 517.231 114.375 517.375 115.383ZM513.757 113.331C513.169 113.331 512.677 113.487 512.281 113.799C511.897 114.099 511.645 114.507 511.525 115.023C511.453 115.275 511.405 115.683 511.381 116.247C511.381 116.295 511.405 116.319 511.453 116.319H516.115C516.163 116.319 516.187 116.295 516.187 116.247C516.163 115.707 516.127 115.323 516.079 115.095C515.947 114.555 515.677 114.129 515.269 113.817C514.873 113.493 514.369 113.331 513.757 113.331ZM522.819 121.557C522.147 121.557 521.547 121.449 521.019 121.233C520.503 121.017 520.101 120.729 519.813 120.369C519.537 120.009 519.399 119.607 519.399 119.163V118.947C519.399 118.827 519.459 118.767 519.579 118.767H520.443C520.563 118.767 520.623 118.827 520.623 118.947V119.091C520.623 119.487 520.827 119.835 521.235 120.135C521.655 120.423 522.177 120.567 522.801 120.567C523.425 120.567 523.929 120.429 524.313 120.153C524.697 119.865 524.889 119.505 524.889 119.073C524.889 118.773 524.787 118.527 524.583 118.335C524.391 118.143 524.157 117.993 523.881 117.885C523.617 117.777 523.203 117.639 522.639 117.471C521.967 117.279 521.415 117.087 520.983 116.895C520.551 116.703 520.185 116.439 519.885 116.103C519.597 115.755 519.453 115.317 519.453 114.789C519.453 114.021 519.753 113.409 520.353 112.953C520.953 112.497 521.745 112.269 522.729 112.269C523.389 112.269 523.971 112.377 524.475 112.593C524.991 112.809 525.387 113.109 525.663 113.493C525.939 113.865 526.077 114.285 526.077 114.753V114.807C526.077 114.927 526.017 114.987 525.897 114.987H525.051C524.931 114.987 524.871 114.927 524.871 114.807V114.753C524.871 114.345 524.673 114.003 524.277 113.727C523.893 113.451 523.371 113.313 522.711 113.313C522.099 113.313 521.607 113.439 521.235 113.691C520.863 113.931 520.677 114.267 520.677 114.699C520.677 115.107 520.857 115.419 521.217 115.635C521.577 115.851 522.135 116.067 522.891 116.283C523.587 116.487 524.151 116.679 524.583 116.859C525.015 117.039 525.387 117.303 525.699 117.651C526.011 117.987 526.167 118.431 526.167 118.983C526.167 119.763 525.861 120.387 525.249 120.855C524.637 121.323 523.827 121.557 522.819 121.557ZM535.481 115.383C535.529 115.719 535.553 116.139 535.553 116.643V117.219C535.553 117.339 535.493 117.399 535.373 117.399H529.559C529.511 117.399 529.487 117.423 529.487 117.471C529.511 118.131 529.547 118.557 529.595 118.749C529.727 119.289 530.009 119.715 530.441 120.027C530.873 120.339 531.425 120.495 532.097 120.495C532.601 120.495 533.045 120.381 533.429 120.153C533.813 119.925 534.113 119.601 534.329 119.181C534.401 119.073 534.485 119.049 534.581 119.109L535.283 119.523C535.379 119.583 535.403 119.667 535.355 119.775C535.055 120.351 534.605 120.807 534.005 121.143C533.405 121.467 532.715 121.629 531.935 121.629C531.083 121.617 530.369 121.413 529.793 121.017C529.217 120.621 528.803 120.069 528.551 119.361C528.335 118.785 528.227 117.957 528.227 116.877C528.227 116.373 528.233 115.965 528.245 115.653C528.269 115.329 528.317 115.041 528.389 114.789C528.593 114.009 529.001 113.385 529.613 112.917C530.237 112.449 530.987 112.215 531.863 112.215C532.955 112.215 533.795 112.491 534.383 113.043C534.971 113.595 535.337 114.375 535.481 115.383ZM531.863 113.331C531.275 113.331 530.783 113.487 530.387 113.799C530.003 114.099 529.751 114.507 529.631 115.023C529.559 115.275 529.511 115.683 529.487 116.247C529.487 116.295 529.511 116.319 529.559 116.319H534.221C534.269 116.319 534.293 116.295 534.293 116.247C534.269 115.707 534.233 115.323 534.185 115.095C534.053 114.555 533.783 114.129 533.375 113.817C532.979 113.493 532.475 113.331 531.863 113.331ZM541.767 112.269C542.163 112.269 542.505 112.347 542.793 112.503C542.889 112.551 542.925 112.629 542.901 112.737L542.703 113.619C542.667 113.739 542.589 113.775 542.469 113.727C542.265 113.643 542.031 113.601 541.767 113.601L541.533 113.619C540.909 113.643 540.393 113.877 539.985 114.321C539.577 114.753 539.373 115.305 539.373 115.977V121.287C539.373 121.407 539.313 121.467 539.193 121.467H538.275C538.155 121.467 538.095 121.407 538.095 121.287V112.539C538.095 112.419 538.155 112.359 538.275 112.359H539.193C539.313 112.359 539.373 112.419 539.373 112.539V113.637C539.373 113.673 539.379 113.697 539.391 113.709C539.415 113.709 539.433 113.697 539.445 113.673C539.697 113.229 540.015 112.887 540.399 112.647C540.795 112.395 541.251 112.269 541.767 112.269ZM547.483 121.467C547.375 121.467 547.303 121.419 547.267 121.323L544.315 112.557L544.297 112.485C544.297 112.401 544.351 112.359 544.459 112.359H545.485C545.593 112.359 545.665 112.407 545.701 112.503L547.951 119.559C547.963 119.583 547.981 119.595 548.005 119.595C548.029 119.595 548.047 119.583 548.059 119.559L550.309 112.503C550.345 112.407 550.417 112.359 550.525 112.359L551.551 112.377C551.683 112.377 551.731 112.443 551.695 112.575L548.743 121.323C548.707 121.419 548.635 121.467 548.527 121.467H547.483ZM560.389 115.383C560.437 115.719 560.461 116.139 560.461 116.643V117.219C560.461 117.339 560.401 117.399 560.281 117.399H554.467C554.419 117.399 554.395 117.423 554.395 117.471C554.419 118.131 554.455 118.557 554.503 118.749C554.635 119.289 554.917 119.715 555.349 120.027C555.781 120.339 556.333 120.495 557.005 120.495C557.509 120.495 557.953 120.381 558.337 120.153C558.721 119.925 559.021 119.601 559.237 119.181C559.309 119.073 559.393 119.049 559.489 119.109L560.191 119.523C560.287 119.583 560.311 119.667 560.263 119.775C559.963 120.351 559.513 120.807 558.913 121.143C558.313 121.467 557.623 121.629 556.843 121.629C555.991 121.617 555.277 121.413 554.701 121.017C554.125 120.621 553.711 120.069 553.459 119.361C553.243 118.785 553.135 117.957 553.135 116.877C553.135 116.373 553.141 115.965 553.153 115.653C553.177 115.329 553.225 115.041 553.297 114.789C553.501 114.009 553.909 113.385 554.521 112.917C555.145 112.449 555.895 112.215 556.771 112.215C557.863 112.215 558.703 112.491 559.291 113.043C559.879 113.595 560.245 114.375 560.389 115.383ZM556.771 113.331C556.183 113.331 555.691 113.487 555.295 113.799C554.911 114.099 554.659 114.507 554.539 115.023C554.467 115.275 554.419 115.683 554.395 116.247C554.395 116.295 554.419 116.319 554.467 116.319H559.129C559.177 116.319 559.201 116.295 559.201 116.247C559.177 115.707 559.141 115.323 559.093 115.095C558.961 114.555 558.691 114.129 558.283 113.817C557.887 113.493 557.383 113.331 556.771 113.331ZM570.692 121.629C569.852 121.629 569.114 121.467 568.478 121.143C567.842 120.807 567.344 120.339 566.984 119.739C566.636 119.127 566.462 118.425 566.462 117.633V112.683C566.462 111.903 566.636 111.213 566.984 110.613C567.344 110.013 567.842 109.551 568.478 109.227C569.114 108.891 569.852 108.723 570.692 108.723C571.532 108.723 572.27 108.885 572.906 109.209C573.542 109.533 574.034 109.989 574.382 110.577C574.742 111.165 574.922 111.843 574.922 112.611C574.922 112.671 574.904 112.719 574.868 112.755C574.832 112.791 574.79 112.809 574.742 112.809L573.824 112.863C573.704 112.863 573.644 112.809 573.644 112.701V112.647C573.644 111.795 573.374 111.117 572.834 110.613C572.294 110.097 571.58 109.839 570.692 109.839C569.804 109.839 569.09 110.097 568.55 110.613C568.01 111.129 567.74 111.807 567.74 112.647V117.687C567.74 118.527 568.01 119.205 568.55 119.721C569.09 120.237 569.804 120.495 570.692 120.495C571.58 120.495 572.294 120.243 572.834 119.739C573.374 119.223 573.644 118.539 573.644 117.687V117.651C573.644 117.543 573.704 117.489 573.824 117.489L574.742 117.543C574.862 117.543 574.922 117.597 574.922 117.705C574.922 118.485 574.742 119.175 574.382 119.775C574.034 120.363 573.542 120.819 572.906 121.143C572.27 121.467 571.532 121.629 570.692 121.629ZM580.567 112.215C581.647 112.215 582.481 112.491 583.069 113.043C583.657 113.595 583.951 114.327 583.951 115.239V121.287C583.951 121.407 583.891 121.467 583.771 121.467H582.853C582.733 121.467 582.673 121.407 582.673 121.287V120.549C582.673 120.525 582.661 120.507 582.637 120.495C582.625 120.483 582.607 120.489 582.583 120.513C582.283 120.873 581.893 121.149 581.413 121.341C580.933 121.521 580.399 121.611 579.811 121.611C578.959 121.611 578.245 121.395 577.669 120.963C577.093 120.531 576.805 119.871 576.805 118.983C576.805 118.083 577.129 117.375 577.777 116.859C578.437 116.331 579.349 116.067 580.513 116.067H582.601C582.649 116.067 582.673 116.043 582.673 115.995V115.311C582.673 114.699 582.499 114.219 582.151 113.871C581.815 113.511 581.287 113.331 580.567 113.331C579.991 113.331 579.523 113.445 579.163 113.673C578.803 113.889 578.581 114.195 578.497 114.591C578.461 114.711 578.389 114.765 578.281 114.753L577.309 114.627C577.177 114.603 577.123 114.555 577.147 114.483C577.243 113.811 577.603 113.265 578.227 112.845C578.851 112.425 579.631 112.215 580.567 112.215ZM580.063 120.513C580.771 120.513 581.383 120.339 581.899 119.991C582.415 119.631 582.673 119.151 582.673 118.551V117.147C582.673 117.099 582.649 117.075 582.601 117.075H580.711C579.919 117.075 579.283 117.237 578.803 117.561C578.323 117.885 578.083 118.335 578.083 118.911C578.083 119.439 578.263 119.841 578.623 120.117C578.995 120.381 579.475 120.513 580.063 120.513ZM593.684 114.627C593.864 115.203 593.954 115.965 593.954 116.913C593.954 117.873 593.876 118.617 593.72 119.145C593.504 119.913 593.108 120.519 592.532 120.963C591.968 121.395 591.254 121.611 590.39 121.611C589.922 121.611 589.49 121.521 589.094 121.341C588.698 121.149 588.368 120.879 588.104 120.531C588.08 120.507 588.056 120.501 588.032 120.513C588.02 120.513 588.014 120.525 588.014 120.549V124.779C588.014 124.899 587.954 124.959 587.834 124.959H586.916C586.796 124.959 586.736 124.899 586.736 124.779V112.539C586.736 112.419 586.796 112.359 586.916 112.359H587.834C587.954 112.359 588.014 112.419 588.014 112.539V113.295C588.014 113.319 588.02 113.337 588.032 113.349C588.056 113.349 588.08 113.337 588.104 113.313C588.368 112.965 588.692 112.695 589.076 112.503C589.472 112.311 589.91 112.215 590.39 112.215C591.23 112.215 591.932 112.431 592.496 112.863C593.072 113.295 593.468 113.883 593.684 114.627ZM592.262 119.181C592.394 118.917 592.49 118.623 592.55 118.299C592.622 117.963 592.658 117.501 592.658 116.913C592.658 116.349 592.634 115.911 592.586 115.599C592.538 115.275 592.454 114.987 592.334 114.735C592.19 114.303 591.932 113.961 591.56 113.709C591.2 113.457 590.768 113.331 590.264 113.331C589.784 113.331 589.382 113.457 589.058 113.709C588.734 113.961 588.494 114.297 588.338 114.717C588.23 114.957 588.152 115.239 588.104 115.563C588.056 115.887 588.032 116.337 588.032 116.913C588.032 117.489 588.056 117.945 588.104 118.281C588.152 118.605 588.236 118.893 588.356 119.145C588.5 119.553 588.734 119.883 589.058 120.135C589.394 120.375 589.79 120.495 590.246 120.495C590.726 120.495 591.14 120.375 591.488 120.135C591.848 119.895 592.106 119.577 592.262 119.181ZM597.406 110.703C597.118 110.703 596.878 110.607 596.686 110.415C596.494 110.223 596.398 109.983 596.398 109.695C596.398 109.395 596.494 109.155 596.686 108.975C596.878 108.783 597.118 108.687 597.406 108.687C597.694 108.687 597.934 108.783 598.126 108.975C598.318 109.155 598.414 109.395 598.414 109.695C598.414 109.983 598.318 110.223 598.126 110.415C597.934 110.607 597.694 110.703 597.406 110.703ZM596.902 121.449C596.782 121.449 596.722 121.389 596.722 121.269V112.521C596.722 112.401 596.782 112.341 596.902 112.341H597.82C597.94 112.341 598 112.401 598 112.521V121.269C598 121.389 597.94 121.449 597.82 121.449H596.902ZM605.216 113.241C605.216 113.361 605.156 113.421 605.036 113.421H603.002C602.954 113.421 602.93 113.445 602.93 113.493V118.803C602.93 119.379 603.056 119.787 603.308 120.027C603.572 120.255 603.98 120.369 604.532 120.369H604.982C605.102 120.369 605.162 120.429 605.162 120.549V121.287C605.162 121.407 605.102 121.467 604.982 121.467C604.838 121.479 604.616 121.485 604.316 121.485C603.452 121.485 602.798 121.323 602.354 120.999C601.91 120.675 601.688 120.075 601.688 119.199V113.493C601.688 113.445 601.664 113.421 601.616 113.421H600.518C600.398 113.421 600.338 113.361 600.338 113.241V112.539C600.338 112.419 600.398 112.359 600.518 112.359H601.616C601.664 112.359 601.688 112.335 601.688 112.287V110.199C601.688 110.079 601.748 110.019 601.868 110.019H602.75C602.87 110.019 602.93 110.079 602.93 110.199V112.287C602.93 112.335 602.954 112.359 603.002 112.359H605.036C605.156 112.359 605.216 112.419 605.216 112.539V113.241ZM610.836 112.215C611.916 112.215 612.75 112.491 613.338 113.043C613.926 113.595 614.22 114.327 614.22 115.239V121.287C614.22 121.407 614.16 121.467 614.04 121.467H613.122C613.002 121.467 612.942 121.407 612.942 121.287V120.549C612.942 120.525 612.93 120.507 612.906 120.495C612.894 120.483 612.876 120.489 612.852 120.513C612.552 120.873 612.162 121.149 611.682 121.341C611.202 121.521 610.668 121.611 610.08 121.611C609.228 121.611 608.514 121.395 607.938 120.963C607.362 120.531 607.074 119.871 607.074 118.983C607.074 118.083 607.398 117.375 608.046 116.859C608.706 116.331 609.618 116.067 610.782 116.067H612.87C612.918 116.067 612.942 116.043 612.942 115.995V115.311C612.942 114.699 612.768 114.219 612.42 113.871C612.084 113.511 611.556 113.331 610.836 113.331C610.26 113.331 609.792 113.445 609.432 113.673C609.072 113.889 608.85 114.195 608.766 114.591C608.73 114.711 608.658 114.765 608.55 114.753L607.578 114.627C607.446 114.603 607.392 114.555 607.416 114.483C607.512 113.811 607.872 113.265 608.496 112.845C609.12 112.425 609.9 112.215 610.836 112.215ZM610.332 120.513C611.04 120.513 611.652 120.339 612.168 119.991C612.684 119.631 612.942 119.151 612.942 118.551V117.147C612.942 117.099 612.918 117.075 612.87 117.075H610.98C610.188 117.075 609.552 117.237 609.072 117.561C608.592 117.885 608.352 118.335 608.352 118.911C608.352 119.439 608.532 119.841 608.892 120.117C609.264 120.381 609.744 120.513 610.332 120.513ZM617.06 121.467C616.94 121.467 616.88 121.407 616.88 121.287V109.047C616.88 108.927 616.94 108.867 617.06 108.867H617.978C618.098 108.867 618.158 108.927 618.158 109.047V121.287C618.158 121.407 618.098 121.467 617.978 121.467H617.06ZM507.271 183.867C507.391 183.867 507.451 183.927 507.451 184.047V184.821C507.451 184.941 507.391 185.001 507.271 185.001H503.743C503.695 185.001 503.671 185.025 503.671 185.073V196.287C503.671 196.407 503.611 196.467 503.491 196.467H502.573C502.453 196.467 502.393 196.407 502.393 196.287V185.073C502.393 185.025 502.369 185.001 502.321 185.001H498.937C498.817 185.001 498.757 184.941 498.757 184.821V184.047C498.757 183.927 498.817 183.867 498.937 183.867H507.271ZM515.389 190.383C515.437 190.719 515.461 191.139 515.461 191.643V192.219C515.461 192.339 515.401 192.399 515.281 192.399H509.467C509.419 192.399 509.395 192.423 509.395 192.471C509.419 193.131 509.455 193.557 509.503 193.749C509.635 194.289 509.917 194.715 510.349 195.027C510.781 195.339 511.333 195.495 512.005 195.495C512.509 195.495 512.953 195.381 513.337 195.153C513.721 194.925 514.021 194.601 514.237 194.181C514.309 194.073 514.393 194.049 514.489 194.109L515.191 194.523C515.287 194.583 515.311 194.667 515.263 194.775C514.963 195.351 514.513 195.807 513.913 196.143C513.313 196.467 512.623 196.629 511.843 196.629C510.991 196.617 510.277 196.413 509.701 196.017C509.125 195.621 508.711 195.069 508.459 194.361C508.243 193.785 508.135 192.957 508.135 191.877C508.135 191.373 508.141 190.965 508.153 190.653C508.177 190.329 508.225 190.041 508.297 189.789C508.501 189.009 508.909 188.385 509.521 187.917C510.145 187.449 510.895 187.215 511.771 187.215C512.863 187.215 513.703 187.491 514.291 188.043C514.879 188.595 515.245 189.375 515.389 190.383ZM511.771 188.331C511.183 188.331 510.691 188.487 510.295 188.799C509.911 189.099 509.659 189.507 509.539 190.023C509.467 190.275 509.419 190.683 509.395 191.247C509.395 191.295 509.419 191.319 509.467 191.319H514.129C514.177 191.319 514.201 191.295 514.201 191.247C514.177 190.707 514.141 190.323 514.093 190.095C513.961 189.555 513.691 189.129 513.283 188.817C512.887 188.493 512.383 188.331 511.771 188.331ZM521.065 187.215C522.145 187.215 522.979 187.491 523.567 188.043C524.155 188.595 524.449 189.327 524.449 190.239V196.287C524.449 196.407 524.389 196.467 524.269 196.467H523.351C523.231 196.467 523.171 196.407 523.171 196.287V195.549C523.171 195.525 523.159 195.507 523.135 195.495C523.123 195.483 523.105 195.489 523.081 195.513C522.781 195.873 522.391 196.149 521.911 196.341C521.431 196.521 520.897 196.611 520.309 196.611C519.457 196.611 518.743 196.395 518.167 195.963C517.591 195.531 517.303 194.871 517.303 193.983C517.303 193.083 517.627 192.375 518.275 191.859C518.935 191.331 519.847 191.067 521.011 191.067H523.099C523.147 191.067 523.171 191.043 523.171 190.995V190.311C523.171 189.699 522.997 189.219 522.649 188.871C522.313 188.511 521.785 188.331 521.065 188.331C520.489 188.331 520.021 188.445 519.661 188.673C519.301 188.889 519.079 189.195 518.995 189.591C518.959 189.711 518.887 189.765 518.779 189.753L517.807 189.627C517.675 189.603 517.621 189.555 517.645 189.483C517.741 188.811 518.101 188.265 518.725 187.845C519.349 187.425 520.129 187.215 521.065 187.215ZM520.561 195.513C521.269 195.513 521.881 195.339 522.397 194.991C522.913 194.631 523.171 194.151 523.171 193.551V192.147C523.171 192.099 523.147 192.075 523.099 192.075H521.209C520.417 192.075 519.781 192.237 519.301 192.561C518.821 192.885 518.581 193.335 518.581 193.911C518.581 194.439 518.761 194.841 519.121 195.117C519.493 195.381 519.973 195.513 520.561 195.513ZM536.324 187.233C537.224 187.233 537.932 187.503 538.448 188.043C538.976 188.583 539.24 189.321 539.24 190.257V196.287C539.24 196.407 539.18 196.467 539.06 196.467H538.16C538.04 196.467 537.98 196.407 537.98 196.287V190.509C537.98 189.849 537.788 189.327 537.404 188.943C537.032 188.547 536.54 188.349 535.928 188.349C535.292 188.349 534.776 188.541 534.38 188.925C533.996 189.309 533.804 189.825 533.804 190.473V196.287C533.804 196.407 533.744 196.467 533.624 196.467H532.706C532.586 196.467 532.526 196.407 532.526 196.287V190.509C532.526 189.849 532.34 189.327 531.968 188.943C531.596 188.547 531.098 188.349 530.474 188.349C529.838 188.349 529.328 188.541 528.944 188.925C528.572 189.309 528.386 189.825 528.386 190.473V196.287C528.386 196.407 528.326 196.467 528.206 196.467H527.288C527.168 196.467 527.108 196.407 527.108 196.287V187.539C527.108 187.419 527.168 187.359 527.288 187.359H528.206C528.326 187.359 528.386 187.419 528.386 187.539V188.259C528.386 188.283 528.392 188.301 528.404 188.313C528.428 188.313 528.452 188.301 528.476 188.277C528.74 187.929 529.076 187.671 529.484 187.503C529.904 187.323 530.366 187.233 530.87 187.233C531.494 187.233 532.028 187.359 532.472 187.611C532.916 187.863 533.252 188.229 533.48 188.709C533.504 188.769 533.534 188.769 533.57 188.709C533.834 188.217 534.206 187.851 534.686 187.611C535.166 187.359 535.712 187.233 536.324 187.233ZM507.145 271.467C507.037 271.467 506.965 271.419 506.929 271.323L506.209 269.055C506.197 269.019 506.173 269.001 506.137 269.001H500.755C500.719 269.001 500.695 269.019 500.683 269.055L499.963 271.323C499.927 271.419 499.855 271.467 499.747 271.467H498.775C498.643 271.467 498.595 271.401 498.631 271.269L502.609 259.011C502.645 258.915 502.717 258.867 502.825 258.867H504.049C504.157 258.867 504.229 258.915 504.265 259.011L508.261 271.269L508.279 271.341C508.279 271.425 508.225 271.467 508.117 271.467H507.145ZM501.043 267.867C501.031 267.891 501.031 267.915 501.043 267.939C501.067 267.951 501.091 267.957 501.115 267.957H505.759C505.783 267.957 505.801 267.951 505.813 267.939C505.837 267.915 505.843 267.891 505.831 267.867L503.491 260.523C503.479 260.499 503.461 260.487 503.437 260.487C503.413 260.487 503.395 260.499 503.383 260.523L501.043 267.867ZM515.78 259.047C515.78 258.927 515.84 258.867 515.96 258.867H516.878C516.998 258.867 517.058 258.927 517.058 259.047V271.287C517.058 271.407 516.998 271.467 516.878 271.467H515.96C515.84 271.467 515.78 271.407 515.78 271.287V270.531C515.78 270.507 515.768 270.495 515.744 270.495C515.732 270.483 515.714 270.489 515.69 270.513C515.426 270.861 515.096 271.131 514.7 271.323C514.316 271.515 513.884 271.611 513.404 271.611C512.564 271.611 511.856 271.395 511.28 270.963C510.716 270.531 510.326 269.943 510.11 269.199C509.942 268.659 509.858 267.897 509.858 266.913C509.858 265.917 509.93 265.173 510.074 264.681C510.29 263.913 510.686 263.313 511.262 262.881C511.838 262.437 512.552 262.215 513.404 262.215C513.872 262.215 514.304 262.311 514.7 262.503C515.096 262.683 515.426 262.947 515.69 263.295C515.714 263.319 515.732 263.331 515.744 263.331C515.768 263.319 515.78 263.301 515.78 263.277V259.047ZM515.456 269.109C515.564 268.869 515.642 268.587 515.69 268.263C515.738 267.939 515.762 267.489 515.762 266.913C515.762 266.337 515.738 265.887 515.69 265.563C515.642 265.227 515.558 264.933 515.438 264.681C515.294 264.273 515.054 263.949 514.718 263.709C514.394 263.457 514.004 263.331 513.548 263.331C513.068 263.331 512.654 263.451 512.306 263.691C511.958 263.931 511.706 264.249 511.55 264.645C511.406 264.909 511.298 265.209 511.226 265.545C511.166 265.869 511.136 266.325 511.136 266.913C511.136 267.477 511.16 267.921 511.208 268.245C511.256 268.557 511.34 268.839 511.46 269.091C511.604 269.523 511.856 269.865 512.216 270.117C512.588 270.369 513.026 270.495 513.53 270.495C514.01 270.495 514.412 270.369 514.736 270.117C515.06 269.865 515.3 269.529 515.456 269.109ZM522.276 271.467C522.168 271.467 522.096 271.419 522.06 271.323L519.108 262.557L519.09 262.485C519.09 262.401 519.144 262.359 519.252 262.359H520.278C520.386 262.359 520.458 262.407 520.494 262.503L522.744 269.559C522.756 269.583 522.774 269.595 522.798 269.595C522.822 269.595 522.84 269.583 522.852 269.559L525.102 262.503C525.138 262.407 525.21 262.359 525.318 262.359L526.344 262.377C526.476 262.377 526.524 262.443 526.488 262.575L523.536 271.323C523.5 271.419 523.428 271.467 523.32 271.467H522.276ZM529.361 260.703C529.073 260.703 528.833 260.607 528.641 260.415C528.449 260.223 528.353 259.983 528.353 259.695C528.353 259.395 528.449 259.155 528.641 258.975C528.833 258.783 529.073 258.687 529.361 258.687C529.649 258.687 529.889 258.783 530.081 258.975C530.273 259.155 530.369 259.395 530.369 259.695C530.369 259.983 530.273 260.223 530.081 260.415C529.889 260.607 529.649 260.703 529.361 260.703ZM528.857 271.449C528.737 271.449 528.677 271.389 528.677 271.269V262.521C528.677 262.401 528.737 262.341 528.857 262.341H529.775C529.895 262.341 529.955 262.401 529.955 262.521V271.269C529.955 271.389 529.895 271.449 529.775 271.449H528.857ZM536.073 271.557C535.401 271.557 534.801 271.449 534.273 271.233C533.757 271.017 533.355 270.729 533.067 270.369C532.791 270.009 532.653 269.607 532.653 269.163V268.947C532.653 268.827 532.713 268.767 532.833 268.767H533.697C533.817 268.767 533.877 268.827 533.877 268.947V269.091C533.877 269.487 534.081 269.835 534.489 270.135C534.909 270.423 535.431 270.567 536.055 270.567C536.679 270.567 537.183 270.429 537.567 270.153C537.951 269.865 538.143 269.505 538.143 269.073C538.143 268.773 538.041 268.527 537.837 268.335C537.645 268.143 537.411 267.993 537.135 267.885C536.871 267.777 536.457 267.639 535.893 267.471C535.221 267.279 534.669 267.087 534.237 266.895C533.805 266.703 533.439 266.439 533.139 266.103C532.851 265.755 532.707 265.317 532.707 264.789C532.707 264.021 533.007 263.409 533.607 262.953C534.207 262.497 534.999 262.269 535.983 262.269C536.643 262.269 537.225 262.377 537.729 262.593C538.245 262.809 538.641 263.109 538.917 263.493C539.193 263.865 539.331 264.285 539.331 264.753V264.807C539.331 264.927 539.271 264.987 539.151 264.987H538.305C538.185 264.987 538.125 264.927 538.125 264.807V264.753C538.125 264.345 537.927 264.003 537.531 263.727C537.147 263.451 536.625 263.313 535.965 263.313C535.353 263.313 534.861 263.439 534.489 263.691C534.117 263.931 533.931 264.267 533.931 264.699C533.931 265.107 534.111 265.419 534.471 265.635C534.831 265.851 535.389 266.067 536.145 266.283C536.841 266.487 537.405 266.679 537.837 266.859C538.269 267.039 538.641 267.303 538.953 267.651C539.265 267.987 539.421 268.431 539.421 268.983C539.421 269.763 539.115 270.387 538.503 270.855C537.891 271.323 537.081 271.557 536.073 271.557ZM545.225 271.611C544.361 271.611 543.617 271.389 542.993 270.945C542.369 270.501 541.937 269.889 541.697 269.109C541.529 268.557 541.445 267.819 541.445 266.895C541.445 265.971 541.529 265.239 541.697 264.699C541.925 263.931 542.351 263.325 542.975 262.881C543.599 262.437 544.355 262.215 545.243 262.215C546.095 262.215 546.827 262.437 547.439 262.881C548.063 263.325 548.489 263.925 548.717 264.681C548.885 265.197 548.969 265.935 548.969 266.895C548.969 267.867 548.885 268.605 548.717 269.109C548.489 269.889 548.063 270.501 547.439 270.945C546.827 271.389 546.089 271.611 545.225 271.611ZM545.225 270.495C545.801 270.495 546.293 270.339 546.701 270.027C547.109 269.703 547.385 269.271 547.529 268.731C547.637 268.299 547.691 267.693 547.691 266.913C547.691 266.121 547.643 265.515 547.547 265.095C547.403 264.555 547.121 264.129 546.701 263.817C546.293 263.493 545.795 263.331 545.207 263.331C544.619 263.331 544.121 263.493 543.713 263.817C543.305 264.129 543.029 264.555 542.885 265.095C542.789 265.515 542.741 266.121 542.741 266.913C542.741 267.705 542.789 268.311 542.885 268.731C543.017 269.271 543.287 269.703 543.695 270.027C544.115 270.339 544.625 270.495 545.225 270.495ZM555.231 262.269C555.627 262.269 555.969 262.347 556.257 262.503C556.353 262.551 556.389 262.629 556.365 262.737L556.167 263.619C556.131 263.739 556.053 263.775 555.933 263.727C555.729 263.643 555.495 263.601 555.231 263.601L554.997 263.619C554.373 263.643 553.857 263.877 553.449 264.321C553.041 264.753 552.837 265.305 552.837 265.977V271.287C552.837 271.407 552.777 271.467 552.657 271.467H551.739C551.619 271.467 551.559 271.407 551.559 271.287V262.539C551.559 262.419 551.619 262.359 551.739 262.359H552.657C552.777 262.359 552.837 262.419 552.837 262.539V263.637C552.837 263.673 552.843 263.697 552.855 263.709C552.879 263.709 552.897 263.697 552.909 263.673C553.161 263.229 553.479 262.887 553.863 262.647C554.259 262.395 554.715 262.269 555.231 262.269ZM561.051 271.557C560.379 271.557 559.779 271.449 559.251 271.233C558.735 271.017 558.333 270.729 558.045 270.369C557.769 270.009 557.631 269.607 557.631 269.163V268.947C557.631 268.827 557.691 268.767 557.811 268.767H558.675C558.795 268.767 558.855 268.827 558.855 268.947V269.091C558.855 269.487 559.059 269.835 559.467 270.135C559.887 270.423 560.409 270.567 561.033 270.567C561.657 270.567 562.161 270.429 562.545 270.153C562.929 269.865 563.121 269.505 563.121 269.073C563.121 268.773 563.019 268.527 562.815 268.335C562.623 268.143 562.389 267.993 562.113 267.885C561.849 267.777 561.435 267.639 560.871 267.471C560.199 267.279 559.647 267.087 559.215 266.895C558.783 266.703 558.417 266.439 558.117 266.103C557.829 265.755 557.685 265.317 557.685 264.789C557.685 264.021 557.985 263.409 558.585 262.953C559.185 262.497 559.977 262.269 560.961 262.269C561.621 262.269 562.203 262.377 562.707 262.593C563.223 262.809 563.619 263.109 563.895 263.493C564.171 263.865 564.309 264.285 564.309 264.753V264.807C564.309 264.927 564.249 264.987 564.129 264.987H563.283C563.163 264.987 563.103 264.927 563.103 264.807V264.753C563.103 264.345 562.905 264.003 562.509 263.727C562.125 263.451 561.603 263.313 560.943 263.313C560.331 263.313 559.839 263.439 559.467 263.691C559.095 263.931 558.909 264.267 558.909 264.699C558.909 265.107 559.089 265.419 559.449 265.635C559.809 265.851 560.367 266.067 561.123 266.283C561.819 266.487 562.383 266.679 562.815 266.859C563.247 267.039 563.619 267.303 563.931 267.651C564.243 267.987 564.399 268.431 564.399 268.983C564.399 269.763 564.093 270.387 563.481 270.855C562.869 271.323 562.059 271.557 561.051 271.557Z" fill="white" fill-opacity="0.5"/>
<path d="M455.397 40.4548C455.637 41.0068 455.757 41.6428 455.757 42.3628C455.757 43.0108 455.649 43.6108 455.433 44.1628C455.145 44.9308 454.659 45.5308 453.975 45.9628C453.303 46.3948 452.505 46.6108 451.581 46.6108C450.669 46.6108 449.865 46.3828 449.169 45.9268C448.485 45.4708 447.993 44.8528 447.693 44.0728C447.525 43.6048 447.429 43.1008 447.405 42.5608C447.405 42.4168 447.477 42.3448 447.621 42.3448H449.745C449.889 42.3448 449.961 42.4168 449.961 42.5608C450.009 42.9568 450.075 43.2508 450.159 43.4428C450.267 43.7548 450.441 44.0008 450.681 44.1808C450.933 44.3488 451.227 44.4328 451.563 44.4328C452.235 44.4328 452.697 44.1388 452.949 43.5508C453.117 43.1908 453.201 42.7708 453.201 42.2908C453.201 41.7268 453.111 41.2648 452.931 40.9048C452.655 40.3408 452.193 40.0588 451.545 40.0588C451.413 40.0588 451.275 40.1008 451.131 40.1848C450.987 40.2568 450.813 40.3648 450.609 40.5088C450.561 40.5448 450.513 40.5628 450.465 40.5628C450.393 40.5628 450.339 40.5268 450.303 40.4548L449.241 38.9608C449.217 38.9248 449.205 38.8828 449.205 38.8348C449.205 38.7628 449.229 38.7028 449.277 38.6548L452.139 36.1528C452.163 36.1288 452.169 36.1048 452.157 36.0808C452.157 36.0568 452.139 36.0448 452.103 36.0448H447.873C447.813 36.0448 447.759 36.0268 447.711 35.9908C447.675 35.9428 447.657 35.8888 447.657 35.8288V34.0828C447.657 34.0228 447.675 33.9748 447.711 33.9388C447.759 33.8908 447.813 33.8668 447.873 33.8668H455.379C455.439 33.8668 455.487 33.8908 455.523 33.9388C455.571 33.9748 455.595 34.0228 455.595 34.0828V36.0628C455.595 36.1588 455.553 36.2488 455.469 36.3328L453.111 38.4928C453.087 38.5168 453.075 38.5408 453.075 38.5648C453.087 38.5888 453.117 38.6008 453.165 38.6008C454.209 38.8048 454.953 39.4228 455.397 40.4548ZM461.643 46.6648C460.323 46.6648 459.279 46.2988 458.511 45.5668C457.743 44.8228 457.359 43.8148 457.359 42.5428V37.7908C457.359 36.5428 457.743 35.5528 458.511 34.8208C459.279 34.0888 460.323 33.7228 461.643 33.7228C462.963 33.7228 464.007 34.0888 464.775 34.8208C465.555 35.5528 465.945 36.5428 465.945 37.7908V42.5428C465.945 43.8148 465.555 44.8228 464.775 45.5668C464.007 46.2988 462.963 46.6648 461.643 46.6648ZM461.643 44.4868C462.183 44.4868 462.609 44.3248 462.921 44.0008C463.245 43.6648 463.407 43.2208 463.407 42.6688V37.7188C463.407 37.1668 463.245 36.7288 462.921 36.4048C462.609 36.0688 462.183 35.9008 461.643 35.9008C461.115 35.9008 460.689 36.0688 460.365 36.4048C460.053 36.7288 459.897 37.1668 459.897 37.7188V42.6688C459.897 43.2208 460.053 43.6648 460.365 44.0008C460.689 44.3248 461.115 44.4868 461.643 44.4868ZM470.775 39.3928C470.247 39.3928 469.761 39.2668 469.317 39.0148C468.885 38.7628 468.537 38.4208 468.273 37.9888C468.021 37.5448 467.895 37.0648 467.895 36.5488C467.895 36.0328 468.021 35.5588 468.273 35.1268C468.537 34.6948 468.885 34.3528 469.317 34.1008C469.761 33.8368 470.247 33.7048 470.775 33.7048C471.291 33.7048 471.765 33.8368 472.197 34.1008C472.629 34.3528 472.971 34.6948 473.223 35.1268C473.487 35.5588 473.619 36.0328 473.619 36.5488C473.619 37.0648 473.493 37.5448 473.241 37.9888C472.989 38.4208 472.641 38.7628 472.197 39.0148C471.765 39.2668 471.291 39.3928 470.775 39.3928ZM470.073 46.4668C469.989 46.4668 469.935 46.4428 469.911 46.3948C469.887 46.3468 469.893 46.2868 469.929 46.2148L476.715 34.0108C476.775 33.9148 476.865 33.8668 476.985 33.8668H478.317C478.401 33.8668 478.455 33.8908 478.479 33.9388C478.503 33.9868 478.497 34.0468 478.461 34.1188L471.693 46.3228C471.633 46.4188 471.543 46.4668 471.423 46.4668H470.073ZM470.775 37.9168C471.147 37.9168 471.459 37.7848 471.711 37.5208C471.975 37.2568 472.107 36.9328 472.107 36.5488C472.107 36.1768 471.975 35.8588 471.711 35.5948C471.459 35.3308 471.147 35.1988 470.775 35.1988C470.391 35.1988 470.067 35.3308 469.803 35.5948C469.539 35.8588 469.407 36.1768 469.407 36.5488C469.407 36.9328 469.539 37.2568 469.803 37.5208C470.067 37.7848 470.391 37.9168 470.775 37.9168ZM477.795 46.6288C477.279 46.6288 476.799 46.5028 476.355 46.2508C475.923 45.9868 475.575 45.6388 475.311 45.2068C475.059 44.7628 474.933 44.2828 474.933 43.7668C474.933 43.2508 475.059 42.7768 475.311 42.3448C475.575 41.9128 475.923 41.5708 476.355 41.3188C476.799 41.0668 477.279 40.9408 477.795 40.9408C478.311 40.9408 478.785 41.0668 479.217 41.3188C479.661 41.5708 480.009 41.9128 480.261 42.3448C480.525 42.7768 480.657 43.2508 480.657 43.7668C480.657 44.2828 480.525 44.7628 480.261 45.2068C480.009 45.6388 479.661 45.9868 479.217 46.2508C478.785 46.5028 478.311 46.6288 477.795 46.6288ZM477.795 45.1348C478.167 45.1348 478.485 45.0028 478.749 44.7388C479.013 44.4748 479.145 44.1508 479.145 43.7668C479.145 43.3948 479.013 43.0768 478.749 42.8128C478.485 42.5488 478.167 42.4168 477.795 42.4168C477.423 42.4168 477.105 42.5488 476.841 42.8128C476.577 43.0648 476.445 43.3828 476.445 43.7668C476.445 44.1508 476.571 44.4748 476.823 44.7388C477.087 45.0028 477.411 45.1348 477.795 45.1348ZM450.829 119.181C450.805 119.205 450.799 119.229 450.811 119.253C450.823 119.277 450.847 119.289 450.883 119.289H455.761C455.821 119.289 455.869 119.313 455.905 119.361C455.953 119.397 455.977 119.445 455.977 119.505V121.251C455.977 121.311 455.953 121.365 455.905 121.413C455.869 121.449 455.821 121.467 455.761 121.467H447.661C447.601 121.467 447.547 121.449 447.499 121.413C447.463 121.365 447.445 121.311 447.445 121.251V119.595C447.445 119.487 447.481 119.397 447.553 119.325C448.141 118.749 448.741 118.125 449.353 117.453C449.965 116.769 450.349 116.343 450.505 116.175C450.841 115.779 451.183 115.401 451.531 115.041C452.623 113.829 453.169 112.929 453.169 112.341C453.169 111.921 453.019 111.579 452.719 111.315C452.419 111.039 452.029 110.901 451.549 110.901C451.069 110.901 450.679 111.039 450.379 111.315C450.079 111.579 449.929 111.933 449.929 112.377V112.827C449.929 112.887 449.905 112.941 449.857 112.989C449.821 113.025 449.773 113.043 449.713 113.043H447.589C447.529 113.043 447.475 113.025 447.427 112.989C447.391 112.941 447.373 112.887 447.373 112.827V111.981C447.409 111.333 447.613 110.763 447.985 110.271C448.357 109.767 448.849 109.383 449.461 109.119C450.085 108.855 450.781 108.723 451.549 108.723C452.401 108.723 453.139 108.885 453.763 109.209C454.399 109.521 454.885 109.947 455.221 110.487C455.569 111.027 455.743 111.627 455.743 112.287C455.743 112.791 455.617 113.307 455.365 113.835C455.113 114.363 454.735 114.933 454.231 115.545C453.859 116.013 453.457 116.475 453.025 116.931C452.593 117.387 451.951 118.047 451.099 118.911L450.829 119.181ZM461.819 121.665C460.499 121.665 459.455 121.299 458.687 120.567C457.919 119.823 457.535 118.815 457.535 117.543V112.791C457.535 111.543 457.919 110.553 458.687 109.821C459.455 109.089 460.499 108.723 461.819 108.723C463.139 108.723 464.183 109.089 464.951 109.821C465.731 110.553 466.121 111.543 466.121 112.791V117.543C466.121 118.815 465.731 119.823 464.951 120.567C464.183 121.299 463.139 121.665 461.819 121.665ZM461.819 119.487C462.359 119.487 462.785 119.325 463.097 119.001C463.421 118.665 463.583 118.221 463.583 117.669V112.719C463.583 112.167 463.421 111.729 463.097 111.405C462.785 111.069 462.359 110.901 461.819 110.901C461.291 110.901 460.865 111.069 460.541 111.405C460.229 111.729 460.073 112.167 460.073 112.719V117.669C460.073 118.221 460.229 118.665 460.541 119.001C460.865 119.325 461.291 119.487 461.819 119.487ZM470.951 114.393C470.423 114.393 469.937 114.267 469.493 114.015C469.061 113.763 468.713 113.421 468.449 112.989C468.197 112.545 468.071 112.065 468.071 111.549C468.071 111.033 468.197 110.559 468.449 110.127C468.713 109.695 469.061 109.353 469.493 109.101C469.937 108.837 470.423 108.705 470.951 108.705C471.467 108.705 471.941 108.837 472.373 109.101C472.805 109.353 473.147 109.695 473.399 110.127C473.663 110.559 473.795 111.033 473.795 111.549C473.795 112.065 473.669 112.545 473.417 112.989C473.165 113.421 472.817 113.763 472.373 114.015C471.941 114.267 471.467 114.393 470.951 114.393ZM470.249 121.467C470.165 121.467 470.111 121.443 470.087 121.395C470.063 121.347 470.069 121.287 470.105 121.215L476.891 109.011C476.951 108.915 477.041 108.867 477.161 108.867H478.493C478.577 108.867 478.631 108.891 478.655 108.939C478.679 108.987 478.673 109.047 478.637 109.119L471.869 121.323C471.809 121.419 471.719 121.467 471.599 121.467H470.249ZM470.951 112.917C471.323 112.917 471.635 112.785 471.887 112.521C472.151 112.257 472.283 111.933 472.283 111.549C472.283 111.177 472.151 110.859 471.887 110.595C471.635 110.331 471.323 110.199 470.951 110.199C470.567 110.199 470.243 110.331 469.979 110.595C469.715 110.859 469.583 111.177 469.583 111.549C469.583 111.933 469.715 112.257 469.979 112.521C470.243 112.785 470.567 112.917 470.951 112.917ZM477.971 121.629C477.455 121.629 476.975 121.503 476.531 121.251C476.099 120.987 475.751 120.639 475.487 120.207C475.235 119.763 475.109 119.283 475.109 118.767C475.109 118.251 475.235 117.777 475.487 117.345C475.751 116.913 476.099 116.571 476.531 116.319C476.975 116.067 477.455 115.941 477.971 115.941C478.487 115.941 478.961 116.067 479.393 116.319C479.837 116.571 480.185 116.913 480.437 117.345C480.701 117.777 480.833 118.251 480.833 118.767C480.833 119.283 480.701 119.763 480.437 120.207C480.185 120.639 479.837 120.987 479.393 121.251C478.961 121.503 478.487 121.629 477.971 121.629ZM477.971 120.135C478.343 120.135 478.661 120.003 478.925 119.739C479.189 119.475 479.321 119.151 479.321 118.767C479.321 118.395 479.189 118.077 478.925 117.813C478.661 117.549 478.343 117.417 477.971 117.417C477.599 117.417 477.281 117.549 477.017 117.813C476.753 118.065 476.621 118.383 476.621 118.767C476.621 119.151 476.747 119.475 476.999 119.739C477.263 120.003 477.587 120.135 477.971 120.135ZM451.189 183.921C451.249 183.885 451.339 183.867 451.459 183.867H453.637C453.697 183.867 453.745 183.891 453.781 183.939C453.829 183.975 453.853 184.023 453.853 184.083V196.251C453.853 196.311 453.829 196.365 453.781 196.413C453.745 196.449 453.697 196.467 453.637 196.467H451.531C451.471 196.467 451.417 196.449 451.369 196.413C451.333 196.365 451.315 196.311 451.315 196.251V186.387C451.315 186.363 451.303 186.339 451.279 186.315C451.255 186.291 451.231 186.285 451.207 186.297L449.425 186.783L449.353 186.801C449.245 186.801 449.191 186.735 449.191 186.603L449.137 185.055C449.137 184.935 449.191 184.851 449.299 184.803L451.189 183.921ZM459.965 196.665C458.645 196.665 457.601 196.299 456.833 195.567C456.065 194.823 455.681 193.815 455.681 192.543V187.791C455.681 186.543 456.065 185.553 456.833 184.821C457.601 184.089 458.645 183.723 459.965 183.723C461.285 183.723 462.329 184.089 463.097 184.821C463.877 185.553 464.267 186.543 464.267 187.791V192.543C464.267 193.815 463.877 194.823 463.097 195.567C462.329 196.299 461.285 196.665 459.965 196.665ZM459.965 194.487C460.505 194.487 460.931 194.325 461.243 194.001C461.567 193.665 461.729 193.221 461.729 192.669V187.719C461.729 187.167 461.567 186.729 461.243 186.405C460.931 186.069 460.505 185.901 459.965 185.901C459.437 185.901 459.011 186.069 458.687 186.405C458.375 186.729 458.219 187.167 458.219 187.719V192.669C458.219 193.221 458.375 193.665 458.687 194.001C459.011 194.325 459.437 194.487 459.965 194.487ZM469.096 189.393C468.568 189.393 468.082 189.267 467.638 189.015C467.206 188.763 466.858 188.421 466.594 187.989C466.342 187.545 466.216 187.065 466.216 186.549C466.216 186.033 466.342 185.559 466.594 185.127C466.858 184.695 467.206 184.353 467.638 184.101C468.082 183.837 468.568 183.705 469.096 183.705C469.612 183.705 470.086 183.837 470.518 184.101C470.95 184.353 471.292 184.695 471.544 185.127C471.808 185.559 471.94 186.033 471.94 186.549C471.94 187.065 471.814 187.545 471.562 187.989C471.31 188.421 470.962 188.763 470.518 189.015C470.086 189.267 469.612 189.393 469.096 189.393ZM468.394 196.467C468.31 196.467 468.256 196.443 468.232 196.395C468.208 196.347 468.214 196.287 468.25 196.215L475.036 184.011C475.096 183.915 475.186 183.867 475.306 183.867H476.638C476.722 183.867 476.776 183.891 476.8 183.939C476.824 183.987 476.818 184.047 476.782 184.119L470.014 196.323C469.954 196.419 469.864 196.467 469.744 196.467H468.394ZM469.096 187.917C469.468 187.917 469.78 187.785 470.032 187.521C470.296 187.257 470.428 186.933 470.428 186.549C470.428 186.177 470.296 185.859 470.032 185.595C469.78 185.331 469.468 185.199 469.096 185.199C468.712 185.199 468.388 185.331 468.124 185.595C467.86 185.859 467.728 186.177 467.728 186.549C467.728 186.933 467.86 187.257 468.124 187.521C468.388 187.785 468.712 187.917 469.096 187.917ZM476.116 196.629C475.6 196.629 475.12 196.503 474.676 196.251C474.244 195.987 473.896 195.639 473.632 195.207C473.38 194.763 473.254 194.283 473.254 193.767C473.254 193.251 473.38 192.777 473.632 192.345C473.896 191.913 474.244 191.571 474.676 191.319C475.12 191.067 475.6 190.941 476.116 190.941C476.632 190.941 477.106 191.067 477.538 191.319C477.982 191.571 478.33 191.913 478.582 192.345C478.846 192.777 478.978 193.251 478.978 193.767C478.978 194.283 478.846 194.763 478.582 195.207C478.33 195.639 477.982 195.987 477.538 196.251C477.106 196.503 476.632 196.629 476.116 196.629ZM476.116 195.135C476.488 195.135 476.806 195.003 477.07 194.739C477.334 194.475 477.466 194.151 477.466 193.767C477.466 193.395 477.334 193.077 477.07 192.813C476.806 192.549 476.488 192.417 476.116 192.417C475.744 192.417 475.426 192.549 475.162 192.813C474.898 193.065 474.766 193.383 474.766 193.767C474.766 194.151 474.892 194.475 475.144 194.739C475.408 195.003 475.732 195.135 476.116 195.135ZM451.189 258.921C451.249 258.885 451.339 258.867 451.459 258.867H453.637C453.697 258.867 453.745 258.891 453.781 258.939C453.829 258.975 453.853 259.023 453.853 259.083V271.251C453.853 271.311 453.829 271.365 453.781 271.413C453.745 271.449 453.697 271.467 453.637 271.467H451.531C451.471 271.467 451.417 271.449 451.369 271.413C451.333 271.365 451.315 271.311 451.315 271.251V261.387C451.315 261.363 451.303 261.339 451.279 261.315C451.255 261.291 451.231 261.285 451.207 261.297L449.425 261.783L449.353 261.801C449.245 261.801 449.191 261.735 449.191 261.603L449.137 260.055C449.137 259.935 449.191 259.851 449.299 259.803L451.189 258.921ZM459.965 271.665C458.645 271.665 457.601 271.299 456.833 270.567C456.065 269.823 455.681 268.815 455.681 267.543V262.791C455.681 261.543 456.065 260.553 456.833 259.821C457.601 259.089 458.645 258.723 459.965 258.723C461.285 258.723 462.329 259.089 463.097 259.821C463.877 260.553 464.267 261.543 464.267 262.791V267.543C464.267 268.815 463.877 269.823 463.097 270.567C462.329 271.299 461.285 271.665 459.965 271.665ZM459.965 269.487C460.505 269.487 460.931 269.325 461.243 269.001C461.567 268.665 461.729 268.221 461.729 267.669V262.719C461.729 262.167 461.567 261.729 461.243 261.405C460.931 261.069 460.505 260.901 459.965 260.901C459.437 260.901 459.011 261.069 458.687 261.405C458.375 261.729 458.219 262.167 458.219 262.719V267.669C458.219 268.221 458.375 268.665 458.687 269.001C459.011 269.325 459.437 269.487 459.965 269.487ZM469.096 264.393C468.568 264.393 468.082 264.267 467.638 264.015C467.206 263.763 466.858 263.421 466.594 262.989C466.342 262.545 466.216 262.065 466.216 261.549C466.216 261.033 466.342 260.559 466.594 260.127C466.858 259.695 467.206 259.353 467.638 259.101C468.082 258.837 468.568 258.705 469.096 258.705C469.612 258.705 470.086 258.837 470.518 259.101C470.95 259.353 471.292 259.695 471.544 260.127C471.808 260.559 471.94 261.033 471.94 261.549C471.94 262.065 471.814 262.545 471.562 262.989C471.31 263.421 470.962 263.763 470.518 264.015C470.086 264.267 469.612 264.393 469.096 264.393ZM468.394 271.467C468.31 271.467 468.256 271.443 468.232 271.395C468.208 271.347 468.214 271.287 468.25 271.215L475.036 259.011C475.096 258.915 475.186 258.867 475.306 258.867H476.638C476.722 258.867 476.776 258.891 476.8 258.939C476.824 258.987 476.818 259.047 476.782 259.119L470.014 271.323C469.954 271.419 469.864 271.467 469.744 271.467H468.394ZM469.096 262.917C469.468 262.917 469.78 262.785 470.032 262.521C470.296 262.257 470.428 261.933 470.428 261.549C470.428 261.177 470.296 260.859 470.032 260.595C469.78 260.331 469.468 260.199 469.096 260.199C468.712 260.199 468.388 260.331 468.124 260.595C467.86 260.859 467.728 261.177 467.728 261.549C467.728 261.933 467.86 262.257 468.124 262.521C468.388 262.785 468.712 262.917 469.096 262.917ZM476.116 271.629C475.6 271.629 475.12 271.503 474.676 271.251C474.244 270.987 473.896 270.639 473.632 270.207C473.38 269.763 473.254 269.283 473.254 268.767C473.254 268.251 473.38 267.777 473.632 267.345C473.896 266.913 474.244 266.571 474.676 266.319C475.12 266.067 475.6 265.941 476.116 265.941C476.632 265.941 477.106 266.067 477.538 266.319C477.982 266.571 478.33 266.913 478.582 267.345C478.846 267.777 478.978 268.251 478.978 268.767C478.978 269.283 478.846 269.763 478.582 270.207C478.33 270.639 477.982 270.987 477.538 271.251C477.106 271.503 476.632 271.629 476.116 271.629ZM476.116 270.135C476.488 270.135 476.806 270.003 477.07 269.739C477.334 269.475 477.466 269.151 477.466 268.767C477.466 268.395 477.334 268.077 477.07 267.813C476.806 267.549 476.488 267.417 476.116 267.417C475.744 267.417 475.426 267.549 475.162 267.813C474.898 268.065 474.766 268.383 474.766 268.767C474.766 269.151 474.892 269.475 475.144 269.739C475.408 270.003 475.732 270.135 476.116 270.135Z" fill="white"/>
<circle cx="189.233" cy="189.233" r="170.421" fill="white" fill-opacity="0.07"/>
<circle cx="189.233" cy="189.233" r="188.983" stroke="white" stroke-opacity="0.25" stroke-width="0.5"/>
<path fill-rule="evenodd" clip-rule="evenodd" d="M189.787 337.521C271.379 337.521 337.522 271.378 337.522 189.787C337.522 108.195 271.379 42.0518 189.787 42.0518C108.195 42.0518 42.052 108.195 42.052 189.787C42.052 271.378 108.195 337.521 189.787 337.521ZM189.787 286.708C243.315 286.708 286.708 243.315 286.708 189.787C286.708 136.258 243.315 92.8651 189.787 92.8651C136.259 92.8651 92.8653 136.258 92.8653 189.787C92.8653 243.315 136.259 286.708 189.787 286.708Z" fill="#00C9EE"/>
<path fill-rule="evenodd" clip-rule="evenodd" d="M190.34 92.8666C243.614 93.1644 286.709 136.443 286.709 189.787C286.709 201.037 284.792 211.839 281.267 221.884L329.65 237.492C334.753 222.526 337.522 206.48 337.522 189.787C337.522 108.379 271.678 42.351 190.34 42.0527V92.8666Z" fill="#AE31D9"/>
<path fill-rule="evenodd" clip-rule="evenodd" d="M302.922 94.999L264.484 128.251C278.254 144.988 286.521 166.422 286.521 189.787C286.521 201.037 284.605 211.839 281.08 221.884L329.463 237.492C334.566 222.526 337.335 206.48 337.335 189.787C337.335 153.71 324.403 120.653 302.922 94.999Z" fill="#F2994A"/>
<path fill-rule="evenodd" clip-rule="evenodd" d="M323.303 126.467L277.683 148.89C270.893 134.321 260.587 121.721 247.856 112.179L277.256 70.717C296.854 85.1377 312.762 104.281 323.303 126.467Z" fill="#EB5757"/>
<path d="M234.605 76.3574L260.058 35.4121H430.478M430.478 113.983H287.723M430.478 189.233H309.856M430.478 268.911H315.389L295.47 256.738" stroke="white" stroke-opacity="0.5"/>
<circle cx="234.605" cy="77.4639" r="3.31988" fill="white"/>
<circle cx="286.617" cy="113.983" r="3.31988" fill="white"/>
<circle cx="309.856" cy="189.233" r="3.31988" fill="white"/>
<circle cx="294.363" cy="255.631" r="3.31988" fill="white"/>
</svg>
