<svg width="834" height="1210" viewBox="0 0 834 1210" fill="none" xmlns="http://www.w3.org/2000/svg">
<g clip-path="url(#clip0)">
<path d="M618.088 297.793C619.94 301.928 621.707 306.284 623.252 310.555C646.107 373.488 639.182 449.942 604.054 520.458C575.309 578.556 529.111 632.153 463.07 684.526C445.281 698.559 426.299 712.392 407.929 725.95C342.997 773.413 275.669 822.502 241.96 894.957C232.788 914.691 226.176 936.036 219.901 956.494C210.152 988.069 200.132 1020.68 180.509 1047.86C158.003 1079.26 122.595 1101.55 81.1362 1110.74C40.9705 1119.54 -0.749447 1115.43 -36.4765 1099.26C-102.986 1068.93 -153.738 999.919 -172.044 914.727C-174.253 904.87 -175.918 894.585 -177.531 884.829C-183.198 852.069 -189.038 818.101 -208.497 791.885C-225.972 768.459 -252.447 753.659 -278.052 739.572C-290.232 732.893 -302.923 725.892 -314.527 718.036C-351.524 692.874 -380.876 655.647 -399.302 610.401C-417.11 566.534 -423.401 518.427 -417.718 471.209C-406.931 381.628 -355.301 293.794 -275.941 230.125C-252.393 211.306 -226.608 194.611 -201.894 178.395C-177.417 162.47 -152.091 145.98 -128.78 127.451C-89.8392 96.2237 -41.9641 45.5523 -35.3951 -18.9761C-34.6176 -26.6779 -34.5051 -34.6333 -34.324 -42.4357C-33.898 -59.5398 -33.5933 -77.3248 -26.5229 -93.544C-15.7666 -118.767 11.4076 -138.107 42.5262 -142.484C67.2269 -146.009 94.5913 -141.534 126.408 -128.759C167.007 -112.379 204.959 -86.7245 236.186 -54.7494C267.481 -22.6212 292.188 16.1344 307.485 57.266C310.85 66.4217 313.909 75.7144 316.831 84.7009C322.143 101.074 327.659 117.906 335.404 133.558C349.094 161.253 369.008 180.278 391.168 187.083C406.731 191.879 423.741 190.88 440.224 189.932C447.903 189.434 455.804 189.021 463.605 189.205C527.898 190.377 589.628 234.245 618.088 297.793ZM-148.856 975.121C-124.03 1030.55 -83.897 1073.8 -35.1405 1096.08C39.6223 1130.07 133.054 1108.08 177.813 1045.94C197.045 1019.12 207.133 986.663 216.714 955.532C223.072 934.852 229.685 913.506 238.941 893.551C273.057 820.363 340.623 770.984 406.014 723.315C424.299 709.978 443.281 696.146 461.07 682.112C526.721 630.098 572.528 576.86 601.104 519.206C635.672 449.491 642.634 373.94 620.038 311.995C618.492 307.723 616.794 303.52 614.942 299.386C586.962 236.91 526.478 193.771 463.446 192.953C455.867 192.854 447.966 193.267 440.287 193.765C423.429 194.696 406.266 195.765 390.038 190.715C366.838 183.64 346.343 164.139 332.242 135.525C324.429 119.721 318.844 102.735 313.532 86.3622C310.611 77.3757 307.551 68.083 304.186 58.9274C273.303 -23.5737 206.253 -92.4518 124.988 -125.365C93.8358 -137.887 66.8461 -142.345 42.8263 -138.941C12.8317 -134.517 -13.3236 -116.185 -23.5888 -91.9167C-30.1841 -76.278 -30.6259 -58.7991 -31.036 -42.0699C-31.2171 -34.2675 -31.4827 -26.2434 -32.1916 -18.3884C-38.8083 47.2643 -87.2431 98.7378 -126.796 130.24C-150.038 148.921 -175.586 165.327 -200.216 181.32C-224.998 197.383 -250.631 214.01 -274.026 232.76C-352.536 295.864 -403.828 382.812 -414.43 471.575C-426.114 568.176 -385.222 666.05 -312.679 715.187C-301.297 722.958 -288.674 729.806 -276.647 736.553C-250.752 750.878 -223.902 765.694 -205.931 789.817C-185.977 816.73 -179.999 851.004 -174.349 884.139C-172.667 894.048 -170.917 904.111 -168.708 913.968C-163.994 935.573 -157.359 956.133 -148.856 975.121Z" fill="#009AF9" fill-opacity="0.2"/>
<path d="M600.747 313.65C602.736 318.09 604.64 322.753 606.323 327.33C628.255 389.022 621.409 463.602 587.5 531.918C559.416 588.617 514.253 640.831 449.637 691.462C432.476 704.847 414.497 718.046 397.062 730.818C333.761 777 268.369 824.669 234.022 894.468C224.898 913.078 217.975 932.908 211.305 952.073C201.038 981.673 190.418 1012.53 171.233 1038.22C125.858 1098.99 33.513 1120.12 -39.3076 1086.37C-103.738 1056.58 -153.292 989.426 -171.472 906.567C-173.544 897.016 -175.447 887.022 -177.213 877.334C-182.996 845.546 -188.952 812.548 -208.306 787.389C-225.659 764.643 -251.538 749.944 -276.615 735.805C-289.154 728.735 -302.051 721.275 -313.861 712.96C-349.802 687.692 -378.268 650.803 -395.754 606.424C-412.845 563.338 -418.725 516.15 -412.782 469.919C-401.548 382.16 -350.441 296.03 -272.49 233.728C-249.57 215.559 -224.635 199.427 -200.617 183.708C-175.291 167.218 -148.962 150.095 -125.091 130.764C-87.6813 100.222 -41.2683 50.3895 -33.1319 -13.9217C-32.4022 -20.499 -31.8255 -27.0078 -31.2488 -33.5166C-29.6191 -52.4466 -28.2589 -70.3368 -20.1329 -86.661C-8.31607 -110.337 18.2875 -126.847 49.0523 -129.963C73.1775 -132.311 99.0956 -127.372 130.59 -114.085C206.351 -82.3833 268.252 -21.3105 302.266 54.6409C304.186 58.9285 306.022 63.4377 307.789 67.7939C312.336 79.1778 316.186 91.0577 320.052 102.563C325.053 117.421 330.105 132.806 336.415 146.894C345.673 167.566 361.743 194.012 387.111 203.057C401.603 208.333 417.473 207.66 432.816 207.039C439.661 206.731 446.881 206.439 454.001 206.744C486.992 207.779 519.115 220.417 546.993 242.862C569.836 261.862 588.609 286.546 600.747 313.65ZM-149.006 964.527C-124.661 1018.89 -85.3983 1061.42 -37.8345 1083.5C33.7408 1116.53 124.333 1096 168.452 1036.53C187.246 1011.2 197.344 982.041 208.033 951.332C214.634 932.014 221.711 912.115 230.919 893.284C265.52 822.82 331.302 774.792 394.909 728.473C412.344 715.701 430.392 702.655 447.484 689.117C511.71 638.845 556.482 586.989 584.55 530.665C618.053 463.083 624.782 389.475 603.193 328.548C579.32 261.291 517.866 212.704 453.91 210.645C447.012 210.425 439.945 210.648 433.1 210.956C417.383 211.561 401.138 212.218 386.05 206.842C359.573 197.374 342.938 170.078 333.474 148.946C327.028 134.552 321.975 119.167 316.975 104.309C313.109 92.8036 309.259 80.9238 304.78 69.6929C272.572 -11.6634 208.683 -77.1769 129.307 -110.385C98.2556 -123.503 72.7123 -128.425 49.3365 -126.045C19.6272 -123.035 -5.97346 -107.158 -17.3677 -84.5902C-25.2403 -68.9311 -26.7378 -51.3473 -28.1299 -32.7075C-28.7065 -26.1986 -29.2145 -19.5366 -29.9443 -12.9592C-38.1285 52.4763 -85.1697 102.958 -122.97 133.859C-146.925 153.411 -173.254 170.534 -198.802 186.939C-222.888 202.506 -247.671 218.569 -270.438 236.67C-347.845 298.544 -398.461 383.719 -409.663 470.728C-421.828 566.258 -383.553 660.34 -311.96 710.638L-312.842 711.952L-311.96 710.638C-300.219 718.8 -287.39 726.107 -275.005 733.245C-249.638 747.622 -223.537 762.406 -205.756 785.696C-185.907 811.552 -179.813 844.856 -174.046 877.019C-172.349 886.554 -170.446 896.548 -168.373 906.099C-163.834 926.494 -157.235 946.152 -149.006 964.527Z" fill="#009AF9" fill-opacity="0.2"/>
<path d="M582.995 328.586C585.258 333.639 587.437 338.914 589.241 344.173C610.317 404.777 603.483 477.329 570.641 543.513C543.063 598.882 499.019 649.492 435.744 698.604C419.365 711.27 402.389 723.837 385.735 735.891C324.065 780.791 260.373 827.331 225.541 894.406C216.465 911.891 209.23 930.206 202.471 947.94C190.943 977.186 180.16 1004.81 161.482 1029.17C139.393 1057.81 106.108 1077.87 67.6256 1085.91C30.062 1093.54 -9.01896 1089.17 -42.2919 1073.55C-104.352 1044.54 -152.624 979.016 -171.206 898.543C-173.294 889.367 -175.076 880.054 -176.789 870.894C-182.672 839.702 -188.814 807.523 -208.352 783.182C-225.669 761.339 -250.799 746.672 -275.195 732.411C-288.161 724.798 -301.57 717.015 -313.585 708.24C-383.937 657.019 -421.02 563.139 -408.391 469.056C-396.692 382.743 -346.039 298.472 -269.43 237.689C-247.054 219.947 -222.662 204.243 -199.188 188.951C-173.096 172.118 -146.07 154.499 -121.794 134.435C-71.0492 92.2222 -38.7911 41.559 -31.2594 -8.50943C-30.6251 -12.838 -30.0595 -17.3197 -29.4252 -21.6482C-26.6604 -42.5573 -23.9433 -62.342 -13.9119 -79.3356C-1.2036 -101.021 25.4575 -115.351 55.4778 -116.846C78.8744 -117.948 103.415 -112.393 134.894 -98.731C174.115 -81.7339 210.531 -57.0467 239.98 -27.4005C271.376 4.13127 294.406 39.9614 308.436 79.0864C311.596 87.7826 314.739 96.8538 317.814 105.772C324.238 124.22 330.715 143.196 337.837 161.149C350.312 192.697 365.613 212.502 383.313 220.017C396.664 225.62 410.714 225.394 425.666 225.133C431.83 224.946 438.217 224.843 444.655 225.269C502.552 228.571 556.455 269.326 582.995 328.586ZM-149.362 953.472C-125.36 1007.07 -87.0527 1049.11 -40.8188 1070.69C27.5689 1102.75 115.406 1083.45 159.023 1026.96C177.379 1003.12 188.231 975.643 199.521 946.688C206.433 928.885 213.668 910.57 222.828 892.863C257.914 825.124 322.065 778.377 384.041 733.341C400.695 721.286 417.671 708.72 434.051 696.053C496.935 647.3 540.741 596.98 567.997 542.123C600.501 476.826 607.151 405.092 586.417 345.254C563.262 278.779 506.24 231.882 444.375 228.336C438.158 227.995 431.772 228.097 425.76 228.216C411.183 228.494 396.078 228.824 382.214 222.899C363.628 215.045 347.678 194.612 335.013 162.229C327.892 144.277 321.346 125.148 314.99 106.852C311.984 98.0877 308.84 89.0166 305.681 80.3204C278.511 4.06092 215.989 -60.0424 133.933 -95.5429C102.897 -109.036 78.9529 -114.491 55.931 -113.372C26.9663 -111.982 1.37667 -98.1322 -10.8406 -77.402C-20.4655 -61.1419 -23.098 -41.5789 -25.8469 -21.0446C-26.4812 -16.7161 -27.0469 -12.2344 -27.6812 -7.90579C-35.3132 42.7591 -67.9094 94.309 -119.197 136.949C-143.559 157.235 -170.653 174.701 -196.829 191.755C-220.303 207.047 -244.542 222.683 -266.765 240.357C-342.899 300.558 -393.146 384.096 -404.66 469.591C-417.684 562.38 -380.929 655.12 -311.6 705.697C-299.653 714.318 -286.397 722.17 -273.5 729.63C-248.882 743.975 -223.462 758.88 -205.787 781.114C-185.906 806.22 -179.558 838.859 -173.606 870.204C-171.893 879.364 -170.111 888.677 -167.939 897.631C-163.52 917.346 -157.18 936.016 -149.362 953.472Z" fill="#009AF9" fill-opacity="0.2"/>
<path d="M565.585 344.288C568.054 349.801 570.217 355.45 572.226 361.169C592.38 420.531 585.847 491.294 554.003 555.192C527.254 608.72 484.245 657.947 422.158 705.607C407.103 717.129 391.299 728.619 376.107 739.835C315.678 783.812 253.005 829.344 217.519 894.138C208.575 910.277 201.335 926.94 194.196 943.006C181.983 970.72 170.445 996.661 152.052 1019.61C130.181 1046.68 97.9137 1065.73 61.031 1073.24C24.6761 1080.7 -12.9746 1076.23 -44.9862 1060.97C-104.746 1032.58 -151.667 968.844 -170.566 890.535C-172.601 881.887 -174.467 872.795 -176.128 864.163C-182.127 833.943 -188.454 802.582 -207.871 778.922C-225.083 758.135 -249.531 743.346 -273.109 729.271C-286.434 721.267 -300.271 712.94 -312.56 703.553L-311.61 702.392L-312.56 703.553C-380.939 651.816 -416.586 559.498 -403.54 467.986C-391.462 383.342 -341.332 300.776 -265.842 241.598C-243.941 224.436 -220.314 209.075 -197.384 194.21C-170.596 176.881 -142.804 158.92 -118.037 137.9C-69.3667 96.8001 -37.6522 46.5642 -28.9278 -3.30303L-28.6425 -4.71777C-24.0715 -31.0317 -20.0344 -53.6137 -7.3163 -71.9944C6.36798 -91.9109 32.4744 -103.786 62.278 -103.713C90.8043 -103.62 118.426 -92.8265 139.35 -83.4458C214.197 -49.6805 272.13 5.81573 301.207 70.7419C304.087 77.1732 306.593 83.5886 308.945 90.0725C313.634 103.415 318.598 117.37 323.287 130.713C328.525 145.28 333.883 160.529 338.831 174.859C350.614 208.556 363.72 228.792 379.309 236.518C391.436 242.669 404.498 242.702 418.157 242.835C423.709 242.922 429.346 242.788 434.951 243.403C489.427 247.685 540.143 287.478 565.585 344.288ZM-149.804 942.639C-126.213 995.315 -88.7073 1036.8 -43.8878 1058.09C22.4206 1089.61 105.597 1072.21 149.509 1017.62C167.733 995.118 179.049 969.093 191.246 941.753C198.385 925.687 205.625 909.025 214.653 892.664C250.614 827.29 313.372 781.535 374.107 737.422C389.368 726.359 405.172 714.869 420.226 703.347C481.855 655.892 524.694 607.108 551.206 553.871C582.643 490.707 589.213 420.847 569.403 362.249C547.514 297.781 493.253 251.303 434.517 246.539C428.981 246.077 423.429 245.989 417.945 246.055C404.508 246.006 390.543 246.01 377.682 239.452C361.513 231.251 347.827 210.54 335.701 176.077C330.753 161.747 325.242 146.567 320.157 131.931C315.399 118.435 310.505 104.633 305.815 91.2904C280.514 18.7906 219.205 -43.834 137.877 -80.5799C117.327 -89.9447 89.9961 -100.501 62.0662 -100.493C33.3868 -100.518 8.35186 -89.1226 -4.99449 -70.0927C-17.3906 -52.2239 -21.3431 -29.8637 -25.7451 -3.99306L-26.0305 -2.57838C-34.8553 47.8853 -66.8232 98.7862 -116.19 140.382C-140.958 161.402 -168.902 179.432 -195.844 196.829C-218.774 211.694 -242.4 227.055 -264.064 243.927C-338.789 302.762 -388.581 384.442 -400.627 468.336C-413.403 558.808 -378.236 650.054 -311.019 700.84C-298.797 710.074 -285.029 718.248 -271.858 726.321C-247.99 740.634 -223.319 755.507 -205.902 776.753C-185.836 801.042 -179.525 832.777 -173.389 863.304C-171.728 871.936 -169.862 881.028 -167.826 889.676C-163.36 908.266 -157.21 926.102 -149.804 942.639Z" fill="#009AF9" fill-opacity="0.2"/>
<path d="M548.055 359.309C550.729 365.281 553.166 371.543 555.228 377.789C574.527 436.064 568.005 504.8 537.227 566.566C511.292 618.626 469.096 666.386 408.503 712.458C394.535 723.125 379.972 733.692 365.799 743.9C306.61 786.953 245.415 831.273 209.206 893.632C200.701 908.288 193.404 922.77 186.344 936.962C173.292 963.214 160.9 988.067 142.555 1009.89C98.1941 1062.66 16.1898 1078.98 -48.0393 1048C-105.651 1020.3 -151.221 958.349 -170.369 882.358C-172.42 874.084 -174.233 865.521 -175.979 857.11C-182.163 827.708 -188.675 797.165 -208.055 774.408C-225.077 754.455 -248.707 739.852 -271.536 725.809C-285.441 717.329 -299.705 708.458 -312.422 698.527C-378.399 646.817 -412.305 555.926 -398.912 466.832C-386.454 383.857 -336.778 303.148 -262.544 245.268C-241.187 228.533 -218.104 213.6 -195.718 199.162C-168.079 181.269 -139.591 162.812 -114.501 141.28C-67.8212 101.071 -36.6664 51.6376 -26.8178 1.81843C-21.2807 -26.0312 -14.7896 -48.0577 -1.07955 -65.0444C13.4963 -82.9702 39.5073 -92.5968 68.4977 -91.0568C95.4616 -89.5282 121.362 -78.8833 143.226 -68.6363C217.139 -34.0849 273.774 20.1544 301.564 81.7963C304.375 88.0746 306.812 94.3367 309.096 100.667C312.841 111.492 316.876 122.553 320.774 133.309C327.436 151.467 334.219 170.306 339.688 188.263C347.204 212.841 358.038 242.367 374.946 252.627C385.848 259.327 397.771 259.686 410.289 260.146C415.161 260.355 420.185 260.494 425.04 261.078C453.286 264.238 480.744 277.127 504.02 298.324C522.53 315.036 537.562 335.88 548.055 359.309ZM-150.091 931.738C-126.912 983.495 -90.2088 1024.42 -46.8037 1045.42C16.2485 1075.83 96.5849 1059.89 140.233 1007.99C158.34 986.456 170.648 961.824 183.769 935.726C190.828 921.534 198.21 906.83 206.716 892.174C243.246 829.303 304.678 784.693 364.174 741.503C378.194 731.363 392.757 720.797 406.724 710.129C467.012 664.194 508.817 616.793 534.583 565.176C564.954 504.144 571.445 436.157 552.336 378.717C531.371 315.489 481.252 270.465 424.76 264.145C419.905 263.561 415.102 263.506 410.231 263.298C397.934 262.922 385.04 262.446 373.473 255.493C355.763 244.673 344.965 216.049 336.864 189.344C331.395 171.387 324.459 152.616 317.95 134.389C314.052 123.634 309.949 112.419 306.272 101.748C282.616 32.9236 222.743 -28.1378 142.059 -65.9076C120.417 -76.07 94.7378 -86.6304 68.3704 -88.0582C40.2824 -89.6349 15.0369 -80.3509 1.24237 -63.1426C-12.1456 -46.668 -18.4679 -25.0849 -23.9891 2.39003C-33.938 52.8057 -65.415 102.751 -112.639 143.387C-137.813 165.141 -166.454 183.667 -194.093 201.559C-216.326 215.929 -239.409 230.862 -260.682 247.375C-334.219 304.759 -383.488 384.734 -395.845 467.114C-409.122 555.236 -375.543 644.987 -310.522 696.205C-298.026 706.052 -283.831 714.769 -269.926 723.249C-246.807 737.53 -222.954 752.218 -205.796 772.477C-185.766 795.863 -179.271 826.78 -173.102 856.557C-171.426 864.815 -169.612 873.378 -167.561 881.652C-163.047 899.117 -157.155 915.966 -150.091 931.738Z" fill="#009AF9" fill-opacity="0.2"/>
<path d="M530.508 374.704C533.388 381.136 536.031 387.857 538.215 394.785C556.59 451.819 550.147 518.68 520.589 578.245C495.314 628.907 454.237 675.063 394.832 719.684C382.036 729.275 368.866 738.85 356.087 748.066C298.07 790.043 238.031 833.661 200.947 893.655C193.286 906.094 186.544 918.122 179.817 929.774C165.366 955.366 151.729 979.489 132.888 1000.61C111.365 1024.77 81.067 1041.65 47.3143 1047.94C13.4771 1054.46 -21.4661 1049.88 -51.1082 1035.4C-107.221 1007.77 -150.533 949.217 -169.881 874.418C-171.948 866.52 -173.778 858.331 -175.47 850.448C-181.84 821.864 -188.315 792.224 -207.948 770.132C-224.712 751.167 -247.524 736.749 -269.535 722.891C-283.936 713.714 -298.849 704.214 -311.841 693.671C-375.553 641.682 -407.871 552.286 -394.061 465.763C-381.224 384.456 -332.071 305.452 -259.178 249.092C-238.295 232.938 -215.756 218.431 -193.982 204.268C-165.732 186.101 -136.394 167.079 -110.897 144.814C-66.2915 105.718 -35.6804 56.7116 -24.5705 7.24666C-17.8982 -22.5821 -8.38847 -43.2028 5.51634 -57.7028C20.9151 -73.7911 46.4558 -81.1851 75.2981 -77.9241C100.325 -74.9765 124.88 -64.4641 147.836 -53.4194C191.753 -32.0912 266.977 14.0062 302.158 92.5608C304.901 98.6859 307.407 105.101 309.606 111.654C313.282 122.324 317.317 133.386 321.3 143.92C328.442 163.15 335.858 182.993 340.905 202.058C348.414 230.315 356.963 258.842 371.163 269.212C380.773 276.307 391.555 276.993 402.934 277.78C407.124 278.11 411.468 278.37 415.642 279.075C463.911 286.32 507.329 322.947 530.508 374.704ZM-150.274 921.892C-127.575 972.578 -92.3752 1011.78 -49.7196 1032.76C9.92346 1062.12 87.5046 1047.41 130.872 998.574C149.407 977.588 163.113 953.617 177.479 928.248C184.137 916.442 190.88 904.414 198.54 891.975C235.793 831.537 296.138 787.782 354.462 745.668C367.241 736.452 380.411 726.877 393.207 717.286C452.153 672.871 492.992 627.005 518.099 576.787C547.403 517.887 553.883 451.928 535.628 395.575C515.845 334.576 468.708 290.055 415.362 282.142C411.256 281.591 407.066 281.261 402.875 280.932C391.496 280.145 379.965 279.426 369.706 271.703C354.857 260.705 346.102 231.718 338.387 203.002C333.34 183.936 325.993 164.247 318.851 145.017C314.8 134.33 310.765 123.268 307.088 112.597C276.713 23.4343 193.536 -28.1099 146.753 -50.9124C124.172 -61.9412 99.8385 -72.3689 75.1866 -75.3005C47.0938 -78.5294 22.6931 -71.4622 7.76954 -55.9543C-5.74463 -41.8131 -15.0854 -21.6358 -21.6573 7.59651C-32.799 57.811 -63.8007 107.176 -108.728 146.784C-134.309 169.271 -163.647 188.293 -192.051 206.528C-213.893 220.539 -236.211 235.13 -257.009 251.062C-329.358 306.995 -378.036 385.418 -390.842 465.976C-404.841 551.665 -372.782 640.074 -309.94 691.349L-310.89 692.51L-309.94 691.349C-297.17 701.808 -282.257 711.307 -267.925 720.331C-245.624 734.427 -222.743 748.998 -205.689 768.201C-185.628 790.837 -179.016 820.783 -172.663 849.742C-170.97 857.625 -169.141 865.814 -167.142 873.559C-162.681 890.497 -157.063 906.733 -150.274 921.892Z" fill="#009AF9" fill-opacity="0.2"/>
<path d="M512.84 389.419C515.995 396.463 518.759 403.866 521.216 411.405C538.737 467.351 532.458 532.117 503.745 589.466C479.214 638.507 439.02 683.349 381.108 726.381C369.791 734.759 358.167 743.274 346.866 751.276C289.63 792.536 230.678 835.299 192.566 892.996C187.107 901.324 181.885 909.361 176.901 917.108C159.204 944.889 143.846 968.864 123.321 990.741C78.8773 1038.4 4.28902 1051.59 -53.9396 1022.51C-107.683 995.657 -149.782 938.585 -169.531 866.173C-171.614 858.649 -173.391 850.988 -175.1 843.48C-181.654 815.714 -188.313 786.892 -207.757 765.634C-224.194 747.809 -246.035 733.508 -267.228 719.835C-282.278 710.03 -297.84 699.902 -311.328 688.661L-310.53 687.569L-311.328 688.661C-372.86 636.616 -403.437 548.646 -389.432 464.61C-376.215 384.97 -327.363 307.756 -255.88 252.763C-235.541 237.036 -213.546 222.957 -192.316 209.221C-163.368 190.558 -133.418 171.262 -107.584 148.11C-65.0523 110.127 -34.8477 61.8539 -22.8353 12.3525C-15.9365 -15.7394 -4.77482 -36.3645 11.4468 -50.6153C33.4435 -70.0261 64.6663 -68.0151 81.4332 -65.0452C105.578 -60.7835 129.352 -49.5536 151.696 -38.2347C232.336 2.31185 288.469 59.5333 309.809 122.777C313.485 133.448 317.521 144.509 321.572 155.196C329.209 175.123 337.037 195.885 341.661 216.058L342.558 219.701C349.149 248.37 355.429 275.524 366.768 286.072C375 293.783 384.642 294.796 394.881 295.91C398.391 296.36 402.053 296.742 405.632 297.346C451.435 306.063 490.964 340.571 512.84 389.419ZM-150.699 910.685C-128.343 960.604 -93.9454 999.248 -52.7041 1019.94C4.41634 1048.59 77.643 1035.65 121.29 989.077C141.73 967.422 156.935 943.515 174.701 915.888C179.685 908.141 184.837 899.95 190.296 891.622C228.578 833.482 287.836 790.582 345.156 749.101C356.389 740.945 368.081 732.583 379.245 724.274C436.919 681.532 476.723 637.049 501.017 588.298C529.323 531.683 535.655 467.445 518.324 412.333C499.601 352.881 456.301 309.951 405.145 299.954C401.72 299.281 398.058 298.9 394.548 298.449C384.309 297.335 373.849 296.137 364.968 287.797C353.048 276.774 346.563 249.161 339.919 219.964L339.022 216.321C334.314 196.369 326.555 175.761 319.07 155.765C315.019 145.078 310.762 133.932 307.239 123.193C286.173 60.5616 230.536 4.03718 150.629 -36.1025C128.576 -47.1838 104.955 -58.4822 81.2532 -62.5747C65.0827 -65.444 34.831 -67.3384 13.7001 -48.8668C-2.13097 -34.9748 -12.9706 -14.8616 -19.7691 12.6338C-32.1035 62.6471 -62.477 111.363 -105.483 149.927C-131.471 173.147 -161.574 192.512 -190.675 211.243C-211.905 224.979 -233.9 239.058 -254.154 254.564C-325.247 309.199 -373.471 385.764 -386.656 464.653C-400.544 547.718 -370.226 634.701 -309.496 686.186C-296.23 697.342 -280.668 707.47 -265.686 717.122C-244.425 730.948 -222.43 745.181 -205.857 763.313C-185.986 785.114 -179.036 814.174 -172.429 842.468C-170.72 849.976 -168.943 857.637 -166.929 865.007C-162.52 881.417 -157.077 896.444 -150.699 910.685Z" fill="#009AF9" fill-opacity="0.2"/>
<path d="M495.431 405.121C498.722 412.471 501.692 420.333 504.134 428.248C520.731 482.953 514.532 545.845 486.886 601.061C463.015 648.703 423.939 691.941 367.215 733.522C357.682 740.549 347.927 747.492 338.479 754.297C281.94 795.061 223.395 837.09 184.237 892.865C160.021 927.426 139.516 955.912 113.654 981.466C92.4121 1002.56 64.0145 1017.12 33.5289 1022.5C1.83468 1028.05 -29.5829 1023.55 -57.1457 1009.61C-108.588 983.378 -149.489 928.159 -169.334 857.995C-171.365 851 -173.157 843.714 -174.813 836.734C-181.795 808.424 -188.397 781.782 -207.873 761.274C-223.897 744.368 -244.784 730.558 -264.937 717.155C-280.636 706.721 -297.069 695.88 -310.968 683.72C-370.321 631.618 -399.309 545.143 -384.803 463.456C-370.985 385.57 -322.809 310.129 -252.582 256.433C-232.719 241.287 -211.182 227.414 -190.496 214.105C-160.783 195.099 -130.136 175.307 -104.048 151.49C-63.5913 114.62 -34.0149 66.9963 -20.7253 17.4744C-13.4994 -9.477 -0.464189 -30.022 17.9054 -43.5802C39.4527 -59.4806 67.8836 -57.1384 87.8747 -52.3034C109.502 -47.0981 130.532 -36.6614 155.793 -23.3403C207.647 3.80944 273.213 49.2685 303.182 116.185C305.719 121.851 307.882 127.501 309.96 133.372C313.552 144.265 317.962 155.342 322.013 166.029C330.062 186.875 338.386 208.334 342.519 229.462C343.557 235.064 344.68 240.444 345.582 245.74C350.221 270.87 354.254 292.596 362.406 302.181C369.344 310.288 377.693 311.697 386.86 313.29C389.689 313.862 392.671 314.365 395.721 315.021C438.517 325.637 474.857 359.183 495.431 405.121ZM-151.277 899.546C-129.264 948.7 -95.753 987.005 -55.773 1007.34C-1.24378 1035.13 67.7128 1023.73 111.929 979.665C137.637 954.18 157.261 927.008 182.121 891.423C221.516 835.358 280.146 793.106 336.991 752.206C346.439 745.401 356.194 738.458 365.727 731.431C422.061 690.208 460.83 647.108 484.532 599.909C511.772 545.426 518.024 483.062 501.548 429.038C484.281 372.427 443.672 329.763 395.679 317.798C392.781 317.073 389.799 316.57 387.039 316.151C377.872 314.558 368.552 313.033 361.049 304.076C352.469 293.946 348.299 271.915 343.608 246.256C342.706 240.96 341.583 235.58 340.545 229.979C336.396 209.225 328.225 187.698 320.023 166.921C315.903 156.08 311.493 145.003 307.902 134.11C282.505 58.5274 210.776 7.92342 154.948 -21.1235C129.022 -34.6983 108.947 -44.6436 87.5416 -49.7644C67.9938 -54.4302 40.4655 -56.8089 19.768 -41.4729C1.94209 -28.3421 -10.7711 -8.30904 -17.828 18.1991C-31.2866 68.1642 -61.185 116.3 -102.032 153.529C-128.358 177.636 -159.074 197.275 -188.871 216.502C-209.557 229.811 -230.94 243.616 -250.804 258.762C-320.487 312.031 -368.41 386.806 -381.975 464.027C-396.142 544.827 -367.565 630.384 -308.861 681.858C-295.184 693.933 -278.973 704.689 -263.274 715.123C-242.899 728.611 -222.013 742.42 -205.698 759.565C-185.795 780.617 -178.66 808.858 -171.937 836.181C-170.281 843.161 -168.335 850.378 -166.458 857.443C-162.276 872.115 -157.244 886.223 -151.277 899.546Z" fill="#009AF9" fill-opacity="0.2"/>
<path d="M476.149 415.411C480.332 424.752 483.972 434.52 486.983 444.937C502.879 498.485 496.606 559.572 470.111 612.434C447.053 658.609 408.859 700.533 353.56 740.373C346.355 745.622 338.997 750.94 331.723 756.036C275.115 796.646 216.655 838.454 176.147 892.444C153.314 922.708 132.588 945.778 104.378 971.832C59.3709 1013.31 -8.10766 1023.5 -59.824 996.652C-108.965 971.045 -148.737 917.527 -168.609 849.766C-170.503 843.076 -172.396 836.386 -174.067 829.781C-181.234 802.29 -188.089 776.313 -207.529 756.708C-223.005 741.026 -242.783 727.639 -261.981 714.728C-278.619 703.427 -295.769 691.805 -310.08 678.727C-338.342 652.961 -359.799 619.001 -372.21 580.621C-384.551 542.394 -387.16 501.279 -379.868 462.165C-365.671 385.947 -318.017 312.211 -248.978 259.967C-229.505 245.179 -208.513 231.733 -188.217 218.783C-157.96 199.35 -126.548 179.215 -100.054 154.665C-61.6712 118.907 -32.5014 72.0172 -18.1562 22.3903C-10.4344 -3.86406 4.32145 -24.2605 24.6699 -36.6826C46.8712 -50.3022 74.9849 -45.7957 94.8438 -39.6146C114.634 -33.5866 133.416 -23.246 155.437 -11.4152L160.572 -8.56723C241.085 34.9778 291.614 86.2523 310.86 143.999C314.452 154.892 318.93 166.123 323.203 176.894C331.748 198.437 340.552 220.967 344.126 242.898C349.518 275.046 355.19 304.126 359.22 318.867C361.287 326.765 367.762 328.094 375.362 329.47C379.23 330.311 383.252 331.084 386.782 332.812C422.153 337.929 455.438 369.166 476.149 415.411ZM-151.771 888.185C-130.032 936.726 -97.3231 974.472 -58.5358 994.605C-7.77461 1020.96 58.4953 1010.95 102.721 970.184C130.778 944.199 151.572 921.282 174.252 891.086C214.998 836.806 273.696 794.708 330.456 754.029C337.662 748.78 345.089 743.615 352.294 738.366C407.286 698.663 445.09 657.099 467.979 611.367C494.152 559.016 500.324 498.526 484.771 445.744C466.655 384.365 428.021 341.184 386.433 335.726L386.212 335.641L385.99 335.557C382.834 333.845 378.813 333.072 375.166 332.315C367.498 330.786 359.608 329.172 357.077 319.827C353.132 304.864 347.359 276.38 342.067 243.636C338.409 221.927 329.674 199.55 321.197 178.16C316.925 167.389 312.599 156.089 308.786 145.112C289.661 88.0462 239.56 37.3157 159.711 -5.97559L154.576 -8.82364C132.776 -20.5699 113.995 -30.9103 94.4263 -36.8538C75.2323 -42.7812 47.715 -47.1871 26.3635 -34.132C6.47424 -21.9155 -7.9595 -2.031 -15.4278 23.5583C-29.942 73.6285 -59.4338 121.031 -98.0538 157.078C-124.633 181.85 -156.045 201.985 -186.455 221.487C-206.75 234.437 -227.59 247.814 -246.91 262.533C-315.405 314.351 -362.736 387.574 -376.834 463.196C-391.861 541.255 -364.873 625.317 -308.28 677.001C-294.038 689.926 -277.041 701.617 -260.471 712.764C-241.205 725.829 -221.426 739.216 -205.66 755.135C-185.793 775.285 -178.627 802.777 -171.497 829.366C-169.825 835.971 -167.932 842.66 -166.039 849.35C-162.184 862.882 -157.257 875.934 -151.771 888.185Z" fill="#009AF9" fill-opacity="0.2"/>
<path d="M458.222 429.138C462.748 439.245 466.784 450.306 470.122 461.864C485.094 514.171 479.054 573.315 453.472 624.114C431.006 668.737 393.847 709.278 340.042 747.53C336.015 750.437 331.834 753.412 327.806 756.319C270.212 797.188 210.833 839.407 168.04 892.398C145.609 920.276 124.832 937.486 104.82 954.354C101.473 957.139 98.2795 959.857 94.9329 962.642C56.9312 994.736 -6.50118 1013.95 -62.6713 984.14C-109.443 959.31 -147.933 907.424 -168.053 841.979C-169.894 835.818 -171.65 829.434 -173.422 823.426C-180.774 796.752 -187.814 771.594 -207.285 752.738C-222.281 738.129 -240.883 725.317 -258.903 712.982C-276.412 700.968 -294.571 688.327 -309.514 674.245L-308.648 673.306L-309.514 674.245C-365.225 621.247 -390.367 539.667 -375.034 461.471C-360.456 386.921 -313.258 315.043 -245.475 264.097C-226.477 249.89 -205.943 236.649 -186.191 224.127C-155.17 204.351 -123.145 183.942 -96.4656 158.573C-60.089 124.082 -31.5473 77.8408 -15.9935 28.0402C-5.65246 -5.08614 15.383 -21.3089 31.1811 -29.1193C49.3597 -38.1798 73.12 -37.2389 101.338 -26.3447C117.518 -20.1707 133.059 -11.3204 151.091 -1.01195C155.561 1.58227 160.184 4.10792 164.875 6.78672C238.28 48.0001 283.401 90.4823 305.209 139.177C307.54 144.383 309.566 149.727 311.438 155.139C315.099 166.184 319.577 177.415 324.071 188.271C333.028 210.733 342.328 233.96 345.479 257C347.413 271.576 348.935 285.234 350.146 297.377C351.847 313.896 353.164 327.094 355.215 335.367C359.663 342.016 364.302 344.167 369.231 346.556C371.806 347.792 374.603 349.113 377.368 351.184C408.838 356.21 438.746 385.65 458.222 429.138ZM-152.486 876.739C-131.021 924.668 -99.0462 962.007 -61.6047 982.007C-6.61141 1011.24 55.9026 992.439 93.2074 960.841C96.5541 958.055 99.7478 955.338 103.094 952.553C123.175 935.838 143.73 918.544 165.924 890.956C208.801 837.743 268.486 795.387 326.012 754.365C330.04 751.458 334.221 748.483 338.248 745.576C391.747 707.461 428.737 667.364 450.966 623.03C476.225 572.744 482.234 514.35 467.314 462.57C450.053 402.28 414.4 359.602 376.217 353.538L375.842 353.522L375.552 353.284C372.855 351.367 370.212 349.977 367.636 348.74C362.639 346.199 357.335 343.794 352.545 336.38L352.476 336.227L352.407 336.073C350.288 327.647 348.902 314.295 347.217 297.402C346.006 285.259 344.637 271.533 342.55 257.025C339.383 234.36 330.152 211.286 321.263 188.977C316.922 178.053 312.444 166.822 308.63 155.845C290.091 100.907 244.021 54.2535 163.281 8.97155C158.589 6.29278 153.967 3.76702 149.497 1.17277C131.687 -9.05112 116.145 -17.9013 100.187 -23.9908C72.4808 -34.5628 49.623 -35.5401 31.9881 -26.9069C16.6493 -19.3022 -3.84249 -3.50677 -13.8455 28.733C-29.6369 78.8237 -58.5007 125.577 -94.9618 160.29C-121.794 185.727 -153.903 206.357 -185.078 226.202C-204.83 238.725 -225.211 251.896 -244.208 266.104C-311.448 316.623 -358.324 387.989 -372.801 461.941C-387.95 539.32 -363.066 619.913 -307.936 672.435C-293.214 686.432 -275.124 698.921 -257.615 710.934C-239.526 723.423 -220.924 736.234 -205.706 750.928C-185.808 770.328 -178.457 797.002 -171.295 822.841C-169.676 828.918 -167.767 835.233 -165.926 841.394C-161.939 853.581 -157.561 865.408 -152.486 876.739Z" fill="#009AF9" fill-opacity="0.2"/>
<path d="M439.832 441.419C444.907 452.75 449.406 465.259 453.039 478.706C467.088 529.773 461.128 587.043 436.766 635.64C414.959 678.865 378.919 717.802 326.303 754.603C312.299 764.367 297.477 773.947 283.267 783.252C235.639 813.958 186.464 845.724 159.949 891.977L159.865 892.198L159.712 892.267C147.206 902.096 136.881 911.868 127.727 920.563C113.717 934.007 101.439 945.573 85.4191 953.299C52.3403 991.461 -13.9186 999.441 -65.6558 971.32C-110.126 947.115 -147.419 897.082 -167.856 833.802C-169.644 828.168 -171.348 822.313 -173.136 816.679C-180.672 790.824 -187.966 766.331 -207.316 748.156C-221.542 734.856 -238.966 722.621 -255.589 710.946C-274.105 697.913 -293.356 684.473 -308.917 669.014L-308.051 668.074L-308.917 669.014C-362.448 615.959 -386.001 535.874 -370.321 460.095C-355.295 387.367 -308.619 317.194 -242.245 267.614C-223.638 253.766 -203.649 240.953 -184.203 228.567C-152.569 208.517 -120 187.681 -92.9143 161.579C-58.6966 128.422 -30.6301 82.7611 -13.7991 32.9401C-2.62405 -0.375942 20.3903 -15.4627 37.5709 -22.2378C56.5039 -29.6138 79.4352 -26.8309 107.864 -13.8249C120.825 -7.86366 133.775 0.124708 147.458 8.51997C154.334 12.7942 161.432 17.1529 169.057 21.4592C228.546 56.2198 277.861 106.016 311.605 165.359C330.112 198.067 342.57 235.322 346.268 270.25C348.791 293.939 349.504 316.048 350.165 332.298C350.443 339.894 350.531 346.657 350.921 351.63C354.382 358.537 357.727 361.083 361.516 363.798C363.479 365.309 365.442 366.82 367.611 368.79C395.745 374.574 421.796 401.146 439.832 441.419ZM157.833 890.535C184.67 843.77 233.998 811.935 281.779 781.161C296.057 772.008 310.726 762.498 324.662 752.58C376.819 715.985 412.775 677.27 434.259 634.557C458.452 586.402 464.381 529.882 450.385 479.344C434.01 419.392 401.751 378.135 366.444 371.519L366.069 371.503L365.779 371.265C363.695 369.073 361.732 367.562 359.837 366.205C355.911 363.183 352.122 360.468 348.387 352.949L348.319 352.795L348.25 352.642C347.861 347.669 347.704 340.753 347.357 333.004C346.917 316.839 346.204 294.73 343.528 271.11C339.868 237.084 327.288 199.148 309.124 167.205C275.67 108.1 226.714 58.6949 167.515 24.1719C159.821 19.7125 152.724 15.3538 145.916 11.2327C132.233 2.8374 119.283 -5.15099 106.544 -11.0277C78.7801 -23.7799 56.3766 -26.6154 38.1244 -19.3604C21.4031 -12.791 -0.914539 1.79995 -11.9047 34.2978C-28.9047 84.5622 -57.1402 130.666 -91.664 163.96C-118.681 190.215 -151.624 211.036 -183.19 231.239C-202.483 243.556 -222.541 256.216 -241.148 270.064C-307.131 319.285 -353.485 388.946 -368.41 461.078C-383.838 536.191 -360.543 615.289 -307.592 667.869C-292.321 683.091 -273.071 696.53 -254.622 709.41C-237.778 721.17 -220.354 733.405 -206.059 746.857C-186.198 765.355 -178.593 791.363 -171.246 816.385C-169.611 822.087 -167.823 827.72 -165.967 833.507C-145.804 896.175 -108.87 945.817 -64.9113 969.7C-13.9762 997.261 51.074 989.454 83.303 951.856L83.3875 951.635L83.6936 951.498C99.4758 944.062 111.601 932.565 125.611 919.121C135.003 910.135 145.328 900.363 157.833 890.535Z" fill="#009AF9" fill-opacity="0.2"/>
<path d="M325.562 202.678C337.563 229.476 345.363 257.971 347.553 284.199C350.801 322.637 347.922 356.834 347.054 368.437C349.443 375.823 351.649 378.696 354.366 381.892C355.648 383.523 356.862 385.002 358.265 387.315C390.68 394.859 420.453 436.31 436.179 495.633C449.373 545.612 443.423 600.854 420.128 647.32C398.981 689.146 363.908 726.547 312.785 761.76C299.171 771.165 284.74 780.386 270.852 789.179C225.024 818.16 177.65 848.201 151.843 891.931L151.758 892.152L151.452 892.289C139.47 900.413 129.599 908.327 120.815 915.386C105.507 927.573 92.3732 938.051 75.9739 944.108C44.3523 979.779 -18.9982 986.458 -68.4345 958.961C-126.161 926.904 -155.085 861.909 -167.232 826.169C-169.036 820.91 -170.687 815.583 -172.2 810.561C-180.143 785.439 -187.469 761.696 -206.85 744.27C-220.306 732.28 -236.264 720.859 -251.572 710.066C-271.471 695.998 -291.951 681.454 -308.061 664.77L-307.279 664.052L-308.061 664.77C-359.344 611.811 -381.156 533.152 -365.196 459.638C-349.79 388.579 -303.569 320.264 -238.383 272.135C-220.166 258.645 -200.567 246.191 -181.665 234.233C-149.487 213.756 -116.085 192.73 -88.9674 165.878C-47.9768 125.276 -24.0469 74.4815 -11.2775 38.9807C1.57631 3.25821 29.0763 -9.60911 44.4408 -14.284C64.0596 -20.1288 86.315 -15.5724 114.938 -0.0798976C125.139 5.46293 135.139 12.1988 145.941 19.4946C154.627 25.3481 163.756 31.3708 173.856 37.5101C231.609 72.4969 279.557 120.882 312.526 177.264C317.011 184.815 321.516 193.644 325.562 202.678ZM346.799 374.434C346.114 372.902 345.444 370.996 344.637 368.784L344.568 368.631L344.653 368.409C345.658 357.112 348.536 322.916 345.22 284.324C342.409 249.734 329.571 210.81 310.109 177.611C277.277 121.536 229.687 73.5412 172.225 38.7921C162.125 32.6528 152.996 26.6301 144.31 20.7766C133.576 13.6339 123.355 6.81345 113.376 1.35516C85.4174 -13.8836 63.6053 -18.2708 44.6675 -12.5471C29.762 -8.07786 3.0274 4.44671 -9.48844 39.2825C-22.3423 75.005 -46.288 126.174 -87.6693 167.135C-114.94 194.055 -148.427 215.303 -180.758 235.849C-199.66 247.807 -219.259 260.261 -237.323 273.682C-302.049 321.605 -347.949 389.408 -363.254 459.871C-379.097 532.414 -357.475 610.239 -306.619 662.654C-290.579 679.185 -270.099 693.729 -250.421 707.712C-235.044 718.658 -218.933 730.011 -205.409 742.154C-185.516 759.902 -178.053 783.952 -169.973 809.38C-168.391 814.554 -166.74 819.882 -165.004 824.987C-152.926 860.574 -124.345 924.804 -67.2834 956.607C-18.8023 983.612 43.5612 977.192 74.3329 942.086L74.5705 941.795L74.8766 941.658C91.1915 935.823 103.628 925.841 119.327 913.295C128.111 906.236 137.982 898.322 149.964 890.198C176.009 846.178 223.536 816.069 269.449 786.867C283.337 778.073 297.615 768.921 311.381 759.447C362.198 724.371 397.034 687.261 418.012 645.878C441.207 600.009 446.987 545.209 433.914 495.912C418.395 437.048 389.049 396.141 357.283 389.226L356.84 389.057L356.634 388.597C355.231 386.284 353.949 384.652 352.666 383.02C350.361 380.744 348.582 378.415 346.799 374.434Z" fill="#009AF9" fill-opacity="0.2"/>
<path d="M327.406 215.824C339.544 242.928 347.038 271.56 348.547 297.909C350.629 333.744 346.843 366.325 342.675 384.921C344.045 393.316 345.264 396.447 346.672 400.412C347.29 401.79 347.822 403.39 348.423 405.143C377.587 413.224 403.967 453.253 418.806 512.238C431.077 560.975 425.36 614.276 402.978 658.677C382.644 699.037 348.384 734.97 298.602 768.663C285.226 777.779 271.27 786.419 257.619 794.922C211.654 823.596 168.239 850.577 143.071 891.631L142.986 891.852L142.68 891.989C132.208 898.15 123.097 904.069 114.989 909.354C97.2271 920.986 83.1704 930.223 65.7951 934.511C35.4776 967.76 -24.9487 972.761 -72.0153 946.041C-126.486 915.1 -155.284 852.438 -167.41 817.976C-169.161 813.245 -170.69 808.598 -172.22 803.952C-180.348 779.648 -188.08 756.638 -207.409 739.741C-219.72 729.076 -234.226 718.843 -248.067 708.864C-269.196 693.692 -291.28 678.029 -308.144 659.66L-307.363 658.942L-308.144 659.66C-357.179 606.797 -377.403 529.633 -361.232 458.231C-345.531 389.061 -299.679 322.383 -235.75 275.552C-217.924 262.421 -198.716 250.326 -180.204 238.726C-147.414 217.975 -113.468 196.521 -86.097 169.005C-55.5004 138.021 -29.6882 95.9436 -9.83256 43.8489C0.306566 17.2473 22.1183 -1.34544 50.0813 -7.43413C76.4449 -12.9905 102.868 1.28153 120.562 12.4767C128.461 17.3955 136.245 23.2855 144.693 29.4293C154.814 36.8462 165.226 44.5007 177.289 52.1508C233.305 87.3638 280.04 134.271 312.233 187.69C318.016 196.498 323.017 206.024 327.406 215.824ZM346.845 406.953L346.571 406.341C345.832 404.281 345.3 402.681 344.614 401.15C342.915 396.947 341.85 393.748 340.495 384.978L340.511 384.603C344.748 366.16 348.449 333.801 346.367 297.966C344.338 262.658 331.242 222.747 310.618 188.597C278.562 135.484 232.339 88.8995 176.391 53.8397C164.175 46.2581 153.695 38.4505 143.796 31.1182C135.5 24.9058 127.632 19.2375 119.733 14.3187C102.329 3.36121 76.3494 -10.7417 50.8883 -5.22186C38.0046 -2.39337 6.56273 7.82722 -7.46297 44.6261C-27.5562 97.0111 -53.2312 139.395 -84.2871 170.584C-111.743 198.322 -145.842 219.844 -178.785 240.664C-197.297 252.264 -216.436 264.512 -234.178 277.422C-297.648 324.047 -343.178 390.213 -358.778 458.786C-374.917 529.439 -354.814 605.922 -306.207 658.241C-289.412 676.456 -267.549 692.035 -246.42 707.207C-232.41 716.743 -218.057 727.044 -205.524 737.794C-185.752 754.86 -177.883 778.177 -169.549 802.94C-168.02 807.586 -166.422 812.386 -164.739 816.963C-152.528 851.204 -124.005 913.253 -70.1993 943.941C-24.0192 970.322 35.436 965.205 64.9721 932.674L65.2097 932.384L65.5159 932.246C82.5851 928.095 96.6418 918.858 114.251 907.295C122.206 902.078 131.316 896.16 141.789 889.999C167.194 848.655 212.769 820.339 256.881 792.863C270.378 784.428 284.487 775.719 297.71 766.672C347.255 733.27 381.056 697.542 401.373 657.557C423.502 613.821 429.05 560.964 416.985 512.686C402.13 454.075 376.33 414.522 347.663 407.138L346.845 406.953Z" fill="#009AF9" fill-opacity="0.2"/>
<path d="M329.114 228.664C341.389 256.074 348.645 284.996 349.626 311.397C350.738 341.784 345.249 368.51 341.271 387.94C340.23 393.002 339.289 397.468 338.603 401.268C337.181 409.994 337.634 413.468 338.414 418.082C338.725 419.598 338.883 421.181 339.094 423.293C365.074 432.064 387.993 470.518 401.945 529.165C413.361 576.814 407.655 628.087 386.424 670.135C366.751 709.096 333.678 743.578 285.169 775.598C272.115 784.202 258.396 792.552 245.29 800.628C201.278 827.508 159.509 852.832 135.287 891.072L135.202 891.294L134.896 891.431C126.92 895.371 119.694 899.342 113.249 902.596C91.5869 914.136 75.8414 922.475 56.8251 924.74C27.7433 955.413 -29.8433 958.959 -74.2342 932.879C-125.517 902.9 -153.967 842.657 -166.447 809.456C-167.924 805.337 -169.401 801.219 -170.878 797.1C-179.259 773.462 -187.245 751.117 -206.758 735.037C-217.856 725.851 -230.024 717.145 -242.773 707.964C-265.575 691.519 -289.332 674.582 -307.172 654.444C-353.89 601.831 -372.594 526.008 -355.991 456.802C-339.842 389.455 -294.666 324.549 -231.84 278.948C-214.405 266.176 -195.587 254.44 -177.534 243.046C-144.132 222.02 -109.574 200.292 -82.0179 171.957C-53.3584 142.393 -28.8186 101.988 -7.17873 48.5431C8.57848 9.86571 42.9545 1.27259 56.999 -0.605129C83.6578 -4.27138 108.756 11.1455 127.615 24.9439C133.879 29.4923 139.974 34.484 146.427 39.8666C156.654 48.3394 168.416 57.779 181.999 66.7708C236.569 102.448 281.869 147.791 312.997 198.011C319.106 207.96 324.45 218.251 329.114 228.664ZM337.004 424.781L336.882 424.1C336.603 421.835 336.377 420.098 336.15 418.361C335.523 413.678 334.78 409.966 336.439 400.951C337.126 397.15 338.066 392.684 339.038 387.469C343.085 368.192 348.49 341.688 347.446 311.454C346.13 275.276 332.997 234.462 311.144 199.208C280.153 149.295 235.075 104.036 180.795 68.5966C167.059 59.6734 155.382 50.0122 145.002 41.6081C138.548 36.2255 132.301 31.3022 126.19 26.6852C107.62 13.1246 83.0346 -1.96999 57.0566 1.57521C43.3868 3.46887 9.84472 11.8724 -5.49002 49.4413C-27.2144 103.108 -51.8387 143.735 -80.8043 173.436C-108.445 201.993 -143.156 223.789 -176.712 244.883C-194.764 256.277 -213.582 268.014 -231.017 280.786C-293.231 326.113 -338.238 390.574 -354.217 457.479C-370.72 526.088 -352.053 601.008 -305.915 653.146L-306.697 653.864L-305.915 653.146C-288.144 673.131 -264.609 689.983 -241.807 706.428C-229.058 715.61 -216.889 724.316 -205.724 733.655C-185.851 750.125 -177.797 772.623 -169.21 796.721C-167.733 800.839 -166.256 804.958 -164.779 809.076C-152.436 841.971 -124.192 901.755 -73.5742 931.48C-29.7637 957.085 26.6987 953.491 55.0838 923.314L55.3214 923.024L55.6961 923.04C74.4062 920.911 90.1516 912.573 111.814 901.033C118.19 897.626 125.332 893.876 133.308 889.936C157.921 851.337 199.621 825.86 243.854 799.064C256.961 790.988 270.748 782.792 283.733 774.035C331.784 742.22 364.772 707.96 384.276 669.443C405.338 627.838 410.875 577.008 399.665 529.818C385.628 471.393 363.069 433.33 337.584 425.256L337.004 424.781Z" fill="#009AF9" fill-opacity="0.2"/>
<path d="M330.974 241.435C343.386 269.151 350.405 298.364 350.774 325.039C351.309 361.935 341.528 394.259 335.676 413.609L334.377 417.684C330.87 429.55 330.352 432.907 329.474 441.205C351.981 450.429 371.728 487.545 384.947 545.785C395.44 592.194 390.035 641.677 369.649 681.509C350.567 718.917 318.529 752.017 271.513 782.449C258.85 790.694 245.453 798.532 232.585 806.317C190.304 831.319 150.557 855.003 127.043 890.72L126.805 891.01L126.499 891.147C122.757 892.639 119.389 894.147 115.953 895.502C87.5137 907.504 68.7019 915.561 47.0895 915.312C19.2432 943.41 -35.2819 945.584 -77.3719 920.128C-122.908 892.723 -150.721 840.467 -166.182 801.431C-167.606 797.841 -168.962 794.403 -170.233 790.744C-179.02 767.839 -187.328 746.006 -206.721 730.608C-216.383 722.985 -226.435 715.722 -237.221 708.051C-262.139 690.164 -287.706 671.648 -306.59 649.588L-305.809 648.87L-306.59 649.588C-351.06 597.07 -368.329 522.811 -351.293 455.802C-334.696 390.275 -289.975 327.228 -228.627 282.84C-211.429 270.359 -193.155 259.049 -175.34 247.946C-141.326 226.646 -106.155 204.644 -78.5672 175.559C-44.0691 139.336 -21.169 91.5765 -5.08478 54.0396C12.4199 13.109 51.6929 7.65409 63.2884 6.87322C90.7701 5.04453 115.551 22.6256 134.041 38.0603C138.974 42.1012 143.808 46.7387 149.016 51.3922C159.57 61.0053 171.49 72.0287 186.234 81.9714C239.51 118.043 283.512 162.13 313.353 209.065C319.974 219.336 325.967 230.257 330.974 241.435ZM327.315 442.54L327.532 440.972C328.494 432.452 328.943 428.942 332.603 417.008L333.903 412.933C340.024 392.543 349.367 361.702 348.9 324.959C348.296 287.91 334.905 246.109 311.891 209.904C282.118 163.122 238.322 119.495 185.267 83.507C170.455 73.4113 158.382 62.4566 147.76 52.6902C142.552 48.0367 137.718 43.3993 132.784 39.3583C114.585 24.1613 90.3158 6.9025 63.5149 8.61019C52.2256 9.2539 13.9236 14.8254 -3.15856 54.6476C-19.3273 92.4062 -42.3118 140.387 -76.8943 176.833C-104.635 205.986 -139.959 228.056 -174.127 249.424C-191.788 260.46 -210.147 271.991 -227.26 284.251C-288.37 328.348 -332.77 390.883 -349.129 456.12C-366.149 522.754 -349.223 596.248 -305.181 648.221C-286.518 670.197 -260.951 688.713 -236.102 706.447C-225.316 714.117 -215.195 721.534 -205.533 729.157C-185.629 744.877 -177.252 766.864 -168.327 790.075C-166.972 793.512 -165.7 797.171 -164.276 800.762C-148.953 839.492 -121.277 891.441 -76.2527 918.524C-34.7431 943.504 18.8795 941.366 45.9605 913.612L46.198 913.322L46.5727 913.338C68.0321 913.655 86.6907 905.666 115.13 893.665C118.344 892.225 121.781 890.87 125.301 889.294C149.054 853.286 189.022 829.687 231.234 804.532C244.171 796.9 257.499 788.909 270.163 780.664C316.872 750.369 348.741 717.713 367.67 680.373C387.665 640.9 393.123 591.945 382.683 546.064C369.464 487.824 349.923 451.167 327.758 442.709L327.315 442.54Z" fill="#009AF9" fill-opacity="0.2"/>
<path d="M332.612 254.121C345.162 282.144 351.943 311.647 351.921 338.681C351.649 378.696 339.487 412.271 330.373 434.185C328.546 438.312 327.21 441.484 325.958 444.435C323.556 449.739 321.966 453.576 319.991 459.424C344.023 471.642 359.297 522.159 367.864 562.628C377.434 607.795 372.109 655.405 352.942 693.035C334.842 728.533 302.752 761.105 257.774 789.521C245.28 797.323 232.342 804.955 219.642 812.298C179.384 835.659 141.368 857.463 118.714 890.589L118.477 890.879L118.171 891.016C83.8889 902.693 61.5994 909.55 37.4227 906.038C10.4213 931.918 -40.1399 932.685 -80.3722 907.684C-122.568 881.173 -150.017 830.96 -165.694 793.492C-166.997 790.583 -168.079 787.758 -169.229 784.78C-178.338 762.387 -186.9 741.218 -206.546 726.485C-214.26 720.748 -222.128 715.08 -230.577 708.936C-257.832 689.522 -285.958 669.395 -306.009 644.731L-305.159 644.167L-306.009 644.731C-348.314 592.532 -363.842 519.699 -346.511 454.58C-329.535 390.722 -285.267 329.532 -225.176 286.443C-208.3 274.473 -190.401 263.148 -172.977 252.403C-138.35 230.828 -102.567 208.553 -74.8786 178.871C-42.777 144.272 -20.8064 98.9518 -2.97472 59.1615C12.0319 25.784 44.3714 13.8746 69.5939 13.9769C97.8985 13.9857 122.362 33.7311 140.482 50.8021C144.529 54.5047 148.408 58.6508 152.729 62.966C163.235 73.7036 175.107 85.8514 190.484 96.7972C243.407 134.131 284.897 175.482 313.878 219.677C321.064 230.798 327.332 242.331 332.612 254.121ZM317.626 460.299L317.811 459.481C319.734 453.105 321.561 448.978 324.048 443.452C325.368 440.655 326.704 437.483 328.531 433.355C337.56 411.663 349.638 378.31 349.895 338.669C350.156 300.681 336.438 257.74 312.179 220.806C283.266 176.764 242.066 135.651 189.365 98.4016C173.766 87.3711 161.825 75.0701 151.32 64.3325C147.151 59.9488 143.189 56.0245 139.226 52.1002C121.396 35.2668 97.4442 15.8437 69.6673 15.7824C45.0413 15.7807 13.4671 27.3473 -1.20154 59.8382C-19.2708 99.9186 -41.1728 145.392 -73.5805 180.128C-101.506 210.1 -137.442 232.444 -172.069 254.018C-189.493 264.763 -207.461 275.936 -224.115 287.99C-283.969 330.789 -327.999 391.688 -344.807 455.103C-361.884 519.557 -346.478 591.709 -304.599 643.365C-284.771 667.944 -256.713 687.918 -229.526 707.179C-221.146 713.169 -213.057 718.922 -205.342 724.659C-185.337 739.783 -176.486 761.189 -167.46 783.804C-166.31 786.782 -165.076 789.538 -163.926 792.516C-148.386 829.678 -121.074 879.584 -79.2371 905.705C-39.5166 930.383 10.2952 929.585 36.5312 904.047L36.9218 903.688L37.3651 903.857C61.2357 907.506 83.3036 900.565 117.279 889.026C140.239 855.763 178.339 833.736 218.666 810.529C231.213 803.255 244.219 795.776 256.645 787.821C301.317 759.542 333.17 727.26 351.032 692.052C369.961 654.712 375.339 607.631 365.753 562.838C353.352 504.783 336.915 469.31 318.138 460.622L317.626 460.299Z" fill="#009AF9" fill-opacity="0.2"/>
<path d="M334.336 266.586C347.022 294.915 353.634 324.861 353 352.17C351.983 393.805 337.747 428.492 326.231 450.379C323.047 456.401 320.318 460.565 317.826 464.438C315.096 468.602 312.689 472.254 310.371 477.337C326.017 487.243 339.162 520.698 350.866 579.249C359.855 623.941 354.589 668.399 336.167 704.409C318.727 738.508 287.756 769.476 244.119 796.372C231.862 803.883 219.094 811.073 206.784 818.056C168.632 839.555 132.485 859.787 110.624 890.168L110.386 890.458L110.08 890.595C75.3818 899.7 51.8738 903.426 27.9934 896.472C2.38058 919.709 -45.3409 919.02 -83.2036 894.796C-114.122 875 -141.273 838.994 -164.11 788.003C-164.453 787.237 -164.864 786.318 -165.207 785.552C-166.167 783.409 -167.196 781.112 -168.156 778.968C-177.588 757.087 -186.693 736.346 -206.439 722.209C-211.611 718.459 -217.157 714.692 -222.618 710.703C-252.808 689.662 -283.937 667.754 -305.358 640.028C-345.997 587.449 -359.556 517.78 -341.745 453.732C-324.474 391.764 -280.729 332.28 -221.741 290.42C-205.256 278.808 -187.594 267.773 -170.629 257.234C-135.39 235.386 -98.9949 212.836 -71.2747 182.405C-40.8728 148.935 -20.0214 105.218 -1.70966 66.5L-0.796175 64.4363C15.604 30.067 50.809 19.632 75.9678 21.2335C105.47 23.0958 129.395 44.921 146.839 63.7654C150.137 67.436 153.503 71.2598 156.938 75.2366C167.175 87.0141 178.624 100.27 194.497 111.913C247.135 150.662 286.182 189.43 314.013 230.647C322.086 242.106 328.781 254.183 334.336 266.586ZM307.938 478.059L308.344 477.325C310.831 471.799 313.323 467.926 316.29 463.472C318.629 459.666 321.512 455.434 324.543 449.481C336.127 427.747 350.126 393.35 351.127 352.089C352.185 313.009 338.209 269.08 312.773 231.57C285.232 190.59 246.253 151.976 193.684 113.38C177.743 101.584 166.071 88.2436 155.766 76.313C152.331 72.3361 148.965 68.5123 145.667 64.8417C128.36 46.3035 104.879 24.6476 75.9728 22.8859C51.4103 21.3849 16.8176 31.5458 0.90842 64.9598L-0.00505931 67.0235C-18.4698 105.81 -39.2526 149.68 -69.8922 183.44C-97.8499 214.161 -134.398 236.78 -169.637 258.628C-186.602 269.167 -204.18 279.981 -220.596 291.745C-279.193 333.247 -322.7 392.441 -339.956 454.034C-357.666 517.485 -344.228 586.473 -303.949 638.661C-282.596 666.234 -251.536 687.989 -221.568 708.946C-216.022 712.713 -210.628 716.548 -205.389 720.452C-185.13 734.911 -176.11 755.873 -166.388 777.992C-165.428 780.136 -164.468 782.28 -163.439 784.577C-140.497 836.624 -113.14 873.09 -81.9313 893.124C-44.5804 917.025 2.39159 917.682 27.3921 894.719L27.7827 894.361L28.226 894.53C51.7317 901.468 74.9336 897.879 109.479 888.842C131.647 858.324 167.793 838.092 206.099 816.525C218.408 809.541 231.245 802.505 243.28 794.909C286.679 768.303 317.413 737.626 334.7 703.595C352.884 667.875 357.982 623.861 349.199 579.628C337.51 520.702 324.128 487.538 308.824 478.397L307.938 478.059Z" fill="#009AF9" fill-opacity="0.2"/>
<path d="M335.906 279.119C348.798 307.907 355.104 337.991 353.995 365.88C351.905 413.327 333.024 449.543 321.852 466.863C317.666 473.518 313.796 478.009 310.148 482.584C306.822 486.647 303.581 490.489 300.513 495.539C315.674 508.053 325.476 551.278 333.699 596.313C341.765 639.763 336.578 682.347 319.376 716.157C302.512 749.079 272.659 778.443 230.295 803.666C218.276 810.887 205.829 817.564 193.689 824.104C157.49 843.809 123.296 862.248 102.227 889.884L101.989 890.174L101.683 890.311C63.0798 897.672 40.4436 896.779 18.411 886.976C-5.96621 907.637 -50.8479 905.492 -86.188 881.977C-115.249 862.636 -141.049 828.415 -165.01 777.375L-166.862 773.241C-176.837 751.787 -186.264 731.558 -206.401 717.78L-212.749 713.453C-245.156 691.566 -281.709 666.572 -304.998 635.087C-343.473 582.826 -355.444 514.651 -337.27 452.647C-319.365 391.682 -277.109 335.438 -218.596 294.159C-202.349 282.838 -185.231 272.23 -168.503 261.981C-132.805 239.927 -95.7289 217.256 -67.8924 185.854C-41.3282 156.124 -23.1647 119.127 -5.5766 83.3067C-3.27448 78.5989 -1.05685 74.1128 1.16078 69.6266C18.7329 34.181 55.9009 25.2567 82.1201 28.4055C112.973 32.0528 136.275 56.1793 153.196 76.7286C156.051 80.2301 158.974 83.8847 161.812 87.761C171.558 100.494 182.738 114.79 198.732 127.114C231.966 152.491 280.059 192.172 314.301 241.548C322.954 253.483 330.076 266.104 335.906 279.119ZM298.249 495.818L298.656 495.084C301.892 489.59 305.218 485.527 308.85 481.327C312.414 476.973 316.215 472.33 320.47 465.828C331.488 448.576 350.201 412.804 352.274 365.731C353.977 325.627 339.895 280.642 313.214 242.403C279.04 193.179 231.016 153.652 198.004 128.359C181.788 115.951 170.692 101.433 160.793 88.7688C157.802 84.961 155.032 81.2378 152.177 77.7364C135.546 57.4247 112.45 33.7577 82.3468 30.1424C56.5708 27.1627 20.3898 35.8288 3.15564 70.3878C0.93801 74.8739 -1.43272 79.4285 -3.5818 84.0678C-21.1698 119.888 -39.4864 156.954 -66.1351 186.905C-94.1246 218.376 -131.285 241.269 -167.205 263.238C-183.933 273.487 -201.051 284.095 -217.145 295.347C-275.421 336.337 -317.285 392.221 -335.174 452.811C-353.248 514.219 -341.33 581.866 -303.214 633.736L-303.911 634.232L-303.214 633.736C-280.215 664.984 -243.73 689.824 -211.546 711.627L-205.198 715.954C-184.617 729.901 -175.053 750.436 -165.009 772.043L-163.157 776.178C-139.487 826.98 -113.823 860.895 -84.9843 880.151C-50.156 903.344 -5.87072 905.388 17.8942 885.001L18.2849 884.642L18.7282 884.811C40.5391 894.531 62.8691 895.561 101.166 888.337C122.389 860.632 156.667 841.972 193.019 822.198C205.159 815.658 217.537 808.828 229.625 801.76C271.53 776.742 301.298 747.6 317.925 714.968C335.043 681.381 340.06 639.24 332.201 596.248C323.908 551.061 314.038 507.683 298.983 496.225L298.249 495.818Z" fill="#009AF9" fill-opacity="0.2"/>
<path d="M337.56 291.431C350.59 320.526 356.727 351.052 355.074 379.368C351.722 431.793 327.906 469.3 317.711 483.058C312.606 490.124 307.665 495.094 302.962 499.774C298.649 504.096 294.726 508.059 290.825 513.299C302.069 526.096 308.848 566.262 316.786 612.712C323.928 654.922 318.821 695.631 302.685 727.308C286.481 758.832 257.595 786.66 216.724 810.295C204.874 817.073 192.665 823.46 180.762 829.71C146.67 847.552 114.345 864.418 94.2205 889.241L93.983 889.532L93.6083 889.516C55.7973 894.132 31.2459 890.604 8.99775 877.036C-14.0594 894.899 -56.0328 891.452 -89.0034 868.715C-123.647 844.704 -147.615 802.676 -164.422 768.839L-165.039 767.461C-175.627 746.281 -185.514 726.258 -206.194 712.908C-243.102 689.176 -281.038 663.147 -304.316 629.634L-303.62 629.138L-304.316 629.634C-340.558 577.844 -351.01 511.011 -332.318 450.981C-313.965 391.838 -272.386 337.368 -214.976 297.317C-199.119 286.355 -182.307 275.885 -165.818 265.926C-129.438 243.751 -91.8186 220.652 -63.8818 188.654C-40.3582 161.573 -23.7155 128.566 -7.64833 96.7358C-3.78859 88.9404 -0.0978427 81.5884 3.81458 74.3211C21.6291 40.2376 59.5257 30.0678 89.0379 35.2348C121.685 40.8363 145.355 68.6584 160.25 89.1962C162.73 92.6816 165.278 96.3201 167.895 100.112C177.081 113.647 187.548 128.813 203.595 141.665C243.678 173.719 284.895 209.125 315.439 251.885C323.976 264.791 331.525 277.956 337.56 291.431ZM288.782 513.662L289.258 513.082C293.397 507.551 297.556 503.298 301.954 498.755C306.657 494.075 311.445 489.173 316.619 482.26C326.729 468.724 350.46 431.439 353.644 379.458C356.144 338.261 341.803 292.289 314.03 253.252C283.708 210.576 242.49 175.17 202.476 143.27C186.207 130.333 175.603 114.86 166.417 101.325C163.8 97.5336 161.252 93.8951 158.84 90.5628C144.083 70.3312 120.703 42.7469 88.7207 37.3991C59.6519 32.4012 22.7423 42.3129 5.1812 75.7313C1.26882 82.9987 -2.42197 90.3506 -6.28171 98.1459C-22.4334 130.198 -39.076 163.205 -62.7527 190.354C-90.7741 222.574 -128.615 245.588 -164.926 267.917C-181.194 277.96 -198.075 288.277 -213.932 299.239C-271.172 338.846 -312.667 393.095 -330.851 451.795C-349.373 511.381 -338.975 577.686 -303.092 629.086C-279.951 662.292 -242.083 688.168 -205.397 711.815C-184.426 725.403 -174.318 745.511 -163.746 767.066L-163.129 768.444C-146.39 802.128 -122.712 843.918 -88.1376 867.776C-55.6103 890.344 -14.2333 893.69 8.29605 875.879L8.68669 875.521L9.19857 875.843C31.2251 889.326 55.4703 892.991 92.9066 888.359C113.268 863.246 145.593 846.379 179.839 828.469C191.742 822.219 203.951 815.832 215.801 809.054C256.366 785.556 285.167 757.95 301.134 726.716C317.254 695.414 322.123 654.995 315.118 613.091C307.196 566.267 300.433 525.725 289.141 514.053L288.782 513.662Z" fill="#009AF9" fill-opacity="0.2"/>
<path d="M339.215 303.743C352.382 333.143 358.349 364.114 356.069 393.079C351.771 448.317 324.873 485.917 313.486 499.473C307.393 506.798 301.465 512.027 295.69 517.187C290.544 521.698 285.703 526.072 280.968 531.501C286.993 541.672 290.539 566.005 295.187 599.772C296.51 609.291 297.969 619.116 299.55 629.623C303.877 658.57 305.145 701.205 285.673 738.972C270.128 769.097 242.277 795.542 202.832 817.436C191.219 823.924 179.026 829.936 167.361 835.896C135.374 851.875 105.071 867.101 85.8078 889.332L85.5702 889.622L85.1955 889.606C47.3429 891.668 21.6415 885.161 -0.753623 867.983C-22.5752 883.271 -61.7088 878.368 -92.1568 856.339C-122.826 834.226 -144.922 797.609 -164.241 761.037C-174.534 741.747 -185.101 721.845 -206.394 708.769C-239.323 688.586 -280.346 660.998 -304.125 625.136C-338.135 573.817 -346.998 508.479 -328.08 450.186C-309.432 392.933 -268.222 340.099 -212.222 301.415C-196.671 290.59 -180.182 280.632 -164.151 270.878C-127.159 248.429 -89.0119 225.278 -61.1118 192.377C-40.1695 167.739 -24.8628 137.904 -10.0471 109.024C-4.88321 98.8064 0.0272136 89.2537 5.22782 79.9388C24.3514 45.0851 64.8919 36.305 94.6466 42.8341C120.754 48.6066 143.376 67.5224 165.994 102.434C168.253 105.835 170.426 109.457 172.737 113.386C181.294 127.57 191.118 143.76 207.218 157.14C243.617 187.534 284.951 221.969 315.183 263.214C324.997 276.1 332.906 289.655 339.215 303.743ZM279.094 531.421L279.485 531.063C284.389 525.189 289.383 520.747 294.836 516.099C300.457 511.007 306.386 505.779 312.546 498.607C323.78 485.119 350.441 447.81 354.791 393.099C358.173 350.588 343.421 303.697 314.471 264.085C284.307 222.993 243.126 188.49 206.795 158.249C190.627 144.716 180.803 128.525 172.024 114.257C169.782 110.481 167.608 106.858 165.282 103.304C142.869 68.8524 120.469 50.0213 94.9577 44.3495C65.7994 37.9209 25.9398 46.5799 7.22268 80.7C2.09062 90.1681 -2.81978 99.7208 -8.05222 109.785C-22.8679 138.665 -38.1061 168.653 -59.2859 193.581C-87.3391 226.551 -125.64 249.771 -162.716 272.442C-178.746 282.195 -195.236 292.154 -210.787 302.979C-266.634 341.594 -307.606 394.137 -326.085 450.947C-345.056 508.712 -336.177 573.676 -302.373 624.535L-303.07 625.031L-302.373 624.535C-278.731 660.091 -238.082 687.663 -205.222 707.692C-183.707 720.853 -172.85 740.993 -162.642 760.504C-143.46 796.771 -121.433 833.234 -90.9849 855.263C-60.8272 877.054 -22.1369 881.787 -0.996112 866.621L-0.605473 866.262L-0.00909535 866.362C22.0113 883.525 47.5596 890.1 85.0375 888.023C104.454 865.723 134.757 850.497 166.897 834.449C178.631 828.642 190.755 822.477 202.367 815.99C241.507 794.233 269.274 768.01 284.58 738.174C303.815 700.697 302.6 658.59 298.189 629.865C296.608 619.359 295.148 609.533 293.825 600.015C289.214 567.15 285.578 541.386 279.453 531.812L279.094 531.421Z" fill="#009AF9" fill-opacity="0.2"/>
<path d="M340.869 316.055C354.173 345.761 359.972 377.175 357.216 406.721C351.767 464.313 322.077 502.244 309.413 515.821C302.487 523.335 295.419 528.89 288.657 534.309C282.591 539.231 276.695 543.71 271.263 549.636C273.652 557.022 274.99 571.498 276.854 591.253C278.228 606.632 279.971 625.706 282.689 646.55C286.452 674.647 287.118 715.528 269.188 750.583C254.303 779.31 227.418 804.219 189.314 824.593C177.717 830.706 165.609 836.496 153.959 842.081C124.079 856.198 95.882 869.562 77.6325 889.133L77.3949 889.423L77.0202 889.407C38.8198 889.05 11.9685 879.566 -10.2675 858.639C-31.0066 871.42 -66.4824 865.247 -95.0041 843.826C-125.267 820.979 -147.557 781.876 -163.838 753.319C-175.018 733.691 -185.849 716.481 -206.303 704.868C-253.064 678.011 -284.856 650.517 -303.56 620.655C-335.268 569.96 -342.765 506.031 -323.246 449.492C-304.234 394.282 -263.547 343.153 -208.65 305.699C-193.49 295.232 -177.085 285.495 -161.513 275.948C-124.062 253.293 -85.3026 229.868 -57.302 196.37C-38.466 173.595 -24.3263 146.488 -10.9678 120.099C-4.75326 108.124 1.13918 96.661 7.39045 85.5886C27.9076 49.7432 70.3425 42.3208 101.005 50.4658C135.007 59.5047 162.979 85.0324 172.557 115.857C178.765 135.873 192.62 156.141 211.521 172.494C215.721 176.128 220.143 179.847 224.412 183.634C256.717 211.45 290.029 240.285 315.761 274.353C325.95 287.255 334.354 301.508 340.869 316.055ZM76.7936 887.67C95.1962 868.03 123.546 854.599 153.427 840.481C165.076 834.897 177.1 829.328 188.628 823.062C226.495 802.978 253.074 778.206 267.874 749.701C285.789 715.021 285.106 674.514 281.259 646.639C278.387 625.864 276.798 606.721 275.423 591.343C273.575 571.212 272.391 556.668 269.764 549.572L269.558 549.112L269.796 548.822C275.534 542.759 281.515 538.058 287.733 533.067C294.495 527.649 301.41 522.162 308.336 514.648C320.848 501.14 350.369 463.652 355.802 406.435C359.981 362.832 345.055 314.732 314.774 274.611C289.264 240.628 256.02 211.946 223.716 184.13C219.447 180.343 215.025 176.624 210.824 172.99C191.786 156.33 177.709 135.978 171.364 115.655C162.061 85.4438 134.379 60.1537 100.82 51.284C70.6009 43.3081 29.0685 50.694 8.95794 85.8058C2.63806 96.7251 -3.25434 108.188 -9.40031 120.317C-22.9804 146.621 -36.983 174.034 -55.9721 196.877C-84.0572 230.597 -122.97 254.091 -160.574 276.814C-176.214 286.208 -192.551 296.099 -207.711 306.565C-262.302 343.882 -302.751 394.721 -321.678 449.709C-341.028 505.805 -333.737 569.274 -302.166 619.663L-302.71 620.09L-302.166 619.663C-283.6 649.219 -252.029 676.628 -205.49 703.4C-184.899 715.32 -173.846 732.615 -162.598 752.396C-146.385 780.8 -124.164 819.75 -94.3441 842.428C-66.5559 863.442 -30.7054 869.631 -10.8688 856.886L-10.4095 856.681L-10.0507 857.071C12.3383 877.93 38.9679 887.329 76.7936 887.67Z" fill="#009AF9" fill-opacity="0.2"/>
<path d="M342.181 327.601C355.759 357.92 361.663 390.389 358.295 420.209C353.652 462.366 334.274 503.216 305.271 532.015C297.358 539.787 289.372 545.754 281.554 551.277C274.502 556.458 267.84 561.28 261.421 567.463C261.758 571.909 261.778 578.518 261.871 586.933C262.01 604.887 261.988 631.921 265.691 663.17C270.237 702.866 265.823 736.096 252.412 761.957C238.103 789.506 212.338 812.811 175.658 831.444C163.993 837.404 152.054 842.751 140.42 847.961C112.868 860.3 86.8458 871.954 69.5416 888.712L69.3041 889.002L68.9294 888.986C30.2281 886.28 1.93668 873.58 -19.5438 849.006C-38.9629 858.989 -71.6835 851.582 -97.6826 830.87C-123.033 810.786 -142.406 779.018 -159.537 751.025L-163.114 745.089C-175.401 725.038 -186.872 710.505 -205.806 700.233C-237.074 683.35 -279.189 654.965 -302.519 615.592C-332.08 565.59 -337.903 502.935 -318.089 448.285C-298.782 394.965 -258.55 345.694 -204.825 309.316C-189.902 299.141 -173.956 289.609 -158.622 280.352C-120.49 257.576 -81.1184 233.876 -53.3076 199.544C-36.2717 178.495 -23.3516 153.589 -10.838 129.417C-3.879 115.821 2.82655 102.891 10.1811 90.5891C31.1943 55.4408 75.1598 47.3328 107.991 57.4481C142.373 68.1553 170.403 95.8633 179.611 128.324C185.739 150.214 198.744 171.046 216.452 187.199C223.966 194.129 231.855 201.075 239.675 207.867C266.74 231.779 294.897 256.489 316.815 284.912C326.766 298.104 335.46 312.594 342.181 327.601ZM68.6183 887.471C86.0755 870.644 112.097 858.99 139.65 846.651C151.283 841.441 163.223 836.094 174.888 830.134C211.261 811.639 236.943 788.555 251.014 761.296C264.187 735.725 268.739 702.802 264.108 663.328C260.558 632.01 260.358 604.892 260.372 586.869C260.363 578.232 260.275 571.47 260.007 567.178L260.023 566.803L260.26 566.513C266.833 560.26 273.579 555.217 280.784 549.968C288.533 544.291 296.435 538.546 304.195 530.843C333.113 502.265 352.253 461.705 356.881 419.923C361.841 375.603 346.261 325.222 315.147 285.291C293.076 256.937 265.141 232.312 238.076 208.4C230.409 201.538 222.367 194.661 214.853 187.731C197.145 171.579 183.849 150.509 177.737 128.244C168.735 96.2426 140.995 68.7723 107.056 58.2342C74.8905 48.3727 31.6057 56.3596 10.8461 90.8428C3.49149 103.145 -3.12957 115.854 -10.0886 129.449C-22.6022 153.621 -35.4537 178.68 -52.6427 199.798C-80.7596 234.267 -120.132 257.967 -158.348 280.964C-173.682 290.222 -189.628 299.753 -204.619 309.776C-258.038 346.017 -298.033 394.997 -317.408 448.164C-337.138 502.592 -331.367 564.719 -301.944 614.416L-302.556 614.69L-301.944 614.416C-278.682 653.635 -236.857 681.783 -205.811 698.58C-186.655 708.937 -174.963 723.555 -162.538 743.912L-158.961 749.848C-141.899 777.688 -122.594 809.303 -97.4658 829.302C-71.757 849.777 -39.1895 857.252 -20.4353 847.015L-19.9761 846.809L-19.6173 847.2C2.37505 872.097 30.2917 884.78 68.6183 887.471Z" fill="#009AF9" fill-opacity="0.2"/>
<path d="M343.767 339.759C357.482 370.385 363.218 403.297 359.29 433.919C353.833 477.543 332.687 519.369 301.046 548.431C292.299 556.393 283.325 562.618 274.589 568.552C266.55 573.991 258.97 579.224 251.564 585.666C249.476 599.47 244.133 635.138 248.524 680.234C252.2 719.217 247.897 749.823 235.553 773.552C221.751 799.771 197.02 821.694 161.919 838.516C150.117 844.17 138.04 849.211 126.269 854.114C101.129 864.454 77.282 874.399 61.1448 888.428L60.8387 888.565L60.617 888.48C21.1932 883.34 -8.2322 867.287 -29.2633 839.203C-47.2938 846.542 -77.2432 837.527 -100.736 817.898C-121.684 800.255 -138.948 773.608 -154.09 750.056C-157.05 745.499 -160.009 740.941 -162.832 736.69C-172.925 721.54 -184.96 706.156 -205.837 695.65C-231.199 682.926 -277.384 654.892 -302.075 610.43C-329.556 560.967 -333.723 499.96 -313.444 446.756C-293.774 395.48 -253.979 347.692 -201.511 312.612C-186.826 302.727 -171.27 293.554 -156.174 284.587C-117.583 261.605 -77.5302 237.785 -49.6877 202.703C-34.2143 183.088 -22.2762 160.093 -10.9664 137.747C-3.75392 123.487 4.00232 108.799 12.2227 95.5578C34.6979 59.5708 80.4894 52.6673 114.075 64.467C148.921 76.6209 177.077 106.662 185.677 141.049C189.917 157.902 199.322 182.186 220.329 202.008C229.995 211.283 240.053 220.199 250.691 229.591C273.845 250.106 297.717 271.404 316.744 295.422C327.719 309.259 336.841 324.293 343.767 339.759ZM60.5962 887.203C76.8864 873.105 100.734 863.161 125.874 852.821C137.644 847.917 149.721 842.876 161.37 837.291C196.318 820.537 220.965 798.836 234.529 772.907C246.873 749.178 251.007 719.016 247.4 680.186C243.093 634.868 248.605 598.757 250.609 585.175L250.693 584.953L250.846 584.884C258.337 578.221 265.917 572.988 274.109 567.48C282.845 561.546 291.734 555.542 300.481 547.581C331.816 518.656 352.947 477.205 358.318 433.803C363.939 388.083 348.254 336.647 316.1 296.446C296.92 272.496 273.117 251.352 250.115 230.768C239.989 221.699 229.351 212.307 219.684 203.032C198.541 182.903 188.999 158.314 184.759 141.461C176.142 107.449 148.346 77.7979 113.942 65.8131C80.8004 54.1826 35.7584 61.1181 13.5366 96.44C5.31628 109.681 -2.03338 123.635 -9.49939 138.561C-20.9623 160.976 -32.9003 183.971 -48.3737 203.585C-76.3008 238.889 -116.354 262.709 -155.098 285.759C-170.194 294.726 -185.681 304.052 -200.434 313.785C-252.75 348.796 -292.307 396.294 -311.893 447.348C-332.002 500.108 -327.819 560.741 -300.475 609.897L-301.088 610.172L-300.475 609.897C-275.922 654.053 -230.027 681.849 -204.665 694.574C-184.095 705.216 -171.769 720.838 -161.608 736.142C-158.785 740.393 -155.825 744.95 -152.865 749.508C-137.792 772.907 -120.597 799.401 -99.7167 816.89C-76.3774 836.587 -46.7182 845.365 -29.1311 837.857L-28.6719 837.651L-28.3131 838.042C-7.65667 866.11 21.394 882.147 60.5962 887.203Z" fill="#009AF9" fill-opacity="0.2"/>
<path d="M345.506 351.849C359.359 382.781 364.772 416.205 360.59 447.492C354.321 492.583 331.185 535.301 297.126 564.709C287.614 573.014 277.585 579.344 267.862 585.537C258.835 591.234 250.268 596.725 242.097 603.51C235.475 621.551 228.801 656.711 231.748 696.939C233.716 723.082 233.867 756.658 218.999 785.009C206.095 809.54 181.633 830.423 148.332 845.52C136.24 850.936 123.957 855.517 112.05 860.115C89.459 868.761 68.0243 876.706 53.1227 888.16L52.8165 888.297L52.5949 888.212C12.364 880.86 -18.3325 861.148 -38.6241 829.791C-55.4875 834.401 -82.2384 824.321 -103.498 805.163C-120.643 789.861 -134.909 768.674 -148.611 748.338C-153.349 741.451 -157.728 734.956 -162.192 728.682C-175.24 710.626 -188.2 699.333 -205.577 691.306C-248.571 671.219 -283.509 639.986 -301.424 605.726C-326.842 557.178 -329.558 497.359 -308.678 445.909C-288.713 396.522 -249.526 350.661 -198.076 316.589C-183.628 306.993 -168.379 297.958 -153.52 289.281C-114.317 266.025 -73.7365 242.152 -45.9307 206.168C-31.8667 187.92 -20.8949 166.46 -10.4141 145.956C-2.71051 130.741 5.46818 114.944 14.4698 100.986C25.4724 84.1085 42.4007 72.6665 63.4019 67.8572C82.0545 63.5481 102.938 65.042 120.67 71.808C155.981 85.4087 184.194 117.63 192.409 154.029C198.552 180.876 209.087 201.528 224.785 217.293C235.803 228.353 248.319 239.477 260.255 250.126C280.148 267.874 300.691 286.25 317.544 306.646C328.825 320.345 338.305 335.77 345.506 351.849ZM52.421 887.003C67.5443 875.634 88.9104 867.536 111.501 858.89C123.409 854.292 135.844 849.642 147.784 844.295C170.897 833.944 201.65 815.208 217.822 784.433C232.606 756.303 232.302 722.797 230.471 696.96C227.609 656.51 234.298 620.975 240.92 602.934L241.005 602.712L241.158 602.644C249.482 595.79 258.44 589.94 267.16 584.38C276.73 578.256 286.759 571.926 296.271 563.622C330.092 534.503 353.144 492.007 359.329 447.138C365.915 399.883 349.819 347.527 316.404 306.973C299.619 286.73 279.077 268.353 259.184 250.606C247.248 239.957 234.731 228.833 223.713 217.773C207.947 201.854 197.122 180.965 190.91 153.964C182.748 118.094 154.825 86.1102 119.889 72.5256C86.5732 59.6861 38.5811 65.369 15.2878 101.171C6.28619 115.129 -1.73943 130.857 -9.66464 145.988C-20.23 166.714 -31.2018 188.173 -45.4188 206.49C-73.3777 242.543 -113.89 266.569 -153.246 289.894C-168.105 298.57 -183.354 307.606 -197.648 317.133C-248.792 351.068 -287.894 396.707 -307.776 445.872C-328.418 497.032 -325.755 556.323 -300.627 604.634L-301.24 604.908L-300.627 604.634C-282.78 638.74 -248.064 669.888 -205.361 689.738C-187.914 697.919 -174.733 709.296 -161.616 727.505C-157.221 733.626 -152.773 740.274 -148.035 747.161C-134.334 767.497 -119.983 788.462 -102.991 803.833C-81.7314 822.991 -55.2708 832.834 -38.6975 827.985L-38.2383 827.78L-38.0326 828.239C-17.91 860.04 12.4963 879.513 52.421 887.003Z" fill="#009AF9" fill-opacity="0.2"/>
<path d="M347.245 363.939C361.235 395.177 366.547 429.198 361.585 461.203C354.502 507.761 329.529 551.301 292.9 581.126C282.554 589.62 271.538 596.208 260.981 602.59C251.427 608.34 241.414 614.295 232.324 621.491C222.836 638.057 212.685 672.018 214.665 713.782C216.026 741.851 215.519 771.493 202.139 796.605C186.542 826.202 156.756 843.402 134.593 852.593C122.057 857.839 109.263 862.098 96.9962 866.305C77.1926 872.968 58.529 879.304 44.7944 888.029L44.6413 888.097L44.4196 888.013C3.31318 878.295 -28.6545 854.924 -48.0533 820.226C-63.5968 822.039 -87.4393 810.656 -106.414 792.497C-119.975 779.451 -132.084 762.262 -143.765 745.616C-149.991 736.639 -155.943 728.274 -161.926 720.658C-174.252 705.036 -187.702 694.699 -205.471 687.03C-247.795 668.849 -283.365 636.613 -300.843 600.87C-324.113 553.014 -325.24 494.69 -303.981 444.908C-283.651 397.565 -244.987 353.409 -194.862 320.481C-180.806 311.245 -165.794 302.499 -151.241 293.96C-111.357 270.583 -70.3174 246.504 -42.6328 209.839C-29.7408 192.667 -19.6666 172.897 -9.91434 153.638C-1.87281 137.536 6.64384 120.852 16.4953 106.329C41.7944 69.2615 92.1401 64.7308 126.738 79.2021C166.64 96.078 187.911 136.189 198.544 166.908C200.09 171.179 201.329 175.588 202.859 180.234C208.549 198.276 214.361 216.998 228.798 232.41C240.654 244.932 254.4 257.16 267.788 268.997C285.085 284.231 302.878 300.161 317.678 317.616C329.777 331.501 339.77 347.248 347.245 363.939ZM44.3988 886.735C58.1334 878.01 76.797 871.674 96.6007 865.011C108.867 860.805 121.661 856.546 134.197 851.299C156.207 842.177 185.841 825.045 201.269 795.891C214.342 770.917 214.987 741.582 213.626 713.512C211.577 671.595 221.897 637.191 231.538 620.556L231.622 620.335C240.865 613.07 250.878 607.115 260.517 601.144C271.074 594.761 282.09 588.173 292.436 579.679C328.827 550.145 353.648 506.673 360.714 460.49C368.114 411.767 351.843 358.203 317.082 317.516C302.35 300.214 284.557 284.283 267.26 269.05C253.873 257.213 240.127 244.985 228.27 232.462C213.612 216.966 207.542 197.256 201.972 179.896C200.442 175.249 199.203 170.841 197.726 166.722C187.008 136.225 166.027 96.3522 126.347 79.5608C92.1927 65.2586 42.528 69.6683 17.3978 106.293C7.54638 120.816 -0.817227 137.43 -8.92734 153.38C-18.6796 172.638 -28.6852 192.562 -41.7303 209.802C-69.4994 246.689 -110.845 270.905 -150.729 294.282C-165.282 302.822 -180.141 311.498 -194.351 320.804C-244.322 353.662 -282.902 397.597 -303.147 444.719C-324.322 494.279 -323.11 552.381 -300.046 599.778L-300.505 599.983L-300.046 599.778C-282.705 635.214 -247.356 667.366 -205.254 685.462C-187.264 693.215 -173.592 703.638 -161.198 719.413C-155.214 727.028 -149.263 735.393 -143.037 744.371C-131.424 760.863 -119.468 778.121 -105.976 791.014C-83.9774 812.231 -60.588 820.14 -48.1268 818.42L-47.7521 818.436L-47.615 818.742C-28.1475 853.594 3.59847 876.88 44.3988 886.735Z" fill="#009AF9" fill-opacity="0.2"/>
<path d="M348.488 375.332C362.684 407.03 368.017 442.328 362.664 474.692C354.853 522.495 327.805 567.148 288.759 597.32C279.21 604.722 268.769 610.133 258.788 615.338C245.576 622.358 233.061 628.882 222.482 639.319C209.391 652.352 196.495 685.519 197.514 730.471C198.19 757.01 197.608 784.846 185.364 807.978C170.512 835.955 141.998 851.483 120.785 859.512C107.584 864.505 94.0561 868.357 81.0561 872.157C64.2612 876.921 48.4533 881.427 36.3975 887.745L36.2445 887.814L36.0228 887.729C-6.47113 875.323 -38.9078 848.854 -57.7887 810.798C-69.6107 809.842 -90.213 799.949 -109.552 779.747C-119.904 768.941 -129.686 755.305 -139.041 742.214C-146.771 731.52 -154.073 721.37 -161.66 712.634C-173.401 699.14 -186.609 690.165 -205.586 682.669C-247.974 665.988 -283.46 633.53 -300.414 596.082C-300.483 595.929 -300.551 595.776 -300.62 595.623C-321.605 548.766 -321.075 492.09 -299.283 443.908C-278.558 397.858 -241.214 356.499 -191.496 324.305C-177.677 315.359 -162.971 306.751 -148.809 298.57C-108.397 275.14 -66.5922 250.719 -39.0974 213.219C-27.2242 197.055 -18.0316 178.599 -9.16108 160.654C-0.866061 143.887 7.90408 126.539 18.4523 111.52C45.4352 73.6979 97.5381 70.2184 132.89 86.3742C165.446 101.209 191.141 134.374 204.833 179.718C206.294 184.211 207.448 188.841 208.74 193.778C213.734 212.315 218.918 231.687 232.964 247.457C245.148 261.12 259.917 273.993 274.175 286.543C289.304 299.806 304.791 313.46 317.898 328.365C330.593 342.35 340.876 358.335 348.488 375.332ZM36.2236 886.536C48.348 880.371 64.1559 875.865 80.9508 871.101C93.9508 867.301 107.325 863.518 120.526 858.525C141.586 850.564 169.863 835.327 184.631 807.571C196.79 784.661 197.218 756.893 196.612 730.508C195.524 685.403 208.588 651.792 221.833 638.69C232.412 628.254 245.012 621.508 258.292 614.641C268.426 609.367 278.645 603.871 288.11 596.691C327.072 566.741 353.882 522.379 361.608 474.797C369.72 425.204 352.796 369.358 317.423 328.945C304.316 314.041 288.829 300.387 273.7 287.124C259.442 274.573 244.673 261.701 232.421 247.885C218.153 232.03 212.969 212.658 208.06 193.899C206.768 188.962 205.46 184.401 204.22 179.992C196.172 153.814 176.311 107.005 132.706 87.1923C97.6434 71.2743 46.2214 74.6327 19.5606 111.943C8.94374 126.809 0.326654 144.088 -7.96834 160.855C-16.992 178.869 -26.1846 197.325 -37.9892 213.642C-65.5684 251.363 -107.442 275.632 -148.007 299.13C-162.169 307.311 -176.875 315.919 -190.694 324.865C-240.259 356.99 -277.45 398.281 -298.091 444.109C-319.798 492.069 -320.243 548.524 -299.395 595.074C-299.327 595.227 -299.258 595.381 -299.19 595.534L-299.649 595.739L-299.19 595.534C-282.304 632.828 -247.108 665.048 -204.942 681.646C-185.743 689.225 -172.535 698.201 -160.726 711.848C-153.139 720.583 -145.836 730.733 -138.107 741.427C-128.752 754.519 -119.039 768.001 -108.686 778.808C-89.3473 799.01 -68.9666 808.818 -57.2818 809.468L-57.0602 809.552L-56.923 809.858C-38.2637 847.83 -6.04864 874.215 36.2236 886.536Z" fill="#009AF9" fill-opacity="0.2"/>
<path d="M350.159 387.269C364.491 419.273 369.656 455.015 363.811 488.333C355.119 537.451 326.303 583.08 284.618 613.514C274.082 621.174 262.638 627.218 251.585 632.904C237.539 640.113 224.412 646.911 212.709 657.3C196.878 671.192 180.679 704.368 180.432 747.314L180.384 748.438C180.3 771.64 180.088 797.84 168.504 819.573C157.411 840.351 135.61 856.917 106.976 866.431C92.583 871.223 78.0315 874.431 64.0077 877.586C50.6649 880.62 38.0874 883.311 28.0166 887.086L27.8635 887.155L27.6419 887.07C-15.2844 872.468 -48.8392 842.271 -66.9437 801.845C-67.0809 801.539 -67.2866 801.079 -67.4238 800.773C-77.2767 797.648 -94.9866 786.828 -112.673 766.621C-120.124 758.192 -127.426 748.042 -134.591 738.198C-143.244 726.263 -152.103 713.869 -161.532 704.304C-175.198 690.202 -190.75 683.379 -205.838 678.002C-247.846 662.989 -284.05 629.75 -300.191 590.835C-319.334 544.807 -317.507 489.388 -295.013 442.363C-274.078 398.425 -237.257 358.771 -188.557 327.585C-174.975 318.929 -160.507 310.611 -146.651 302.567C-105.627 278.863 -63.2259 254.542 -35.7679 216.14C-24.9135 200.984 -16.365 183.551 -8.22305 166.852C0.325429 149.42 9.04288 131.544 20.4251 116.335C33.164 99.2319 52.7998 87.6804 75.7801 84.0071C97.0238 80.5598 120.008 83.8706 139.059 93.1713C184.886 115.482 204.039 164.815 211.137 192.153C212.36 196.937 213.431 201.789 214.638 206.947C218.935 225.98 223.422 245.848 237.078 261.977C249.298 276.543 264.801 289.822 279.724 302.626C292.905 314.004 306.667 325.857 318.286 338.67C331.63 353.283 342.341 369.812 350.159 387.269ZM28.0484 886.337C38.1192 882.562 50.6281 879.717 64.0396 876.836C78.0633 873.681 92.6148 870.473 107.008 865.682C135.268 856.151 156.915 839.654 167.992 819.251C179.492 797.739 179.551 771.608 179.703 748.559L179.751 747.435C179.929 704.336 196.366 670.87 212.282 656.756C224.053 646.52 237.877 639.226 251.311 632.291C262.364 626.606 273.654 620.63 284.19 612.97C325.569 582.673 354.301 537.266 362.909 488.37C372.072 437.019 354.82 380.034 318.017 339.709C306.398 326.897 292.704 315.197 279.454 303.666C264.532 290.862 249.182 277.514 236.74 262.863C223.016 246.581 218.529 226.714 214.163 207.527C212.955 202.369 211.885 197.517 210.662 192.734C203.411 165.463 184.548 116.369 139.011 94.2958C103.263 76.8465 50.015 79.0002 21.5859 117.286C10.3569 132.426 1.63938 150.302 -6.9091 167.735C-15.2041 184.502 -23.7526 201.935 -34.5384 217.244C-61.9964 255.646 -104.482 280.189 -145.66 303.961C-159.515 312.005 -173.984 320.323 -187.565 328.979C-236.112 360.096 -272.78 399.682 -293.631 443.398C-316.04 490.202 -318.005 545.315 -298.777 591.12C-282.62 629.661 -246.791 662.884 -204.851 677.744C-189.763 683.121 -173.99 690.028 -160.255 704.283C-150.91 714.07 -141.898 726.396 -133.245 738.331C-126.149 748.022 -118.846 758.172 -111.549 766.669C-93.8624 786.876 -76.1526 797.696 -66.5213 800.737L-66.2997 800.821L-66.2311 800.974C-66.0253 801.434 -65.8882 801.74 -65.6824 802.199C-47.9894 841.706 -14.6562 871.819 28.0484 886.337Z" fill="#009AF9" fill-opacity="0.2"/>
<path d="M351.982 399.137C366.452 431.447 371.295 467.701 364.959 501.975C355.538 552.338 324.732 598.858 280.698 629.793C269.091 637.933 256.66 644.235 244.536 650.4C230.49 657.61 215.985 665.025 203.174 674.991C185.928 688.597 165.143 720.15 163.587 763.866C163.576 765.893 163.496 767.767 163.332 769.863C162.594 790.783 161.909 812.232 151.882 830.878C137.621 857.303 109.129 868.776 93.4746 873.214C77.2074 877.925 60.4395 880.287 45.561 882.354C36.2665 883.759 27.4313 884.958 19.9259 886.665L19.7728 886.734L19.5512 886.649C-25.3589 869.259 -59.504 835.281 -76.853 791.208C-88.3359 784.033 -102.905 769.968 -115.505 753.734C-120.206 747.75 -124.738 741.323 -129.629 734.505C-139.48 720.717 -149.605 706.316 -161.029 695.989C-173.888 684.1 -188.823 678.655 -205.647 673.505C-248.025 660.128 -284.06 626.445 -299.61 585.978C-316.842 540.934 -313.342 486.788 -290.163 441.294C-269.016 399.467 -232.565 361.45 -185.038 331.34C-171.693 322.974 -157.685 314.862 -144.066 307.108C-102.514 283.352 -59.3475 258.688 -32.1638 219.674C-22.2437 205.304 -14.4238 189.116 -6.77292 173.373C1.79147 155.565 10.6093 137.093 22.6723 121.763C36.0921 104.539 56.546 93.1725 80.1911 89.7528C102.1 86.5593 125.955 90.5833 145.348 100.65C180.246 118.663 206.553 156.887 217.562 205.27C218.701 210.275 219.756 215.502 220.726 220.95C224.326 240.479 228.201 260.621 241.381 277.33C253.501 292.493 269.226 305.857 284.592 318.83C296.338 328.644 308.29 338.918 318.711 349.877C332.889 364.301 343.89 381.068 351.982 399.137ZM20.0263 886.069C27.5317 884.362 36.2139 883.231 45.5083 881.826C60.3182 879.606 77.0862 877.244 93.2002 872.601C108.855 868.164 136.972 856.675 151.217 830.624C161.159 812.2 161.845 790.751 162.498 770.052C162.509 768.025 162.674 765.929 162.753 764.055C164.393 720.118 185.263 688.343 202.662 674.668C215.405 664.549 229.91 657.134 244.024 650.078C256.148 643.913 268.579 637.61 280.033 629.539C323.914 598.673 354.567 552.221 363.972 502.233C373.964 449.041 356.454 391.068 318.373 350.764C307.952 339.805 295.847 329.599 284.254 319.716C268.888 306.743 253.01 293.448 240.975 278.064C227.794 261.354 223.851 241.06 220.182 221.377C219.212 215.929 218.226 210.855 217.019 205.697C206.078 157.467 179.908 119.55 145.232 101.621C108.202 82.5397 52.6052 85.1938 23.6116 122.629C11.7017 137.891 2.88377 156.363 -5.68062 174.17C-13.3315 189.914 -21.0829 206.254 -31.156 220.693C-58.4242 259.929 -101.591 284.593 -143.296 308.418C-156.914 316.171 -170.923 324.284 -184.267 332.65C-231.642 362.691 -267.94 400.64 -289.002 442.244C-312.028 487.67 -315.513 541.441 -298.348 586.333C-282.867 626.646 -247.123 660.091 -204.967 673.384C-188.074 678.687 -173.139 684.132 -160.058 696.106C-148.787 706.501 -138.509 720.833 -128.589 734.775C-123.698 741.593 -119.166 748.02 -114.534 753.85C-101.781 770.016 -87.4334 783.997 -75.9505 791.171L-75.882 791.325L-75.8134 791.478C-58.7386 834.938 -24.6621 868.763 20.0263 886.069Z" fill="#009AF9" fill-opacity="0.2"/>
<path d="M353.515 410.768C356.67 417.812 359.365 425.061 361.67 432.669C369.892 460.056 371.374 488.807 365.954 515.685C355.582 567.209 323.077 614.858 276.472 646.209C263.793 654.828 250.291 661.61 237.027 668.102C222.3 675.433 207.183 683.122 193.401 692.972C172.635 708.155 149.395 739.152 146.504 780.708C146.224 783.775 146.081 787.148 145.8 790.215C144.815 808.121 143.66 826.471 135.176 842.404C125.165 860.676 105.059 874.46 79.7349 880.286C60.5545 884.648 40.4778 885.366 24.5388 885.886C20.0262 886.069 15.6668 886.183 11.7506 886.466L11.5289 886.381C-34.1037 866.557 -69.7256 828.461 -86.0608 781.727C-95.4056 771.941 -106.876 757.407 -118.199 741.152C-120.251 738.211 -122.151 735.201 -124.272 732.106C-134.655 716.718 -146.373 699.169 -160.167 688.066C-172.441 678.304 -186.69 674.39 -201.673 670.07L-205.013 669.176C-247.164 657.536 -283.832 622.85 -298.5 581.069C-306.127 559.115 -308.909 534.439 -306.444 509.988C-303.995 485.911 -296.59 461.821 -284.938 440.24C-263.58 400.526 -227.805 364.282 -181.296 335.18C-168.259 326.951 -154.419 319.282 -141.106 311.666C-98.8738 287.788 -55.179 263.072 -28.1007 223.002C-18.9619 209.349 -11.7862 194.186 -4.84792 179.313C3.73237 161.13 12.5662 142.283 25.0884 126.748C39.1891 109.402 60.2393 98.1367 84.771 95.0554C107.566 92.2002 132.002 96.6996 151.891 107.463C188.277 127.568 214.573 167.818 224.378 218.027C225.501 223.407 226.234 229.146 227.204 234.595C230.261 254.551 233.439 275.189 246.007 292.172C257.651 307.915 273.682 321.142 289.286 333.825C299.665 342.229 310.251 351.093 319.611 360.504C333.568 374.844 345.08 391.933 353.515 410.768ZM11.851 885.869C15.7672 885.586 19.9736 885.541 24.4861 885.358C41.3276 884.802 60.5019 884.12 79.6823 879.758C104.632 873.916 124.653 860.353 134.511 842.151C143.064 826.37 144.065 808.089 145.12 790.336C145.331 787.116 145.543 783.896 145.755 780.676C148.883 738.83 172.207 707.611 192.973 692.428C206.534 682.494 221.873 674.889 236.531 667.405C249.727 660.76 263.229 653.978 275.976 645.511C322.428 614.23 355.002 566.734 365.22 515.278C376.194 460.175 358.51 400.993 318.915 361C309.554 351.588 299.037 342.878 288.589 334.321C272.917 321.485 256.886 308.258 245.241 292.515C232.605 275.378 229.358 254.587 226.301 234.631C225.484 229.114 224.599 223.444 223.544 218.217C213.807 168.161 187.58 128.064 151.4 108.418C113.684 87.8057 56.3304 89.4085 25.4313 127.513C12.9936 142.827 4.15978 161.674 -4.42053 179.857C-11.3587 194.73 -18.6876 209.962 -27.8264 223.614C-54.8361 263.838 -98.684 288.622 -141.07 312.568C-154.45 320.032 -168.222 327.854 -181.26 336.083C-227.615 365.116 -263.391 401.36 -284.663 440.853C-308.307 484.9 -313.464 537.398 -298.057 581.238C-283.526 622.713 -247.148 657.161 -205.15 668.87L-201.81 669.764C-186.674 674.016 -172.425 677.929 -159.929 687.776C-146.136 698.879 -134.196 716.512 -123.812 731.9C-121.691 734.995 -119.792 738.005 -117.74 740.947C-106.349 757.354 -95.0994 771.804 -85.6015 781.522C-69.1819 828.033 -33.6285 865.976 11.851 885.869Z" fill="#009AF9" fill-opacity="0.2"/>
<path d="M355.133 422.177C369.946 455.252 374.64 493.227 367.033 529.174C355.933 581.944 321.437 630.483 272.331 662.403C258.512 671.349 243.785 678.68 229.449 685.652C214.111 693.257 198.313 701.067 183.781 710.884C153.477 731.442 133.256 763.845 129.422 797.55C128.957 801.436 128.629 805.627 128.385 809.597C127.136 824.863 125.871 840.505 118.469 853.931C109.187 870.957 89.5879 883.411 66.1485 887.29C42.4029 891.306 19.5978 890.857 3.50691 886.113C-46.539 871.207 -72.7429 821.723 -95.4214 772.316C-99.056 764.2 -104.754 755.17 -111.069 744.761C-114.303 739.592 -117.675 734.115 -120.962 728.418C-131.249 710.78 -143.775 691.02 -159.679 680.126C-170.772 672.593 -183.042 669.815 -196.283 666.921C-199.112 666.35 -202.009 665.625 -204.907 664.9C-225.869 659.949 -245.964 648.726 -262.48 632.775C-278.928 616.977 -291.162 597.454 -297.628 576.451C-304.506 554.528 -306.364 531.094 -302.997 506.605C-299.83 483.31 -291.861 460.071 -279.865 439.256C-258.129 401.21 -223.742 367.609 -177.555 339.02C-164.755 331.081 -151.374 323.618 -138.3 316.292C-95.386 292.293 -51.0104 267.456 -24.2749 226.62C-15.8489 213.838 -9.30129 199.324 -2.85414 185.406C5.58904 166.917 14.4387 147.695 27.5573 132.261C42.3389 114.794 64.3602 103.645 89.4038 100.886C113.086 98.369 138.323 103.428 158.402 115.026C177.901 126.148 194.317 142.696 207.068 164.193C218.707 183.615 226.883 206.795 230.82 230.769C231.705 236.439 232.506 242.331 233.154 248.292C235.667 268.675 238.148 289.809 250.173 307.22C261.205 323.237 277.405 336.02 292.94 348.55C302.09 355.85 311.531 363.388 319.899 371.406C334.758 385.709 346.63 403.189 355.133 422.177ZM-291.916 590.438C-275.457 627.188 -242.572 655.479 -204.738 664.457C-201.84 665.182 -199.012 665.753 -196.114 666.478C-182.873 669.372 -170.45 672.081 -159.289 679.768C-143.162 690.746 -130.79 710.575 -120.281 728.297C-116.925 734.148 -113.623 739.471 -110.388 744.64C-103.92 754.98 -98.3752 764.079 -94.7405 772.194C-72.1307 821.449 -45.9267 870.932 3.89752 885.754C19.7668 890.413 42.5719 890.863 66.1644 886.915C89.3822 882.951 108.675 870.634 118.026 853.762C125.275 840.404 126.54 824.763 127.857 809.649C128.254 805.611 128.429 801.488 128.894 797.603C131.02 779.37 137.389 761.994 148.122 746.157C157.345 732.283 169.655 719.968 183.49 710.647C198.022 700.829 213.82 693.019 229.159 685.414C243.495 678.442 258.222 671.112 272.041 662.165C320.994 630.314 355.336 581.843 366.505 529.226C378.429 472.963 359.954 411.193 319.646 372.071C311.277 364.053 301.837 356.515 292.687 349.215C276.999 336.754 260.799 323.97 249.698 307.8C237.605 290.236 235.124 269.103 232.542 248.566C231.809 242.827 231.162 236.867 230.276 231.196C221.896 179.246 195.527 137.19 157.996 115.76C119.663 93.769 60.33 94.2357 27.8316 132.873C14.8661 148.239 6.01638 167.461 -2.42675 185.95C-8.87393 199.868 -15.4215 214.382 -24.0007 227.232C-50.8206 268.29 -95.3493 293.196 -138.263 317.194C-151.337 324.521 -164.871 332.052 -177.519 339.922C-223.621 368.291 -257.939 402.044 -279.744 439.937C-304.311 482.743 -310.835 533.831 -297.407 576.535C-295.877 581.181 -293.973 585.844 -291.916 590.438Z" fill="#009AF9" fill-opacity="0.2"/>
<path d="M357.041 433.823C371.923 467.052 376.432 505.845 368.18 542.816C356.283 596.678 319.866 646.262 268.258 678.75C253.368 688.176 237.348 695.902 221.787 703.423C205.768 711.148 189.289 719.08 174.161 728.797C154.171 741.61 119.564 769.793 112.492 814.324C111.774 818.874 111.277 823.509 110.779 828.144C109.336 840.924 108.098 854.163 101.762 865.457C92.8341 881.222 74.1167 892.362 52.5619 894.294C33.1868 896.169 12.4511 892.954 -4.51541 885.845C-28.184 875.671 -49.1648 858.778 -67.1675 835.404C-82.6059 815.294 -95.2303 790.798 -104.851 762.75C-111.001 744.915 -116.972 729.94 -123.946 715.599C-134.297 694.129 -146.211 679.426 -159.329 671.881C-169.514 665.963 -180.708 664.358 -192.72 662.568C-196.673 661.948 -200.779 661.397 -204.869 660.471C-247.606 652.035 -284.754 616.277 -297.269 571.509C-303.26 549.926 -304.231 526.829 -300.146 503.123C-296.193 480.762 -287.728 458.22 -275.543 438.239C-253.833 402.595 -219.732 370.409 -174.564 342.827C-162.154 335.248 -148.858 328.006 -136.089 320.817C-92.4949 296.697 -47.4384 271.739 -20.9614 229.915C-13.232 217.629 -7.17556 204.07 -1.28799 190.955C7.01801 172.16 15.7991 152.785 29.2925 137.366C44.7548 119.779 67.5941 108.815 93.5244 106.394C118.399 104.078 143.689 109.666 164.554 122.198C184.618 134.17 201.292 151.705 214.233 174.037C225.977 194.515 233.968 218.512 237.261 243.511C238.131 249.556 238.694 255.738 239.257 261.92C241.227 282.731 243.164 304.292 254.492 322.199C264.912 338.49 280.906 350.814 296.473 362.594C304.615 368.875 312.979 375.24 320.493 382.17C335.949 396.574 348.263 414.223 357.041 433.823ZM-94.5752 787.747C-73.316 835.216 -41.963 869.525 -4.49951 885.47C12.3139 892.648 33.1341 895.641 52.3561 893.834C73.6893 891.818 92.4753 880.831 101.097 865.204C107.433 853.91 108.739 840.823 110.183 828.043C110.68 823.409 111.177 818.774 111.896 814.224C114.671 796.619 122.148 779.666 134.227 763.962C144.558 750.511 158.214 738.328 173.733 728.253C189.015 718.467 205.493 710.536 221.513 702.81C237.074 695.29 253.093 687.564 267.831 678.206C319.286 645.786 355.618 596.424 367.515 542.562C380.437 484.013 361.704 421.256 319.95 382.598C312.435 375.668 304.072 369.302 295.929 363.021C280.294 351.088 264.3 338.764 253.88 322.473C242.484 304.413 240.393 282.921 238.577 262.041C238.082 256.012 237.45 249.677 236.649 243.785C229.593 190.689 202.534 145.45 164.232 122.71C119.789 96.1023 60.6446 102.735 29.8729 137.842C16.3796 153.26 7.59847 172.636 -0.77613 191.277C-6.66367 204.393 -12.7202 217.952 -20.6026 230.306C-47.2328 272.198 -92.2892 297.157 -136.037 321.345C-148.874 328.381 -161.948 335.707 -174.358 343.287C-219.526 370.869 -253.543 402.833 -275.253 438.477C-300.996 480.707 -308.907 529.107 -296.962 571.372C-284.448 616.14 -247.437 651.592 -204.922 659.943C-200.9 660.716 -196.725 661.42 -192.773 662.04C-180.914 663.898 -169.498 665.588 -159.314 671.506C-145.973 679.135 -134.059 693.838 -123.64 715.461C-116.666 729.803 -110.626 744.931 -104.545 762.613C-101.385 771.309 -98.1412 779.784 -94.5752 787.747Z" fill="#009AF9" fill-opacity="0.2"/>
<path d="M358.522 444.926C361.814 452.276 364.646 459.832 366.866 467.662C375.025 496.548 375.9 527.225 369.259 556.304C362.735 584.412 349.735 611.192 330.751 635.688C312.955 658.733 289.786 679.22 264.117 694.944C248.086 704.697 230.689 713.04 213.988 720.887C197.509 728.819 180.35 736.871 164.472 746.556C137.578 762.829 103.958 790.754 95.4944 830.945C94.538 835.785 93.8034 840.71 93.2217 845.567C91.7891 856.32 90.4251 867.226 85.14 876.762C76.7874 891.349 58.6615 900.938 38.9067 901.145C23.2898 901.153 6.31232 896.071 -12.6748 885.271C-37.0182 871.539 -59.2492 852.264 -76.6715 829.365C-94.2468 806.535 -107.166 780.149 -114.127 753.117C-115.678 747.193 -116.99 740.979 -118.166 735.071C-120.412 724.311 -122.795 713.245 -126.625 702.642C-133.629 683.719 -144.979 669.866 -158.758 663.719C-168.478 659.249 -179.329 658.409 -189.806 657.586C-194.592 657.156 -199.685 656.863 -204.456 656.058C-225.941 652.811 -246.359 642.1 -263.133 625.162C-279.121 609.158 -291.002 588.374 -296.381 566.516C-306.569 525.302 -297.053 478.022 -270.455 436.879C-248.518 402.972 -215.874 373.278 -170.807 346.292C-158.635 339.003 -145.798 331.967 -133.267 325.068C-88.9915 300.827 -43.2542 275.748 -16.9669 233.09C-9.86578 221.453 -4.2158 208.628 1.11213 196.314C9.34958 177.366 17.909 157.907 31.9302 142.435C48.142 124.88 71.7307 113.948 98.3259 111.781C124.087 109.804 149.957 115.866 171.166 129.164C210.886 153.843 238.072 201.415 243.924 256.337C244.556 262.672 245.104 269.229 245.429 275.701C246.855 296.94 248.18 318.775 258.964 337.109C268.55 353.59 284.355 365.08 299.647 376.247C306.782 381.509 314.359 386.94 321.087 392.935C336.78 407.048 349.469 424.713 358.522 444.926ZM-102.449 785.758C-83.9332 827.102 -51.8943 862.942 -12.5903 885.049C6.32824 895.696 23.1526 900.846 38.7696 900.838C58.3712 900.7 76.3441 891.18 84.5436 876.662C89.8973 867.278 91.2614 856.372 92.694 845.619C93.2756 840.763 93.9417 835.685 94.898 830.844C103.446 790.432 137.219 762.438 164.113 746.165C179.991 736.481 197.151 728.428 213.783 720.428C230.415 712.428 247.881 704.238 263.911 694.485C317.868 661.496 356.121 611.089 368.816 556.135C382.619 496.272 363.18 430.706 320.544 393.362C313.816 387.367 306.307 382.089 299.104 376.675C283.811 365.507 267.938 353.864 258.352 337.383C247.721 318.98 246.174 297.061 244.902 275.754C244.423 269.35 244.097 262.878 243.465 256.542C237.682 201.774 210.564 154.355 170.912 129.829C125.783 101.69 64.7972 107.494 32.2045 143.048C18.1148 158.366 9.55529 177.826 1.47095 196.705C-4.01007 209.087 -9.43841 221.997 -16.6926 233.702C-43.0643 276.582 -88.8017 301.661 -133.23 325.971C-145.608 332.801 -158.598 339.905 -170.77 347.195C-215.837 374.18 -248.329 403.806 -270.334 437.561C-296.847 478.481 -306.432 525.608 -296.244 566.822C-284.986 612.888 -247.273 649.496 -204.678 655.973C-199.754 656.71 -194.814 657.071 -190.027 657.501C-179.551 658.324 -168.478 659.249 -158.758 663.719C-144.91 670.019 -133.339 683.956 -126.487 702.949C-122.658 713.551 -120.275 724.617 -118.029 735.377C-116.853 741.285 -115.54 747.499 -113.99 753.423C-111.079 764.437 -107.113 775.345 -102.449 785.758Z" fill="#009AF9" fill-opacity="0.2"/>
</g>
<defs>
<clipPath id="clip0">
<rect width="1167.1" height="1056.47" fill="white" transform="translate(-130.972 1209.97) rotate(-114.125)"/>
</clipPath>
</defs>
</svg>
