<svg width="55" height="55" viewBox="0 0 55 55" fill="none" xmlns="http://www.w3.org/2000/svg">
<path d="M45.9766 54.8151C46.3215 54.8151 46.6564 54.6989 46.9271 54.4852L49.3304 52.5878C50.2158 51.8888 51.0222 51.0883 51.7269 50.2087C52.423 49.3398 53.0222 48.391 53.508 47.3887C53.9937 46.3864 54.3671 45.3281 54.6177 44.2434C54.8714 43.1452 55.0001 42.0164 55.0001 40.8882V37.7437C55.0001 37.3382 54.857 36.9442 54.5972 36.6342C54.3302 36.3156 53.9582 36.1071 53.5499 36.0472C51.5912 35.7602 48.7719 34.1656 47.2654 32.4926C46.9353 32.126 46.4655 31.9158 45.9766 31.9158C45.4876 31.9158 45.0179 32.1261 44.6878 32.4926C43.1813 34.1656 40.362 35.7602 38.4033 36.0472C37.9949 36.1071 37.623 36.3155 37.3559 36.6342C37.0962 36.9442 36.9531 37.3382 36.9531 37.7437V40.8882C36.9531 42.0164 37.0818 43.1452 37.3355 44.2434C37.5861 45.3281 37.9595 46.3863 38.4452 47.3887C38.9309 48.3911 39.5302 49.3398 40.2263 50.2087C40.931 51.0883 41.7373 51.8888 42.6227 52.5878L45.0261 54.4852C45.2969 54.6989 45.6317 54.8151 45.9766 54.8151ZM53.2813 40.8882C53.2813 44.9496 51.4531 48.7222 48.2654 51.2388L46.836 52.3672V37.8125C46.836 37.3379 46.4512 36.9531 45.9766 36.9531C45.502 36.9531 45.1172 37.3379 45.1172 37.8125V52.3673L43.6878 51.2388C40.5002 48.7222 38.6719 44.9496 38.6719 40.8882V37.745C39.8348 37.5711 41.2217 37.0514 42.5798 36.2803C43.9127 35.5235 45.1149 34.5868 45.965 33.6428C45.9724 33.6346 45.9756 33.6346 45.9766 33.6346C45.9776 33.6346 45.9808 33.6346 45.9882 33.6428C46.8383 34.5868 48.0405 35.5235 49.3734 36.2803C50.7315 37.0514 52.1184 37.5711 53.2813 37.745V40.8882H53.2813Z" fill="url(#paint0_linear_2529_2592)"/>
<path d="M40.3906 18.0469H42.5391C43.9607 18.0469 45.1172 19.2034 45.1172 20.625V29.2188C45.1172 29.6934 45.5019 30.0781 45.9766 30.0781C46.4512 30.0781 46.8359 29.6934 46.8359 29.2188V20.625C46.8359 18.2557 44.9084 16.3281 42.5391 16.3281H40.3906C39.916 16.3281 39.5312 16.7129 39.5312 17.1875C39.5312 17.6621 39.916 18.0469 40.3906 18.0469Z" fill="url(#paint1_linear_2529_2592)"/>
<path d="M39.9609 21.9141H40.8203V31.7969C40.8203 32.2715 41.2051 32.6562 41.6797 32.6562C42.1543 32.6562 42.5391 32.2715 42.5391 31.7969V21.0547C42.5391 20.5801 42.1543 20.1953 41.6797 20.1953H39.9609C39.4863 20.1953 39.1016 20.5801 39.1016 21.0547C39.1016 21.5293 39.4863 21.9141 39.9609 21.9141Z" fill="url(#paint2_linear_2529_2592)"/>
<path d="M12.8906 21.9141C13.3652 21.9141 13.75 21.5293 13.75 21.0547C13.75 20.5801 13.3652 20.1953 12.8906 20.1953H9.88281C9.40819 20.1953 9.02344 20.5801 9.02344 21.0547V43.3984C9.02344 43.8731 9.40819 44.2578 9.88281 44.2578H34.375C34.8496 44.2578 35.2344 43.8731 35.2344 43.3984C35.2344 42.9238 34.8496 42.5391 34.375 42.5391H10.7422V21.9141H12.8906Z" fill="url(#paint3_linear_2529_2592)"/>
<path d="M40.8203 53.2812H6.01562C3.64633 53.2812 1.71875 51.3537 1.71875 48.9844V48.125H35.2344C35.709 48.125 36.0938 47.7402 36.0938 47.2656C36.0938 46.791 35.709 46.4062 35.2344 46.4062H6.44531V20.625C6.44531 19.2034 7.60185 18.0469 9.02344 18.0469H12.8906C13.3652 18.0469 13.75 17.6621 13.75 17.1875C13.75 16.7129 13.3652 16.3281 12.8906 16.3281H9.02344C6.65414 16.3281 4.72656 18.2557 4.72656 20.625V46.4062H1.71875C0.771023 46.4062 0 47.1773 0 48.125V48.9844C0 50.5912 0.625727 52.1019 1.76192 53.2381C2.89812 54.3743 4.40878 55 6.01562 55H40.8203C41.2949 55 41.6797 54.6152 41.6797 54.1406C41.6797 53.666 41.2949 53.2812 40.8203 53.2812Z" fill="url(#paint4_linear_2529_2592)"/>
<path d="M27.5 30.9375H24.9219C24.448 30.9375 24.0625 30.552 24.0625 30.0781C24.0625 29.6035 23.6777 29.2188 23.2031 29.2188C22.7285 29.2188 22.3438 29.6035 22.3438 30.0781C22.3438 31.4997 23.5003 32.6562 24.9219 32.6562H25.3516V33.0859C25.3516 33.5606 25.7363 33.9453 26.2109 33.9453C26.6856 33.9453 27.0703 33.5606 27.0703 33.0859V32.6562H27.5C28.9216 32.6562 30.0781 31.4997 30.0781 30.0781V29.2188C30.0781 27.7972 28.9216 26.6406 27.5 26.6406H24.9219C24.448 26.6406 24.0625 26.2551 24.0625 25.7812V24.9219C24.0625 24.448 24.448 24.0625 24.9219 24.0625H27.5C27.9739 24.0625 28.3594 24.448 28.3594 24.9219C28.3594 25.3965 28.7441 25.7812 29.2188 25.7812C29.6934 25.7812 30.0781 25.3965 30.0781 24.9219C30.0781 23.5003 28.9216 22.3438 27.5 22.3438H27.0703V21.9141C27.0703 21.4394 26.6856 21.0547 26.2109 21.0547C25.7363 21.0547 25.3516 21.4394 25.3516 21.9141V22.3438H24.9219C23.5003 22.3438 22.3438 23.5003 22.3438 24.9219V25.7812C22.3438 27.2028 23.5003 28.3594 24.9219 28.3594H27.5C27.9739 28.3594 28.3594 28.7449 28.3594 29.2188V30.0781C28.3594 30.552 27.9738 30.9375 27.5 30.9375Z" fill="url(#paint5_linear_2529_2592)"/>
<path d="M19.2227 34.4882C20.1301 35.3955 21.1869 36.108 22.3638 36.6058C23.5828 37.1214 24.8771 37.3828 26.2109 37.3828C27.5447 37.3828 28.8391 37.1214 30.0581 36.6058C31.235 36.108 32.2918 35.3955 33.1991 34.4882C34.1065 33.5809 34.819 32.524 35.3168 31.3471C35.8323 30.1281 36.0937 28.8338 36.0937 27.5C36.0937 26.1662 35.8323 24.8718 35.3167 23.6529C34.8189 22.4759 34.1065 21.4191 33.1991 20.5118C32.2918 19.6045 31.235 18.892 30.058 18.3942C28.8391 17.8786 27.5447 17.6172 26.2109 17.6172C24.8771 17.6172 23.5828 17.8786 22.3638 18.3942C21.1869 18.892 20.1301 19.6045 19.2227 20.5118C18.3154 21.4192 17.6029 22.476 17.1051 23.6529C16.5895 24.8718 16.3281 26.1662 16.3281 27.5C16.3281 28.8338 16.5895 30.1281 17.1051 31.3471C17.6029 32.524 18.3154 33.5809 19.2227 34.4882ZM26.2109 19.3359C30.7126 19.3359 34.375 22.9983 34.375 27.5C34.375 32.0017 30.7126 35.6641 26.2109 35.6641C21.7093 35.6641 18.0469 32.0017 18.0469 27.5C18.0469 22.9983 21.7092 19.3359 26.2109 19.3359Z" fill="url(#paint6_linear_2529_2592)"/>
<path d="M17.1875 20.1953C17.6621 20.1953 18.0469 19.8106 18.0469 19.3359V8.16406C18.0469 7.68944 17.6621 7.30469 17.1875 7.30469C16.7129 7.30469 16.3281 7.68944 16.3281 8.16406V19.3359C16.3281 19.8106 16.7129 20.1953 17.1875 20.1953Z" fill="url(#paint7_linear_2529_2592)"/>
<path d="M23.2031 16.3281C23.6777 16.3281 24.0625 15.9434 24.0625 15.4688V8.59375C24.0625 8.11913 23.6777 7.73438 23.2031 7.73438C22.7285 7.73438 22.3438 8.11913 22.3438 8.59375V15.4688C22.3438 15.9434 22.7285 16.3281 23.2031 16.3281Z" fill="url(#paint8_linear_2529_2592)"/>
<path d="M35.2344 20.1953C35.709 20.1953 36.0938 19.8106 36.0938 19.3359V14.6094C36.0938 14.1348 35.709 13.75 35.2344 13.75C34.7598 13.75 34.375 14.1348 34.375 14.6094V19.3359C34.375 19.8106 34.7598 20.1953 35.2344 20.1953Z" fill="url(#paint9_linear_2529_2592)"/>
<path d="M29.2188 16.3281C29.6934 16.3281 30.0781 15.9434 30.0781 15.4688V0.859375C30.0781 0.384754 29.6934 0 29.2188 0C28.7441 0 28.3594 0.384754 28.3594 0.859375V15.4688C28.3594 15.9434 28.7441 16.3281 29.2188 16.3281Z" fill="url(#paint10_linear_2529_2592)"/>
<path d="M23.2031 6.01562C23.6777 6.01562 24.0625 5.63087 24.0625 5.15625V2.57812C24.0625 2.1035 23.6777 1.71875 23.2031 1.71875C22.7285 1.71875 22.3438 2.1035 22.3438 2.57812V5.15625C22.3438 5.63087 22.7285 6.01562 23.2031 6.01562Z" fill="url(#paint11_linear_2529_2592)"/>
<path d="M35.2344 12.0312C35.709 12.0312 36.0938 11.6465 36.0938 11.1719V7.73437C36.0938 7.25975 35.709 6.875 35.2344 6.875C34.7598 6.875 34.375 7.25975 34.375 7.73437V11.1719C34.375 11.6465 34.7598 12.0312 35.2344 12.0312Z" fill="url(#paint12_linear_2529_2592)"/>
<defs>
<linearGradient id="paint0_linear_2529_2592" x1="37.6367" y1="54.7464" x2="58.504" y2="43.7755" gradientUnits="userSpaceOnUse">
<stop stop-color="#3A67F6"/>
<stop offset="1" stop-color="#72E8FC"/>
</linearGradient>
<linearGradient id="paint1_linear_2529_2592" x1="39.8079" y1="30.0369" x2="49.3858" y2="26.6425" gradientUnits="userSpaceOnUse">
<stop stop-color="#3A67F6"/>
<stop offset="1" stop-color="#72E8FC"/>
</linearGradient>
<linearGradient id="paint2_linear_2529_2592" x1="39.2318" y1="32.6189" x2="44.1389" y2="31.7158" gradientUnits="userSpaceOnUse">
<stop stop-color="#3A67F6"/>
<stop offset="1" stop-color="#72E8FC"/>
</linearGradient>
<linearGradient id="paint3_linear_2529_2592" x1="10.0162" y1="44.1856" x2="35.3324" y2="25.7891" gradientUnits="userSpaceOnUse">
<stop stop-color="#3A67F6"/>
<stop offset="1" stop-color="#72E8FC"/>
</linearGradient>
<linearGradient id="paint4_linear_2529_2592" x1="1.57868" y1="54.884" x2="42.13" y2="25.7278" gradientUnits="userSpaceOnUse">
<stop stop-color="#3A67F6"/>
<stop offset="1" stop-color="#72E8FC"/>
</linearGradient>
<linearGradient id="paint5_linear_2529_2592" x1="22.6367" y1="33.9066" x2="32.4755" y2="29.9685" gradientUnits="userSpaceOnUse">
<stop stop-color="#3A67F6"/>
<stop offset="1" stop-color="#72E8FC"/>
</linearGradient>
<linearGradient id="paint6_linear_2529_2592" x1="17.0768" y1="37.3235" x2="37.2644" y2="23.8562" gradientUnits="userSpaceOnUse">
<stop stop-color="#3A67F6"/>
<stop offset="1" stop-color="#72E8FC"/>
</linearGradient>
<linearGradient id="paint7_linear_2529_2592" x1="16.3932" y1="20.1566" x2="18.91" y2="19.9328" gradientUnits="userSpaceOnUse">
<stop stop-color="#3A67F6"/>
<stop offset="1" stop-color="#72E8FC"/>
</linearGradient>
<linearGradient id="paint8_linear_2529_2592" x1="22.4089" y1="16.3023" x2="24.9012" y2="15.9698" gradientUnits="userSpaceOnUse">
<stop stop-color="#3A67F6"/>
<stop offset="1" stop-color="#72E8FC"/>
</linearGradient>
<linearGradient id="paint9_linear_2529_2592" x1="34.4401" y1="20.176" x2="36.899" y2="19.7386" gradientUnits="userSpaceOnUse">
<stop stop-color="#3A67F6"/>
<stop offset="1" stop-color="#72E8FC"/>
</linearGradient>
<linearGradient id="paint10_linear_2529_2592" x1="28.4245" y1="16.2791" x2="30.9487" y2="16.1019" gradientUnits="userSpaceOnUse">
<stop stop-color="#3A67F6"/>
<stop offset="1" stop-color="#72E8FC"/>
</linearGradient>
<linearGradient id="paint11_linear_2529_2592" x1="22.4089" y1="6.00274" x2="24.7769" y2="5.37084" gradientUnits="userSpaceOnUse">
<stop stop-color="#3A67F6"/>
<stop offset="1" stop-color="#72E8FC"/>
</linearGradient>
<linearGradient id="paint12_linear_2529_2592" x1="34.4401" y1="12.0158" x2="36.8573" y2="11.4783" gradientUnits="userSpaceOnUse">
<stop stop-color="#3A67F6"/>
<stop offset="1" stop-color="#72E8FC"/>
</linearGradient>
</defs>
</svg>
