<svg width="50" height="50" viewBox="0 0 50 50" fill="none" xmlns="http://www.w3.org/2000/svg">
<path d="M25 31.25C21.5542 31.25 18.75 28.4458 18.75 25C18.75 21.5542 21.5542 18.75 25 18.75C28.4458 18.75 31.25 21.5542 31.25 25C31.25 28.4458 28.4458 31.25 25 31.25ZM25 20.8333C22.7021 20.8333 20.8333 22.7021 20.8333 25C20.8333 27.2979 22.7021 29.1667 25 29.1667C27.2979 29.1667 29.1667 27.2979 29.1667 25C29.1667 22.7021 27.2979 20.8333 25 20.8333Z" fill="url(#paint0_linear)"/>
<path d="M41.9375 42.9792C41.6708 42.9792 41.4042 42.8771 41.2 42.675C40.7937 42.2687 40.7937 41.6083 41.2 41.2021C45.5312 36.8708 47.9167 31.1167 47.9167 25C47.9167 12.3646 37.6354 2.08333 25 2.08333C12.3646 2.08333 2.08333 12.3646 2.08333 25C2.08333 31.1167 4.46875 36.8708 8.8 41.2C9.20625 41.6062 9.20625 42.2667 8.8 42.6729C8.39375 43.0792 7.73333 43.0792 7.32708 42.6729C2.60208 37.95 0 31.6729 0 25C0 11.2146 11.2146 0 25 0C38.7854 0 50 11.2146 50 25C50 31.6729 47.3979 37.95 42.6729 42.6729C42.4708 42.8771 42.2042 42.9792 41.9375 42.9792Z" fill="url(#paint1_linear)"/>
<path d="M36.0416 37.0834C35.7749 37.0834 35.5083 36.9813 35.3041 36.7792C34.8978 36.373 34.8978 35.7125 35.3041 35.3063C38.0645 32.548 39.5833 28.8875 39.5833 25C39.5833 16.9584 33.0416 10.4167 24.9999 10.4167C16.9583 10.4167 10.4166 16.9584 10.4166 25C10.4166 28.8875 11.9353 32.548 14.6958 35.3042C15.102 35.7105 15.102 36.3709 14.6958 36.7771C14.2895 37.1834 13.6291 37.1834 13.2228 36.7771C10.0687 33.6271 8.33325 29.4438 8.33325 25C8.33325 15.8105 15.8103 8.33337 24.9999 8.33337C34.1895 8.33337 41.6666 15.8105 41.6666 25C41.6666 29.4438 39.9312 33.6271 36.777 36.7771C36.5749 36.9813 36.3083 37.0834 36.0416 37.0834Z" fill="url(#paint2_linear)"/>
<path d="M24.9999 50C24.4249 50 23.9583 49.5333 23.9583 48.9583V30.2083C23.9583 29.6333 24.4249 29.1666 24.9999 29.1666C25.5749 29.1666 26.0416 29.6333 26.0416 30.2083V48.9583C26.0416 49.5333 25.5749 50 24.9999 50Z" fill="url(#paint3_linear)"/>
<defs>
<linearGradient id="paint0_linear" x1="19.2568" y1="26.3587" x2="31.2521" y2="26.4112" gradientUnits="userSpaceOnUse">
<stop stop-color="#088AF7"/>
<stop offset="1" stop-color="#1AB1E7"/>
</linearGradient>
<linearGradient id="paint1_linear" x1="2.02703" y1="26.1612" x2="50.0083" y2="26.4056" gradientUnits="userSpaceOnUse">
<stop stop-color="#088AF7"/>
<stop offset="1" stop-color="#1AB1E7"/>
</linearGradient>
<linearGradient id="paint2_linear" x1="9.6846" y1="25.8334" x2="41.6721" y2="25.9957" gradientUnits="userSpaceOnUse">
<stop stop-color="#088AF7"/>
<stop offset="1" stop-color="#1AB1E7"/>
</linearGradient>
<linearGradient id="paint3_linear" x1="24.0427" y1="41.8478" x2="26.042" y2="41.8487" gradientUnits="userSpaceOnUse">
<stop stop-color="#088AF7"/>
<stop offset="1" stop-color="#1AB1E7"/>
</linearGradient>
</defs>
</svg>
