<svg width="20" height="20" viewBox="0 0 20 20" fill="none" xmlns="http://www.w3.org/2000/svg">
<path d="M11.7578 18.8281H11.1719C9.75707 18.8281 8.57328 17.82 8.30105 16.4844H2.78215C1.24805 16.4844 0 15.2363 0 13.7022V11.0243C0 9.49023 1.24805 8.24219 2.78215 8.24219H12.8926C13.57 8.24219 14.1211 7.69105 14.1211 7.01363V6.26051C12.7995 6.15 11.7578 5.03906 11.7578 3.68937V1.17188H13.8846C14.6872 1.17188 15.4053 1.54016 15.8789 2.1166C16.3525 1.54016 17.0706 1.17188 17.8732 1.17188H20V3.68937C20 5.03906 18.9584 6.15 17.6367 6.26051V10.8611C17.6367 13.9618 15.1142 16.4844 12.0135 16.4844H11.7578V18.8281ZM2.78215 9.41406C1.89422 9.41406 1.17188 10.1364 1.17188 11.0243V13.7023C1.17188 14.5902 1.89422 15.3125 2.78215 15.3125H9.41406V15.8984C9.41406 16.6623 9.90387 17.314 10.5859 17.5559V15.3125H12.0135C14.468 15.3125 16.4648 13.3156 16.4648 10.8611V5.09766H17.4198C18.1964 5.09766 18.8281 4.4659 18.8281 3.68937V2.34375H17.8732C17.0966 2.34375 16.4648 2.97551 16.4648 3.75203H15.293C15.293 2.97551 14.6612 2.34375 13.8846 2.34375H12.9297V3.68937C12.9297 4.4659 13.5614 5.09766 14.338 5.09766H15.293V7.01363C15.293 8.33723 14.2162 9.41406 12.8926 9.41406H2.78215Z" fill="white"/>
<path d="M7.07031 12.9688H8.24219V14.1406H7.07031V12.9688Z" fill="white"/>
</svg>



