<svg width="20" height="20" viewBox="0 0 20 20" fill="none" xmlns="http://www.w3.org/2000/svg">
<path d="M0.394262 16.3292C2.24593 17.5042 4.40093 18.125 6.62593 18.125C9.88426 18.125 12.8701 16.8734 15.0343 14.6009C17.1051 12.4259 18.2443 9.50336 18.1876 6.53753C18.9726 5.86586 19.8959 4.58336 19.8959 3.33336C19.8959 2.8542 19.3759 2.55003 18.9543 2.7942C18.2168 3.22753 17.5443 3.34086 16.8526 3.1467C15.4401 1.77003 13.3376 1.48003 11.5659 2.43503C10.0176 3.26836 9.15676 4.79336 9.23426 6.46003C6.61843 6.14086 4.20176 4.8292 2.51676 2.79086C2.24009 2.45836 1.7151 2.49753 1.4951 2.8742C0.683429 4.2642 0.691762 5.87503 1.3976 7.17586C1.06176 7.23503 0.854262 7.51753 0.854262 7.82336C0.854262 9.13086 1.4426 10.3325 2.39009 11.1525C2.21343 11.3225 2.15509 11.575 2.23009 11.8C2.64676 13.0517 3.59009 14.03 4.76926 14.52C3.48676 15.1325 2.06843 15.3367 0.805928 15.1817C0.152595 15.0934 -0.169905 15.9717 0.394262 16.3292ZM6.79676 14.7342C7.26426 14.375 7.01593 13.6267 6.42926 13.6142C5.39593 13.5925 4.45509 13.0834 3.86926 12.2825C4.15176 12.2642 4.44426 12.2209 4.72259 12.1459C5.35676 11.9742 5.32676 11.0592 4.68259 10.93C3.51343 10.695 2.59593 9.84336 2.25176 8.74669C2.56593 8.82419 2.88593 8.86753 3.20509 8.87336C3.83759 8.87669 4.07676 8.06586 3.56093 7.72669C2.39843 6.96086 1.90259 5.60836 2.23093 4.3367C4.26093 6.39336 7.01509 7.63253 9.92843 7.77253C10.3459 7.79836 10.6593 7.40586 10.5676 7.00836C10.1718 5.29253 11.1301 4.09003 12.1593 3.53586C13.1776 2.98586 14.8126 2.8142 16.0659 4.1292C16.4384 4.5217 17.6951 4.5367 18.3343 4.38753C18.0476 4.92753 17.6068 5.44003 17.1943 5.72836C17.0184 5.8517 16.9176 6.05669 16.9284 6.27086C17.0626 9.00836 16.0426 11.73 14.1301 13.7375C12.2034 15.76 9.53926 16.8742 6.62676 16.8742C5.46843 16.8742 4.33259 16.6859 3.25926 16.3225C4.54259 16.0742 5.76176 15.5309 6.79676 14.7342Z" fill="white"/>
</svg>
