<svg width="26" height="20" viewBox="0 0 26 20" fill="none" xmlns="http://www.w3.org/2000/svg">
<path d="M25.1875 2.4502C24.291 2.83692 23.3154 3.11524 22.3105 3.22364C23.3538 2.60382 24.1351 1.62461 24.5078 0.469731C23.5288 1.05212 22.4563 1.4605 21.3379 1.67676C20.8704 1.17704 20.3051 0.77893 19.6771 0.507253C19.049 0.235576 18.3718 0.0961493 17.6875 0.0976608C14.9189 0.0976608 12.6924 2.3418 12.6924 5.09571C12.6924 5.48243 12.7393 5.86915 12.8154 6.24122C8.66992 6.02442 4.97266 4.04395 2.51465 1.01172C2.06677 1.77671 1.83207 2.64774 1.83496 3.53418C1.83496 5.26856 2.7168 6.79786 4.06152 7.69727C3.26906 7.66606 2.49514 7.44824 1.80273 7.06153V7.12305C1.80273 9.55176 3.51953 11.5645 5.80762 12.0274C5.378 12.1389 4.93606 12.196 4.49219 12.1973C4.16699 12.1973 3.85937 12.165 3.54883 12.1211C4.18164 14.1016 6.02441 15.54 8.21875 15.5869C6.50195 16.9316 4.35156 17.7227 2.0166 17.7227C1.59766 17.7227 1.21094 17.708 0.80957 17.6611C3.02441 19.082 5.65234 19.9024 8.48242 19.9024C17.6699 19.9024 22.6973 12.291 22.6973 5.68458C22.6973 5.46778 22.6973 5.25098 22.6826 5.03418C23.6553 4.32227 24.5078 3.44043 25.1875 2.4502Z" fill="white"/>
</svg>
