<svg width="473" height="462" viewBox="0 0 473 462" fill="none" xmlns="http://www.w3.org/2000/svg">
<path d="M469.145 393.765C474.247 396.712 474.361 401.586 469.259 404.533L376.405 459.166C371.303 462.113 363.026 462.113 357.811 459.166L3.85475 254.916C-1.24712 251.969 -1.36049 247.095 3.74138 244.148L96.5954 189.515C101.697 186.568 109.974 186.568 115.189 189.515L469.145 393.765Z" fill="#BADDF9"/>
<path d="M469.145 391.499C474.247 394.446 474.361 399.319 469.259 402.266L376.405 456.899C371.303 459.846 363.026 459.846 357.811 456.899L3.85475 252.649C-1.24712 249.702 -1.36049 244.828 3.74138 241.881L96.5954 187.248C101.697 184.301 109.974 184.301 115.189 187.248L469.145 391.499Z" fill="#E3F1FC"/>
<path d="M106.346 269.312H153.283L171.876 256.957L159.292 241.882H115.642L106.346 269.312Z" fill="#BADDF9"/>
<path d="M128.454 204.477L106.459 217.285L84.2375 204.477L106.346 191.669L128.454 204.477Z" fill="white"/>
<path d="M128.454 204.478L128.34 256.504L106.346 269.312L106.459 217.286L128.454 204.478Z" fill="#2195F2"/>
<path d="M106.459 217.286L106.346 269.312L84.1243 256.504L84.2376 204.478L106.459 217.286Z" fill="#BADDF9"/>
<path d="M126.073 210.258L126.186 213.091L122.672 215.132V212.298L126.073 210.258Z" fill="#64B4F5"/>
<path d="M109.634 219.779L121.538 212.979V215.812L109.747 222.613L109.634 219.779Z" fill="#64B4F5"/>
<path d="M126.073 215.925L126.186 218.758L122.672 220.799V217.965L126.073 215.925Z" fill="#64B4F5"/>
<path d="M109.634 225.446L121.538 218.532V221.479L109.747 228.28L109.634 225.446Z" fill="#64B4F5"/>
<path d="M126.073 221.593L126.186 224.426L122.672 226.467V223.52L126.073 221.593Z" fill="#64B4F5"/>
<path d="M109.634 231.114L121.538 224.2V227.147L109.747 233.948L109.634 231.114Z" fill="#64B4F5"/>
<path d="M126.073 227.146L126.186 230.094L122.672 232.134V229.187L126.073 227.146Z" fill="#64B4F5"/>
<path d="M109.634 236.668L121.538 229.867V232.701L109.747 239.502L109.634 236.668Z" fill="#64B4F5"/>
<path d="M126.073 232.813L126.186 235.647L122.672 237.801V234.854L126.073 232.813Z" fill="#64B4F5"/>
<path d="M109.634 242.335L121.538 235.534V238.368L109.747 245.169L109.634 242.335Z" fill="#64B4F5"/>
<path d="M126.073 238.481L126.186 241.315L122.672 243.355V240.522L126.073 238.481Z" fill="#64B4F5"/>
<path d="M109.634 248.003L121.538 241.089V244.036L109.747 250.837L109.634 248.003Z" fill="#64B4F5"/>
<path d="M87.0721 210.258L86.9587 213.091L90.5867 215.132V212.298L87.0721 210.258Z" fill="#64B4F5"/>
<path d="M103.511 219.779L91.7205 212.979V215.812L103.511 222.613V219.779Z" fill="#64B4F5"/>
<path d="M87.0721 215.925L86.9587 218.758L90.5867 220.799V217.965L87.0721 215.925Z" fill="#64B4F5"/>
<path d="M103.511 225.446L91.7205 218.532V221.479L103.511 228.28V225.446Z" fill="#64B4F5"/>
<path d="M87.0721 221.593L86.9587 224.426L90.5867 226.467V223.52L87.0721 221.593Z" fill="#64B4F5"/>
<path d="M103.511 231.114L91.7205 224.2V227.147L103.511 233.948V231.114Z" fill="#64B4F5"/>
<path d="M87.0721 227.146L86.9587 230.094L90.5867 232.134V229.187L87.0721 227.146Z" fill="#64B4F5"/>
<path d="M103.511 236.668L91.7205 229.867V232.701L103.511 239.502V236.668Z" fill="#64B4F5"/>
<path d="M87.0721 232.813L86.9587 235.647L90.5867 237.801V234.854L87.0721 232.813Z" fill="#64B4F5"/>
<path d="M103.511 242.335L91.7205 235.534V238.368L103.511 245.169V242.335Z" fill="#64B4F5"/>
<path d="M87.0721 238.481L86.9587 241.315L90.5867 243.355V240.522L87.0721 238.481Z" fill="#64B4F5"/>
<path d="M103.511 248.003L91.7205 241.089V244.036L103.511 250.837V248.003Z" fill="#64B4F5"/>
<path d="M149.655 295.04H215.186L241.035 277.925L223.575 256.956H162.58L149.655 295.04Z" fill="#BADDF9"/>
<path d="M180.606 204.704L149.882 222.612L118.93 204.704L149.655 186.908L180.606 204.704Z" fill="#E3F1FC"/>
<path d="M180.606 204.704L180.38 277.246L149.655 295.041L149.882 222.613L180.606 204.704Z" fill="#2195F2"/>
<path d="M149.882 222.613L149.655 295.041L118.704 277.246L118.93 204.704L149.882 222.613Z" fill="#BADDF9"/>
<path d="M177.318 212.864L177.432 216.831L172.443 219.665V215.585L177.318 212.864Z" fill="#64B4F5"/>
<path d="M154.303 226.126L170.856 216.491V220.572L154.417 230.093L154.303 226.126Z" fill="#64B4F5"/>
<path d="M177.318 220.686L177.432 224.653L172.443 227.6V223.519L177.318 220.686Z" fill="#64B4F5"/>
<path d="M154.303 233.947L170.856 224.426V228.506L154.417 237.914L154.303 233.947Z" fill="#64B4F5"/>
<path d="M177.318 228.506L177.432 232.586L172.443 235.42V231.34L177.318 228.506Z" fill="#64B4F5"/>
<path d="M154.303 241.767L170.856 232.246V236.327L154.417 245.734L154.303 241.767Z" fill="#64B4F5"/>
<path d="M177.318 236.44L177.432 240.408L172.443 243.241V239.274L177.318 236.44Z" fill="#64B4F5"/>
<path d="M154.303 249.702L170.856 240.181V244.148L154.417 253.669L154.303 249.702Z" fill="#64B4F5"/>
<path d="M177.318 244.262L177.432 248.229L172.443 251.176V247.095L177.318 244.262Z" fill="#64B4F5"/>
<path d="M154.303 257.523L170.856 248.002V252.082L154.417 261.49L154.303 257.523Z" fill="#64B4F5"/>
<path d="M177.318 252.195L177.432 256.162L172.443 258.996V254.916L177.318 252.195Z" fill="#64B4F5"/>
<path d="M154.303 265.343L170.856 255.822V259.903L154.417 269.424L154.303 265.343Z" fill="#64B4F5"/>
<path d="M122.785 212.864L122.672 216.831L127.66 219.665V215.585L122.785 212.864Z" fill="#64B4F5"/>
<path d="M145.8 226.126L129.247 216.491V220.572L145.687 230.093L145.8 226.126Z" fill="#64B4F5"/>
<path d="M122.785 220.686L122.672 224.653L127.66 227.6V223.519L122.785 220.686Z" fill="#64B4F5"/>
<path d="M145.8 233.947L129.247 224.426V228.506L145.687 237.914L145.8 233.947Z" fill="#64B4F5"/>
<path d="M122.785 228.506L122.672 232.586L127.66 235.42V231.34L122.785 228.506Z" fill="#64B4F5"/>
<path d="M145.8 241.767L129.247 232.246V236.327L145.687 245.734L145.8 241.767Z" fill="#64B4F5"/>
<path d="M122.785 236.44L122.672 240.408L127.66 243.241V239.274L122.785 236.44Z" fill="#64B4F5"/>
<path d="M145.8 249.702L129.247 240.181V244.148L145.687 253.669L145.8 249.702Z" fill="#64B4F5"/>
<path d="M122.785 244.262L122.672 248.229L127.66 251.176V247.095L122.785 244.262Z" fill="#64B4F5"/>
<path d="M145.8 257.523L129.247 248.002V252.082L145.687 261.49L145.8 257.523Z" fill="#64B4F5"/>
<path d="M122.785 252.195L122.672 256.162L127.66 258.996V254.916L122.785 252.195Z" fill="#64B4F5"/>
<path d="M145.8 265.343L129.247 255.822V259.903L145.687 269.424L145.8 265.343Z" fill="#64B4F5"/>
<path d="M228.224 338.338H293.754L319.604 321.223L302.144 300.141H241.262L228.224 338.338Z" fill="#8FC9F7"/>
<path d="M206.569 248.455L206.342 322.244L203.395 323.944L203.621 250.155L206.569 248.455Z" fill="#64B4F5"/>
<path d="M203.621 250.155L203.395 323.944L195.118 319.183L195.345 245.395L203.621 250.155Z" fill="#BADDF9"/>
<path d="M223.689 258.316L223.462 332.105L206.342 322.244L206.569 248.455L223.689 258.316Z" fill="#8FC9F7"/>
<path d="M228.45 264.55L228.224 338.339L220.514 333.805L220.741 260.13L228.45 264.55Z" fill="#BADDF9"/>
<path d="M233.212 261.716L231.398 262.85L228.45 264.55L228.224 338.338L231.171 336.525L233.099 335.505L254.413 323.15L254.64 249.361L233.212 261.716Z" fill="#2195F2"/>
<path d="M254.64 249.362L233.212 261.716L231.398 262.85L228.45 264.55L220.741 260.129L223.689 258.316L206.569 248.455L203.621 250.155L195.345 245.394L198.293 243.694L221.421 230.206L254.64 249.362Z" fill="#E3F1FC"/>
<path d="M253.279 253.216V257.183L250.105 258.997V255.029L253.279 253.216Z" fill="#64B4F5"/>
<path d="M230.718 266.251L248.631 255.937V259.904L230.718 270.105V266.251Z" fill="#64B4F5"/>
<path d="M253.279 260.924V264.778L250.105 266.704V262.737L253.279 260.924Z" fill="#64B4F5"/>
<path d="M230.718 273.846L248.631 263.645V267.612L230.718 277.699V273.846Z" fill="#64B4F5"/>
<path d="M253.279 268.631V272.485L250.105 274.298V270.444L253.279 268.631Z" fill="#64B4F5"/>
<path d="M230.718 281.553L248.631 271.238V275.205L230.718 285.407V281.553Z" fill="#64B4F5"/>
<path d="M253.279 276.226V280.193L250.105 282.006V278.039L253.279 276.226Z" fill="#64B4F5"/>
<path d="M230.718 289.147L248.631 278.946V282.913L230.718 293.115V289.147Z" fill="#64B4F5"/>
<path d="M253.279 283.933V287.786L250.105 289.713V285.746L253.279 283.933Z" fill="#64B4F5"/>
<path d="M230.718 296.854L248.631 286.653V290.507L230.718 300.708V296.854Z" fill="#64B4F5"/>
<path d="M253.279 291.641V295.494L250.105 297.308V293.454L253.279 291.641Z" fill="#64B4F5"/>
<path d="M230.718 304.563L248.631 294.248V298.215L230.718 308.416V304.563Z" fill="#64B4F5"/>
<path d="M253.279 299.121V303.088L250.105 304.902V300.935L253.279 299.121Z" fill="#64B4F5"/>
<path d="M230.718 312.043L248.631 301.842V305.809L230.718 316.01V312.043Z" fill="#64B4F5"/>
<path d="M253.279 306.829V310.683L250.105 312.61V308.643L253.279 306.829Z" fill="#64B4F5"/>
<path d="M230.718 319.751L248.631 309.55V313.404L230.718 323.605V319.751Z" fill="#64B4F5"/>
<path d="M201.581 282.006L197.386 279.626V285.066L201.581 287.446V282.006ZM201.581 296.854L197.386 294.474V299.915L201.581 302.295V296.854ZM201.581 289.373L197.386 286.993V292.434L201.581 294.814V289.373ZM197.386 249.815V255.256L201.581 257.636V252.196L197.386 249.815ZM201.581 304.335L197.386 301.955V307.395L201.581 309.776V304.335ZM201.581 259.677L197.386 257.296V262.737L201.581 265.117V259.677ZM201.581 274.525L197.386 272.145V277.585L201.581 279.966V274.525ZM201.581 267.044L197.386 264.664V270.104L201.581 272.485V267.044Z" fill="#64B4F5"/>
<path d="M217.566 287.446L213.372 285.066V290.507L217.566 292.887V287.446ZM217.566 302.408L213.372 300.028V305.468L217.566 307.849V302.408ZM217.566 294.927L213.372 292.547V297.987L217.566 300.368V294.927ZM213.372 255.369V260.81L217.566 263.19V257.749L213.372 255.369ZM217.566 309.889L213.372 307.508V312.949L217.566 315.329V309.889ZM217.566 265.117L213.372 262.737V268.177L217.566 270.558V265.117ZM217.566 280.079L213.372 277.698V283.139L217.566 285.519V280.079ZM217.566 272.598L213.372 270.218V275.658L217.566 278.038V272.598Z" fill="#2195F2"/>
<path d="M226.75 296.4L222.555 294.02V299.461L226.75 301.841V296.4ZM226.75 311.249L222.555 308.868V314.309L226.75 316.689V311.249ZM226.75 303.881L222.555 301.501V306.942L226.75 309.322V303.881ZM222.555 264.21V269.651L226.75 272.031V266.59L222.555 264.21ZM226.75 318.73L222.555 316.349V321.79L226.75 324.17V318.73ZM226.75 274.071L222.555 271.691V277.131L226.75 279.512V274.071ZM226.75 288.919L222.555 286.539V291.98L226.75 294.36V288.919ZM226.75 281.552L222.555 279.172V284.612L226.75 286.993V281.552Z" fill="#64B4F5"/>
<path d="M301.351 382.09H366.881L392.731 364.975L375.271 344.006H314.275L301.351 382.09Z" fill="#BADDF9"/>
<path d="M332.302 291.753L301.577 309.662L270.626 291.753L301.351 273.958L332.302 291.753Z" fill="#E3F1FC"/>
<path d="M332.302 291.754L332.075 364.296L301.351 382.091L301.577 309.663L332.302 291.754Z" fill="#2195F2"/>
<path d="M301.577 309.663L301.35 382.091L270.399 364.296L270.626 291.754L301.577 309.663Z" fill="#BADDF9"/>
<path d="M329.014 299.914L329.127 303.881L324.139 306.715V302.748L329.014 299.914Z" fill="#64B4F5"/>
<path d="M305.999 313.175L322.552 303.541V307.621L306.112 317.143L305.999 313.175Z" fill="#64B4F5"/>
<path d="M329.014 307.735L329.127 311.703L324.139 314.65V310.569L329.014 307.735Z" fill="#64B4F5"/>
<path d="M305.999 320.997L322.552 311.476V315.556L306.112 324.964L305.999 320.997Z" fill="#64B4F5"/>
<path d="M329.014 315.556L329.127 319.636L324.139 322.47V318.389L329.014 315.556Z" fill="#64B4F5"/>
<path d="M305.999 328.817L322.552 319.296V323.376L306.112 332.784L305.999 328.817Z" fill="#64B4F5"/>
<path d="M329.014 323.49L329.127 327.457L324.139 330.291V326.324L329.014 323.49Z" fill="#64B4F5"/>
<path d="M305.999 336.752L322.552 327.23V331.198L306.112 340.719L305.999 336.752Z" fill="#64B4F5"/>
<path d="M329.014 331.311L329.127 335.278L324.139 338.225V334.144L329.014 331.311Z" fill="#64B4F5"/>
<path d="M305.999 344.572L322.552 335.051V339.131L306.112 348.539L305.999 344.572Z" fill="#64B4F5"/>
<path d="M329.014 339.245L329.127 343.212L324.139 346.046V341.965L329.014 339.245Z" fill="#64B4F5"/>
<path d="M305.999 352.393L322.552 342.872V346.953L306.112 356.474L305.999 352.393Z" fill="#64B4F5"/>
<path d="M274.594 299.914L274.481 303.881L279.469 306.715V302.748L274.594 299.914Z" fill="#64B4F5"/>
<path d="M297.496 313.175L280.943 303.541V307.621L297.382 317.143L297.496 313.175Z" fill="#64B4F5"/>
<path d="M274.594 307.735L274.481 311.703L279.469 314.65V310.569L274.594 307.735Z" fill="#64B4F5"/>
<path d="M297.496 320.997L280.943 311.476V315.556L297.382 324.964L297.496 320.997Z" fill="#64B4F5"/>
<path d="M274.594 315.556L274.481 319.636L279.469 322.47V318.389L274.594 315.556Z" fill="#64B4F5"/>
<path d="M297.496 328.817L280.943 319.296V323.376L297.382 332.784L297.496 328.817Z" fill="#64B4F5"/>
<path d="M274.594 323.49L274.481 327.457L279.469 330.291V326.324L274.594 323.49Z" fill="#64B4F5"/>
<path d="M297.496 336.752L280.943 327.23V331.198L297.382 340.719L297.496 336.752Z" fill="#64B4F5"/>
<path d="M274.594 331.311L274.481 335.278L279.469 338.225V334.144L274.594 331.311Z" fill="#64B4F5"/>
<path d="M297.496 344.572L280.943 335.051V339.131L297.382 348.539L297.496 344.572Z" fill="#64B4F5"/>
<path d="M274.594 339.245L274.481 343.212L279.469 346.046V341.965L274.594 339.245Z" fill="#64B4F5"/>
<path d="M297.496 352.393L280.943 342.872V346.953L297.382 356.474L297.496 352.393Z" fill="#64B4F5"/>
<path d="M347.721 410.201H413.251L439.101 393.085L421.528 372.003H360.645L347.721 410.201Z" fill="#BADDF9"/>
<path d="M378.672 346.386L347.947 364.182L316.996 346.386L347.721 328.478L378.672 346.386Z" fill="white"/>
<path d="M378.672 346.387L378.445 392.292L347.721 410.201L347.947 364.182L378.672 346.387Z" fill="#2195F2"/>
<path d="M347.947 364.182L347.721 410.201L316.769 392.292L316.996 346.387L347.947 364.182Z" fill="#BADDF9"/>
<path d="M375.271 360.895L375.497 364.862L365.747 370.529V366.562L375.271 360.895Z" fill="#64B4F5"/>
<path d="M352.369 374.156L364.16 367.469V371.436L352.482 378.123L352.369 374.156Z" fill="#64B4F5"/>
<path d="M375.271 368.829L375.497 372.796L365.747 378.464V374.383L375.271 368.829Z" fill="#64B4F5"/>
<path d="M352.369 382.091L364.16 375.29V379.371L352.482 386.058L352.369 382.091Z" fill="#64B4F5"/>
<path d="M375.271 376.649L375.497 380.617L365.747 386.284V382.203L375.271 376.649Z" fill="#64B4F5"/>
<path d="M352.369 389.911L364.16 383.11V387.191L352.482 393.878L352.369 389.911Z" fill="#64B4F5"/>
<path d="M375.271 384.471L375.497 388.438L365.747 394.218V390.138L375.271 384.471Z" fill="#64B4F5"/>
<path d="M352.369 397.732L364.16 391.045V395.125L352.482 401.699L352.369 397.732Z" fill="#64B4F5"/>
<path d="M320.851 360.895L320.737 364.862L331.508 371.096V367.015L320.851 360.895Z" fill="#64B4F5"/>
<path d="M343.866 374.156L332.982 367.922V372.002L343.753 378.123L343.866 374.156Z" fill="#64B4F5"/>
<path d="M320.851 368.829L320.737 372.796L331.508 378.917V374.95L320.851 368.829Z" fill="#64B4F5"/>
<path d="M343.866 382.091L332.982 375.856V379.824L343.753 386.058L343.866 382.091Z" fill="#64B4F5"/>
<path d="M320.851 376.649L320.737 380.617L331.508 386.851V382.77L320.851 376.649Z" fill="#64B4F5"/>
<path d="M343.866 389.911L332.982 383.677V387.757L343.753 393.878L343.866 389.911Z" fill="#64B4F5"/>
<path d="M320.851 384.471L320.737 388.438L331.508 394.672V390.591L320.851 384.471Z" fill="#64B4F5"/>
<path d="M343.866 397.732L332.982 391.498V395.579L343.753 401.699L343.866 397.732Z" fill="#64B4F5"/>
<path d="M172.897 26.4095L209.97 4.87371C223.235 -2.83384 241.602 -1.70038 261.896 9.9743L224.822 31.5101C204.528 19.8354 186.162 18.702 172.897 26.4095Z" fill="#42A4F5"/>
<path d="M224.822 31.5101C265.184 54.7461 297.723 111.193 297.609 157.551C297.382 224.879 227.884 250.269 224.142 251.629C220.514 245.848 151.356 136.922 151.469 73.2216C151.696 26.9763 184.461 8.27411 224.822 31.5101Z" fill="#2195F2"/>
<path d="M280.603 220.798L243.529 242.334C265.297 229.639 297.382 203.343 297.609 157.551C297.723 111.192 265.184 54.746 224.823 31.5099L261.896 9.97412C302.258 33.2101 334.796 89.6566 334.683 136.015C334.569 181.807 302.371 208.217 280.603 220.798Z" fill="#1D87E5"/>
<path d="M235.48 161.405L239.221 159.251L239.108 169.906L235.366 172.059L235.48 161.405Z" fill="#1D87E5"/>
<path d="M231.965 152.45L235.706 150.297L238.654 151.997L234.913 154.151L231.965 152.45Z" fill="#1D87E5"/>
<path d="M234.913 154.151L238.654 151.997L246.25 167.072L242.509 169.226L234.913 154.151Z" fill="#1D87E5"/>
<path d="M242.509 169.225V158.571L246.024 160.611L245.91 178.18L243.076 176.48L235.48 161.405L235.366 172.059L231.852 170.019L231.965 152.45L234.913 154.15L242.509 169.225Z" fill="#1D87E5"/>
<path d="M242.509 158.572L246.25 156.418L249.765 158.458L246.024 160.612L242.509 158.572Z" fill="#1D87E5"/>
<path d="M246.024 160.612L249.765 158.458L249.652 176.027L245.91 178.18L246.024 160.612Z" fill="#1D87E5"/>
<path d="M254.073 170.02L257.815 167.866C257.588 167.98 257.361 168.206 257.134 168.546C256.681 169.113 256.454 170.02 256.454 171.153C256.454 172.287 256.681 173.307 257.021 174.44C257.474 175.574 258.041 176.481 258.722 177.501C259.515 178.407 260.309 179.087 261.329 179.654C262.35 180.221 263.257 180.561 264.05 180.448L260.309 182.601C259.515 182.601 258.608 182.375 257.588 181.808C256.567 181.241 255.774 180.561 254.98 179.654C254.187 178.747 253.62 177.727 253.28 176.594C252.826 175.46 252.599 174.44 252.713 173.307C252.713 172.173 252.939 171.38 253.393 170.7C253.62 170.473 253.846 170.246 254.073 170.02Z" fill="#1D87E5"/>
<path d="M260.422 177.5L264.164 175.347L267.452 177.16L263.71 179.314L260.422 177.5Z" fill="#1D87E5"/>
<path d="M263.71 179.314L267.452 177.16V184.301L263.71 186.455V179.314Z" fill="#1D87E5"/>
<path d="M260.422 182.601V177.5L263.71 179.314V186.454C262.917 186.681 261.896 186.681 260.876 186.454C259.742 186.228 258.722 185.774 257.588 185.094C256.001 184.187 254.527 182.941 253.28 181.467C252.033 179.994 251.012 178.293 250.332 176.48C249.652 174.666 249.312 172.966 249.312 171.153C249.312 169.452 249.652 168.092 250.445 167.072C251.126 166.052 252.146 165.599 253.506 165.599C254.754 165.599 256.227 166.052 257.815 166.959C259.175 167.752 260.422 168.659 261.443 169.792C262.576 170.926 263.483 172.173 264.164 173.646L261.896 174.78C260.762 172.853 259.515 171.379 257.928 170.473C256.908 169.906 256.114 169.679 255.32 169.679C254.527 169.679 253.96 170.019 253.506 170.586C253.053 171.153 252.826 172.059 252.826 173.193C252.826 174.326 253.053 175.346 253.393 176.48C253.847 177.613 254.413 178.52 255.094 179.54C255.887 180.447 256.681 181.127 257.701 181.694C258.722 182.374 259.629 182.601 260.422 182.601Z" fill="#1D87E5"/>
<path d="M251.352 166.166L255.094 164.012C255.661 163.672 256.341 163.559 257.021 163.445C258.268 163.445 259.742 163.899 261.329 164.805C262.69 165.599 263.937 166.506 264.957 167.639C266.091 168.773 266.998 170.019 267.678 171.493L263.937 173.646C263.143 172.173 262.236 170.926 261.216 169.793C260.082 168.659 258.948 167.639 257.588 166.959C256.001 166.052 254.527 165.599 253.28 165.599C252.599 165.712 251.919 165.826 251.352 166.166Z" fill="#1D87E5"/>
<path d="M211.104 153.131L214.845 150.978V155.851L211.104 158.118V153.131Z" fill="#1D87E5"/>
<path d="M211.104 149.957L214.845 147.804L217.793 149.391L214.052 151.658L211.104 149.957Z" fill="#1D87E5"/>
<path d="M217.68 156.191L221.421 154.037L224.822 161.631L221.081 163.898L217.68 156.191Z" fill="#1D87E5"/>
<path d="M211.104 143.836L214.959 141.683L214.845 147.803L211.104 149.957V143.836Z" fill="#1D87E5"/>
<path d="M214.052 151.657L217.793 149.504C218.814 150.071 219.72 150.297 220.174 150.071L216.433 152.224C215.866 152.451 215.072 152.224 214.052 151.657Z" fill="#1D87E5"/>
<path d="M220.401 149.957L216.66 152.111L216.546 152.224L220.288 150.07C220.288 149.957 220.288 149.957 220.401 149.957Z" fill="#1D87E5"/>
<path d="M223.235 153.698L219.494 155.851C219.721 155.738 219.947 155.511 220.061 155.398L223.802 153.244C223.575 153.471 223.462 153.584 223.235 153.698Z" fill="#1D87E5"/>
<path d="M207.589 138.509L211.331 136.242L218.02 140.096L214.278 142.25L207.589 138.509Z" fill="#1D87E5"/>
<path d="M214.279 142.249L218.02 140.096C219.38 140.889 220.514 141.796 221.535 142.929C222.555 144.063 223.349 145.196 223.802 146.443C224.369 147.69 224.596 148.937 224.596 150.297C224.596 151.544 224.369 152.564 223.802 153.244L220.061 155.397C220.628 154.717 220.854 153.811 220.854 152.45C220.854 151.09 220.628 149.844 220.061 148.597C219.494 147.35 218.814 146.103 217.793 145.083C216.773 143.949 215.639 143.043 214.279 142.249Z" fill="#1D87E5"/>
<path d="M220.061 155.397C219.494 156.078 218.7 156.304 217.68 156.191L221.081 163.785L217.226 161.632L214.279 155.057L214.052 154.944L210.991 153.131V158.004L207.476 155.964V138.396L214.052 142.249C215.412 143.043 216.546 143.949 217.566 145.083C218.587 146.216 219.38 147.35 219.834 148.597C220.401 149.844 220.628 151.09 220.628 152.45C220.854 153.811 220.628 154.717 220.061 155.397ZM216.433 152.224C217 151.997 217.226 151.43 217.226 150.41C217.226 149.39 217 148.483 216.433 147.69C215.866 146.896 215.072 146.103 214.052 145.536L211.217 143.836V149.957L214.052 151.657C215.072 152.224 215.866 152.45 216.433 152.224Z" fill="#1D87E5"/>
<path d="M224.142 165.599L224.256 148.03L227.77 150.07V167.639L224.142 165.599Z" fill="#1D87E5"/>
<path d="M224.256 148.031L227.997 145.877L231.512 147.917L227.77 150.071L224.256 148.031Z" fill="#1D87E5"/>
<path d="M227.77 150.071L231.512 147.917V165.486L227.77 167.639V150.071Z" fill="#1D87E5"/>
<path d="M199.88 151.543V133.975L203.508 136.015L203.395 153.584L199.88 151.543Z" fill="#1D87E5"/>
<path d="M199.88 133.975L203.622 131.821L207.249 133.862L203.508 136.015L199.88 133.975Z" fill="#1D87E5"/>
<path d="M203.508 136.015L207.25 133.861L207.136 151.43L203.395 153.584L203.508 136.015Z" fill="#1D87E5"/>
<path d="M185.255 135.902L188.996 133.748V140.889L185.255 143.156V135.902Z" fill="#1D87E5"/>
<path d="M181.74 123.547L185.481 121.28L188.996 123.321L185.255 125.587L181.74 123.547Z" fill="#1D87E5"/>
<path d="M185.255 125.587L188.996 123.32V130.348L185.255 132.501V125.587Z" fill="#1D87E5"/>
<path d="M185.255 132.501L188.996 130.348L195.912 134.315L192.171 136.468L185.255 132.501Z" fill="#1D87E5"/>
<path d="M192.171 129.555L195.912 127.401L199.54 129.442L195.685 131.595L192.171 129.555Z" fill="#1D87E5"/>
<path d="M195.685 131.595L199.54 129.441L199.426 147.01L195.685 149.164V131.595Z" fill="#1D87E5"/>
<path d="M192.171 136.469V129.555L195.685 131.595V149.164L192.171 147.123V139.869L185.255 135.902V143.156L181.627 141.116L181.74 123.547L185.255 125.588V132.502L192.171 136.469Z" fill="#1D87E5"/>
<path d="M227.544 138.282L231.285 136.129L229.924 139.076L226.183 141.343L227.544 138.282Z" fill="#1D87E5"/>
<path d="M228.677 135.903L232.419 133.749L237.294 136.469L233.552 138.623L228.677 135.903Z" fill="#1D87E5"/>
<path d="M231.171 130.574L234.913 128.421L232.419 133.748L228.677 135.902L231.171 130.574Z" fill="#1D87E5"/>
<path d="M229.358 125.588L232.872 127.628L239.675 149.164L235.933 147.01L234.573 142.477L227.43 138.396L226.07 141.343L222.442 139.303L229.358 125.588ZM228.677 135.902L233.552 138.736L231.172 130.575L228.677 135.902Z" fill="#1D87E5"/>
<path d="M229.357 125.588L233.099 123.434L236.613 125.361L232.872 127.628L229.357 125.588Z" fill="#1D87E5"/>
<path d="M232.872 127.628L236.613 125.361L243.416 146.897L239.675 149.05L232.872 127.628Z" fill="#1D87E5"/>
<path d="M245.343 147.463L249.085 145.31V150.183L245.343 152.337V147.463Z" fill="#1D87E5"/>
<path d="M245.343 144.289L249.085 142.022L252.032 143.723L248.291 145.876L245.343 144.289Z" fill="#1D87E5"/>
<path d="M251.919 150.523L255.66 148.369L259.175 155.963L255.32 158.117L251.919 150.523Z" fill="#1D87E5"/>
<path d="M245.457 138.168L249.198 135.901L249.085 142.022L245.343 144.289L245.457 138.168Z" fill="#1D87E5"/>
<path d="M248.291 145.876L252.032 143.723C253.053 144.289 253.96 144.516 254.413 144.289L250.672 146.443C250.105 146.67 249.311 146.556 248.291 145.876Z" fill="#1D87E5"/>
<path d="M254.64 144.289L250.899 146.443L250.785 146.556L254.527 144.402C254.527 144.289 254.527 144.289 254.64 144.289Z" fill="#1D87E5"/>
<path d="M257.475 148.03L253.733 150.183C253.96 150.07 254.187 149.843 254.3 149.73L258.041 147.576C257.815 147.69 257.701 147.916 257.475 148.03Z" fill="#1D87E5"/>
<path d="M241.829 132.728L245.683 130.574L252.259 134.428L248.518 136.582L241.829 132.728Z" fill="#1D87E5"/>
<path d="M248.518 136.581L252.259 134.428C253.62 135.221 254.753 136.128 255.774 137.261C256.794 138.395 257.588 139.528 258.041 140.775C258.608 142.022 258.835 143.269 258.835 144.629C258.835 145.876 258.608 146.896 258.041 147.576L254.3 149.73C254.867 149.049 255.094 148.143 255.094 146.782C255.094 145.422 254.867 144.176 254.3 142.929C253.733 141.682 253.053 140.435 252.032 139.415C251.012 138.282 249.878 137.375 248.518 136.581Z" fill="#1D87E5"/>
<path d="M254.3 149.73C253.733 150.41 252.939 150.636 251.919 150.523L255.32 158.117L251.466 155.964L248.518 149.389L248.291 149.276L245.23 147.463V152.336L241.715 150.296V132.728L248.291 136.581C249.652 137.375 250.785 138.282 251.806 139.415C252.826 140.548 253.62 141.682 254.073 142.929C254.64 144.176 254.867 145.422 254.867 146.782C255.094 148.143 254.867 149.049 254.3 149.73ZM250.672 146.556C251.239 146.329 251.466 145.762 251.466 144.742C251.466 143.722 251.239 142.815 250.672 142.022C250.105 141.229 249.311 140.435 248.291 139.868L245.457 138.168V144.289L248.291 145.989C249.311 146.556 250.105 146.669 250.672 146.556Z" fill="#1D87E5"/>
<path d="M262.01 154.604L265.751 152.45V156.531L262.01 158.684V154.604Z" fill="#1D87E5"/>
<path d="M262.01 158.685L265.751 156.531L274.027 161.292L270.286 163.445L262.01 158.685Z" fill="#1D87E5"/>
<path d="M270.286 163.445L274.027 161.291V164.578L270.286 166.732V163.445Z" fill="#1D87E5"/>
<path d="M262.01 147.69L265.751 145.423V149.277L262.01 151.43V147.69Z" fill="#1D87E5"/>
<path d="M262.01 151.43L265.751 149.276L272.893 153.357L269.039 155.51L262.01 151.43Z" fill="#1D87E5"/>
<path d="M269.039 155.511L272.894 153.357L272.78 156.531L269.039 158.685V155.511Z" fill="#1D87E5"/>
<path d="M270.059 149.05L273.8 146.896V150.07L270.059 152.337V149.05Z" fill="#1D87E5"/>
<path d="M258.495 142.363L262.236 140.209L273.8 146.896L270.059 149.05L258.495 142.363Z" fill="#1D87E5"/>
<path d="M262.009 158.684L270.286 163.445V166.732L258.495 159.931V142.362L270.059 149.05V152.337L262.009 147.69V151.43L269.039 155.51V158.684L262.009 154.604V158.684Z" fill="#1D87E5"/>
<path d="M179.359 96.6839L183.101 94.5303L186.502 108.812L182.76 110.966L179.359 96.6839Z" fill="#1D87E5"/>
<path d="M175.731 94.5305L179.473 92.377L183.101 94.5305L179.359 96.6841L175.731 94.5305Z" fill="#1D87E5"/>
<path d="M187.976 107.339L191.717 105.185L188.203 115.046L184.461 117.2L187.976 107.339Z" fill="#1D87E5"/>
<path d="M189.676 102.692L193.418 100.425L196.932 114.933L193.191 117.087L189.676 102.692Z" fill="#1D87E5"/>
<path d="M186.388 100.764L190.13 98.6108L193.418 100.424L189.676 102.691L186.388 100.764Z" fill="#1D87E5"/>
<path d="M196.706 106.658L200.447 104.505L203.848 106.545L200.107 108.699L196.706 106.658Z" fill="#1D87E5"/>
<path d="M193.191 117.086L196.706 106.658L200.107 108.699L195.118 123.32L191.264 121.167L187.976 107.338L184.461 117.2L180.606 115.046L175.731 94.5303L179.359 96.6839L182.76 110.966L186.388 100.764L189.676 102.691L193.191 117.086Z" fill="#1D87E5"/>
<path d="M200.107 108.699L203.848 106.545L198.86 121.167L195.118 123.321L200.107 108.699Z" fill="#1D87E5"/>
<path d="M206.116 122.414L209.857 120.26V124.341L206.116 126.494V122.414Z" fill="#1D87E5"/>
<path d="M214.505 131.255L218.247 129.102V132.389L214.392 134.542L214.505 131.255Z" fill="#1D87E5"/>
<path d="M206.116 126.494L209.857 124.34L218.247 129.101L214.505 131.254L206.116 126.494Z" fill="#1D87E5"/>
<path d="M206.116 115.386L209.857 113.232V117.086L206.116 119.24V115.386Z" fill="#1D87E5"/>
<path d="M206.116 119.24L209.857 117.086L217 121.167L213.258 123.32L206.116 119.24Z" fill="#1D87E5"/>
<path d="M213.258 123.321L217 121.167V124.341L213.258 126.494V123.321Z" fill="#1D87E5"/>
<path d="M202.601 110.172L206.342 107.905L217.907 114.593L214.165 116.746L202.601 110.172Z" fill="#1D87E5"/>
<path d="M206.116 122.414V126.494L214.505 131.255L214.392 134.542L202.601 127.741V110.172L214.165 116.746V120.034L206.116 115.386V119.24L213.258 123.321V126.494L206.116 122.414Z" fill="#1D87E5"/>
<path d="M214.165 116.746L217.907 114.593V117.88L214.165 120.033V116.746Z" fill="#1D87E5"/>
<path d="M232.645 162.991L236.387 160.838V171.492L232.645 173.646V162.991Z" fill="#64B4F5"/>
<path d="M229.244 154.037L232.985 151.884L235.933 153.584L232.078 155.738L229.244 154.037Z" fill="#8FC9F7"/>
<path d="M232.078 155.738L235.933 153.584L243.416 168.659L239.674 170.813L232.078 155.738Z" fill="#64B4F5"/>
<path d="M239.674 170.812L239.788 160.158L243.189 162.198V179.767L240.241 178.067L232.645 162.991V173.646L229.131 171.606L229.244 154.037L232.078 155.737L239.674 170.812Z" fill="white"/>
<path d="M239.788 160.158L243.529 158.005L246.93 160.045L243.189 162.199L239.788 160.158Z" fill="#8FC9F7"/>
<path d="M243.189 162.199L246.93 160.045V177.614L243.189 179.767V162.199Z" fill="#64B4F5"/>
<path d="M251.352 171.607L255.093 169.453C254.867 169.566 254.64 169.793 254.413 170.133C253.96 170.7 253.733 171.607 253.733 172.74C253.733 173.874 253.96 174.894 254.3 176.027C254.753 177.161 255.32 178.067 256 179.088C256.794 179.994 257.588 180.674 258.608 181.241C259.628 181.808 260.535 182.148 261.329 182.035L257.588 184.188C256.794 184.188 255.887 183.961 254.867 183.395C253.846 182.828 253.053 182.148 252.259 181.241C251.465 180.334 250.899 179.314 250.558 178.181C250.105 177.047 249.878 176.027 249.992 174.894C249.992 173.76 250.218 172.967 250.672 172.287C250.899 172.06 251.125 171.833 251.352 171.607Z" fill="#8FC9F7"/>
<path d="M257.701 179.087L261.443 176.934L264.73 178.747L260.989 180.901L257.701 179.087Z" fill="#8FC9F7"/>
<path d="M260.989 180.901L264.73 178.747V185.888L260.989 188.041V180.901Z" fill="#64B4F5"/>
<path d="M257.701 184.188V179.087L260.989 180.9V188.041C260.195 188.268 259.175 188.268 258.155 188.041C257.021 187.815 256 187.361 254.867 186.681C253.279 185.774 251.806 184.528 250.558 183.054C249.311 181.581 248.291 179.88 247.611 178.067C246.93 176.253 246.59 174.553 246.59 172.74C246.59 171.039 246.93 169.679 247.724 168.659C248.404 167.639 249.425 167.186 250.785 167.186C252.032 167.186 253.506 167.639 255.093 168.546C256.454 169.339 257.701 170.246 258.721 171.379C259.855 172.513 260.762 173.76 261.442 175.233L259.175 176.367C258.041 174.44 256.794 172.966 255.207 172.059C254.186 171.493 253.393 171.266 252.599 171.266C251.806 171.266 251.239 171.606 250.785 172.173C250.332 172.74 250.105 173.646 250.105 174.78C250.105 175.913 250.332 176.933 250.672 178.067C251.125 179.2 251.692 180.107 252.372 181.127C253.166 182.034 253.96 182.714 254.98 183.281C256 183.961 256.907 184.188 257.701 184.188Z" fill="white"/>
<path d="M248.631 167.753L252.372 165.599C252.939 165.259 253.62 165.146 254.3 165.032C255.547 165.032 257.021 165.486 258.608 166.392C259.969 167.186 261.216 168.093 262.236 169.226C263.37 170.36 264.277 171.606 264.957 173.08L261.216 175.233C260.422 173.76 259.515 172.513 258.495 171.38C257.361 170.246 256.227 169.226 254.867 168.546C253.279 167.639 251.806 167.186 250.558 167.186C249.765 167.299 249.198 167.412 248.631 167.753Z" fill="#8FC9F7"/>
<path d="M208.383 154.718L212.124 152.564V157.438L208.383 159.705V154.718Z" fill="#64B4F5"/>
<path d="M208.383 151.544L212.124 149.391L215.072 150.977L211.331 153.131L208.383 151.544Z" fill="#8FC9F7"/>
<path d="M214.958 157.779L218.7 155.625L222.101 163.219L218.36 165.486L214.958 157.779Z" fill="#64B4F5"/>
<path d="M208.383 145.423L212.124 143.27V149.39L208.383 151.544V145.423Z" fill="#64B4F5"/>
<path d="M211.331 153.131L215.072 150.978C216.092 151.544 216.999 151.771 217.453 151.544L213.711 153.698C213.145 154.038 212.351 153.811 211.331 153.131Z" fill="#8FC9F7"/>
<path d="M217.566 151.544L213.825 153.698L213.711 153.811L217.453 151.657C217.566 151.544 217.566 151.544 217.566 151.544Z" fill="#8FC9F7"/>
<path d="M220.401 155.284L216.659 157.438C216.886 157.325 217.113 157.098 217.226 156.985L220.967 154.831C220.854 154.944 220.627 155.171 220.401 155.284Z" fill="#8FC9F7"/>
<path d="M204.868 139.983L208.61 137.829L215.299 141.683L211.557 143.836L204.868 139.983Z" fill="#8FC9F7"/>
<path d="M211.557 143.836L215.299 141.683C216.659 142.476 217.793 143.383 218.813 144.516C219.834 145.65 220.627 146.783 221.081 148.03C221.648 149.277 221.874 150.524 221.874 151.884C221.874 153.131 221.648 154.151 221.081 154.831L217.339 156.984C217.906 156.304 218.133 155.398 218.133 154.037C218.133 152.677 217.906 151.43 217.339 150.184C216.773 148.937 216.092 147.69 215.072 146.67C214.052 145.536 212.804 144.63 211.557 143.836Z" fill="#8FC9F7"/>
<path d="M217.339 156.984C216.773 157.664 215.979 157.891 214.959 157.778L218.36 165.372L214.505 163.218L211.557 156.644L211.331 156.531L208.269 154.717V159.591L204.755 157.551V139.982L211.331 143.836C212.691 144.63 213.825 145.536 214.845 146.67C215.866 147.803 216.659 148.937 217.113 150.184C217.68 151.43 217.906 152.677 217.906 154.037C218.133 155.398 217.793 156.304 217.339 156.984ZM213.711 153.811C214.278 153.584 214.505 153.017 214.505 151.997C214.505 150.977 214.278 150.07 213.711 149.277C213.145 148.483 212.351 147.69 211.331 147.123L208.496 145.423V151.544L211.331 153.244C212.351 153.811 213.145 154.037 213.711 153.811Z" fill="white"/>
<path d="M221.421 167.186L221.535 149.617L225.049 151.657L224.936 169.226L221.421 167.186Z" fill="white"/>
<path d="M221.534 149.617L225.276 147.464L228.79 149.504L225.049 151.658L221.534 149.617Z" fill="#8FC9F7"/>
<path d="M225.049 151.657L228.791 149.504L228.677 167.073L224.936 169.226L225.049 151.657Z" fill="#64B4F5"/>
<path d="M197.159 153.13V135.562L200.674 137.602V155.17L197.159 153.13Z" fill="white"/>
<path d="M197.159 135.562L200.9 133.408L204.415 135.448L200.674 137.602L197.159 135.562Z" fill="#8FC9F7"/>
<path d="M200.674 137.602L204.415 135.448V153.017L200.674 155.171V137.602Z" fill="#64B4F5"/>
<path d="M182.42 137.489L186.275 135.335L186.162 142.476L182.42 144.743V137.489Z" fill="#64B4F5"/>
<path d="M178.906 125.021L182.76 122.867L186.275 124.907L182.534 127.174L178.906 125.021Z" fill="#8FC9F7"/>
<path d="M182.533 127.174L186.275 124.907V131.821L182.533 134.088V127.174Z" fill="#64B4F5"/>
<path d="M182.533 134.088L186.275 131.821L193.191 135.902L189.449 138.055L182.533 134.088Z" fill="#8FC9F7"/>
<path d="M189.449 131.142L193.191 128.988L196.705 131.029L192.964 133.182L189.449 131.142Z" fill="#8FC9F7"/>
<path d="M192.964 133.182L196.705 131.028V148.597L192.964 150.751V133.182Z" fill="#64B4F5"/>
<path d="M189.449 138.056V131.142L192.964 133.182V150.751L189.449 148.71V141.456L182.42 137.489V144.743L178.906 142.703V125.021L182.534 127.175V134.089L189.449 138.056Z" fill="white"/>
<path d="M224.822 139.869L228.564 137.716L227.203 140.663L223.462 142.816L224.822 139.869Z" fill="#8FC9F7"/>
<path d="M225.956 137.489L229.697 135.222L234.573 138.055L230.831 140.209L225.956 137.489Z" fill="#8FC9F7"/>
<path d="M228.337 132.161L232.078 130.008L229.697 135.222L225.956 137.489L228.337 132.161Z" fill="#64B4F5"/>
<path d="M226.636 127.174L230.151 129.214L236.953 150.75L233.212 148.596L231.852 144.062L224.709 139.982L223.348 142.929L219.72 140.889L226.636 127.174ZM225.956 137.488L230.831 140.322L228.45 132.161L225.956 137.488Z" fill="white"/>
<path d="M226.636 127.174L230.378 124.907L233.892 126.947L230.151 129.101L226.636 127.174Z" fill="#8FC9F7"/>
<path d="M230.151 129.101L233.892 126.947L240.695 148.483L236.953 150.637L230.151 129.101Z" fill="#64B4F5"/>
<path d="M242.622 149.051L246.364 146.897V151.771L242.622 153.925V149.051Z" fill="#64B4F5"/>
<path d="M242.622 145.877L246.364 143.61L249.311 145.311L245.57 147.464L242.622 145.877Z" fill="#8FC9F7"/>
<path d="M249.198 152.112L252.94 149.958L256.341 157.552L252.599 159.706L249.198 152.112Z" fill="#64B4F5"/>
<path d="M242.622 139.643L246.364 137.489V143.61L242.622 145.877V139.643Z" fill="#64B4F5"/>
<path d="M245.57 147.464L249.311 145.311C250.332 145.877 251.239 146.104 251.692 145.877L247.951 148.031C247.384 148.258 246.59 148.144 245.57 147.464Z" fill="#8FC9F7"/>
<path d="M251.919 145.877L248.178 148.031L248.064 148.144L251.806 145.99C251.806 145.877 251.806 145.877 251.919 145.877Z" fill="#8FC9F7"/>
<path d="M254.754 149.617L251.012 151.771C251.239 151.658 251.466 151.431 251.579 151.318L255.32 149.164C255.094 149.277 254.98 149.504 254.754 149.617Z" fill="#8FC9F7"/>
<path d="M239.108 134.316L242.849 132.162L249.538 136.016L245.797 138.169L239.108 134.316Z" fill="#8FC9F7"/>
<path d="M245.797 138.169L249.538 136.016C250.899 136.809 252.032 137.716 253.053 138.849C254.073 139.983 254.867 141.116 255.32 142.363C255.887 143.61 256.114 144.857 256.114 146.217C256.114 147.464 255.887 148.484 255.32 149.164L251.579 151.317C252.146 150.637 252.373 149.731 252.373 148.37C252.373 147.01 252.146 145.763 251.579 144.517C251.012 143.27 250.332 142.023 249.311 141.003C248.291 139.869 247.157 138.963 245.797 138.169Z" fill="#8FC9F7"/>
<path d="M251.579 151.317C251.012 151.997 250.218 152.224 249.198 152.111L252.599 159.705L248.745 157.551L245.797 150.977L245.57 150.864L242.509 149.05V153.924L238.994 151.884V134.315L245.57 138.169C246.931 138.963 248.064 139.869 249.085 141.003C250.105 142.136 250.899 143.27 251.352 144.517C251.919 145.763 252.146 147.01 252.146 148.37C252.373 149.731 252.146 150.637 251.579 151.317ZM247.951 148.03C248.518 147.804 248.745 147.237 248.745 146.217C248.745 145.197 248.518 144.29 247.951 143.496C247.384 142.703 246.591 141.91 245.57 141.343L242.736 139.643V145.763L245.57 147.464C246.591 148.144 247.384 148.257 247.951 148.03Z" fill="white"/>
<path d="M259.175 156.191L263.03 154.037L262.916 158.118L259.175 160.271V156.191Z" fill="#8FC9F7"/>
<path d="M259.175 160.272L262.916 158.118L271.306 162.879L267.565 165.032L259.175 160.272Z" fill="#8FC9F7"/>
<path d="M267.565 165.032L271.306 162.878V166.165L267.565 168.319V165.032Z" fill="#64B4F5"/>
<path d="M259.288 149.277L263.03 147.01V150.864L259.288 153.017V149.277Z" fill="#8FC9F7"/>
<path d="M259.288 153.017L263.03 150.863L270.059 154.944L266.318 157.097L259.288 153.017Z" fill="#8FC9F7"/>
<path d="M266.318 157.098L270.059 154.944V158.118L266.318 160.272V157.098Z" fill="#64B4F5"/>
<path d="M267.338 150.637L271.079 148.37V151.657L267.338 153.924V150.637Z" fill="#64B4F5"/>
<path d="M255.774 143.949L259.515 141.796L271.079 148.37L267.338 150.637L255.774 143.949Z" fill="#8FC9F7"/>
<path d="M259.175 160.271L267.565 165.032V168.319L255.66 161.518L255.774 143.949L267.338 150.637V153.924L259.288 149.276V153.017L266.318 157.097V160.271L259.175 156.191V160.271Z" fill="white"/>
<path d="M176.638 98.2712L180.38 96.1177L183.781 110.399L180.039 112.553L176.638 98.2712Z" fill="#64B4F5"/>
<path d="M172.897 96.1175L176.638 93.9639L180.379 96.1175L176.638 98.271L172.897 96.1175Z" fill="#8FC9F7"/>
<path d="M185.255 108.926L188.996 106.772L185.481 116.633L181.74 118.787L185.255 108.926Z" fill="#8FC9F7"/>
<path d="M186.955 104.165L190.696 102.012L194.211 116.52L190.356 118.674L186.955 104.165Z" fill="#64B4F5"/>
<path d="M183.667 102.351L187.409 100.198L190.696 102.011L186.955 104.165L183.667 102.351Z" fill="#8FC9F7"/>
<path d="M193.984 108.245L197.726 106.092L201.127 108.019L197.386 110.286L193.984 108.245Z" fill="#8FC9F7"/>
<path d="M190.356 118.674L193.984 108.246L197.386 110.286L192.284 124.908L188.542 122.754L185.255 108.926L181.74 118.787L177.885 116.633L172.897 96.1177L176.638 98.2713L180.039 112.553L183.667 102.352L186.955 104.165L190.356 118.674Z" fill="white"/>
<path d="M197.386 110.286L201.127 108.019L196.139 122.754L192.284 124.908L197.386 110.286Z" fill="#64B4F5"/>
<path d="M203.395 124.001L207.136 121.847V125.814L203.395 128.081V124.001Z" fill="#8FC9F7"/>
<path d="M211.671 132.842L215.412 130.688V133.976L211.671 136.129V132.842Z" fill="#64B4F5"/>
<path d="M203.395 128.081L207.136 125.814L215.412 130.688L211.671 132.841L203.395 128.081Z" fill="#8FC9F7"/>
<path d="M203.395 116.973L207.136 114.819V118.673L203.395 120.827V116.973Z" fill="#8FC9F7"/>
<path d="M203.395 120.827L207.136 118.673L214.279 122.754L210.537 124.907L203.395 120.827Z" fill="#8FC9F7"/>
<path d="M210.537 124.907L214.278 122.754V125.928L210.537 128.081V124.907Z" fill="#64B4F5"/>
<path d="M199.88 111.646L203.621 109.492L215.186 116.18L211.444 118.333L199.88 111.646Z" fill="#8FC9F7"/>
<path d="M203.394 124V128.081L211.671 132.841V136.128L199.88 129.328V111.646L211.444 118.333V121.62L203.394 116.973V120.827L210.537 124.907V128.081L203.394 124Z" fill="white"/>
<path d="M211.444 118.333L215.185 116.18V119.467L211.444 121.62V118.333Z" fill="#64B4F5"/>
<path d="M202.828 47.4917L199.086 49.6453C194.211 52.4789 194.098 61.4333 198.746 69.8209L202.487 67.7807C197.839 59.2797 197.952 50.3254 202.828 47.4917Z" fill="#1D87E5"/>
<path d="M211.897 77.7552C208.61 75.8284 205.322 72.5413 202.827 68.2341C202.714 68.1208 202.601 67.8941 202.601 67.7808L198.859 69.821C198.973 70.0477 199.086 70.161 199.2 70.3877C201.694 74.6949 204.982 77.9819 208.269 79.9088C211.557 81.8357 214.845 82.2891 217.339 80.8156L221.081 78.662C218.36 80.1355 215.072 79.6821 211.897 77.7552Z" fill="#1D87E5"/>
<path d="M221.875 85.5764L225.503 83.4229L226.863 85.5764L223.122 87.73L221.875 85.5764Z" fill="#1D87E5"/>
<path d="M220.627 58.1463L224.369 55.9927C230.718 66.8739 231.058 78.662 225.616 83.3092L221.875 85.4627C227.317 80.8155 226.863 69.1409 220.627 58.1463Z" fill="#1D87E5"/>
<path d="M195.912 43.9781L199.653 41.8245C203.054 39.8976 207.589 40.4644 212.011 43.0713C216.432 45.6783 220.967 50.2122 224.369 56.1062L220.627 58.2598C217.226 52.3657 212.804 47.8319 208.269 45.2249C203.734 42.618 199.313 41.9379 195.912 43.9781Z" fill="#1D87E5"/>
<path d="M220.627 58.1462C226.976 69.0275 227.316 80.8155 221.874 85.4627L223.122 87.6163L220.174 89.3165L218.927 87.1629C215.752 88.183 211.897 87.3896 208.156 85.236C203.734 82.629 199.199 78.0952 195.798 72.2012C188.996 60.4131 188.996 47.7183 195.912 43.8646C199.313 41.9377 203.848 42.5044 208.269 45.1114C212.691 47.7183 217.226 52.2522 220.627 58.1462ZM217.226 80.8155C222.215 77.9818 222.215 68.6874 217.339 60.0731C214.845 55.7659 211.557 52.4789 208.269 50.552C204.982 48.6251 201.694 48.1717 199.199 49.6452C194.211 52.4789 194.211 61.7733 199.086 70.3876C201.58 74.6948 204.868 77.9818 208.156 79.9087C211.444 81.8356 214.732 82.289 217.226 80.8155Z" fill="#1D87E5"/>
<path d="M219.267 89.9967L222.895 87.8431L223.915 87.2764L220.174 89.4299L219.267 89.9967Z" fill="#1D87E5"/>
<path d="M220.174 89.43L223.915 87.2764L226.863 85.5762L223.122 87.7298L220.174 89.43Z" fill="#1D87E5"/>
<path d="M223.122 87.7296L226.863 85.576L227.883 85.0093L224.142 87.1629L223.122 87.7296Z" fill="#1D87E5"/>
<path d="M239.334 112.326L243.076 110.172C243.076 110.626 243.076 110.852 243.076 111.306L239.334 113.459C239.334 113.006 239.334 112.779 239.334 112.326Z" fill="#1D87E5"/>
<path d="M224.142 87.1629L227.883 85.0093C228.224 85.236 228.45 85.3493 228.904 85.576L225.162 87.7296C224.709 87.5029 224.482 87.3895 224.142 87.1629Z" fill="#1D87E5"/>
<path d="M225.162 87.7298L239.334 112.326C239.334 112.779 239.334 113.006 239.334 113.459L234.459 116.293C234.119 116.066 233.892 115.953 233.439 115.726L219.267 91.1302C219.267 90.6768 219.267 90.4501 219.267 89.9967L220.287 89.43L223.235 87.7298L224.255 87.1631C224.482 87.3898 224.709 87.5031 225.162 87.7298Z" fill="#1D87E5"/>
<path d="M225.162 87.7298L228.79 85.5762L242.962 110.172L239.334 112.326L225.162 87.7298Z" fill="#1D87E5"/>
<path d="M199.54 49.3052L195.798 51.4588C190.923 54.2924 190.81 63.2468 195.458 71.6344L199.2 69.5942C194.551 61.0932 194.665 52.1388 199.54 49.3052Z" fill="#8FC9F7"/>
<path d="M208.496 79.682C205.208 77.7551 201.921 74.4681 199.426 70.1609C199.313 70.0476 199.2 69.8209 199.2 69.7075L195.458 71.7478C195.572 71.9744 195.685 72.0878 195.798 72.3145C198.293 76.6216 201.581 79.9087 204.868 81.8356C208.156 83.7625 211.444 84.2159 213.938 82.7424L217.68 80.5888C215.072 81.9489 211.784 81.4955 208.496 79.682Z" fill="#BADDF9"/>
<path d="M218.473 87.3899L222.215 85.2363L223.462 87.5033L219.834 89.6568L218.473 87.3899Z" fill="#64B4F5"/>
<path d="M217.226 60.073L220.968 57.9194C227.317 68.8007 227.657 80.5887 222.215 85.2359L218.473 87.3895C223.915 82.629 223.575 70.9543 217.226 60.073Z" fill="#8FC9F7"/>
<path d="M192.51 45.7916L196.252 43.638C199.653 41.7111 204.188 42.2778 208.61 44.8848C213.031 47.4918 217.566 52.0256 220.968 57.9196L217.226 60.0732C213.825 54.1792 209.403 49.6454 204.868 47.0384C200.447 44.4314 195.912 43.8647 192.51 45.7916Z" fill="#BADDF9"/>
<path d="M217.226 60.0735C223.575 70.9547 223.915 82.7427 218.473 87.3899L219.72 89.5435L216.773 91.2437L215.526 89.0901C212.351 90.1103 208.496 89.3168 204.755 87.1633C200.333 84.5563 195.798 80.0224 192.397 74.1284C185.595 62.3404 185.595 49.6456 192.51 45.7918C195.912 43.8649 200.447 44.4317 204.868 47.0386C209.403 49.6456 213.825 54.1794 217.226 60.0735ZM213.825 82.7427C218.813 79.9091 218.813 70.6147 213.938 62.0003C211.444 57.6932 208.156 54.4061 204.868 52.4792C201.58 50.5524 198.293 50.099 195.798 51.5725C190.81 54.4061 190.81 63.7005 195.685 72.3149C198.179 76.622 201.467 79.9091 204.755 81.836C208.043 83.6495 211.331 84.1029 213.825 82.7427Z" fill="white"/>
<path d="M215.866 91.8106L219.607 89.6571L220.627 89.0903L216.886 91.2439L215.866 91.8106Z" fill="#FE9F00"/>
<path d="M216.886 91.2439L220.627 89.0903L223.462 87.5034L219.834 89.657L216.886 91.2439Z" fill="#FE9F00"/>
<path d="M219.834 89.6568L223.462 87.5033L224.482 86.9365L220.741 89.0901L219.834 89.6568Z" fill="#FE9F00"/>
<path d="M235.933 114.14L239.674 111.986C239.674 112.44 239.674 112.666 239.674 113.12L235.933 115.273C235.933 114.82 235.933 114.593 235.933 114.14Z" fill="#FE6F00"/>
<path d="M220.741 89.0901L224.482 86.9365C224.822 87.1632 225.049 87.2766 225.502 87.5033L221.761 89.6568C221.421 89.4301 221.194 89.2035 220.741 89.0901Z" fill="#FEB200"/>
<path d="M221.761 89.5433L235.933 114.139C235.933 114.593 235.933 114.82 235.933 115.273L231.058 118.107C230.718 117.88 230.491 117.767 230.038 117.54L215.866 92.9437C215.866 92.4903 215.866 92.2636 215.866 91.8102L216.886 91.2435L219.834 89.5433L220.854 88.9766C221.194 89.2033 221.421 89.4299 221.761 89.5433Z" fill="#FE8E00"/>
<path d="M221.761 89.5437L225.503 87.5034L239.674 111.986L235.933 114.14L221.761 89.5437Z" fill="#FE9F00"/>
<path d="M117.456 84.6694L161.559 110.172L161.332 179.654L117.229 154.151L117.456 84.6694Z" fill="#E3F1FC"/>
<path d="M117.456 84.6694L121.651 82.1758L165.754 107.679L161.559 110.059L117.456 84.6694Z" fill="#BADDF9"/>
<path d="M161.559 110.059L165.754 107.679L165.527 177.16L161.332 179.654L161.559 110.059Z" fill="#42A4F5"/>
<path d="M156.911 168.659L156.797 170.926L135.936 158.798V156.531L156.911 168.659Z" fill="#546E7A"/>
<path d="M156.911 131.595V133.862L127.887 117.087V114.82L156.911 131.595Z" fill="#546E7A"/>
<path d="M156.911 159.705V161.972L135.936 149.844V147.577L156.911 159.705Z" fill="#546E7A"/>
<path d="M156.911 155.398V157.664L135.936 145.65V143.383L156.911 155.398Z" fill="#546E7A"/>
<path d="M156.911 140.663V142.93L121.084 122.187V119.92L156.911 140.663Z" fill="#546E7A"/>
<path d="M156.911 136.129V138.396L121.084 117.767V115.387L156.911 136.129Z" fill="#546E7A"/>
<path d="M156.911 164.353V166.62L135.936 154.605V152.338L156.911 164.353Z" fill="#546E7A"/>
<path d="M156.911 145.197V147.463L121.084 126.721V124.454L156.911 145.197Z" fill="#546E7A"/>
<path d="M142.058 111.646V113.913L121.198 101.898V99.5181L142.058 111.646Z" fill="#546E7A"/>
<path d="M142.058 107.339V109.719L121.198 97.5911V95.3242L142.058 107.339Z" fill="#546E7A"/>
<path d="M312.575 219.212L317.11 216.605L362.8 243.015L358.265 245.622L312.575 219.212Z" fill="#E3F1FC"/>
<path d="M312.688 165.939L317.336 163.332L317.11 216.605L312.575 219.212L312.688 165.939Z" fill="#64B4F5"/>
<path d="M312.688 165.939L317.336 163.332L362.913 189.628L358.378 192.349L312.688 165.939Z" fill="white"/>
<path d="M358.378 192.349L362.913 189.629L362.8 243.015L358.265 245.622L358.378 192.349Z" fill="white"/>
<path d="M309.854 160.271L361.326 189.968L361.099 266.704L309.627 237.007L309.854 160.271ZM358.265 245.621L358.378 192.349L312.688 166.052L312.575 219.325L358.265 245.621Z" fill="#BADDF9"/>
<path d="M361.326 190.083L365.861 187.362L365.634 264.211L361.099 266.818L361.326 190.083Z" fill="#42A4F5"/>
<path d="M309.854 160.272L314.389 157.665L365.861 187.362L361.326 190.082L309.854 160.272Z" fill="#E3F1FC"/>
<path d="M337.517 246.529V249.136L312.461 234.627V232.021L337.517 246.529Z" fill="#64B4F5"/>
<path d="M358.152 258.43V261.037L339.558 250.269V247.662L358.152 258.43Z" fill="#64B4F5"/>
<path d="M325.84 234.741V237.348L312.461 229.64V227.033L325.84 234.741Z" fill="#64B4F5"/>
<path d="M342.506 244.376V246.982L329.127 239.275V236.668L342.506 244.376Z" fill="#64B4F5"/>
<path d="M347.608 242.448V245.055L312.575 224.766V222.159L347.608 242.448Z" fill="#64B4F5"/>
<path d="M336.157 205.497C336.837 205.837 337.404 206.064 337.971 206.29C341.485 207.424 344.206 205.27 344.206 200.963C344.206 195.862 340.692 189.742 336.27 187.135C335.817 186.908 335.363 186.681 334.91 186.455C331.168 185.095 328.334 187.135 328.334 191.669C328.107 196.769 331.735 203.003 336.157 205.497ZM342.392 208.557C342.279 208.444 342.166 208.331 342.166 208.331C342.052 208.217 341.825 208.217 341.712 208.331C340.805 209.124 339.218 208.671 337.857 208.104C337.177 207.877 336.61 207.537 336.157 207.197C334.796 206.404 331.962 204.477 330.488 201.756C330.375 201.53 330.261 201.416 330.035 201.303C329.921 201.303 329.808 201.19 329.808 201.19C323.119 201.416 320.171 199.83 320.171 210.484C322.779 213.884 327.087 217.512 334.91 222.159C335.25 222.385 335.703 222.612 336.043 222.839C344.66 227.826 349.195 229.413 351.916 228.846C352.029 218.305 349.081 216.491 342.392 208.557Z" fill="#FE8E00"/>
<path d="M367.108 120.714C367.108 122.981 365.18 124.908 362.913 124.908C360.645 124.908 358.718 122.981 358.718 120.714C358.718 118.447 360.645 116.52 362.913 116.52C365.18 116.52 367.108 118.447 367.108 120.714Z" fill="#1D87E5"/>
<path d="M397.832 154.944C397.832 156.644 396.472 158.004 394.771 158.004C393.071 158.004 391.71 156.644 391.71 154.944C391.71 153.244 393.071 151.884 394.771 151.884C396.472 151.884 397.832 153.244 397.832 154.944Z" fill="#BADDF9"/>
<path d="M395.225 48.9654C396.665 48.9654 397.832 47.7982 397.832 46.3584C397.832 44.9186 396.665 43.7515 395.225 43.7515C393.785 43.7515 392.617 44.9186 392.617 46.3584C392.617 47.7982 393.785 48.9654 395.225 48.9654Z" fill="#BADDF9"/>
<path d="M326.066 33.6637C327.068 33.6637 327.88 32.8518 327.88 31.8502C327.88 30.8486 327.068 30.0366 326.066 30.0366C325.064 30.0366 324.252 30.8486 324.252 31.8502C324.252 32.8518 325.064 33.6637 326.066 33.6637Z" fill="#1D87E5"/>
<path d="M137.524 42.3914C137.524 43.6382 136.503 44.6584 135.256 44.6584C134.009 44.6584 132.989 43.6382 132.989 42.3914C132.989 41.1446 134.009 40.1245 135.256 40.1245C136.503 40.1245 137.524 41.1446 137.524 42.3914Z" fill="#E3F1FC"/>
<path d="M89.226 79.3424C89.226 81.2693 87.6387 82.9695 85.598 82.9695C83.6706 82.9695 81.97 81.3826 81.97 79.3424C81.97 77.4155 83.5572 75.7153 85.598 75.7153C87.6387 75.7153 89.226 77.3022 89.226 79.3424Z" fill="#1D87E5"/>
<path d="M190.13 227.259C190.13 228.506 189.109 229.526 187.862 229.526C186.615 229.526 185.595 228.506 185.595 227.259C185.595 226.012 186.615 224.992 187.862 224.992C189.109 224.992 190.13 226.012 190.13 227.259Z" fill="#1D87E5"/>
<path d="M285.138 235.08C285.138 236.214 284.231 237.007 283.211 237.007C282.19 237.007 281.283 236.1 281.283 235.08C281.283 233.947 282.19 233.153 283.211 233.153C284.231 233.153 285.138 233.947 285.138 235.08Z" fill="#1D87E5"/>
<path d="M118.93 204.703L138.204 202.663L149.881 222.612L118.93 204.703Z" fill="#BADDF9"/>
<path d="M138.204 202.663L159.745 190.195L180.606 204.704L149.881 222.612L138.204 202.663Z" fill="#E3F1FC"/>
<path d="M138.204 202.663L118.93 204.704L149.655 186.908L159.745 190.195L138.204 202.663Z" fill="white"/>
</svg>
