<svg width="20" height="18" viewBox="0 0 20 18" fill="none" xmlns="http://www.w3.org/2000/svg">
<path d="M11.7578 17.8281H11.1719C9.75707 17.8281 8.57328 16.82 8.30105 15.4844H2.78215C1.24805 15.4844 0 14.2363 0 12.7022V10.0243C0 8.49023 1.24805 7.24219 2.78215 7.24219H12.8926C13.57 7.24219 14.1211 6.69105 14.1211 6.01363V5.26051C12.7995 5.15 11.7578 4.03906 11.7578 2.68937V0.171875H13.8846C14.6872 0.171875 15.4053 0.540156 15.8789 1.1166C16.3525 0.540156 17.0706 0.171875 17.8732 0.171875H20V2.68937C20 4.03906 18.9584 5.15 17.6367 5.26051V9.86113C17.6367 12.9618 15.1142 15.4844 12.0135 15.4844H11.7578V17.8281ZM2.78215 8.41406C1.89422 8.41406 1.17188 9.13641 1.17188 10.0243V12.7023C1.17188 13.5902 1.89422 14.3125 2.78215 14.3125H9.41406V14.8984C9.41406 15.6623 9.90387 16.314 10.5859 16.5559V14.3125H12.0135C14.468 14.3125 16.4648 12.3156 16.4648 9.86113V4.09766H17.4198C18.1964 4.09766 18.8281 3.4659 18.8281 2.68937V1.34375H17.8732C17.0966 1.34375 16.4648 1.97551 16.4648 2.75203H15.293C15.293 1.97551 14.6612 1.34375 13.8846 1.34375H12.9297V2.68937C12.9297 3.4659 13.5614 4.09766 14.338 4.09766H15.293V6.01363C15.293 7.33723 14.2162 8.41406 12.8926 8.41406H2.78215Z" fill="white"/>
<path d="M7.07031 11.9688H8.24219V13.1406H7.07031V11.9688Z" fill="white"/>
</svg>
