<svg width="60" height="60" viewBox="0 0 60 60" fill="none" xmlns="http://www.w3.org/2000/svg">
<g clip-path="url(#clip0_605_11)">
<path d="M42.5774 28.8721C42.8787 28.8721 43.1732 28.7827 43.4238 28.6153C43.6743 28.4479 43.8696 28.21 43.9849 27.9316C44.1002 27.6533 44.1303 27.3469 44.0716 27.0514C44.0128 26.7559 43.8677 26.4845 43.6546 26.2714C43.4416 26.0583 43.1701 25.9133 42.8746 25.8545C42.5791 25.7957 42.2728 25.8259 41.9944 25.9412C41.716 26.0565 41.4781 26.2517 41.3107 26.5023C41.1433 26.7528 41.054 27.0473 41.054 27.3486C41.0545 27.7525 41.2151 28.1397 41.5007 28.4253C41.7863 28.7109 42.1735 28.8716 42.5774 28.8721ZM42.5774 27.2314C42.6085 27.2314 42.6383 27.2438 42.6603 27.2658C42.6822 27.2877 42.6946 27.3176 42.6946 27.3486C42.6946 27.4775 42.4602 27.4775 42.4602 27.3486C42.4602 27.3176 42.4726 27.2877 42.4945 27.2658C42.5165 27.2438 42.5463 27.2314 42.5774 27.2314Z" fill="url(#paint0_linear_605_11)"/>
<path d="M54.6455 20.4669H22.2277C20.1599 20.4653 18.1302 19.9099 16.3497 18.8585C14.5691 17.807 13.1027 16.298 12.1027 14.488C13.3183 14.084 14.3763 13.3085 15.1275 12.2709C15.8788 11.2333 16.2852 9.98604 16.2895 8.70506V6.1874C16.2899 6.07942 16.2689 5.97244 16.2278 5.87258C16.1868 5.77273 16.1263 5.68197 16.0501 5.60553C15.9738 5.52909 15.8832 5.46847 15.7834 5.42715C15.6837 5.38583 15.5767 5.36462 15.4688 5.36475H12.9502C12.0233 5.36623 11.1089 5.57881 10.2764 5.98637C9.44387 6.39392 8.71514 6.98575 8.14547 7.71693C7.57564 6.98582 6.84681 6.39405 6.01425 5.9865C5.1817 5.57895 4.26727 5.36633 3.34032 5.36475H0.820317C0.712377 5.36468 0.605488 5.38594 0.505782 5.42729C0.406076 5.46864 0.315516 5.52927 0.2393 5.6057C0.163084 5.68213 0.102712 5.77287 0.0616472 5.87269C0.0205827 5.97251 -0.000365484 6.07946 4.82509e-06 6.1874V8.7074C0.00928404 10.1416 0.520812 11.5273 1.44569 12.6235C2.37056 13.7197 3.65031 14.4573 5.06251 14.7079L11.3906 30.2066C13.3177 34.9532 16.6011 39.0265 20.8303 41.9174C18.4353 44.8472 17.1214 48.5119 17.1094 52.296V53.8147C17.1093 53.9398 17.1379 54.0632 17.1928 54.1756C17.2478 54.2879 17.3278 54.3862 17.4266 54.4629C17.5254 54.5396 17.6404 54.5926 17.7629 54.618C17.8853 54.6434 18.012 54.6404 18.1331 54.6093L20.8519 53.9146C22.9902 53.3659 24.9955 52.3907 26.7472 51.0474C28.499 49.704 29.9612 48.0204 31.0458 46.0977C32.5717 46.3746 34.1192 46.5158 35.67 46.5196H39.3023C44.7906 46.5159 50.0531 44.334 53.9339 40.4531C57.8146 36.5722 59.9964 31.3098 60 25.8215C59.9984 24.4018 59.4337 23.0408 58.4299 22.037C57.4261 21.0332 56.0651 20.4685 54.6455 20.4669ZM20.4459 52.3251L18.75 52.7587V52.2927C18.7644 48.5932 20.16 45.0325 22.6631 42.3083L22.6692 42.3013C22.6763 42.2943 22.6805 42.2854 22.687 42.2783C23.0859 41.8491 23.5098 41.4437 23.9564 41.0643L28.4208 37.2824C28.582 37.1404 28.6812 36.9408 28.6968 36.7266C28.7125 36.5123 28.6435 36.3004 28.5046 36.1365C28.3657 35.9726 28.1681 35.8697 27.9541 35.8499C27.7402 35.8301 27.527 35.8951 27.3605 36.0308L22.8966 39.8122C22.5684 40.0893 22.2549 40.386 21.9488 40.6902C17.894 37.975 14.7451 34.1078 12.908 29.5869L6.39891 13.6462C6.34189 13.5064 6.24738 13.385 6.12579 13.2955C6.0042 13.206 5.86027 13.1519 5.70985 13.139C4.60195 13.0375 3.57148 12.5273 2.81923 11.7076C2.06698 10.8879 1.64683 9.81758 1.64063 8.70506V7.00537H3.34032C4.19726 7.00724 5.03555 7.25576 5.75506 7.72124C6.47456 8.18673 7.04485 8.84949 7.39782 9.63037C7.46277 9.77425 7.56786 9.89634 7.70048 9.98197C7.8331 10.0676 7.98761 10.1132 8.14547 10.1132C8.30334 10.1132 8.45785 10.0676 8.59047 9.98197C8.72308 9.89634 8.82818 9.77425 8.89313 9.63037C9.24592 8.84946 9.81611 8.18664 10.5355 7.72115C11.255 7.25565 12.0933 7.00716 12.9502 7.00537H14.6498V8.70506C14.6462 9.7801 14.2546 10.8177 13.5472 11.6272C12.8397 12.4367 11.8639 12.9637 10.7991 13.1113C10.6729 13.1283 10.5524 13.1745 10.4472 13.2462C10.342 13.3179 10.2549 13.4131 10.1929 13.5242C10.1309 13.6354 10.0956 13.7595 10.0898 13.8867C10.084 14.0138 10.108 14.1406 10.1597 14.2569C11.1973 16.5918 12.8894 18.576 15.0311 19.9693C17.1729 21.3626 19.6726 22.1053 22.2277 22.1076H54.6455C55.6301 22.1087 56.5741 22.5003 57.2704 23.1966C57.9666 23.8928 58.3583 24.8368 58.3594 25.8215C58.3583 26.7804 58.2852 27.738 58.1405 28.686H53.0358C51.0522 28.6901 49.0898 29.0932 47.2653 29.8715C45.4408 30.6497 43.7916 31.7871 42.4158 33.216C41.1933 34.4854 39.7279 35.496 38.1069 36.1874C36.4858 36.8788 34.7422 37.237 32.9799 37.2407H32.3438C32.236 37.2406 32.1293 37.2618 32.0298 37.303C31.9302 37.3442 31.8398 37.4046 31.7636 37.4808C31.6874 37.557 31.627 37.6474 31.5858 37.747C31.5446 37.8466 31.5234 37.9533 31.5234 38.061C31.5217 41.3308 30.4323 44.5071 28.4267 47.0895C26.4212 49.672 23.6135 51.5139 20.4459 52.3251ZM50.9236 40.9218H38.4375C38.2199 40.9218 38.0113 41.0082 37.8575 41.162C37.7036 41.3159 37.6172 41.5245 37.6172 41.7421C37.6172 41.9597 37.7036 42.1683 37.8575 42.3221C38.0113 42.476 38.2199 42.5624 38.4375 42.5624H48.3994C45.6085 44.0831 42.4807 44.8793 39.3023 44.878H35.6719C34.3782 44.876 33.0866 44.7716 31.8094 44.5658C32.5902 42.7652 33.0425 40.8394 33.1448 38.8794C35.1008 38.8538 37.0322 38.4403 38.8272 37.6629C40.6222 36.8854 42.245 35.7595 43.6017 34.3504C44.8242 33.0809 46.2896 32.0704 47.9106 31.379C49.5317 30.6875 51.2753 30.3293 53.0377 30.3257H57.8189C57.5463 31.4514 57.1711 32.5497 56.6981 33.6069H49.5117C49.2942 33.6069 49.0855 33.6934 48.9317 33.8472C48.7778 34.001 48.6914 34.2097 48.6914 34.4272C48.6914 34.6448 48.7778 34.8535 48.9317 35.0073C49.0855 35.1611 49.2942 35.2476 49.5117 35.2476H55.8633C55.4697 35.9388 55.0331 36.6047 54.5559 37.2412C54.5503 37.2412 54.5452 37.2412 54.54 37.2412H44.722C44.5045 37.2412 44.2958 37.3276 44.142 37.4814C43.9881 37.6353 43.9017 37.8439 43.9017 38.0615C43.9017 38.279 43.9881 38.4877 44.142 38.6415C44.2958 38.7954 44.5045 38.8818 44.722 38.8818H53.1806C52.4838 39.6207 51.729 40.3029 50.9236 40.9218Z" fill="url(#paint1_linear_605_11)"/>
</g>
<defs>
<linearGradient id="paint0_linear_605_11" x1="41.054" y1="28.8721" x2="44.0266" y2="25.7544" gradientUnits="userSpaceOnUse">
<stop stop-color="#3A67F6"/>
<stop offset="1" stop-color="#71E6FC"/>
</linearGradient>
<linearGradient id="paint1_linear_605_11" x1="1.67638e-06" y1="54.635" x2="46.7195" y2="-5.03363" gradientUnits="userSpaceOnUse">
<stop stop-color="#3A67F6"/>
<stop offset="1" stop-color="#71E6FC"/>
</linearGradient>
<clipPath id="clip0_605_11">
<rect width="60" height="60" fill="white"/>
</clipPath>
</defs>
</svg>
