<svg id="Layer_1" data-name="Layer 1" xmlns="http://www.w3.org/2000/svg" viewBox="0 0 1618.75 562.87"><defs><style>.cls-1{fill:#fff;}</style></defs><title>X100_White</title><polygon class="cls-1" points="545.78 6.9 388.27 6.9 0 487.66 157.51 487.66 272.89 344.79 388.27 487.66 545.78 487.66 351.65 247.28 545.78 6.9"/><polygon class="cls-1" points="249.85 121.24 157.51 6.9 0 6.9 171.1 218.75 249.85 121.24"/><path class="cls-1" d="M1035.71,487l-28.09-77.17h21l18.27,59h.75l18-59h20.09L1057.8,487Z"/><path class="cls-1" d="M1150.66,487h-55.75V409.86h55.75v13.22h-37.8v18.78h35.54v12.32h-35.54V473.8h37.8Z"/><path class="cls-1" d="M1165.8,487V409.86h14.83l36.54,49.52h.62V409.86h17V487h-14.76l-36.61-49.87h-.62V487Z"/><path class="cls-1" d="M1268.48,487V423.42h-24V409.86h66v13.56h-24V487Z"/><path class="cls-1" d="M1337.37,458.59c0,10.4,6.69,16.06,16.83,16.06s16.83-5.71,16.83-16.06V409.86h18.08v50.43c0,17-13.7,28.21-34.91,28.21s-34.91-11.31-34.91-28.33V409.86h18.08Z"/><path class="cls-1" d="M1471,434.51c0,12.72-9.19,19.44-15.45,21.71L1472.64,487H1452.5l-14.83-28.38h-14.08V487h-17.83V409.86h34.79C1461.07,409.86,1471,420.6,1471,434.51Zm-33.28,12.15c9,0,14.64-4.13,14.64-11.87,0-8.2-6.13-12.38-14.39-12.38h-14.33v24.25Z"/><path class="cls-1" d="M1541,487h-55.75V409.86H1541v13.22h-37.79v18.78h35.54v12.32h-35.54V473.8H1541Z"/><path class="cls-1" d="M1568.38,464.87c.5,5.71,6.19,10.79,17,10.79,10.07,0,15.45-4.07,15.45-10.06,0-5.26-4.38-7.8-13-9.55L1575,453.39c-12-2.32-22-8.43-22-21.54,0-15.15,14.26-23.58,32.34-23.58,19.09,0,31.91,9.5,32.1,23.13h-16.89c-.44-5.43-5.38-10.46-15.27-10.46-8.76,0-14.2,3.73-14.2,9.66,0,4.47,4,7.47,11.64,8.88l13,2.6c12.51,2.43,23.09,7.92,23.09,21.94,0,15.15-13.08,24.48-34.23,24.48-25.15,0-33.29-12.72-33.54-23.63Z"/><path class="cls-1" d="M1388.37,134.75q11.27-30.89,37.82-30.89T1464,135.91q8.4,23.9,10.54,74.39c61.47-1.11,109.34,2.66,142.88,7q-5.43-100.67-47.76-155Q1521.13,0,1426.19,0q-97.47,0-144.76,59.82-44.94,56.87-47.13,175.56c52.17-9.5,100-15.8,143.3-19.73Q1379.46,159.22,1388.37,134.75Z"/><path class="cls-1" d="M1543.17,255.88l.18-.1c-70.12-12.31-135.61-18.34-196.69-19.35a1061.78,1061.78,0,0,0-164.91,9q-.46-121.48-48.53-183.2Q1084.67,0,989.73,0,892.26,0,845,59.82t-47.29,188q0,80.28,20.91,134.49a729.39,729.39,0,0,0-86.24,69.9V6.9H588l-65,85.47h65V487.42H697.78a552.8,552.8,0,0,0-47.26,59c-7.55,10.41-11.21,16.44-11.21,16.44l1.37-1.19-.3.52c386.75-324.78,821.7-185.92,821.7-185.92s34.43-29.84,156.08-105.58Q1579.79,262.15,1543.17,255.88Zm-602.54-8.06q0-82.17,11.28-113.07t37.82-30.89q26.55,0,37.83,32.05t11.28,111.91c0,10.24-.16,19.81-.44,28.85a824.66,824.66,0,0,0-95.33,35.68C941.45,294.47,940.63,273,940.63,247.82Z"/></svg>