<svg width="20" height="20" viewBox="0 0 20 20" fill="none" xmlns="http://www.w3.org/2000/svg">
<g clip-path="url(#clip0_2529_2540)">
<path d="M13.0784 9.10126L8.65991 6.68366C8.40585 6.54465 8.10556 6.54984 7.85654 6.69739C7.60736 6.8451 7.45874 7.10602 7.45874 7.39563V12.1893C7.45874 12.4776 7.60644 12.738 7.85394 12.8859C7.98318 12.9631 8.12646 13.0019 8.27005 13.0019C8.40158 13.0019 8.53341 12.9694 8.65472 12.9041L13.0733 10.5281C13.3356 10.387 13.4994 10.1143 13.5006 9.81629C13.5017 9.51828 13.3399 9.24439 13.0784 9.10126ZM8.63076 11.5863V8.00354L11.9331 9.81049L8.63076 11.5863Z" fill="white"/>
<path d="M19.8529 5.99716L19.852 5.98801C19.8351 5.82703 19.6664 4.39514 18.9703 3.66684C18.1657 2.81021 17.2536 2.70615 16.8149 2.65625C16.7786 2.65213 16.7453 2.64832 16.7155 2.64435L16.6806 2.64069C14.0366 2.44843 10.0435 2.42218 10.0035 2.42203L10 2.42188L9.99649 2.42203C9.95651 2.42218 5.96344 2.44843 3.29559 2.64069L3.26035 2.64435C3.23196 2.64816 3.20068 2.65167 3.16666 2.65564C2.733 2.70569 1.8306 2.80991 1.02371 3.69751C0.360718 4.41803 0.169067 5.81924 0.149384 5.97672L0.147095 5.99716C0.141144 6.06415 0 7.65884 0 9.2598V10.7564C0 12.3573 0.141144 13.952 0.147095 14.0192L0.148163 14.0292C0.1651 14.1876 0.333557 15.5933 1.02646 16.3219C1.78299 17.1498 2.73956 17.2594 3.25409 17.3183C3.33542 17.3276 3.40546 17.3355 3.45322 17.3439L3.49945 17.3503C5.02609 17.4956 9.81262 17.5671 10.0156 17.57L10.0217 17.5702L10.0278 17.57C10.0677 17.5699 14.0607 17.5436 16.7047 17.3514L16.7397 17.3477C16.7731 17.3433 16.8106 17.3393 16.8518 17.3351C17.283 17.2893 18.1805 17.1942 18.9763 16.3187C19.6393 15.598 19.8311 14.1968 19.8506 14.0395L19.8529 14.019C19.8589 13.9519 20.0002 12.3573 20.0002 10.7564V9.2598C20 7.65884 19.8589 6.0643 19.8529 5.99716ZM18.828 10.7564C18.828 12.2382 18.6986 13.7642 18.6864 13.9043C18.6366 14.2902 18.4344 15.1767 18.1114 15.5278C17.6134 16.0757 17.1017 16.1301 16.7282 16.1696C16.683 16.1743 16.6412 16.1789 16.6034 16.1836C14.046 16.3686 10.2037 16.3969 10.0267 16.398C9.82819 16.3951 5.11169 16.3229 3.63159 16.1855C3.55576 16.1731 3.47382 16.1636 3.38745 16.1539C2.94937 16.1037 2.3497 16.035 1.88858 15.5278L1.87775 15.5162C1.56036 15.1855 1.36398 14.3565 1.31409 13.9088C1.30478 13.8029 1.17203 12.2589 1.17203 10.7564V9.2598C1.17203 7.77969 1.30112 6.25534 1.31363 6.11237C1.37299 5.65781 1.57898 4.82498 1.88858 4.48837C2.40189 3.9238 2.94312 3.86124 3.30109 3.81989C3.33527 3.81592 3.36716 3.81226 3.39661 3.80844C5.99121 3.62259 9.86115 3.59497 10 3.5939C10.1389 3.59482 14.0074 3.62259 16.579 3.80844C16.6106 3.81241 16.6451 3.81638 16.6821 3.82065C17.0503 3.86261 17.6068 3.92609 18.1175 4.47083L18.1223 4.47586C18.4396 4.80652 18.636 5.65002 18.6859 6.10672C18.6948 6.20667 18.828 7.75406 18.828 9.2598V10.7564Z" fill="white"/>
</g>
<defs>
<clipPath id="clip0_2529_2540">
<rect width="20.0001" height="20" fill="white"/>
</clipPath>
</defs>
</svg>
